%TF.GenerationSoftware,KiCad,Pcbnew,6.0.11-2627ca5db0~126~ubuntu22.04.1*%
%TF.CreationDate,2023-04-10T19:38:19+02:00*%
%TF.ProjectId,Slicor_carte_v_rin,536c6963-6f72-45f6-9361-7274655f76e9,rev?*%
%TF.SameCoordinates,Original*%
%TF.FileFunction,Copper,L1,Top*%
%TF.FilePolarity,Positive*%
%FSLAX46Y46*%
G04 Gerber Fmt 4.6, Leading zero omitted, Abs format (unit mm)*
G04 Created by KiCad (PCBNEW 6.0.11-2627ca5db0~126~ubuntu22.04.1) date 2023-04-10 19:38:19*
%MOMM*%
%LPD*%
G01*
G04 APERTURE LIST*
G04 Aperture macros list*
%AMRoundRect*
0 Rectangle with rounded corners*
0 $1 Rounding radius*
0 $2 $3 $4 $5 $6 $7 $8 $9 X,Y pos of 4 corners*
0 Add a 4 corners polygon primitive as box body*
4,1,4,$2,$3,$4,$5,$6,$7,$8,$9,$2,$3,0*
0 Add four circle primitives for the rounded corners*
1,1,$1+$1,$2,$3*
1,1,$1+$1,$4,$5*
1,1,$1+$1,$6,$7*
1,1,$1+$1,$8,$9*
0 Add four rect primitives between the rounded corners*
20,1,$1+$1,$2,$3,$4,$5,0*
20,1,$1+$1,$4,$5,$6,$7,0*
20,1,$1+$1,$6,$7,$8,$9,0*
20,1,$1+$1,$8,$9,$2,$3,0*%
G04 Aperture macros list end*
%TA.AperFunction,SMDPad,CuDef*%
%ADD10RoundRect,0.250000X-0.312500X-0.625000X0.312500X-0.625000X0.312500X0.625000X-0.312500X0.625000X0*%
%TD*%
%TA.AperFunction,ComponentPad*%
%ADD11RoundRect,0.250000X0.750000X-0.600000X0.750000X0.600000X-0.750000X0.600000X-0.750000X-0.600000X0*%
%TD*%
%TA.AperFunction,ComponentPad*%
%ADD12O,2.000000X1.700000*%
%TD*%
%TA.AperFunction,SMDPad,CuDef*%
%ADD13R,1.200000X1.400000*%
%TD*%
%TA.AperFunction,ComponentPad*%
%ADD14RoundRect,0.250000X0.725000X-0.600000X0.725000X0.600000X-0.725000X0.600000X-0.725000X-0.600000X0*%
%TD*%
%TA.AperFunction,ComponentPad*%
%ADD15O,1.950000X1.700000*%
%TD*%
%TA.AperFunction,SMDPad,CuDef*%
%ADD16RoundRect,0.250001X2.049999X0.799999X-2.049999X0.799999X-2.049999X-0.799999X2.049999X-0.799999X0*%
%TD*%
%TA.AperFunction,ComponentPad*%
%ADD17C,0.900000*%
%TD*%
%TA.AperFunction,ComponentPad*%
%ADD18C,8.000000*%
%TD*%
%TA.AperFunction,SMDPad,CuDef*%
%ADD19RoundRect,0.250001X-0.799999X2.049999X-0.799999X-2.049999X0.799999X-2.049999X0.799999X2.049999X0*%
%TD*%
%TA.AperFunction,SMDPad,CuDef*%
%ADD20R,1.600000X0.550000*%
%TD*%
%TA.AperFunction,SMDPad,CuDef*%
%ADD21R,0.550000X1.600000*%
%TD*%
%TA.AperFunction,ComponentPad*%
%ADD22R,3.000000X3.000000*%
%TD*%
%TA.AperFunction,ComponentPad*%
%ADD23C,3.000000*%
%TD*%
%TA.AperFunction,ComponentPad*%
%ADD24RoundRect,0.250000X-0.600000X-0.750000X0.600000X-0.750000X0.600000X0.750000X-0.600000X0.750000X0*%
%TD*%
%TA.AperFunction,ComponentPad*%
%ADD25O,1.700000X2.000000*%
%TD*%
%TA.AperFunction,ComponentPad*%
%ADD26RoundRect,0.250000X-0.600000X-0.725000X0.600000X-0.725000X0.600000X0.725000X-0.600000X0.725000X0*%
%TD*%
%TA.AperFunction,ComponentPad*%
%ADD27O,1.700000X1.950000*%
%TD*%
%TA.AperFunction,SMDPad,CuDef*%
%ADD28RoundRect,0.075000X-0.075000X0.125000X-0.075000X-0.125000X0.075000X-0.125000X0.075000X0.125000X0*%
%TD*%
%TA.AperFunction,SMDPad,CuDef*%
%ADD29R,1.100000X4.600000*%
%TD*%
%TA.AperFunction,SMDPad,CuDef*%
%ADD30R,10.800000X9.400000*%
%TD*%
%TA.AperFunction,SMDPad,CuDef*%
%ADD31RoundRect,0.075000X0.075000X-0.125000X0.075000X0.125000X-0.075000X0.125000X-0.075000X-0.125000X0*%
%TD*%
%TA.AperFunction,SMDPad,CuDef*%
%ADD32R,1.400000X2.100000*%
%TD*%
%TA.AperFunction,ComponentPad*%
%ADD33R,1.700000X1.700000*%
%TD*%
%TA.AperFunction,ComponentPad*%
%ADD34O,1.700000X1.700000*%
%TD*%
%TA.AperFunction,SMDPad,CuDef*%
%ADD35R,2.200000X1.500000*%
%TD*%
%TA.AperFunction,ViaPad*%
%ADD36C,0.600000*%
%TD*%
%TA.AperFunction,ViaPad*%
%ADD37C,0.800000*%
%TD*%
%TA.AperFunction,Conductor*%
%ADD38C,0.300000*%
%TD*%
%TA.AperFunction,Conductor*%
%ADD39C,0.800000*%
%TD*%
%TA.AperFunction,Conductor*%
%ADD40C,4.000000*%
%TD*%
%TA.AperFunction,Conductor*%
%ADD41C,0.600000*%
%TD*%
G04 APERTURE END LIST*
D10*
%TO.P,R2,1*%
%TO.N,+5V*%
X131987500Y-113000000D03*
%TO.P,R2,2*%
%TO.N,Contacteur_B*%
X134912500Y-113000000D03*
%TD*%
%TO.P,R1,1*%
%TO.N,+5V*%
X132075000Y-125500000D03*
%TO.P,R1,2*%
%TO.N,Contacteur_A*%
X135000000Y-125500000D03*
%TD*%
D11*
%TO.P,J9,1,Pin_1*%
%TO.N,GND*%
X140000000Y-115750000D03*
D12*
%TO.P,J9,2,Pin_2*%
%TO.N,Contacteur_B*%
X140000000Y-113250000D03*
%TD*%
D11*
%TO.P,J8,1,Pin_1*%
%TO.N,GND*%
X140000000Y-128250000D03*
D12*
%TO.P,J8,2,Pin_2*%
%TO.N,Contacteur_A*%
X140000000Y-125750000D03*
%TD*%
D13*
%TO.P,Y1,4*%
%TO.N,N/C*%
X90250000Y-108550000D03*
%TO.P,Y1,3*%
X90250000Y-110750000D03*
%TO.P,Y1,2,2*%
%TO.N,Net-(C4-Pad1)*%
X88550000Y-110750000D03*
%TO.P,Y1,1,1*%
%TO.N,Net-(C3-Pad1)*%
X88550000Y-108550000D03*
%TD*%
D14*
%TO.P,J5,1,Pin_1*%
%TO.N,+5V*%
X139750000Y-102750000D03*
D15*
%TO.P,J5,2,Pin_2*%
%TO.N,A*%
X139750000Y-100250000D03*
%TO.P,J5,3,Pin_3*%
%TO.N,B*%
X139750000Y-97750000D03*
%TO.P,J5,4,Pin_4*%
%TO.N,GND*%
X139750000Y-95250000D03*
%TD*%
D16*
%TO.P,C2,1*%
%TO.N,+5V*%
X79838000Y-78486000D03*
%TO.P,C2,2*%
%TO.N,GND*%
X71038000Y-78486000D03*
%TD*%
D17*
%TO.P,H2,1,1*%
%TO.N,GND*%
X57878680Y-142121320D03*
X62121320Y-137878680D03*
X63000000Y-140000000D03*
X60000000Y-137000000D03*
X57000000Y-140000000D03*
X62121320Y-142121320D03*
X60000000Y-143000000D03*
X57878680Y-137878680D03*
D18*
X60000000Y-140000000D03*
%TD*%
D19*
%TO.P,C1,1*%
%TO.N,+24V*%
X107188000Y-55798000D03*
%TO.P,C1,2*%
%TO.N,GND*%
X107188000Y-64598000D03*
%TD*%
D20*
%TO.P,uC1,1,PD3*%
%TO.N,B*%
X96070000Y-103754000D03*
%TO.P,uC1,2,PD4*%
%TO.N,unconnected-(uC1-Pad2)*%
X96070000Y-104554000D03*
%TO.P,uC1,3,GND*%
%TO.N,GND*%
X96070000Y-105354000D03*
%TO.P,uC1,4,VCC*%
%TO.N,+5V*%
X96070000Y-106154000D03*
%TO.P,uC1,5,GND*%
%TO.N,GND*%
X96070000Y-106954000D03*
%TO.P,uC1,6,VCC*%
%TO.N,+5V*%
X96070000Y-107754000D03*
%TO.P,uC1,7,XTAL1/PB6*%
%TO.N,Net-(C3-Pad1)*%
X96070000Y-108554000D03*
%TO.P,uC1,8,XTAL2/PB7*%
%TO.N,Net-(C4-Pad1)*%
X96070000Y-109354000D03*
D21*
%TO.P,uC1,9,PD5*%
%TO.N,Pwm_Bridge_A*%
X97520000Y-110804000D03*
%TO.P,uC1,10,PD6*%
%TO.N,Pwm_Bridge_B*%
X98320000Y-110804000D03*
%TO.P,uC1,11,PD7*%
%TO.N,IN1_A*%
X99120000Y-110804000D03*
%TO.P,uC1,12,PB0*%
%TO.N,IN2_A*%
X99920000Y-110804000D03*
%TO.P,uC1,13,PB1*%
%TO.N,IN1_B*%
X100720000Y-110804000D03*
%TO.P,uC1,14,PB2*%
%TO.N,IN2_B*%
X101520000Y-110804000D03*
%TO.P,uC1,15,PB3*%
%TO.N,MOSI*%
X102320000Y-110804000D03*
%TO.P,uC1,16,PB4*%
%TO.N,MISO*%
X103120000Y-110804000D03*
D20*
%TO.P,uC1,17,PB5*%
%TO.N,SCK*%
X104570000Y-109354000D03*
%TO.P,uC1,18,AVCC*%
%TO.N,+5V*%
X104570000Y-108554000D03*
%TO.P,uC1,19,ADC6*%
%TO.N,unconnected-(uC1-Pad19)*%
X104570000Y-107754000D03*
%TO.P,uC1,20,AREF*%
%TO.N,+5V*%
X104570000Y-106954000D03*
%TO.P,uC1,21,GND*%
%TO.N,GND*%
X104570000Y-106154000D03*
%TO.P,uC1,22,ADC7*%
%TO.N,unconnected-(uC1-Pad22)*%
X104570000Y-105354000D03*
%TO.P,uC1,23,PC0*%
%TO.N,Contacteur_A*%
X104570000Y-104554000D03*
%TO.P,uC1,24,PC1*%
%TO.N,Contacteur_B*%
X104570000Y-103754000D03*
D21*
%TO.P,uC1,25,PC2*%
%TO.N,unconnected-(uC1-Pad25)*%
X103120000Y-102304000D03*
%TO.P,uC1,26,PC3*%
%TO.N,unconnected-(uC1-Pad26)*%
X102320000Y-102304000D03*
%TO.P,uC1,27,PC4*%
%TO.N,unconnected-(uC1-Pad27)*%
X101520000Y-102304000D03*
%TO.P,uC1,28,PC5*%
%TO.N,unconnected-(uC1-Pad28)*%
X100720000Y-102304000D03*
%TO.P,uC1,29,~{RESET}/PC6*%
%TO.N,RST*%
X99920000Y-102304000D03*
%TO.P,uC1,30,PD0*%
%TO.N,UART RX*%
X99120000Y-102304000D03*
%TO.P,uC1,31,PD1*%
%TO.N,UART TX*%
X98320000Y-102304000D03*
%TO.P,uC1,32,PD2*%
%TO.N,A*%
X97520000Y-102304000D03*
%TD*%
D22*
%TO.P,J1,1,Pin_1*%
%TO.N,GND*%
X125000000Y-60000000D03*
D23*
%TO.P,J1,2,Pin_2*%
%TO.N,+24V*%
X119920000Y-60000000D03*
%TD*%
D17*
%TO.P,H4,1,1*%
%TO.N,GND*%
X142121320Y-62121320D03*
X143000000Y-60000000D03*
X137878680Y-62121320D03*
D18*
X140000000Y-60000000D03*
D17*
X140000000Y-63000000D03*
X140000000Y-57000000D03*
X142121320Y-57878680D03*
X137000000Y-60000000D03*
X137878680Y-57878680D03*
%TD*%
D24*
%TO.P,J3,1,Pin_1*%
%TO.N,UART TX*%
X112250000Y-76475000D03*
D25*
%TO.P,J3,2,Pin_2*%
%TO.N,UART RX*%
X114750000Y-76475000D03*
%TD*%
D26*
%TO.P,J7,1,Pin_1*%
%TO.N,Pwm_Bridge_A*%
X82750000Y-139475000D03*
D27*
%TO.P,J7,2,Pin_2*%
%TO.N,IN1_A*%
X85250000Y-139475000D03*
%TO.P,J7,3,Pin_3*%
%TO.N,IN2_A*%
X87750000Y-139475000D03*
%TO.P,J7,4,Pin_4*%
%TO.N,GND*%
X90250000Y-139475000D03*
%TD*%
D28*
%TO.P,C4,2*%
%TO.N,GND*%
X88500000Y-112925000D03*
%TO.P,C4,1*%
%TO.N,Net-(C4-Pad1)*%
X88500000Y-112425000D03*
%TD*%
D22*
%TO.P,J2,1,Pin_1*%
%TO.N,GND*%
X140750000Y-73920000D03*
D23*
%TO.P,J2,2,Pin_2*%
%TO.N,+24V*%
X140750000Y-79000000D03*
%TD*%
D29*
%TO.P,U1,1,VIN*%
%TO.N,+24V*%
X94840000Y-55620000D03*
%TO.P,U1,2,OUT*%
%TO.N,Net-(D5-Pad1)*%
X93140000Y-55620000D03*
D30*
%TO.P,U1,3,GND*%
%TO.N,GND*%
X91440000Y-64770000D03*
D29*
X91440000Y-55620000D03*
%TO.P,U1,4,FB*%
%TO.N,+5V*%
X89740000Y-55620000D03*
%TO.P,U1,5,~{ON}/OFF*%
%TO.N,GND*%
X88040000Y-55620000D03*
%TD*%
D26*
%TO.P,J6,1,Pin_1*%
%TO.N,Pwm_Bridge_B*%
X102750000Y-139475000D03*
D27*
%TO.P,J6,2,Pin_2*%
%TO.N,IN1_B*%
X105250000Y-139475000D03*
%TO.P,J6,3,Pin_3*%
%TO.N,IN2_B*%
X107750000Y-139475000D03*
%TO.P,J6,4,Pin_4*%
%TO.N,GND*%
X110250000Y-139475000D03*
%TD*%
D10*
%TO.P,R13,1*%
%TO.N,RST*%
X99935000Y-99442000D03*
%TO.P,R13,2*%
%TO.N,+5V*%
X102860000Y-99442000D03*
%TD*%
D17*
%TO.P,H1,1,1*%
%TO.N,GND*%
X57878680Y-57878680D03*
X62121320Y-57878680D03*
X62121320Y-62121320D03*
X60000000Y-63000000D03*
X63000000Y-60000000D03*
X57000000Y-60000000D03*
X60000000Y-57000000D03*
D18*
X60000000Y-60000000D03*
D17*
X57878680Y-62121320D03*
%TD*%
D31*
%TO.P,C3,2*%
%TO.N,GND*%
X88500000Y-106500000D03*
%TO.P,C3,1*%
%TO.N,Net-(C3-Pad1)*%
X88500000Y-107000000D03*
%TD*%
D32*
%TO.P,D5,1,K*%
%TO.N,Net-(D5-Pad1)*%
X77200000Y-55320000D03*
%TO.P,D5,2,A*%
%TO.N,GND*%
X72800000Y-55320000D03*
%TD*%
D33*
%TO.P,J4,1,Pin_1*%
%TO.N,+5V*%
X99050000Y-119000000D03*
D34*
%TO.P,J4,2,Pin_2*%
%TO.N,MISO*%
X101590000Y-119000000D03*
%TO.P,J4,3,Pin_3*%
%TO.N,MOSI*%
X104130000Y-119000000D03*
%TO.P,J4,4,Pin_4*%
%TO.N,SCK*%
X106670000Y-119000000D03*
%TO.P,J4,5,Pin_5*%
%TO.N,RST*%
X109210000Y-119000000D03*
%TO.P,J4,6,Pin_6*%
%TO.N,UART TX*%
X111750000Y-119000000D03*
%TO.P,J4,7,Pin_7*%
%TO.N,UART RX*%
X114290000Y-119000000D03*
%TO.P,J4,8,Pin_8*%
%TO.N,GND*%
X116830000Y-119000000D03*
%TD*%
D17*
%TO.P,H3,1,1*%
%TO.N,GND*%
X137000000Y-140000000D03*
X142121320Y-142121320D03*
X137878680Y-137878680D03*
X140000000Y-137000000D03*
D18*
X140000000Y-140000000D03*
D17*
X142121320Y-137878680D03*
X137878680Y-142121320D03*
X143000000Y-140000000D03*
X140000000Y-143000000D03*
%TD*%
D35*
%TO.P,L1,1,1*%
%TO.N,Net-(D5-Pad1)*%
X77200000Y-61800000D03*
%TO.P,L1,2,2*%
%TO.N,+5V*%
X77200000Y-68200000D03*
%TD*%
D36*
%TO.N,Contacteur_A*%
X112000000Y-105000000D03*
%TO.N,Contacteur_B*%
X112000000Y-103000000D03*
D37*
%TO.N,GND*%
X93716000Y-106300000D03*
D36*
%TO.N,MISO*%
X103114000Y-113158000D03*
%TO.N,MOSI*%
X103368000Y-114682000D03*
%TO.N,RST*%
X101082000Y-100966000D03*
%TO.N,UART TX*%
X96764000Y-99696000D03*
%TO.N,UART RX*%
X110734000Y-111126000D03*
X97985266Y-99998734D03*
X104084000Y-100666000D03*
X107250000Y-99750000D03*
%TO.N,Pwm_Bridge_B*%
X97850000Y-113150000D03*
%TO.N,IN1_B*%
X99500000Y-115000000D03*
%TO.N,IN2_B*%
X100637500Y-115012500D03*
%TO.N,Pwm_Bridge_A*%
X96000000Y-112500000D03*
%TO.N,A*%
X94750000Y-100750000D03*
X98750000Y-93000000D03*
%TO.N,B*%
X97000000Y-92750000D03*
X93500000Y-100750000D03*
%TO.N,IN1_A*%
X96000000Y-114000000D03*
%TO.N,IN2_A*%
X96000000Y-115000000D03*
%TD*%
D38*
%TO.N,Contacteur_B*%
X109000000Y-103000000D02*
X108246000Y-103754000D01*
X112000000Y-103000000D02*
X109000000Y-103000000D01*
X108246000Y-103754000D02*
X104570000Y-103754000D01*
%TO.N,Contacteur_A*%
X112000000Y-105000000D02*
X111554000Y-104554000D01*
X111554000Y-104554000D02*
X104570000Y-104554000D01*
X140000000Y-125750000D02*
X135250000Y-125750000D01*
X135250000Y-125750000D02*
X135000000Y-125500000D01*
%TO.N,Contacteur_B*%
X140000000Y-113250000D02*
X135162500Y-113250000D01*
X135162500Y-113250000D02*
X134912500Y-113000000D01*
D39*
%TO.N,+5V*%
X132075000Y-125500000D02*
X132075000Y-113087500D01*
X132075000Y-113087500D02*
X131987500Y-113000000D01*
X132000000Y-112987500D02*
X132000000Y-107000000D01*
X131987500Y-113000000D02*
X132000000Y-112987500D01*
X115988000Y-102918000D02*
X127082000Y-102918000D01*
X132000000Y-107000000D02*
X127918000Y-102918000D01*
X127082000Y-102918000D02*
X139582000Y-102918000D01*
X127918000Y-102918000D02*
X127082000Y-102918000D01*
D38*
%TO.N,Net-(C4-Pad1)*%
X96070000Y-109354000D02*
X94396000Y-109354000D01*
X88550000Y-112325000D02*
X88550000Y-110750000D01*
X94396000Y-109354000D02*
X91375000Y-112375000D01*
X91375000Y-112375000D02*
X88500000Y-112375000D01*
X88500000Y-112375000D02*
X88550000Y-112325000D01*
%TO.N,Net-(C3-Pad1)*%
X91735041Y-108519000D02*
X91735041Y-108035041D01*
X90750000Y-107050000D02*
X88500000Y-107050000D01*
X91735041Y-108035041D02*
X90750000Y-107050000D01*
X88550000Y-108550000D02*
X88550000Y-107100000D01*
X88550000Y-107100000D02*
X88500000Y-107050000D01*
D40*
%TO.N,+24V*%
X119920000Y-60000000D02*
X116388000Y-60000000D01*
X107188000Y-55798000D02*
X96094000Y-55798000D01*
X119920000Y-60000000D02*
X119920000Y-62320000D01*
X136600000Y-79000000D02*
X140750000Y-79000000D01*
X96055000Y-55759000D02*
X95909000Y-55759000D01*
X112186000Y-55798000D02*
X107188000Y-55798000D01*
X96094000Y-55798000D02*
X96055000Y-55759000D01*
X116388000Y-60000000D02*
X112186000Y-55798000D01*
X119920000Y-62320000D02*
X136600000Y-79000000D01*
D41*
%TO.N,GND*%
X94370000Y-106954000D02*
X96070000Y-106954000D01*
X93716000Y-106300000D02*
X94370000Y-106954000D01*
D39*
%TO.N,+5V*%
X77200000Y-71104000D02*
X80010000Y-73914000D01*
D41*
X93897207Y-107754000D02*
X96070000Y-107754000D01*
X104570000Y-108554000D02*
X105876000Y-108554000D01*
D39*
X79838000Y-78486000D02*
X87000000Y-85648000D01*
D41*
X105876000Y-108554000D02*
X105908000Y-108586000D01*
D39*
X77200000Y-68200000D02*
X77200000Y-71104000D01*
X82804000Y-53594000D02*
X83820000Y-52578000D01*
D41*
X91430000Y-103506000D02*
X92194793Y-103506000D01*
D39*
X80010000Y-78314000D02*
X79838000Y-78486000D01*
X83556000Y-119000000D02*
X99050000Y-119000000D01*
X94914000Y-97664000D02*
X95086000Y-97664000D01*
X110734000Y-97664000D02*
X102606000Y-97664000D01*
X113274000Y-106046000D02*
X113274000Y-100204000D01*
X139582000Y-102918000D02*
X139750000Y-102750000D01*
D41*
X94842793Y-106154000D02*
X96070000Y-106154000D01*
D39*
X80010000Y-73914000D02*
X80010000Y-78314000D01*
X89759000Y-53437000D02*
X89759000Y-55759000D01*
D41*
X92816000Y-106672793D02*
X93897207Y-107754000D01*
X92816000Y-106670000D02*
X92816000Y-106672793D01*
D39*
X95086000Y-97664000D02*
X90160000Y-97664000D01*
X106670000Y-107062000D02*
X105908000Y-107062000D01*
D41*
X91430000Y-103506000D02*
X91430000Y-105284000D01*
D39*
X83820000Y-52578000D02*
X88900000Y-52578000D01*
D41*
X105908000Y-107062000D02*
X105800000Y-106954000D01*
D39*
X87000000Y-89750000D02*
X94914000Y-97664000D01*
X90160000Y-97664000D02*
X84826000Y-97664000D01*
X108194000Y-108586000D02*
X110734000Y-108586000D01*
X113274000Y-100204000D02*
X110734000Y-97664000D01*
X91430000Y-98934000D02*
X90160000Y-97664000D01*
X113274000Y-100204000D02*
X115988000Y-102918000D01*
X91430000Y-103506000D02*
X91430000Y-98934000D01*
X102860000Y-99442000D02*
X102860000Y-97918000D01*
X77200000Y-68200000D02*
X82804000Y-62596000D01*
X80762000Y-116206000D02*
X83556000Y-119000000D01*
D41*
X92194793Y-103506000D02*
X94842793Y-106154000D01*
D39*
X80762000Y-101728000D02*
X80762000Y-116206000D01*
X105908000Y-108586000D02*
X108194000Y-108586000D01*
X88900000Y-52578000D02*
X89759000Y-53437000D01*
X84826000Y-97664000D02*
X80762000Y-101728000D01*
D41*
X91430000Y-105284000D02*
X92816000Y-106670000D01*
D39*
X108194000Y-108586000D02*
X106670000Y-107062000D01*
X102606000Y-97664000D02*
X95086000Y-97664000D01*
X110734000Y-108586000D02*
X113274000Y-106046000D01*
D41*
X105800000Y-106954000D02*
X104570000Y-106954000D01*
D39*
X82804000Y-62596000D02*
X82804000Y-53594000D01*
X102860000Y-97918000D02*
X102606000Y-97664000D01*
X87000000Y-85648000D02*
X87000000Y-89750000D01*
D38*
%TO.N,Net-(C3-Pad1)*%
X91735041Y-108519000D02*
X91790041Y-108574000D01*
X91790041Y-108574000D02*
X96050000Y-108574000D01*
X96050000Y-108574000D02*
X96070000Y-108554000D01*
D39*
%TO.N,Net-(D5-Pad1)*%
X77200000Y-55320000D02*
X77200000Y-61800000D01*
X93159000Y-55759000D02*
X93159000Y-53535000D01*
X78740000Y-51308000D02*
X77200000Y-52848000D01*
X93159000Y-53535000D02*
X90932000Y-51308000D01*
X77200000Y-52848000D02*
X77200000Y-55320000D01*
D38*
X93159000Y-53281000D02*
X93159000Y-55759000D01*
D39*
X90932000Y-51308000D02*
X78740000Y-51308000D01*
D38*
%TO.N,MISO*%
X103120000Y-113152000D02*
X103120000Y-110804000D01*
X103114000Y-113158000D02*
X103120000Y-113152000D01*
%TO.N,MOSI*%
X103368000Y-114682000D02*
X102320000Y-113634000D01*
X102320000Y-113634000D02*
X102320000Y-110804000D01*
%TO.N,SCK*%
X104570000Y-109354000D02*
X104570000Y-112328000D01*
X106670000Y-114428000D02*
X106670000Y-119000000D01*
X104570000Y-112328000D02*
X106670000Y-114428000D01*
%TO.N,RST*%
X100959000Y-100843000D02*
X101082000Y-100966000D01*
X99935000Y-99442000D02*
X99935000Y-100843000D01*
X99935000Y-102289000D02*
X99920000Y-102304000D01*
X99935000Y-100843000D02*
X99935000Y-102289000D01*
X99935000Y-100843000D02*
X100959000Y-100843000D01*
%TO.N,UART TX*%
X96764000Y-99696000D02*
X98320000Y-101252000D01*
X98320000Y-101252000D02*
X98320000Y-102304000D01*
%TO.N,UART RX*%
X99120000Y-101133468D02*
X99120000Y-102304000D01*
X97985266Y-99998734D02*
X99120000Y-101133468D01*
X106334000Y-100666000D02*
X107250000Y-99750000D01*
X104084000Y-100666000D02*
X106334000Y-100666000D01*
X110734000Y-115444000D02*
X110734000Y-111126000D01*
X114290000Y-119000000D02*
X110734000Y-115444000D01*
%TO.N,Pwm_Bridge_B*%
X97850000Y-113150000D02*
X98320000Y-112680000D01*
X98320000Y-112680000D02*
X98320000Y-110804000D01*
%TO.N,IN1_B*%
X100720000Y-113780000D02*
X100720000Y-110804000D01*
X99500000Y-115000000D02*
X100720000Y-113780000D01*
%TO.N,IN2_B*%
X100637500Y-115012500D02*
X101520000Y-114130000D01*
X101520000Y-114130000D02*
X101520000Y-110804000D01*
%TO.N,Pwm_Bridge_A*%
X97000000Y-112500000D02*
X96000000Y-112500000D01*
X97520000Y-111980000D02*
X97000000Y-112500000D01*
X97520000Y-110804000D02*
X97520000Y-111980000D01*
%TO.N,A*%
X139750000Y-100250000D02*
X117250000Y-100250000D01*
X97520000Y-102304000D02*
X95554000Y-102304000D01*
X95554000Y-102304000D02*
X94750000Y-101500000D01*
X109250000Y-92250000D02*
X99500000Y-92250000D01*
X99500000Y-92250000D02*
X98750000Y-93000000D01*
X117250000Y-100250000D02*
X109250000Y-92250000D01*
X94750000Y-101500000D02*
X94750000Y-100750000D01*
%TO.N,B*%
X94504000Y-103754000D02*
X93500000Y-102750000D01*
X116250000Y-97750000D02*
X109750000Y-91250000D01*
X98500000Y-91250000D02*
X97000000Y-92750000D01*
X109750000Y-91250000D02*
X98500000Y-91250000D01*
X139750000Y-97750000D02*
X116250000Y-97750000D01*
X93500000Y-102750000D02*
X93500000Y-100750000D01*
X96070000Y-103754000D02*
X94504000Y-103754000D01*
%TO.N,IN1_A*%
X99120000Y-113130000D02*
X98250000Y-114000000D01*
X99120000Y-110804000D02*
X99120000Y-113130000D01*
X98250000Y-114000000D02*
X96000000Y-114000000D01*
%TO.N,IN2_A*%
X99920000Y-113330000D02*
X99920000Y-110804000D01*
X96000000Y-115000000D02*
X98250000Y-115000000D01*
X98250000Y-115000000D02*
X99920000Y-113330000D01*
%TD*%
%TA.AperFunction,Conductor*%
%TO.N,GND*%
G36*
X149931621Y-50030502D02*
G01*
X149978114Y-50084158D01*
X149989500Y-50136500D01*
X149989500Y-149863500D01*
X149969498Y-149931621D01*
X149915842Y-149978114D01*
X149863500Y-149989500D01*
X50136500Y-149989500D01*
X50068379Y-149969498D01*
X50021886Y-149915842D01*
X50010500Y-149863500D01*
X50010500Y-143365431D01*
X57000109Y-143365431D01*
X57000190Y-143366564D01*
X57005168Y-143374136D01*
X57025401Y-143393539D01*
X57029678Y-143397283D01*
X57345218Y-143649175D01*
X57349801Y-143652505D01*
X57686867Y-143874759D01*
X57691763Y-143877677D01*
X58047543Y-144068444D01*
X58052717Y-144070923D01*
X58424339Y-144228668D01*
X58429674Y-144230652D01*
X58814069Y-144354068D01*
X58819570Y-144355563D01*
X59213575Y-144443633D01*
X59219187Y-144444622D01*
X59619538Y-144496619D01*
X59625244Y-144497098D01*
X60028642Y-144512595D01*
X60034368Y-144512555D01*
X60437518Y-144491427D01*
X60443199Y-144490870D01*
X60842795Y-144433288D01*
X60848390Y-144432220D01*
X61241123Y-144338657D01*
X61246605Y-144337086D01*
X61629233Y-144208318D01*
X61634563Y-144206250D01*
X62003946Y-144043332D01*
X62009053Y-144040797D01*
X62362145Y-143845075D01*
X62367024Y-143842074D01*
X62700898Y-143615174D01*
X62705511Y-143611723D01*
X62991829Y-143376539D01*
X62999388Y-143365431D01*
X137000109Y-143365431D01*
X137000190Y-143366564D01*
X137005168Y-143374136D01*
X137025401Y-143393539D01*
X137029678Y-143397283D01*
X137345218Y-143649175D01*
X137349801Y-143652505D01*
X137686867Y-143874759D01*
X137691763Y-143877677D01*
X138047543Y-144068444D01*
X138052717Y-144070923D01*
X138424339Y-144228668D01*
X138429674Y-144230652D01*
X138814069Y-144354068D01*
X138819570Y-144355563D01*
X139213575Y-144443633D01*
X139219187Y-144444622D01*
X139619538Y-144496619D01*
X139625244Y-144497098D01*
X140028642Y-144512595D01*
X140034368Y-144512555D01*
X140437518Y-144491427D01*
X140443199Y-144490870D01*
X140842795Y-144433288D01*
X140848390Y-144432220D01*
X141241123Y-144338657D01*
X141246605Y-144337086D01*
X141629233Y-144208318D01*
X141634563Y-144206250D01*
X142003946Y-144043332D01*
X142009053Y-144040797D01*
X142362145Y-143845075D01*
X142367024Y-143842074D01*
X142700898Y-143615174D01*
X142705511Y-143611723D01*
X142991829Y-143376539D01*
X143000290Y-143364106D01*
X142994040Y-143353250D01*
X142647408Y-143006618D01*
X141762111Y-142121320D01*
X141236023Y-141595233D01*
X140012812Y-140372022D01*
X139998868Y-140364408D01*
X139997035Y-140364539D01*
X139990420Y-140368790D01*
X138763978Y-141595232D01*
X137878680Y-142480529D01*
X137352593Y-143006617D01*
X137007723Y-143351487D01*
X137000109Y-143365431D01*
X62999388Y-143365431D01*
X63000290Y-143364106D01*
X62994040Y-143353250D01*
X62647408Y-143006618D01*
X61762111Y-142121320D01*
X61236023Y-141595233D01*
X60012812Y-140372022D01*
X59998868Y-140364408D01*
X59997035Y-140364539D01*
X59990420Y-140368790D01*
X58763978Y-141595232D01*
X57878680Y-142480529D01*
X57352593Y-143006617D01*
X57007723Y-143351487D01*
X57000109Y-143365431D01*
X50010500Y-143365431D01*
X50010500Y-140154638D01*
X55489964Y-140154638D01*
X55490163Y-140160343D01*
X55522540Y-140562753D01*
X55523258Y-140568430D01*
X55591970Y-140966229D01*
X55593201Y-140971829D01*
X55697689Y-141361786D01*
X55699413Y-141367219D01*
X55838817Y-141746108D01*
X55841025Y-141751362D01*
X56014192Y-142116050D01*
X56016877Y-142121099D01*
X56222390Y-142468606D01*
X56225500Y-142473358D01*
X56461668Y-142800812D01*
X56465208Y-142805278D01*
X56625528Y-142989704D01*
X56638657Y-142998113D01*
X56648570Y-142992220D01*
X56993382Y-142647408D01*
X57878680Y-141762111D01*
X57950260Y-141690531D01*
X58404767Y-141236023D01*
X59627978Y-140012812D01*
X59634356Y-140001132D01*
X60364408Y-140001132D01*
X60364539Y-140002965D01*
X60368790Y-140009580D01*
X61595232Y-141236022D01*
X62049739Y-141690530D01*
X62121319Y-141762110D01*
X63006617Y-142647407D01*
X63350688Y-142991478D01*
X63364134Y-142998820D01*
X63373970Y-142991900D01*
X63573611Y-142755657D01*
X63577097Y-142751130D01*
X63808659Y-142420424D01*
X63811716Y-142415608D01*
X64012350Y-142065281D01*
X64014962Y-142060199D01*
X64183020Y-141693127D01*
X64185159Y-141687834D01*
X64319255Y-141307047D01*
X64320908Y-141301573D01*
X64419939Y-140910206D01*
X64421090Y-140904600D01*
X64484245Y-140505854D01*
X64484880Y-140500192D01*
X64501243Y-140253834D01*
X81699500Y-140253834D01*
X81702481Y-140285369D01*
X81747366Y-140413184D01*
X81752958Y-140420754D01*
X81752959Y-140420757D01*
X81801246Y-140486131D01*
X81827850Y-140522150D01*
X81835421Y-140527742D01*
X81929243Y-140597041D01*
X81929246Y-140597042D01*
X81936816Y-140602634D01*
X82064631Y-140647519D01*
X82072277Y-140648242D01*
X82072278Y-140648242D01*
X82078248Y-140648806D01*
X82096166Y-140650500D01*
X83403834Y-140650500D01*
X83421752Y-140648806D01*
X83427722Y-140648242D01*
X83427723Y-140648242D01*
X83435369Y-140647519D01*
X83563184Y-140602634D01*
X83570754Y-140597042D01*
X83570757Y-140597041D01*
X83664579Y-140527742D01*
X83672150Y-140522150D01*
X83698754Y-140486131D01*
X83747041Y-140420757D01*
X83747042Y-140420754D01*
X83752634Y-140413184D01*
X83797519Y-140285369D01*
X83800500Y-140253834D01*
X83800500Y-139651841D01*
X84199500Y-139651841D01*
X84214520Y-139805030D01*
X84274065Y-140002251D01*
X84370782Y-140184151D01*
X84425198Y-140250871D01*
X84497094Y-140339025D01*
X84497097Y-140339028D01*
X84500989Y-140343800D01*
X84505736Y-140347727D01*
X84505738Y-140347729D01*
X84654975Y-140471189D01*
X84654979Y-140471191D01*
X84659725Y-140475118D01*
X84840945Y-140573103D01*
X85037746Y-140634023D01*
X85043871Y-140634667D01*
X85043872Y-140634667D01*
X85236502Y-140654913D01*
X85236504Y-140654913D01*
X85242631Y-140655557D01*
X85330956Y-140647519D01*
X85441658Y-140637445D01*
X85441661Y-140637444D01*
X85447797Y-140636886D01*
X85645428Y-140578720D01*
X85827998Y-140483274D01*
X85832799Y-140479414D01*
X85832802Y-140479412D01*
X85983746Y-140358050D01*
X85983747Y-140358050D01*
X85988553Y-140354185D01*
X86120976Y-140196370D01*
X86123944Y-140190972D01*
X86123947Y-140190967D01*
X86217257Y-140021235D01*
X86220224Y-140015838D01*
X86282516Y-139819468D01*
X86283474Y-139810932D01*
X86300107Y-139662636D01*
X86300500Y-139659136D01*
X86300500Y-139651841D01*
X86699500Y-139651841D01*
X86714520Y-139805030D01*
X86774065Y-140002251D01*
X86870782Y-140184151D01*
X86925198Y-140250871D01*
X86997094Y-140339025D01*
X86997097Y-140339028D01*
X87000989Y-140343800D01*
X87005736Y-140347727D01*
X87005738Y-140347729D01*
X87154975Y-140471189D01*
X87154979Y-140471191D01*
X87159725Y-140475118D01*
X87340945Y-140573103D01*
X87537746Y-140634023D01*
X87543871Y-140634667D01*
X87543872Y-140634667D01*
X87736502Y-140654913D01*
X87736504Y-140654913D01*
X87742631Y-140655557D01*
X87830956Y-140647519D01*
X87941658Y-140637445D01*
X87941661Y-140637444D01*
X87947797Y-140636886D01*
X88145428Y-140578720D01*
X88327998Y-140483274D01*
X88332799Y-140479414D01*
X88332802Y-140479412D01*
X88483746Y-140358050D01*
X88483747Y-140358050D01*
X88488553Y-140354185D01*
X88620976Y-140196370D01*
X88623944Y-140190972D01*
X88623947Y-140190967D01*
X88717254Y-140021240D01*
X88720224Y-140015838D01*
X88721434Y-140012022D01*
X88766176Y-139957866D01*
X88833807Y-139936268D01*
X88902380Y-139954663D01*
X88950121Y-140007210D01*
X88958729Y-140030579D01*
X88963130Y-140047535D01*
X88966665Y-140057575D01*
X89056937Y-140257970D01*
X89062106Y-140267256D01*
X89184850Y-140449575D01*
X89191519Y-140457870D01*
X89343228Y-140616900D01*
X89351186Y-140623941D01*
X89527525Y-140755141D01*
X89536562Y-140760745D01*
X89732484Y-140860357D01*
X89742335Y-140864357D01*
X89952240Y-140929534D01*
X89962624Y-140931817D01*
X89978043Y-140933861D01*
X89992207Y-140931665D01*
X89996000Y-140918478D01*
X89996000Y-140916192D01*
X90504000Y-140916192D01*
X90507973Y-140929723D01*
X90518580Y-140931248D01*
X90636421Y-140906523D01*
X90646617Y-140903463D01*
X90851029Y-140822737D01*
X90860561Y-140818006D01*
X91048462Y-140703984D01*
X91057052Y-140697720D01*
X91223052Y-140553673D01*
X91230472Y-140546042D01*
X91369826Y-140376089D01*
X91375850Y-140367322D01*
X91440451Y-140253834D01*
X101699500Y-140253834D01*
X101702481Y-140285369D01*
X101747366Y-140413184D01*
X101752958Y-140420754D01*
X101752959Y-140420757D01*
X101801246Y-140486131D01*
X101827850Y-140522150D01*
X101835421Y-140527742D01*
X101929243Y-140597041D01*
X101929246Y-140597042D01*
X101936816Y-140602634D01*
X102064631Y-140647519D01*
X102072277Y-140648242D01*
X102072278Y-140648242D01*
X102078248Y-140648806D01*
X102096166Y-140650500D01*
X103403834Y-140650500D01*
X103421752Y-140648806D01*
X103427722Y-140648242D01*
X103427723Y-140648242D01*
X103435369Y-140647519D01*
X103563184Y-140602634D01*
X103570754Y-140597042D01*
X103570757Y-140597041D01*
X103664579Y-140527742D01*
X103672150Y-140522150D01*
X103698754Y-140486131D01*
X103747041Y-140420757D01*
X103747042Y-140420754D01*
X103752634Y-140413184D01*
X103797519Y-140285369D01*
X103800500Y-140253834D01*
X103800500Y-139651841D01*
X104199500Y-139651841D01*
X104214520Y-139805030D01*
X104274065Y-140002251D01*
X104370782Y-140184151D01*
X104425198Y-140250871D01*
X104497094Y-140339025D01*
X104497097Y-140339028D01*
X104500989Y-140343800D01*
X104505736Y-140347727D01*
X104505738Y-140347729D01*
X104654975Y-140471189D01*
X104654979Y-140471191D01*
X104659725Y-140475118D01*
X104840945Y-140573103D01*
X105037746Y-140634023D01*
X105043871Y-140634667D01*
X105043872Y-140634667D01*
X105236502Y-140654913D01*
X105236504Y-140654913D01*
X105242631Y-140655557D01*
X105330956Y-140647519D01*
X105441658Y-140637445D01*
X105441661Y-140637444D01*
X105447797Y-140636886D01*
X105645428Y-140578720D01*
X105827998Y-140483274D01*
X105832799Y-140479414D01*
X105832802Y-140479412D01*
X105983746Y-140358050D01*
X105983747Y-140358050D01*
X105988553Y-140354185D01*
X106120976Y-140196370D01*
X106123944Y-140190972D01*
X106123947Y-140190967D01*
X106217257Y-140021235D01*
X106220224Y-140015838D01*
X106282516Y-139819468D01*
X106283474Y-139810932D01*
X106300107Y-139662636D01*
X106300500Y-139659136D01*
X106300500Y-139651841D01*
X106699500Y-139651841D01*
X106714520Y-139805030D01*
X106774065Y-140002251D01*
X106870782Y-140184151D01*
X106925198Y-140250871D01*
X106997094Y-140339025D01*
X106997097Y-140339028D01*
X107000989Y-140343800D01*
X107005736Y-140347727D01*
X107005738Y-140347729D01*
X107154975Y-140471189D01*
X107154979Y-140471191D01*
X107159725Y-140475118D01*
X107340945Y-140573103D01*
X107537746Y-140634023D01*
X107543871Y-140634667D01*
X107543872Y-140634667D01*
X107736502Y-140654913D01*
X107736504Y-140654913D01*
X107742631Y-140655557D01*
X107830956Y-140647519D01*
X107941658Y-140637445D01*
X107941661Y-140637444D01*
X107947797Y-140636886D01*
X108145428Y-140578720D01*
X108327998Y-140483274D01*
X108332799Y-140479414D01*
X108332802Y-140479412D01*
X108483746Y-140358050D01*
X108483747Y-140358050D01*
X108488553Y-140354185D01*
X108620976Y-140196370D01*
X108623944Y-140190972D01*
X108623947Y-140190967D01*
X108717254Y-140021240D01*
X108720224Y-140015838D01*
X108721434Y-140012022D01*
X108766176Y-139957866D01*
X108833807Y-139936268D01*
X108902380Y-139954663D01*
X108950121Y-140007210D01*
X108958729Y-140030579D01*
X108963130Y-140047535D01*
X108966665Y-140057575D01*
X109056937Y-140257970D01*
X109062106Y-140267256D01*
X109184850Y-140449575D01*
X109191519Y-140457870D01*
X109343228Y-140616900D01*
X109351186Y-140623941D01*
X109527525Y-140755141D01*
X109536562Y-140760745D01*
X109732484Y-140860357D01*
X109742335Y-140864357D01*
X109952240Y-140929534D01*
X109962624Y-140931817D01*
X109978043Y-140933861D01*
X109992207Y-140931665D01*
X109996000Y-140918478D01*
X109996000Y-140916192D01*
X110504000Y-140916192D01*
X110507973Y-140929723D01*
X110518580Y-140931248D01*
X110636421Y-140906523D01*
X110646617Y-140903463D01*
X110851029Y-140822737D01*
X110860561Y-140818006D01*
X111048462Y-140703984D01*
X111057052Y-140697720D01*
X111223052Y-140553673D01*
X111230472Y-140546042D01*
X111369826Y-140376089D01*
X111375850Y-140367322D01*
X111484576Y-140176318D01*
X111489041Y-140166654D01*
X111493403Y-140154638D01*
X135489964Y-140154638D01*
X135490163Y-140160343D01*
X135522540Y-140562753D01*
X135523258Y-140568430D01*
X135591970Y-140966229D01*
X135593201Y-140971829D01*
X135697689Y-141361786D01*
X135699413Y-141367219D01*
X135838817Y-141746108D01*
X135841025Y-141751362D01*
X136014192Y-142116050D01*
X136016877Y-142121099D01*
X136222390Y-142468606D01*
X136225500Y-142473358D01*
X136461668Y-142800812D01*
X136465208Y-142805278D01*
X136625528Y-142989704D01*
X136638657Y-142998113D01*
X136648570Y-142992220D01*
X136993382Y-142647408D01*
X137878680Y-141762111D01*
X137950260Y-141690531D01*
X138404767Y-141236023D01*
X139627978Y-140012812D01*
X139634356Y-140001132D01*
X140364408Y-140001132D01*
X140364539Y-140002965D01*
X140368790Y-140009580D01*
X141595232Y-141236022D01*
X142049739Y-141690530D01*
X142121319Y-141762110D01*
X143006617Y-142647407D01*
X143350688Y-142991478D01*
X143364134Y-142998820D01*
X143373970Y-142991900D01*
X143573611Y-142755657D01*
X143577097Y-142751130D01*
X143808659Y-142420424D01*
X143811716Y-142415608D01*
X144012350Y-142065281D01*
X144014962Y-142060199D01*
X144183020Y-141693127D01*
X144185159Y-141687834D01*
X144319255Y-141307047D01*
X144320908Y-141301573D01*
X144419939Y-140910206D01*
X144421090Y-140904600D01*
X144484245Y-140505854D01*
X144484880Y-140500192D01*
X144511709Y-140096260D01*
X144511843Y-140092753D01*
X144512796Y-140001773D01*
X144512734Y-139998225D01*
X144494371Y-139593843D01*
X144493855Y-139588165D01*
X144439063Y-139188177D01*
X144438036Y-139182577D01*
X144347216Y-138789198D01*
X144345682Y-138783702D01*
X144219588Y-138400183D01*
X144217558Y-138394841D01*
X144057226Y-138024336D01*
X144054722Y-138019202D01*
X143861471Y-137664752D01*
X143858508Y-137659861D01*
X143633930Y-137324389D01*
X143630537Y-137319787D01*
X143376832Y-137006489D01*
X143363963Y-136999226D01*
X143362596Y-136999305D01*
X143355268Y-137003942D01*
X143006618Y-137352592D01*
X142121320Y-138237889D01*
X141595233Y-138763977D01*
X140372022Y-139987188D01*
X140364408Y-140001132D01*
X139634356Y-140001132D01*
X139635592Y-139998868D01*
X139635461Y-139997035D01*
X139631210Y-139990420D01*
X138404768Y-138763978D01*
X137519471Y-137878680D01*
X136993383Y-137352593D01*
X136650424Y-137009634D01*
X136636480Y-137002020D01*
X136636287Y-137002033D01*
X136627465Y-137008012D01*
X136524743Y-137121298D01*
X136521091Y-137125712D01*
X136278139Y-137448120D01*
X136274906Y-137452843D01*
X136062173Y-137795946D01*
X136059379Y-137800946D01*
X135878624Y-138161905D01*
X135876290Y-138167147D01*
X135728992Y-138543009D01*
X135727149Y-138548422D01*
X135614517Y-138936103D01*
X135613175Y-138941653D01*
X135536142Y-139337952D01*
X135535309Y-139343593D01*
X135494512Y-139745234D01*
X135494192Y-139750958D01*
X135489964Y-140154638D01*
X111493403Y-140154638D01*
X111564031Y-139960059D01*
X111566802Y-139949792D01*
X111603504Y-139746826D01*
X111602085Y-139733586D01*
X111587450Y-139729000D01*
X110522115Y-139729000D01*
X110506876Y-139733475D01*
X110505671Y-139734865D01*
X110504000Y-139742548D01*
X110504000Y-140916192D01*
X109996000Y-140916192D01*
X109996000Y-139202885D01*
X110504000Y-139202885D01*
X110508475Y-139218124D01*
X110509865Y-139219329D01*
X110517548Y-139221000D01*
X111583849Y-139221000D01*
X111598527Y-139216690D01*
X111600590Y-139204807D01*
X111593876Y-139125675D01*
X111592086Y-139115203D01*
X111536870Y-138902465D01*
X111533335Y-138892425D01*
X111443063Y-138692030D01*
X111437894Y-138682744D01*
X111315150Y-138500425D01*
X111308481Y-138492130D01*
X111156772Y-138333100D01*
X111148814Y-138326059D01*
X110972475Y-138194859D01*
X110963438Y-138189255D01*
X110767516Y-138089643D01*
X110757665Y-138085643D01*
X110547760Y-138020466D01*
X110537376Y-138018183D01*
X110521957Y-138016139D01*
X110507793Y-138018335D01*
X110504000Y-138031522D01*
X110504000Y-139202885D01*
X109996000Y-139202885D01*
X109996000Y-138033808D01*
X109992027Y-138020277D01*
X109981420Y-138018752D01*
X109863579Y-138043477D01*
X109853383Y-138046537D01*
X109648971Y-138127263D01*
X109639439Y-138131994D01*
X109451539Y-138246015D01*
X109442948Y-138252280D01*
X109276948Y-138396327D01*
X109269528Y-138403958D01*
X109130174Y-138573911D01*
X109124150Y-138582678D01*
X109015424Y-138773682D01*
X109010959Y-138783346D01*
X108956436Y-138933553D01*
X108914391Y-138990761D01*
X108848092Y-139016157D01*
X108778588Y-139001677D01*
X108727945Y-138951919D01*
X108725940Y-138947765D01*
X108725935Y-138947749D01*
X108629218Y-138765849D01*
X108540756Y-138657384D01*
X108502906Y-138610975D01*
X108502903Y-138610972D01*
X108499011Y-138606200D01*
X108470578Y-138582678D01*
X108345025Y-138478811D01*
X108345021Y-138478809D01*
X108340275Y-138474882D01*
X108159055Y-138376897D01*
X107962254Y-138315977D01*
X107956129Y-138315333D01*
X107956128Y-138315333D01*
X107763498Y-138295087D01*
X107763496Y-138295087D01*
X107757369Y-138294443D01*
X107676988Y-138301758D01*
X107558342Y-138312555D01*
X107558339Y-138312556D01*
X107552203Y-138313114D01*
X107354572Y-138371280D01*
X107172002Y-138466726D01*
X107167201Y-138470586D01*
X107167198Y-138470588D01*
X107073779Y-138545699D01*
X107011447Y-138595815D01*
X106879024Y-138753630D01*
X106876056Y-138759028D01*
X106876053Y-138759033D01*
X106782743Y-138928765D01*
X106779776Y-138934162D01*
X106717484Y-139130532D01*
X106716798Y-139136649D01*
X106716797Y-139136653D01*
X106711646Y-139182577D01*
X106699500Y-139290864D01*
X106699500Y-139651841D01*
X106300500Y-139651841D01*
X106300500Y-139298159D01*
X106285480Y-139144970D01*
X106225935Y-138947749D01*
X106129218Y-138765849D01*
X106040756Y-138657384D01*
X106002906Y-138610975D01*
X106002903Y-138610972D01*
X105999011Y-138606200D01*
X105970578Y-138582678D01*
X105845025Y-138478811D01*
X105845021Y-138478809D01*
X105840275Y-138474882D01*
X105659055Y-138376897D01*
X105462254Y-138315977D01*
X105456129Y-138315333D01*
X105456128Y-138315333D01*
X105263498Y-138295087D01*
X105263496Y-138295087D01*
X105257369Y-138294443D01*
X105176988Y-138301758D01*
X105058342Y-138312555D01*
X105058339Y-138312556D01*
X105052203Y-138313114D01*
X104854572Y-138371280D01*
X104672002Y-138466726D01*
X104667201Y-138470586D01*
X104667198Y-138470588D01*
X104573779Y-138545699D01*
X104511447Y-138595815D01*
X104379024Y-138753630D01*
X104376056Y-138759028D01*
X104376053Y-138759033D01*
X104282743Y-138928765D01*
X104279776Y-138934162D01*
X104217484Y-139130532D01*
X104216798Y-139136649D01*
X104216797Y-139136653D01*
X104211646Y-139182577D01*
X104199500Y-139290864D01*
X104199500Y-139651841D01*
X103800500Y-139651841D01*
X103800500Y-138696166D01*
X103797519Y-138664631D01*
X103752634Y-138536816D01*
X103747042Y-138529246D01*
X103747041Y-138529243D01*
X103677742Y-138435421D01*
X103672150Y-138427850D01*
X103627460Y-138394841D01*
X103570757Y-138352959D01*
X103570754Y-138352958D01*
X103563184Y-138347366D01*
X103435369Y-138302481D01*
X103427723Y-138301758D01*
X103427722Y-138301758D01*
X103421752Y-138301194D01*
X103403834Y-138299500D01*
X102096166Y-138299500D01*
X102078248Y-138301194D01*
X102072278Y-138301758D01*
X102072277Y-138301758D01*
X102064631Y-138302481D01*
X101936816Y-138347366D01*
X101929246Y-138352958D01*
X101929243Y-138352959D01*
X101872540Y-138394841D01*
X101827850Y-138427850D01*
X101822258Y-138435421D01*
X101752959Y-138529243D01*
X101752958Y-138529246D01*
X101747366Y-138536816D01*
X101702481Y-138664631D01*
X101699500Y-138696166D01*
X101699500Y-140253834D01*
X91440451Y-140253834D01*
X91484576Y-140176318D01*
X91489041Y-140166654D01*
X91564031Y-139960059D01*
X91566802Y-139949792D01*
X91603504Y-139746826D01*
X91602085Y-139733586D01*
X91587450Y-139729000D01*
X90522115Y-139729000D01*
X90506876Y-139733475D01*
X90505671Y-139734865D01*
X90504000Y-139742548D01*
X90504000Y-140916192D01*
X89996000Y-140916192D01*
X89996000Y-139202885D01*
X90504000Y-139202885D01*
X90508475Y-139218124D01*
X90509865Y-139219329D01*
X90517548Y-139221000D01*
X91583849Y-139221000D01*
X91598527Y-139216690D01*
X91600590Y-139204807D01*
X91593876Y-139125675D01*
X91592086Y-139115203D01*
X91536870Y-138902465D01*
X91533335Y-138892425D01*
X91443063Y-138692030D01*
X91437894Y-138682744D01*
X91315150Y-138500425D01*
X91308481Y-138492130D01*
X91156772Y-138333100D01*
X91148814Y-138326059D01*
X90972475Y-138194859D01*
X90963438Y-138189255D01*
X90767516Y-138089643D01*
X90757665Y-138085643D01*
X90547760Y-138020466D01*
X90537376Y-138018183D01*
X90521957Y-138016139D01*
X90507793Y-138018335D01*
X90504000Y-138031522D01*
X90504000Y-139202885D01*
X89996000Y-139202885D01*
X89996000Y-138033808D01*
X89992027Y-138020277D01*
X89981420Y-138018752D01*
X89863579Y-138043477D01*
X89853383Y-138046537D01*
X89648971Y-138127263D01*
X89639439Y-138131994D01*
X89451539Y-138246015D01*
X89442948Y-138252280D01*
X89276948Y-138396327D01*
X89269528Y-138403958D01*
X89130174Y-138573911D01*
X89124150Y-138582678D01*
X89015424Y-138773682D01*
X89010959Y-138783346D01*
X88956436Y-138933553D01*
X88914391Y-138990761D01*
X88848092Y-139016157D01*
X88778588Y-139001677D01*
X88727945Y-138951919D01*
X88725940Y-138947765D01*
X88725935Y-138947749D01*
X88629218Y-138765849D01*
X88540756Y-138657384D01*
X88502906Y-138610975D01*
X88502903Y-138610972D01*
X88499011Y-138606200D01*
X88470578Y-138582678D01*
X88345025Y-138478811D01*
X88345021Y-138478809D01*
X88340275Y-138474882D01*
X88159055Y-138376897D01*
X87962254Y-138315977D01*
X87956129Y-138315333D01*
X87956128Y-138315333D01*
X87763498Y-138295087D01*
X87763496Y-138295087D01*
X87757369Y-138294443D01*
X87676988Y-138301758D01*
X87558342Y-138312555D01*
X87558339Y-138312556D01*
X87552203Y-138313114D01*
X87354572Y-138371280D01*
X87172002Y-138466726D01*
X87167201Y-138470586D01*
X87167198Y-138470588D01*
X87073779Y-138545699D01*
X87011447Y-138595815D01*
X86879024Y-138753630D01*
X86876056Y-138759028D01*
X86876053Y-138759033D01*
X86782743Y-138928765D01*
X86779776Y-138934162D01*
X86717484Y-139130532D01*
X86716798Y-139136649D01*
X86716797Y-139136653D01*
X86711646Y-139182577D01*
X86699500Y-139290864D01*
X86699500Y-139651841D01*
X86300500Y-139651841D01*
X86300500Y-139298159D01*
X86285480Y-139144970D01*
X86225935Y-138947749D01*
X86129218Y-138765849D01*
X86040756Y-138657384D01*
X86002906Y-138610975D01*
X86002903Y-138610972D01*
X85999011Y-138606200D01*
X85970578Y-138582678D01*
X85845025Y-138478811D01*
X85845021Y-138478809D01*
X85840275Y-138474882D01*
X85659055Y-138376897D01*
X85462254Y-138315977D01*
X85456129Y-138315333D01*
X85456128Y-138315333D01*
X85263498Y-138295087D01*
X85263496Y-138295087D01*
X85257369Y-138294443D01*
X85176988Y-138301758D01*
X85058342Y-138312555D01*
X85058339Y-138312556D01*
X85052203Y-138313114D01*
X84854572Y-138371280D01*
X84672002Y-138466726D01*
X84667201Y-138470586D01*
X84667198Y-138470588D01*
X84573779Y-138545699D01*
X84511447Y-138595815D01*
X84379024Y-138753630D01*
X84376056Y-138759028D01*
X84376053Y-138759033D01*
X84282743Y-138928765D01*
X84279776Y-138934162D01*
X84217484Y-139130532D01*
X84216798Y-139136649D01*
X84216797Y-139136653D01*
X84211646Y-139182577D01*
X84199500Y-139290864D01*
X84199500Y-139651841D01*
X83800500Y-139651841D01*
X83800500Y-138696166D01*
X83797519Y-138664631D01*
X83752634Y-138536816D01*
X83747042Y-138529246D01*
X83747041Y-138529243D01*
X83677742Y-138435421D01*
X83672150Y-138427850D01*
X83627460Y-138394841D01*
X83570757Y-138352959D01*
X83570754Y-138352958D01*
X83563184Y-138347366D01*
X83435369Y-138302481D01*
X83427723Y-138301758D01*
X83427722Y-138301758D01*
X83421752Y-138301194D01*
X83403834Y-138299500D01*
X82096166Y-138299500D01*
X82078248Y-138301194D01*
X82072278Y-138301758D01*
X82072277Y-138301758D01*
X82064631Y-138302481D01*
X81936816Y-138347366D01*
X81929246Y-138352958D01*
X81929243Y-138352959D01*
X81872540Y-138394841D01*
X81827850Y-138427850D01*
X81822258Y-138435421D01*
X81752959Y-138529243D01*
X81752958Y-138529246D01*
X81747366Y-138536816D01*
X81702481Y-138664631D01*
X81699500Y-138696166D01*
X81699500Y-140253834D01*
X64501243Y-140253834D01*
X64511709Y-140096260D01*
X64511843Y-140092753D01*
X64512796Y-140001773D01*
X64512734Y-139998225D01*
X64494371Y-139593843D01*
X64493855Y-139588165D01*
X64439063Y-139188177D01*
X64438036Y-139182577D01*
X64347216Y-138789198D01*
X64345682Y-138783702D01*
X64219588Y-138400183D01*
X64217558Y-138394841D01*
X64057226Y-138024336D01*
X64054722Y-138019202D01*
X63861471Y-137664752D01*
X63858508Y-137659861D01*
X63633930Y-137324389D01*
X63630537Y-137319787D01*
X63376832Y-137006489D01*
X63363963Y-136999226D01*
X63362596Y-136999305D01*
X63355268Y-137003942D01*
X63006618Y-137352592D01*
X62121320Y-138237889D01*
X61595233Y-138763977D01*
X60372022Y-139987188D01*
X60364408Y-140001132D01*
X59634356Y-140001132D01*
X59635592Y-139998868D01*
X59635461Y-139997035D01*
X59631210Y-139990420D01*
X58404768Y-138763978D01*
X57519471Y-137878680D01*
X56993383Y-137352593D01*
X56650424Y-137009634D01*
X56636480Y-137002020D01*
X56636287Y-137002033D01*
X56627465Y-137008012D01*
X56524743Y-137121298D01*
X56521091Y-137125712D01*
X56278139Y-137448120D01*
X56274906Y-137452843D01*
X56062173Y-137795946D01*
X56059379Y-137800946D01*
X55878624Y-138161905D01*
X55876290Y-138167147D01*
X55728992Y-138543009D01*
X55727149Y-138548422D01*
X55614517Y-138936103D01*
X55613175Y-138941653D01*
X55536142Y-139337952D01*
X55535309Y-139343593D01*
X55494512Y-139745234D01*
X55494192Y-139750958D01*
X55489964Y-140154638D01*
X50010500Y-140154638D01*
X50010500Y-136638713D01*
X57001723Y-136638713D01*
X57001735Y-136639144D01*
X57007102Y-136647892D01*
X57352592Y-136993382D01*
X57809617Y-137450408D01*
X57878679Y-137519470D01*
X58763977Y-138404767D01*
X59987188Y-139627978D01*
X60001132Y-139635592D01*
X60002965Y-139635461D01*
X60009580Y-139631210D01*
X61236022Y-138404768D01*
X62121320Y-137519471D01*
X62190382Y-137450409D01*
X62647407Y-136993383D01*
X62990943Y-136649847D01*
X62997023Y-136638713D01*
X137001723Y-136638713D01*
X137001735Y-136639144D01*
X137007102Y-136647892D01*
X137352592Y-136993382D01*
X137809617Y-137450408D01*
X137878679Y-137519470D01*
X138763977Y-138404767D01*
X139987188Y-139627978D01*
X140001132Y-139635592D01*
X140002965Y-139635461D01*
X140009580Y-139631210D01*
X141236022Y-138404768D01*
X142121320Y-137519471D01*
X142190382Y-137450409D01*
X142647407Y-136993383D01*
X142990943Y-136649847D01*
X142998351Y-136636280D01*
X142991609Y-136626624D01*
X142780533Y-136445711D01*
X142776040Y-136442200D01*
X142446969Y-136208341D01*
X142442146Y-136205233D01*
X142093242Y-136002166D01*
X142088177Y-135999519D01*
X141722296Y-135828905D01*
X141717003Y-135826724D01*
X141337166Y-135689973D01*
X141331706Y-135688284D01*
X140941036Y-135586522D01*
X140935446Y-135585334D01*
X140537154Y-135519397D01*
X140531490Y-135518721D01*
X140128851Y-135489153D01*
X140123150Y-135488994D01*
X139719489Y-135496040D01*
X139713801Y-135496398D01*
X139312457Y-135539998D01*
X139306787Y-135540876D01*
X138911058Y-135620669D01*
X138905512Y-135622051D01*
X138518627Y-135737387D01*
X138513223Y-135739269D01*
X138138396Y-135889189D01*
X138133189Y-135891551D01*
X137773475Y-136074834D01*
X137768510Y-136077655D01*
X137426897Y-136292781D01*
X137422202Y-136296044D01*
X137101494Y-136541243D01*
X137097114Y-136544917D01*
X137009910Y-136625106D01*
X137001723Y-136638713D01*
X62997023Y-136638713D01*
X62998351Y-136636280D01*
X62991609Y-136626624D01*
X62780533Y-136445711D01*
X62776040Y-136442200D01*
X62446969Y-136208341D01*
X62442146Y-136205233D01*
X62093242Y-136002166D01*
X62088177Y-135999519D01*
X61722296Y-135828905D01*
X61717003Y-135826724D01*
X61337166Y-135689973D01*
X61331706Y-135688284D01*
X60941036Y-135586522D01*
X60935446Y-135585334D01*
X60537154Y-135519397D01*
X60531490Y-135518721D01*
X60128851Y-135489153D01*
X60123150Y-135488994D01*
X59719489Y-135496040D01*
X59713801Y-135496398D01*
X59312457Y-135539998D01*
X59306787Y-135540876D01*
X58911058Y-135620669D01*
X58905512Y-135622051D01*
X58518627Y-135737387D01*
X58513223Y-135739269D01*
X58138396Y-135889189D01*
X58133189Y-135891551D01*
X57773475Y-136074834D01*
X57768510Y-136077655D01*
X57426897Y-136292781D01*
X57422202Y-136296044D01*
X57101494Y-136541243D01*
X57097114Y-136544917D01*
X57009910Y-136625106D01*
X57001723Y-136638713D01*
X50010500Y-136638713D01*
X50010500Y-128897095D01*
X138492001Y-128897095D01*
X138492338Y-128903614D01*
X138502257Y-128999206D01*
X138505149Y-129012600D01*
X138556588Y-129166784D01*
X138562761Y-129179962D01*
X138648063Y-129317807D01*
X138657099Y-129329208D01*
X138771829Y-129443739D01*
X138783240Y-129452751D01*
X138921243Y-129537816D01*
X138934424Y-129543963D01*
X139088710Y-129595138D01*
X139102086Y-129598005D01*
X139196438Y-129607672D01*
X139202854Y-129608000D01*
X139727885Y-129608000D01*
X139743124Y-129603525D01*
X139744329Y-129602135D01*
X139746000Y-129594452D01*
X139746000Y-129589884D01*
X140254000Y-129589884D01*
X140258475Y-129605123D01*
X140259865Y-129606328D01*
X140267548Y-129607999D01*
X140797095Y-129607999D01*
X140803614Y-129607662D01*
X140899206Y-129597743D01*
X140912600Y-129594851D01*
X141066784Y-129543412D01*
X141079962Y-129537239D01*
X141217807Y-129451937D01*
X141229208Y-129442901D01*
X141343739Y-129328171D01*
X141352751Y-129316760D01*
X141437816Y-129178757D01*
X141443963Y-129165576D01*
X141495138Y-129011290D01*
X141498005Y-128997914D01*
X141507672Y-128903562D01*
X141508000Y-128897146D01*
X141508000Y-128522115D01*
X141503525Y-128506876D01*
X141502135Y-128505671D01*
X141494452Y-128504000D01*
X140272115Y-128504000D01*
X140256876Y-128508475D01*
X140255671Y-128509865D01*
X140254000Y-128517548D01*
X140254000Y-129589884D01*
X139746000Y-129589884D01*
X139746000Y-128522115D01*
X139741525Y-128506876D01*
X139740135Y-128505671D01*
X139732452Y-128504000D01*
X138510116Y-128504000D01*
X138494877Y-128508475D01*
X138493672Y-128509865D01*
X138492001Y-128517548D01*
X138492001Y-128897095D01*
X50010500Y-128897095D01*
X50010500Y-79333096D01*
X68230000Y-79333096D01*
X68230337Y-79339611D01*
X68240256Y-79435203D01*
X68243150Y-79448602D01*
X68294588Y-79602783D01*
X68300762Y-79615962D01*
X68386063Y-79753807D01*
X68395099Y-79765208D01*
X68509830Y-79879739D01*
X68521241Y-79888751D01*
X68659245Y-79973818D01*
X68672423Y-79979962D01*
X68826716Y-80031139D01*
X68840081Y-80034005D01*
X68934439Y-80043672D01*
X68940855Y-80044000D01*
X70765885Y-80044000D01*
X70781124Y-80039525D01*
X70782329Y-80038135D01*
X70784000Y-80030452D01*
X70784000Y-80025885D01*
X71292000Y-80025885D01*
X71296475Y-80041124D01*
X71297865Y-80042329D01*
X71305548Y-80044000D01*
X73135096Y-80044000D01*
X73141611Y-80043663D01*
X73237203Y-80033744D01*
X73250602Y-80030850D01*
X73404783Y-79979412D01*
X73417962Y-79973238D01*
X73555807Y-79887937D01*
X73567208Y-79878901D01*
X73681739Y-79764170D01*
X73690751Y-79752759D01*
X73775818Y-79614755D01*
X73781962Y-79601577D01*
X73833139Y-79447284D01*
X73836005Y-79433919D01*
X73845672Y-79339561D01*
X73846000Y-79333145D01*
X73846000Y-78758115D01*
X73841525Y-78742876D01*
X73840135Y-78741671D01*
X73832452Y-78740000D01*
X71310115Y-78740000D01*
X71294876Y-78744475D01*
X71293671Y-78745865D01*
X71292000Y-78753548D01*
X71292000Y-80025885D01*
X70784000Y-80025885D01*
X70784000Y-78758115D01*
X70779525Y-78742876D01*
X70778135Y-78741671D01*
X70770452Y-78740000D01*
X68248115Y-78740000D01*
X68232876Y-78744475D01*
X68231671Y-78745865D01*
X68230000Y-78753548D01*
X68230000Y-79333096D01*
X50010500Y-79333096D01*
X50010500Y-78213885D01*
X68230000Y-78213885D01*
X68234475Y-78229124D01*
X68235865Y-78230329D01*
X68243548Y-78232000D01*
X70765885Y-78232000D01*
X70781124Y-78227525D01*
X70782329Y-78226135D01*
X70784000Y-78218452D01*
X70784000Y-78213885D01*
X71292000Y-78213885D01*
X71296475Y-78229124D01*
X71297865Y-78230329D01*
X71305548Y-78232000D01*
X73827885Y-78232000D01*
X73843124Y-78227525D01*
X73844329Y-78226135D01*
X73846000Y-78218452D01*
X73846000Y-77638904D01*
X73845663Y-77632389D01*
X73835744Y-77536797D01*
X73832850Y-77523398D01*
X73781412Y-77369217D01*
X73775238Y-77356038D01*
X73689937Y-77218193D01*
X73680901Y-77206792D01*
X73566170Y-77092261D01*
X73554759Y-77083249D01*
X73416755Y-76998182D01*
X73403577Y-76992038D01*
X73249284Y-76940861D01*
X73235919Y-76937995D01*
X73141561Y-76928328D01*
X73135144Y-76928000D01*
X71310115Y-76928000D01*
X71294876Y-76932475D01*
X71293671Y-76933865D01*
X71292000Y-76941548D01*
X71292000Y-78213885D01*
X70784000Y-78213885D01*
X70784000Y-76946115D01*
X70779525Y-76930876D01*
X70778135Y-76929671D01*
X70770452Y-76928000D01*
X68940904Y-76928000D01*
X68934389Y-76928337D01*
X68838797Y-76938256D01*
X68825398Y-76941150D01*
X68671217Y-76992588D01*
X68658038Y-76998762D01*
X68520193Y-77084063D01*
X68508792Y-77093099D01*
X68394261Y-77207830D01*
X68385249Y-77219241D01*
X68300182Y-77357245D01*
X68294038Y-77370423D01*
X68242861Y-77524716D01*
X68239995Y-77538081D01*
X68230328Y-77632439D01*
X68230000Y-77638856D01*
X68230000Y-78213885D01*
X50010500Y-78213885D01*
X50010500Y-68969748D01*
X75899500Y-68969748D01*
X75911133Y-69028231D01*
X75955448Y-69094552D01*
X76021769Y-69138867D01*
X76033938Y-69141288D01*
X76033939Y-69141288D01*
X76074184Y-69149293D01*
X76080252Y-69150500D01*
X76473500Y-69150500D01*
X76541621Y-69170502D01*
X76588114Y-69224158D01*
X76599500Y-69276500D01*
X76599500Y-71056381D01*
X76598422Y-71072827D01*
X76594318Y-71104000D01*
X76599500Y-71143361D01*
X76614956Y-71260762D01*
X76675464Y-71406841D01*
X76771718Y-71532282D01*
X76778264Y-71537305D01*
X76796671Y-71551429D01*
X76809062Y-71562297D01*
X79372595Y-74125830D01*
X79406621Y-74188142D01*
X79409500Y-74214925D01*
X79409500Y-77109501D01*
X79389498Y-77177622D01*
X79335842Y-77224115D01*
X79283500Y-77235501D01*
X77734168Y-77235501D01*
X77731218Y-77235780D01*
X77731213Y-77235780D01*
X77720594Y-77236784D01*
X77702632Y-77238481D01*
X77695391Y-77241024D01*
X77695390Y-77241024D01*
X77583706Y-77280244D01*
X77583704Y-77280245D01*
X77574817Y-77283366D01*
X77465850Y-77363850D01*
X77385366Y-77472817D01*
X77382245Y-77481704D01*
X77382244Y-77481706D01*
X77347726Y-77580000D01*
X77340481Y-77600632D01*
X77337500Y-77632167D01*
X77337501Y-79339832D01*
X77340481Y-79371368D01*
X77343024Y-79378609D01*
X77343024Y-79378610D01*
X77367141Y-79447284D01*
X77385366Y-79499183D01*
X77465850Y-79608150D01*
X77574817Y-79688634D01*
X77583704Y-79691755D01*
X77583706Y-79691756D01*
X77682000Y-79726274D01*
X77702632Y-79733519D01*
X77710278Y-79734242D01*
X77710279Y-79734242D01*
X77716249Y-79734806D01*
X77734167Y-79736500D01*
X77868749Y-79736500D01*
X80187074Y-79736499D01*
X80255195Y-79756501D01*
X80276169Y-79773404D01*
X86362595Y-85859830D01*
X86396621Y-85922142D01*
X86399500Y-85948925D01*
X86399500Y-89702381D01*
X86398422Y-89718827D01*
X86394318Y-89750000D01*
X86399500Y-89789361D01*
X86414956Y-89906762D01*
X86475464Y-90052841D01*
X86571718Y-90178282D01*
X86578264Y-90183305D01*
X86596671Y-90197429D01*
X86609062Y-90208297D01*
X93249170Y-96848405D01*
X93283196Y-96910717D01*
X93278131Y-96981532D01*
X93235584Y-97038368D01*
X93169064Y-97063179D01*
X93160075Y-97063500D01*
X90207619Y-97063500D01*
X90191173Y-97062422D01*
X90168188Y-97059396D01*
X90160000Y-97058318D01*
X90151812Y-97059396D01*
X90128827Y-97062422D01*
X90112381Y-97063500D01*
X84873619Y-97063500D01*
X84857173Y-97062422D01*
X84834188Y-97059396D01*
X84826000Y-97058318D01*
X84786639Y-97063500D01*
X84669238Y-97078956D01*
X84523159Y-97139464D01*
X84397718Y-97235718D01*
X84378568Y-97260675D01*
X84367708Y-97273057D01*
X80371062Y-101269703D01*
X80358672Y-101280570D01*
X80333718Y-101299718D01*
X80280411Y-101369189D01*
X80237464Y-101425159D01*
X80176956Y-101571238D01*
X80156318Y-101728000D01*
X80157396Y-101736188D01*
X80160422Y-101759173D01*
X80161500Y-101775619D01*
X80161500Y-116158381D01*
X80160422Y-116174827D01*
X80156318Y-116206000D01*
X80161500Y-116245361D01*
X80176956Y-116362762D01*
X80237464Y-116508841D01*
X80333718Y-116634282D01*
X80340264Y-116639305D01*
X80358671Y-116653429D01*
X80371062Y-116664297D01*
X83097703Y-119390938D01*
X83108570Y-119403328D01*
X83127718Y-119428282D01*
X83241154Y-119515324D01*
X83253159Y-119524536D01*
X83260785Y-119527695D01*
X83260787Y-119527696D01*
X83378963Y-119576646D01*
X83399238Y-119585044D01*
X83556000Y-119605682D01*
X83564188Y-119604604D01*
X83587173Y-119601578D01*
X83603619Y-119600500D01*
X97873500Y-119600500D01*
X97941621Y-119620502D01*
X97988114Y-119674158D01*
X97999500Y-119726500D01*
X97999500Y-119869748D01*
X98000707Y-119875816D01*
X98004331Y-119894033D01*
X98011133Y-119928231D01*
X98055448Y-119994552D01*
X98121769Y-120038867D01*
X98133938Y-120041288D01*
X98133939Y-120041288D01*
X98174184Y-120049293D01*
X98180252Y-120050500D01*
X99919748Y-120050500D01*
X99925816Y-120049293D01*
X99966061Y-120041288D01*
X99966062Y-120041288D01*
X99978231Y-120038867D01*
X100044552Y-119994552D01*
X100088867Y-119928231D01*
X100095670Y-119894033D01*
X100099293Y-119875816D01*
X100100500Y-119869748D01*
X100100500Y-118985262D01*
X100534520Y-118985262D01*
X100551759Y-119190553D01*
X100553458Y-119196478D01*
X100599395Y-119356678D01*
X100608544Y-119388586D01*
X100611359Y-119394063D01*
X100611360Y-119394066D01*
X100673678Y-119515324D01*
X100702712Y-119571818D01*
X100830677Y-119733270D01*
X100835370Y-119737264D01*
X100835371Y-119737265D01*
X100909541Y-119800388D01*
X100987564Y-119866791D01*
X100992942Y-119869797D01*
X100992944Y-119869798D01*
X101023387Y-119886812D01*
X101167398Y-119967297D01*
X101251280Y-119994552D01*
X101357471Y-120029056D01*
X101357475Y-120029057D01*
X101363329Y-120030959D01*
X101567894Y-120055351D01*
X101574029Y-120054879D01*
X101574031Y-120054879D01*
X101646625Y-120049293D01*
X101773300Y-120039546D01*
X101779230Y-120037890D01*
X101779232Y-120037890D01*
X101965797Y-119985800D01*
X101965796Y-119985800D01*
X101971725Y-119984145D01*
X101977214Y-119981372D01*
X101977220Y-119981370D01*
X102150116Y-119894033D01*
X102155610Y-119891258D01*
X102171345Y-119878965D01*
X102313101Y-119768213D01*
X102317951Y-119764424D01*
X102375992Y-119697183D01*
X102448540Y-119613134D01*
X102448540Y-119613133D01*
X102452564Y-119608472D01*
X102456481Y-119601578D01*
X102500246Y-119524536D01*
X102554323Y-119429344D01*
X102619351Y-119233863D01*
X102645171Y-119029474D01*
X102645583Y-119000000D01*
X102644138Y-118985262D01*
X103074520Y-118985262D01*
X103091759Y-119190553D01*
X103093458Y-119196478D01*
X103139395Y-119356678D01*
X103148544Y-119388586D01*
X103151359Y-119394063D01*
X103151360Y-119394066D01*
X103213678Y-119515324D01*
X103242712Y-119571818D01*
X103370677Y-119733270D01*
X103375370Y-119737264D01*
X103375371Y-119737265D01*
X103449541Y-119800388D01*
X103527564Y-119866791D01*
X103532942Y-119869797D01*
X103532944Y-119869798D01*
X103563387Y-119886812D01*
X103707398Y-119967297D01*
X103791280Y-119994552D01*
X103897471Y-120029056D01*
X103897475Y-120029057D01*
X103903329Y-120030959D01*
X104107894Y-120055351D01*
X104114029Y-120054879D01*
X104114031Y-120054879D01*
X104186625Y-120049293D01*
X104313300Y-120039546D01*
X104319230Y-120037890D01*
X104319232Y-120037890D01*
X104505797Y-119985800D01*
X104505796Y-119985800D01*
X104511725Y-119984145D01*
X104517214Y-119981372D01*
X104517220Y-119981370D01*
X104690116Y-119894033D01*
X104695610Y-119891258D01*
X104711345Y-119878965D01*
X104853101Y-119768213D01*
X104857951Y-119764424D01*
X104915992Y-119697183D01*
X104988540Y-119613134D01*
X104988540Y-119613133D01*
X104992564Y-119608472D01*
X104996481Y-119601578D01*
X105040246Y-119524536D01*
X105094323Y-119429344D01*
X105159351Y-119233863D01*
X105185171Y-119029474D01*
X105185583Y-119000000D01*
X105165480Y-118794970D01*
X105105935Y-118597749D01*
X105009218Y-118415849D01*
X104893121Y-118273500D01*
X104882906Y-118260975D01*
X104882903Y-118260972D01*
X104879011Y-118256200D01*
X104861786Y-118241950D01*
X104725025Y-118128811D01*
X104725021Y-118128809D01*
X104720275Y-118124882D01*
X104583091Y-118050707D01*
X104544474Y-118029827D01*
X104539055Y-118026897D01*
X104342254Y-117965977D01*
X104336129Y-117965333D01*
X104336128Y-117965333D01*
X104143498Y-117945087D01*
X104143496Y-117945087D01*
X104137369Y-117944443D01*
X104050529Y-117952346D01*
X103938342Y-117962555D01*
X103938339Y-117962556D01*
X103932203Y-117963114D01*
X103734572Y-118021280D01*
X103729107Y-118024137D01*
X103657729Y-118061453D01*
X103552002Y-118116726D01*
X103547201Y-118120586D01*
X103547198Y-118120588D01*
X103514688Y-118146727D01*
X103391447Y-118245815D01*
X103259024Y-118403630D01*
X103256056Y-118409028D01*
X103256053Y-118409033D01*
X103179801Y-118547736D01*
X103159776Y-118584162D01*
X103097484Y-118780532D01*
X103096798Y-118786649D01*
X103096797Y-118786653D01*
X103075207Y-118979137D01*
X103074520Y-118985262D01*
X102644138Y-118985262D01*
X102625480Y-118794970D01*
X102565935Y-118597749D01*
X102469218Y-118415849D01*
X102353121Y-118273500D01*
X102342906Y-118260975D01*
X102342903Y-118260972D01*
X102339011Y-118256200D01*
X102321786Y-118241950D01*
X102185025Y-118128811D01*
X102185021Y-118128809D01*
X102180275Y-118124882D01*
X102043091Y-118050707D01*
X102004474Y-118029827D01*
X101999055Y-118026897D01*
X101802254Y-117965977D01*
X101796129Y-117965333D01*
X101796128Y-117965333D01*
X101603498Y-117945087D01*
X101603496Y-117945087D01*
X101597369Y-117944443D01*
X101510529Y-117952346D01*
X101398342Y-117962555D01*
X101398339Y-117962556D01*
X101392203Y-117963114D01*
X101194572Y-118021280D01*
X101189107Y-118024137D01*
X101117729Y-118061453D01*
X101012002Y-118116726D01*
X101007201Y-118120586D01*
X101007198Y-118120588D01*
X100974688Y-118146727D01*
X100851447Y-118245815D01*
X100719024Y-118403630D01*
X100716056Y-118409028D01*
X100716053Y-118409033D01*
X100639801Y-118547736D01*
X100619776Y-118584162D01*
X100557484Y-118780532D01*
X100556798Y-118786649D01*
X100556797Y-118786653D01*
X100535207Y-118979137D01*
X100534520Y-118985262D01*
X100100500Y-118985262D01*
X100100500Y-118130252D01*
X100088867Y-118071769D01*
X100044552Y-118005448D01*
X99978231Y-117961133D01*
X99966062Y-117958712D01*
X99966061Y-117958712D01*
X99925816Y-117950707D01*
X99919748Y-117949500D01*
X98180252Y-117949500D01*
X98174184Y-117950707D01*
X98133939Y-117958712D01*
X98133938Y-117958712D01*
X98121769Y-117961133D01*
X98055448Y-118005448D01*
X98011133Y-118071769D01*
X97999500Y-118130252D01*
X97999500Y-118273500D01*
X97979498Y-118341621D01*
X97925842Y-118388114D01*
X97873500Y-118399500D01*
X83856925Y-118399500D01*
X83788804Y-118379498D01*
X83767830Y-118362595D01*
X81399405Y-115994170D01*
X81365379Y-115931858D01*
X81362500Y-115905075D01*
X81362500Y-113087516D01*
X87842224Y-113087516D01*
X87842538Y-113092300D01*
X87855928Y-113194005D01*
X87860167Y-113209825D01*
X87912590Y-113336386D01*
X87920779Y-113350569D01*
X88004171Y-113459248D01*
X88015750Y-113470828D01*
X88124434Y-113554223D01*
X88138615Y-113562410D01*
X88265175Y-113614833D01*
X88280995Y-113619072D01*
X88332040Y-113625792D01*
X88346222Y-113623581D01*
X88350000Y-113610424D01*
X88350000Y-113610042D01*
X88650000Y-113610042D01*
X88654044Y-113623813D01*
X88667583Y-113625842D01*
X88719005Y-113619072D01*
X88734825Y-113614833D01*
X88861386Y-113562410D01*
X88875569Y-113554221D01*
X88984248Y-113470829D01*
X88995828Y-113459250D01*
X89079223Y-113350566D01*
X89087410Y-113336385D01*
X89139833Y-113209825D01*
X89144072Y-113194005D01*
X89157462Y-113092300D01*
X89157517Y-113091469D01*
X89153525Y-113077876D01*
X89152135Y-113076671D01*
X89144452Y-113075000D01*
X88668115Y-113075000D01*
X88652876Y-113079475D01*
X88651671Y-113080865D01*
X88650000Y-113088548D01*
X88650000Y-113610042D01*
X88350000Y-113610042D01*
X88350000Y-113093115D01*
X88345525Y-113077876D01*
X88344135Y-113076671D01*
X88336452Y-113075000D01*
X87860115Y-113075000D01*
X87844876Y-113079475D01*
X87843671Y-113080865D01*
X87842224Y-113087516D01*
X81362500Y-113087516D01*
X81362500Y-106333531D01*
X87842483Y-106333531D01*
X87846475Y-106347124D01*
X87847865Y-106348329D01*
X87855548Y-106350000D01*
X88331885Y-106350000D01*
X88347124Y-106345525D01*
X88348329Y-106344135D01*
X88350000Y-106336452D01*
X88350000Y-106331885D01*
X88650000Y-106331885D01*
X88654475Y-106347124D01*
X88655865Y-106348329D01*
X88663548Y-106350000D01*
X89139885Y-106350000D01*
X89155124Y-106345525D01*
X89156329Y-106344135D01*
X89157776Y-106337484D01*
X89157462Y-106332700D01*
X89144072Y-106230995D01*
X89139833Y-106215175D01*
X89087410Y-106088614D01*
X89079221Y-106074431D01*
X88995829Y-105965752D01*
X88984250Y-105954172D01*
X88875566Y-105870777D01*
X88861385Y-105862590D01*
X88734825Y-105810167D01*
X88719005Y-105805928D01*
X88667960Y-105799208D01*
X88653778Y-105801419D01*
X88650000Y-105814576D01*
X88650000Y-106331885D01*
X88350000Y-106331885D01*
X88350000Y-105814958D01*
X88345956Y-105801187D01*
X88332417Y-105799158D01*
X88280995Y-105805928D01*
X88265175Y-105810167D01*
X88138614Y-105862590D01*
X88124431Y-105870779D01*
X88015752Y-105954171D01*
X88004172Y-105965750D01*
X87920777Y-106074434D01*
X87912590Y-106088615D01*
X87860167Y-106215175D01*
X87855928Y-106230995D01*
X87842538Y-106332700D01*
X87842483Y-106333531D01*
X81362500Y-106333531D01*
X81362500Y-102028925D01*
X81382502Y-101960804D01*
X81399405Y-101939830D01*
X85037830Y-98301405D01*
X85100142Y-98267379D01*
X85126925Y-98264500D01*
X89859075Y-98264500D01*
X89927196Y-98284502D01*
X89948170Y-98301405D01*
X90792595Y-99145830D01*
X90826621Y-99208142D01*
X90829500Y-99234925D01*
X90829500Y-103545361D01*
X90844956Y-103662762D01*
X90848116Y-103670391D01*
X90848845Y-103672150D01*
X90905464Y-103808841D01*
X90910494Y-103815396D01*
X90912619Y-103819077D01*
X90929500Y-103882078D01*
X90929500Y-105213819D01*
X90928172Y-105225704D01*
X90928682Y-105225745D01*
X90927962Y-105234691D01*
X90925981Y-105243447D01*
X90926945Y-105258983D01*
X90929258Y-105296264D01*
X90929500Y-105304067D01*
X90929500Y-105319940D01*
X90930135Y-105324374D01*
X90930948Y-105330050D01*
X90931978Y-105340106D01*
X90934859Y-105386538D01*
X90937907Y-105394982D01*
X90938676Y-105398694D01*
X90942343Y-105413399D01*
X90943404Y-105417027D01*
X90944677Y-105425918D01*
X90963939Y-105468282D01*
X90967746Y-105477637D01*
X90980491Y-105512943D01*
X90980493Y-105512947D01*
X90983540Y-105521387D01*
X90988835Y-105528635D01*
X90990611Y-105531975D01*
X90998274Y-105545089D01*
X91000303Y-105548261D01*
X91004016Y-105556428D01*
X91009871Y-105563223D01*
X91009873Y-105563226D01*
X91034387Y-105591675D01*
X91040675Y-105599595D01*
X91048522Y-105610336D01*
X91059265Y-105621079D01*
X91065623Y-105627925D01*
X91097600Y-105665037D01*
X91105134Y-105669920D01*
X91111896Y-105675819D01*
X91111892Y-105675824D01*
X91122986Y-105684800D01*
X92420054Y-106981868D01*
X92428380Y-106991589D01*
X92428484Y-106991500D01*
X92431646Y-106995193D01*
X92434522Y-106999129D01*
X92445265Y-107009872D01*
X92451623Y-107016718D01*
X92483600Y-107053830D01*
X92491134Y-107058713D01*
X92497896Y-107064612D01*
X92497892Y-107064617D01*
X92508986Y-107073593D01*
X93443798Y-108008405D01*
X93477824Y-108070717D01*
X93472759Y-108141532D01*
X93430212Y-108198368D01*
X93363692Y-108223179D01*
X93354703Y-108223500D01*
X92211541Y-108223500D01*
X92143420Y-108203498D01*
X92096927Y-108149842D01*
X92085541Y-108097500D01*
X92085541Y-108085865D01*
X92087574Y-108066766D01*
X92087801Y-108061958D01*
X92089992Y-108051780D01*
X92086414Y-108021550D01*
X92086104Y-108016295D01*
X92085969Y-108016306D01*
X92085541Y-108011128D01*
X92085541Y-108005926D01*
X92082650Y-107988556D01*
X92081814Y-107982685D01*
X92077501Y-107946241D01*
X92077500Y-107946239D01*
X92076277Y-107935902D01*
X92072618Y-107928281D01*
X92071229Y-107919938D01*
X92062377Y-107903532D01*
X92048854Y-107878469D01*
X92046159Y-107873179D01*
X92029200Y-107837861D01*
X92029196Y-107837854D01*
X92025767Y-107830714D01*
X92022449Y-107826767D01*
X92020514Y-107824832D01*
X92019051Y-107823237D01*
X92018787Y-107822747D01*
X92018807Y-107822728D01*
X92018728Y-107822639D01*
X92015819Y-107817247D01*
X91979405Y-107783586D01*
X91975839Y-107780157D01*
X91033783Y-106838101D01*
X91021705Y-106823147D01*
X91018473Y-106819595D01*
X91012825Y-106810848D01*
X90988914Y-106791998D01*
X90984979Y-106788501D01*
X90984891Y-106788605D01*
X90980932Y-106785250D01*
X90977254Y-106781572D01*
X90973029Y-106778553D01*
X90973021Y-106778546D01*
X90962920Y-106771328D01*
X90958173Y-106767764D01*
X90947718Y-106759522D01*
X90921189Y-106738608D01*
X90913213Y-106735807D01*
X90906331Y-106730889D01*
X90861164Y-106717381D01*
X90855558Y-106715559D01*
X90818577Y-106702572D01*
X90818571Y-106702571D01*
X90811094Y-106699945D01*
X90805956Y-106699500D01*
X90803237Y-106699500D01*
X90801055Y-106699405D01*
X90800520Y-106699245D01*
X90800521Y-106699218D01*
X90800403Y-106699211D01*
X90794536Y-106697456D01*
X90744981Y-106699403D01*
X90740034Y-106699500D01*
X89254328Y-106699500D01*
X89186207Y-106679498D01*
X89171816Y-106668725D01*
X89152135Y-106651671D01*
X89144452Y-106650000D01*
X88772372Y-106650000D01*
X88702370Y-106628765D01*
X88692815Y-106622380D01*
X88692812Y-106622379D01*
X88682495Y-106615485D01*
X88602133Y-106599500D01*
X88500009Y-106599500D01*
X88397868Y-106599501D01*
X88391801Y-106600708D01*
X88391798Y-106600708D01*
X88329676Y-106613064D01*
X88329675Y-106613064D01*
X88317505Y-106615485D01*
X88307188Y-106622378D01*
X88307187Y-106622379D01*
X88297630Y-106628765D01*
X88227628Y-106650000D01*
X87860115Y-106650000D01*
X87844876Y-106654475D01*
X87843671Y-106655865D01*
X87842224Y-106662516D01*
X87842538Y-106667300D01*
X87855928Y-106769005D01*
X87860167Y-106784825D01*
X87912590Y-106911386D01*
X87920779Y-106925569D01*
X88004171Y-107034248D01*
X88015750Y-107045828D01*
X88111015Y-107118927D01*
X88152882Y-107176265D01*
X88157890Y-107194310D01*
X88162323Y-107216595D01*
X88165485Y-107232495D01*
X88172379Y-107242812D01*
X88178266Y-107251623D01*
X88199500Y-107321624D01*
X88199500Y-107523500D01*
X88179498Y-107591621D01*
X88125842Y-107638114D01*
X88073500Y-107649500D01*
X87930252Y-107649500D01*
X87924184Y-107650707D01*
X87883939Y-107658712D01*
X87883938Y-107658712D01*
X87871769Y-107661133D01*
X87805448Y-107705448D01*
X87761133Y-107771769D01*
X87749500Y-107830252D01*
X87749500Y-109269748D01*
X87761133Y-109328231D01*
X87805448Y-109394552D01*
X87871769Y-109438867D01*
X87883938Y-109441288D01*
X87883939Y-109441288D01*
X87924184Y-109449293D01*
X87930252Y-109450500D01*
X89169748Y-109450500D01*
X89175816Y-109449293D01*
X89216061Y-109441288D01*
X89216062Y-109441288D01*
X89228231Y-109438867D01*
X89294552Y-109394552D01*
X89301443Y-109384239D01*
X89310222Y-109375460D01*
X89313243Y-109378481D01*
X89349721Y-109347999D01*
X89420165Y-109339157D01*
X89484207Y-109369803D01*
X89489419Y-109375819D01*
X89489778Y-109375460D01*
X89498557Y-109384239D01*
X89505448Y-109394552D01*
X89571769Y-109438867D01*
X89583938Y-109441288D01*
X89583939Y-109441288D01*
X89624184Y-109449293D01*
X89630252Y-109450500D01*
X90869748Y-109450500D01*
X90875816Y-109449293D01*
X90916061Y-109441288D01*
X90916062Y-109441288D01*
X90928231Y-109438867D01*
X90994552Y-109394552D01*
X91038867Y-109328231D01*
X91050500Y-109269748D01*
X91050500Y-108150372D01*
X91070502Y-108082251D01*
X91124158Y-108035758D01*
X91194432Y-108025654D01*
X91259012Y-108055148D01*
X91265595Y-108061277D01*
X91347636Y-108143318D01*
X91381662Y-108205630D01*
X91384541Y-108232413D01*
X91384541Y-108468176D01*
X91382508Y-108487275D01*
X91382281Y-108492083D01*
X91380090Y-108502261D01*
X91381314Y-108512600D01*
X91383668Y-108532491D01*
X91383978Y-108537746D01*
X91384113Y-108537735D01*
X91384541Y-108542914D01*
X91384541Y-108548115D01*
X91385395Y-108553243D01*
X91385395Y-108553249D01*
X91387430Y-108565473D01*
X91388267Y-108571349D01*
X91393805Y-108618138D01*
X91397464Y-108625758D01*
X91398853Y-108634103D01*
X91403798Y-108643267D01*
X91421233Y-108675580D01*
X91423925Y-108680865D01*
X91444315Y-108723326D01*
X91447633Y-108727274D01*
X91449566Y-108729207D01*
X91451031Y-108730804D01*
X91451295Y-108731294D01*
X91451275Y-108731313D01*
X91451354Y-108731402D01*
X91454263Y-108736794D01*
X91461911Y-108743864D01*
X91461912Y-108743865D01*
X91490677Y-108770455D01*
X91494243Y-108773884D01*
X91506258Y-108785899D01*
X91518336Y-108800853D01*
X91521568Y-108804405D01*
X91527216Y-108813152D01*
X91535393Y-108819598D01*
X91551127Y-108832002D01*
X91555062Y-108835499D01*
X91555150Y-108835395D01*
X91559107Y-108838748D01*
X91562788Y-108842429D01*
X91577113Y-108852666D01*
X91581859Y-108856229D01*
X91618852Y-108885392D01*
X91626828Y-108888193D01*
X91633710Y-108893111D01*
X91678877Y-108906619D01*
X91684483Y-108908441D01*
X91721464Y-108921428D01*
X91721470Y-108921429D01*
X91728947Y-108924055D01*
X91734085Y-108924500D01*
X91736804Y-108924500D01*
X91738986Y-108924595D01*
X91739521Y-108924755D01*
X91739520Y-108924782D01*
X91739638Y-108924789D01*
X91745505Y-108926544D01*
X91795060Y-108924597D01*
X91800007Y-108924500D01*
X94025628Y-108924500D01*
X94093749Y-108944502D01*
X94140242Y-108998158D01*
X94150346Y-109068432D01*
X94120852Y-109133012D01*
X94114723Y-109139595D01*
X91266723Y-111987595D01*
X91204411Y-112021621D01*
X91177628Y-112024500D01*
X89026500Y-112024500D01*
X88958379Y-112004498D01*
X88911886Y-111950842D01*
X88900500Y-111898500D01*
X88900500Y-111776500D01*
X88920502Y-111708379D01*
X88974158Y-111661886D01*
X89026500Y-111650500D01*
X89169748Y-111650500D01*
X89175816Y-111649293D01*
X89216061Y-111641288D01*
X89216062Y-111641288D01*
X89228231Y-111638867D01*
X89294552Y-111594552D01*
X89301443Y-111584239D01*
X89310222Y-111575460D01*
X89313243Y-111578481D01*
X89349721Y-111547999D01*
X89420165Y-111539157D01*
X89484207Y-111569803D01*
X89489419Y-111575819D01*
X89489778Y-111575460D01*
X89498557Y-111584239D01*
X89505448Y-111594552D01*
X89571769Y-111638867D01*
X89583938Y-111641288D01*
X89583939Y-111641288D01*
X89624184Y-111649293D01*
X89630252Y-111650500D01*
X90869748Y-111650500D01*
X90875816Y-111649293D01*
X90916061Y-111641288D01*
X90916062Y-111641288D01*
X90928231Y-111638867D01*
X90994552Y-111594552D01*
X91038867Y-111528231D01*
X91050500Y-111469748D01*
X91050500Y-110030252D01*
X91038867Y-109971769D01*
X90994552Y-109905448D01*
X90928231Y-109861133D01*
X90916062Y-109858712D01*
X90916061Y-109858712D01*
X90875816Y-109850707D01*
X90869748Y-109849500D01*
X89630252Y-109849500D01*
X89624184Y-109850707D01*
X89583939Y-109858712D01*
X89583938Y-109858712D01*
X89571769Y-109861133D01*
X89505448Y-109905448D01*
X89498557Y-109915761D01*
X89489778Y-109924540D01*
X89486757Y-109921519D01*
X89450279Y-109952001D01*
X89379835Y-109960843D01*
X89315793Y-109930197D01*
X89310581Y-109924181D01*
X89310222Y-109924540D01*
X89301443Y-109915761D01*
X89294552Y-109905448D01*
X89228231Y-109861133D01*
X89216062Y-109858712D01*
X89216061Y-109858712D01*
X89175816Y-109850707D01*
X89169748Y-109849500D01*
X87930252Y-109849500D01*
X87924184Y-109850707D01*
X87883939Y-109858712D01*
X87883938Y-109858712D01*
X87871769Y-109861133D01*
X87805448Y-109905448D01*
X87761133Y-109971769D01*
X87749500Y-110030252D01*
X87749500Y-111469748D01*
X87761133Y-111528231D01*
X87805448Y-111594552D01*
X87871769Y-111638867D01*
X87883938Y-111641288D01*
X87883939Y-111641288D01*
X87924184Y-111649293D01*
X87930252Y-111650500D01*
X88073500Y-111650500D01*
X88141621Y-111670502D01*
X88188114Y-111724158D01*
X88199500Y-111776500D01*
X88199500Y-112103376D01*
X88178266Y-112173377D01*
X88165485Y-112192505D01*
X88160653Y-112216797D01*
X88157889Y-112230693D01*
X88124982Y-112293603D01*
X88111014Y-112306075D01*
X88015748Y-112379175D01*
X88004172Y-112390750D01*
X87920777Y-112499434D01*
X87912590Y-112513615D01*
X87860167Y-112640175D01*
X87855928Y-112655995D01*
X87842538Y-112757700D01*
X87842483Y-112758531D01*
X87846475Y-112772124D01*
X87847865Y-112773329D01*
X87855548Y-112775000D01*
X88227628Y-112775000D01*
X88297630Y-112796235D01*
X88307185Y-112802620D01*
X88307188Y-112802621D01*
X88317505Y-112809515D01*
X88397867Y-112825500D01*
X88499991Y-112825500D01*
X88602132Y-112825499D01*
X88608199Y-112824292D01*
X88608202Y-112824292D01*
X88670324Y-112811936D01*
X88670325Y-112811936D01*
X88682495Y-112809515D01*
X88702370Y-112796235D01*
X88772372Y-112775000D01*
X89139885Y-112775000D01*
X89155124Y-112770525D01*
X89156456Y-112768988D01*
X89216182Y-112730604D01*
X89251681Y-112725500D01*
X91324176Y-112725500D01*
X91343275Y-112727533D01*
X91348083Y-112727760D01*
X91358261Y-112729951D01*
X91388491Y-112726373D01*
X91393746Y-112726063D01*
X91393735Y-112725928D01*
X91398914Y-112725500D01*
X91404115Y-112725500D01*
X91409243Y-112724646D01*
X91409249Y-112724646D01*
X91421473Y-112722611D01*
X91427349Y-112721774D01*
X91463799Y-112717460D01*
X91463801Y-112717460D01*
X91474138Y-112716236D01*
X91481758Y-112712577D01*
X91490103Y-112711188D01*
X91531584Y-112688806D01*
X91536870Y-112686113D01*
X91537147Y-112685980D01*
X91579326Y-112665726D01*
X91583274Y-112662408D01*
X91585207Y-112660475D01*
X91586804Y-112659010D01*
X91587294Y-112658746D01*
X91587313Y-112658766D01*
X91587402Y-112658687D01*
X91592794Y-112655778D01*
X91607218Y-112640175D01*
X91626455Y-112619364D01*
X91629884Y-112615798D01*
X94504277Y-109741405D01*
X94566589Y-109707379D01*
X94593372Y-109704500D01*
X95011960Y-109704500D01*
X95080081Y-109724502D01*
X95116725Y-109760499D01*
X95118553Y-109763235D01*
X95118557Y-109763239D01*
X95125448Y-109773552D01*
X95135761Y-109780443D01*
X95172718Y-109805137D01*
X95191769Y-109817867D01*
X95203938Y-109820288D01*
X95203939Y-109820288D01*
X95230761Y-109825623D01*
X95250252Y-109829500D01*
X96889748Y-109829500D01*
X96897977Y-109827863D01*
X96899131Y-109827967D01*
X96901979Y-109827686D01*
X96902032Y-109828226D01*
X96968689Y-109834190D01*
X97024757Y-109877744D01*
X97048377Y-109944696D01*
X97046137Y-109976020D01*
X97044500Y-109984252D01*
X97044500Y-111623748D01*
X97056133Y-111682231D01*
X97063026Y-111692547D01*
X97100448Y-111748552D01*
X97098583Y-111749798D01*
X97124749Y-111797717D01*
X97119684Y-111868532D01*
X97090723Y-111913595D01*
X96891723Y-112112595D01*
X96829411Y-112146621D01*
X96802628Y-112149500D01*
X96412704Y-112149500D01*
X96344583Y-112129498D01*
X96335779Y-112122884D01*
X96332400Y-112118963D01*
X96212095Y-112040985D01*
X96074739Y-111999907D01*
X96065763Y-111999852D01*
X96065762Y-111999852D01*
X96005555Y-111999484D01*
X95931376Y-111999031D01*
X95793529Y-112038428D01*
X95672280Y-112114930D01*
X95577377Y-112222388D01*
X95516447Y-112352163D01*
X95512059Y-112380349D01*
X95496535Y-112480054D01*
X95494391Y-112493823D01*
X95495555Y-112502725D01*
X95495555Y-112502728D01*
X95500366Y-112539517D01*
X95512980Y-112635979D01*
X95521692Y-112655778D01*
X95566539Y-112757700D01*
X95570720Y-112767203D01*
X95576497Y-112774076D01*
X95576498Y-112774077D01*
X95657190Y-112870072D01*
X95662970Y-112876948D01*
X95670447Y-112881925D01*
X95734938Y-112924854D01*
X95782313Y-112956390D01*
X95919157Y-112999142D01*
X95928129Y-112999306D01*
X95928132Y-112999307D01*
X95993463Y-113000504D01*
X96062499Y-113001770D01*
X96071533Y-112999307D01*
X96192158Y-112966421D01*
X96192160Y-112966420D01*
X96200817Y-112964060D01*
X96293335Y-112907254D01*
X96315343Y-112893741D01*
X96315344Y-112893741D01*
X96322991Y-112889045D01*
X96329015Y-112882390D01*
X96332427Y-112879557D01*
X96397615Y-112851432D01*
X96412913Y-112850500D01*
X96949176Y-112850500D01*
X96968275Y-112852533D01*
X96973083Y-112852760D01*
X96983261Y-112854951D01*
X97013491Y-112851373D01*
X97018746Y-112851063D01*
X97018735Y-112850928D01*
X97023914Y-112850500D01*
X97029115Y-112850500D01*
X97034243Y-112849646D01*
X97034249Y-112849646D01*
X97046473Y-112847611D01*
X97052349Y-112846774D01*
X97088799Y-112842460D01*
X97088801Y-112842460D01*
X97099138Y-112841236D01*
X97106758Y-112837577D01*
X97115103Y-112836188D01*
X97156584Y-112813806D01*
X97161870Y-112811113D01*
X97174742Y-112804932D01*
X97204326Y-112790726D01*
X97208274Y-112787408D01*
X97209438Y-112786244D01*
X97211083Y-112785182D01*
X97279162Y-112765038D01*
X97347324Y-112784899D01*
X97393929Y-112838458D01*
X97404179Y-112908710D01*
X97393479Y-112944587D01*
X97366447Y-113002163D01*
X97359576Y-113046295D01*
X97355107Y-113075000D01*
X97344391Y-113143823D01*
X97345555Y-113152725D01*
X97345555Y-113152728D01*
X97350572Y-113191094D01*
X97362980Y-113285979D01*
X97366597Y-113294199D01*
X97404954Y-113381371D01*
X97420720Y-113417203D01*
X97426499Y-113424078D01*
X97441921Y-113442425D01*
X97470442Y-113507441D01*
X97459286Y-113577556D01*
X97411993Y-113630508D01*
X97345470Y-113649500D01*
X96412704Y-113649500D01*
X96344583Y-113629498D01*
X96335779Y-113622884D01*
X96332400Y-113618963D01*
X96212095Y-113540985D01*
X96074739Y-113499907D01*
X96065763Y-113499852D01*
X96065762Y-113499852D01*
X96005555Y-113499484D01*
X95931376Y-113499031D01*
X95793529Y-113538428D01*
X95672280Y-113614930D01*
X95577377Y-113722388D01*
X95516447Y-113852163D01*
X95515066Y-113861035D01*
X95495793Y-113984819D01*
X95494391Y-113993823D01*
X95495555Y-114002725D01*
X95495555Y-114002728D01*
X95500799Y-114042825D01*
X95512980Y-114135979D01*
X95534321Y-114184480D01*
X95548404Y-114216485D01*
X95570720Y-114267203D01*
X95576497Y-114274076D01*
X95576498Y-114274077D01*
X95651316Y-114363084D01*
X95662970Y-114376948D01*
X95670447Y-114381925D01*
X95670449Y-114381927D01*
X95689220Y-114394422D01*
X95734843Y-114448819D01*
X95743815Y-114519246D01*
X95713286Y-114583344D01*
X95686640Y-114605869D01*
X95679874Y-114610138D01*
X95679871Y-114610140D01*
X95672280Y-114614930D01*
X95577377Y-114722388D01*
X95516447Y-114852163D01*
X95515066Y-114861035D01*
X95500175Y-114956677D01*
X95494391Y-114993823D01*
X95495555Y-115002725D01*
X95495555Y-115002728D01*
X95502008Y-115052072D01*
X95512980Y-115135979D01*
X95526292Y-115166233D01*
X95559102Y-115240798D01*
X95570720Y-115267203D01*
X95576497Y-115274076D01*
X95576498Y-115274077D01*
X95642447Y-115352533D01*
X95662970Y-115376948D01*
X95782313Y-115456390D01*
X95919157Y-115499142D01*
X95928129Y-115499306D01*
X95928132Y-115499307D01*
X95993463Y-115500504D01*
X96062499Y-115501770D01*
X96071533Y-115499307D01*
X96192158Y-115466421D01*
X96192160Y-115466420D01*
X96200817Y-115464060D01*
X96322991Y-115389045D01*
X96329015Y-115382390D01*
X96332427Y-115379557D01*
X96397615Y-115351432D01*
X96412913Y-115350500D01*
X98199176Y-115350500D01*
X98218275Y-115352533D01*
X98223083Y-115352760D01*
X98233261Y-115354951D01*
X98263491Y-115351373D01*
X98268746Y-115351063D01*
X98268735Y-115350928D01*
X98273914Y-115350500D01*
X98279115Y-115350500D01*
X98284243Y-115349646D01*
X98284249Y-115349646D01*
X98296473Y-115347611D01*
X98302349Y-115346774D01*
X98338799Y-115342460D01*
X98338801Y-115342460D01*
X98349138Y-115341236D01*
X98356758Y-115337577D01*
X98365103Y-115336188D01*
X98406584Y-115313806D01*
X98411870Y-115311113D01*
X98454326Y-115290726D01*
X98458274Y-115287408D01*
X98460207Y-115285475D01*
X98461804Y-115284010D01*
X98462294Y-115283746D01*
X98462313Y-115283766D01*
X98462402Y-115283687D01*
X98467794Y-115280778D01*
X98476385Y-115271485D01*
X98501455Y-115244364D01*
X98504884Y-115240798D01*
X98785478Y-114960204D01*
X98847790Y-114926178D01*
X98918605Y-114931243D01*
X98975441Y-114973790D01*
X98999509Y-115032962D01*
X99012980Y-115135979D01*
X99026292Y-115166233D01*
X99059102Y-115240798D01*
X99070720Y-115267203D01*
X99076497Y-115274076D01*
X99076498Y-115274077D01*
X99142447Y-115352533D01*
X99162970Y-115376948D01*
X99282313Y-115456390D01*
X99419157Y-115499142D01*
X99428129Y-115499306D01*
X99428132Y-115499307D01*
X99493463Y-115500504D01*
X99562499Y-115501770D01*
X99571533Y-115499307D01*
X99692158Y-115466421D01*
X99692160Y-115466420D01*
X99700817Y-115464060D01*
X99822991Y-115389045D01*
X99857493Y-115350928D01*
X99907886Y-115295254D01*
X99919200Y-115282754D01*
X99952471Y-115214083D01*
X100000172Y-115161501D01*
X100068730Y-115143055D01*
X100136378Y-115164602D01*
X100181191Y-115218275D01*
X100208220Y-115279703D01*
X100213997Y-115286576D01*
X100213998Y-115286577D01*
X100265302Y-115347611D01*
X100300470Y-115389448D01*
X100307947Y-115394425D01*
X100410567Y-115462735D01*
X100419813Y-115468890D01*
X100556657Y-115511642D01*
X100565629Y-115511806D01*
X100565632Y-115511807D01*
X100630963Y-115513004D01*
X100699999Y-115514270D01*
X100709033Y-115511807D01*
X100829658Y-115478921D01*
X100829660Y-115478920D01*
X100838317Y-115476560D01*
X100960491Y-115401545D01*
X101056700Y-115295254D01*
X101096026Y-115214084D01*
X101115295Y-115174314D01*
X101115295Y-115174313D01*
X101119210Y-115166233D01*
X101140799Y-115037914D01*
X101175958Y-114969724D01*
X101731899Y-114413783D01*
X101746853Y-114401705D01*
X101750405Y-114398473D01*
X101759152Y-114392825D01*
X101778002Y-114368914D01*
X101781499Y-114364979D01*
X101781395Y-114364891D01*
X101784750Y-114360932D01*
X101788428Y-114357254D01*
X101791447Y-114353029D01*
X101791454Y-114353021D01*
X101798672Y-114342920D01*
X101802236Y-114338173D01*
X101817869Y-114318342D01*
X101831392Y-114301189D01*
X101834193Y-114293213D01*
X101839111Y-114286331D01*
X101852605Y-114241209D01*
X101854439Y-114235563D01*
X101867429Y-114198573D01*
X101867430Y-114198570D01*
X101870055Y-114191094D01*
X101870500Y-114185956D01*
X101870500Y-114183251D01*
X101870595Y-114181052D01*
X101870754Y-114180520D01*
X101870781Y-114180521D01*
X101870788Y-114180405D01*
X101872543Y-114174537D01*
X101870597Y-114124996D01*
X101870500Y-114120050D01*
X101870500Y-113984372D01*
X101890502Y-113916251D01*
X101944158Y-113869758D01*
X102014432Y-113859654D01*
X102079012Y-113889148D01*
X102085595Y-113895277D01*
X102831540Y-114641222D01*
X102865566Y-114703534D01*
X102867379Y-114713971D01*
X102880980Y-114817979D01*
X102938720Y-114949203D01*
X102944497Y-114956076D01*
X102944498Y-114956077D01*
X103013289Y-115037914D01*
X103030970Y-115058948D01*
X103150313Y-115138390D01*
X103287157Y-115181142D01*
X103296129Y-115181306D01*
X103296132Y-115181307D01*
X103361463Y-115182504D01*
X103430499Y-115183770D01*
X103439533Y-115181307D01*
X103560158Y-115148421D01*
X103560160Y-115148420D01*
X103568817Y-115146060D01*
X103690991Y-115071045D01*
X103720980Y-115037914D01*
X103781178Y-114971407D01*
X103787200Y-114964754D01*
X103849710Y-114835733D01*
X103873496Y-114694354D01*
X103873647Y-114682000D01*
X103864042Y-114614930D01*
X103854596Y-114548968D01*
X103854595Y-114548965D01*
X103853323Y-114540082D01*
X103843850Y-114519246D01*
X103832567Y-114494432D01*
X103793984Y-114409572D01*
X103760319Y-114370502D01*
X103706260Y-114307763D01*
X103706257Y-114307760D01*
X103700400Y-114300963D01*
X103580095Y-114222985D01*
X103442739Y-114181907D01*
X103433762Y-114181852D01*
X103433761Y-114181852D01*
X103414838Y-114181736D01*
X103346841Y-114161316D01*
X103326515Y-114144833D01*
X103055992Y-113874310D01*
X103021966Y-113811998D01*
X103027031Y-113741183D01*
X103069578Y-113684347D01*
X103136098Y-113659536D01*
X103147388Y-113659236D01*
X103176499Y-113659770D01*
X103185163Y-113657408D01*
X103306158Y-113624421D01*
X103306160Y-113624420D01*
X103314817Y-113622060D01*
X103436991Y-113547045D01*
X103472839Y-113507441D01*
X103527178Y-113447407D01*
X103533200Y-113440754D01*
X103595710Y-113311733D01*
X103619496Y-113170354D01*
X103619647Y-113158000D01*
X103608601Y-113080865D01*
X103600596Y-113024968D01*
X103600595Y-113024965D01*
X103599323Y-113016082D01*
X103592995Y-113002163D01*
X103549842Y-112907254D01*
X103539984Y-112885572D01*
X103507275Y-112847611D01*
X103501046Y-112840382D01*
X103471733Y-112775720D01*
X103470500Y-112758135D01*
X103470500Y-111862040D01*
X103490502Y-111793919D01*
X103526499Y-111757275D01*
X103529235Y-111755447D01*
X103529239Y-111755443D01*
X103539552Y-111748552D01*
X103583867Y-111682231D01*
X103595500Y-111623748D01*
X103595500Y-109984252D01*
X103593863Y-109976023D01*
X103593967Y-109974869D01*
X103593686Y-109972021D01*
X103594226Y-109971968D01*
X103600190Y-109905311D01*
X103643744Y-109849243D01*
X103710696Y-109825623D01*
X103742020Y-109827863D01*
X103750252Y-109829500D01*
X104093500Y-109829500D01*
X104161621Y-109849502D01*
X104208114Y-109903158D01*
X104219500Y-109955500D01*
X104219500Y-112277176D01*
X104217467Y-112296275D01*
X104217240Y-112301083D01*
X104215049Y-112311261D01*
X104216273Y-112321600D01*
X104218627Y-112341491D01*
X104218937Y-112346746D01*
X104219072Y-112346735D01*
X104219500Y-112351914D01*
X104219500Y-112357115D01*
X104220354Y-112362243D01*
X104220354Y-112362249D01*
X104222389Y-112374473D01*
X104223226Y-112380349D01*
X104228764Y-112427138D01*
X104232423Y-112434758D01*
X104233812Y-112443103D01*
X104238757Y-112452267D01*
X104256192Y-112484580D01*
X104258884Y-112489865D01*
X104279274Y-112532326D01*
X104282592Y-112536274D01*
X104284525Y-112538207D01*
X104285990Y-112539804D01*
X104286254Y-112540294D01*
X104286234Y-112540313D01*
X104286313Y-112540402D01*
X104289222Y-112545794D01*
X104296870Y-112552864D01*
X104296871Y-112552865D01*
X104325636Y-112579455D01*
X104329202Y-112582884D01*
X106282595Y-114536277D01*
X106316621Y-114598589D01*
X106319500Y-114625372D01*
X106319500Y-117921484D01*
X106299498Y-117989605D01*
X106251876Y-118033145D01*
X106177996Y-118071769D01*
X106092002Y-118116726D01*
X106087201Y-118120586D01*
X106087198Y-118120588D01*
X106054688Y-118146727D01*
X105931447Y-118245815D01*
X105799024Y-118403630D01*
X105796056Y-118409028D01*
X105796053Y-118409033D01*
X105719801Y-118547736D01*
X105699776Y-118584162D01*
X105637484Y-118780532D01*
X105636798Y-118786649D01*
X105636797Y-118786653D01*
X105615207Y-118979137D01*
X105614520Y-118985262D01*
X105631759Y-119190553D01*
X105633458Y-119196478D01*
X105679395Y-119356678D01*
X105688544Y-119388586D01*
X105691359Y-119394063D01*
X105691360Y-119394066D01*
X105753678Y-119515324D01*
X105782712Y-119571818D01*
X105910677Y-119733270D01*
X105915370Y-119737264D01*
X105915371Y-119737265D01*
X105989541Y-119800388D01*
X106067564Y-119866791D01*
X106072942Y-119869797D01*
X106072944Y-119869798D01*
X106103387Y-119886812D01*
X106247398Y-119967297D01*
X106331280Y-119994552D01*
X106437471Y-120029056D01*
X106437475Y-120029057D01*
X106443329Y-120030959D01*
X106647894Y-120055351D01*
X106654029Y-120054879D01*
X106654031Y-120054879D01*
X106726625Y-120049293D01*
X106853300Y-120039546D01*
X106859230Y-120037890D01*
X106859232Y-120037890D01*
X107045797Y-119985800D01*
X107045796Y-119985800D01*
X107051725Y-119984145D01*
X107057214Y-119981372D01*
X107057220Y-119981370D01*
X107230116Y-119894033D01*
X107235610Y-119891258D01*
X107251345Y-119878965D01*
X107393101Y-119768213D01*
X107397951Y-119764424D01*
X107455992Y-119697183D01*
X107528540Y-119613134D01*
X107528540Y-119613133D01*
X107532564Y-119608472D01*
X107536481Y-119601578D01*
X107580246Y-119524536D01*
X107634323Y-119429344D01*
X107699351Y-119233863D01*
X107725171Y-119029474D01*
X107725583Y-119000000D01*
X107724138Y-118985262D01*
X108154520Y-118985262D01*
X108171759Y-119190553D01*
X108173458Y-119196478D01*
X108219395Y-119356678D01*
X108228544Y-119388586D01*
X108231359Y-119394063D01*
X108231360Y-119394066D01*
X108293678Y-119515324D01*
X108322712Y-119571818D01*
X108450677Y-119733270D01*
X108455370Y-119737264D01*
X108455371Y-119737265D01*
X108529541Y-119800388D01*
X108607564Y-119866791D01*
X108612942Y-119869797D01*
X108612944Y-119869798D01*
X108643387Y-119886812D01*
X108787398Y-119967297D01*
X108871280Y-119994552D01*
X108977471Y-120029056D01*
X108977475Y-120029057D01*
X108983329Y-120030959D01*
X109187894Y-120055351D01*
X109194029Y-120054879D01*
X109194031Y-120054879D01*
X109266625Y-120049293D01*
X109393300Y-120039546D01*
X109399230Y-120037890D01*
X109399232Y-120037890D01*
X109585797Y-119985800D01*
X109585796Y-119985800D01*
X109591725Y-119984145D01*
X109597214Y-119981372D01*
X109597220Y-119981370D01*
X109770116Y-119894033D01*
X109775610Y-119891258D01*
X109791345Y-119878965D01*
X109933101Y-119768213D01*
X109937951Y-119764424D01*
X109995992Y-119697183D01*
X110068540Y-119613134D01*
X110068540Y-119613133D01*
X110072564Y-119608472D01*
X110076481Y-119601578D01*
X110120246Y-119524536D01*
X110174323Y-119429344D01*
X110239351Y-119233863D01*
X110265171Y-119029474D01*
X110265583Y-119000000D01*
X110264138Y-118985262D01*
X110694520Y-118985262D01*
X110711759Y-119190553D01*
X110713458Y-119196478D01*
X110759395Y-119356678D01*
X110768544Y-119388586D01*
X110771359Y-119394063D01*
X110771360Y-119394066D01*
X110833678Y-119515324D01*
X110862712Y-119571818D01*
X110990677Y-119733270D01*
X110995370Y-119737264D01*
X110995371Y-119737265D01*
X111069541Y-119800388D01*
X111147564Y-119866791D01*
X111152942Y-119869797D01*
X111152944Y-119869798D01*
X111183387Y-119886812D01*
X111327398Y-119967297D01*
X111411280Y-119994552D01*
X111517471Y-120029056D01*
X111517475Y-120029057D01*
X111523329Y-120030959D01*
X111727894Y-120055351D01*
X111734029Y-120054879D01*
X111734031Y-120054879D01*
X111806625Y-120049293D01*
X111933300Y-120039546D01*
X111939230Y-120037890D01*
X111939232Y-120037890D01*
X112125797Y-119985800D01*
X112125796Y-119985800D01*
X112131725Y-119984145D01*
X112137214Y-119981372D01*
X112137220Y-119981370D01*
X112310116Y-119894033D01*
X112315610Y-119891258D01*
X112331345Y-119878965D01*
X112473101Y-119768213D01*
X112477951Y-119764424D01*
X112535992Y-119697183D01*
X112608540Y-119613134D01*
X112608540Y-119613133D01*
X112612564Y-119608472D01*
X112616481Y-119601578D01*
X112660246Y-119524536D01*
X112714323Y-119429344D01*
X112779351Y-119233863D01*
X112805171Y-119029474D01*
X112805583Y-119000000D01*
X112785480Y-118794970D01*
X112725935Y-118597749D01*
X112629218Y-118415849D01*
X112513121Y-118273500D01*
X112502906Y-118260975D01*
X112502903Y-118260972D01*
X112499011Y-118256200D01*
X112481786Y-118241950D01*
X112345025Y-118128811D01*
X112345021Y-118128809D01*
X112340275Y-118124882D01*
X112203091Y-118050707D01*
X112164474Y-118029827D01*
X112159055Y-118026897D01*
X111962254Y-117965977D01*
X111956129Y-117965333D01*
X111956128Y-117965333D01*
X111763498Y-117945087D01*
X111763496Y-117945087D01*
X111757369Y-117944443D01*
X111670529Y-117952346D01*
X111558342Y-117962555D01*
X111558339Y-117962556D01*
X111552203Y-117963114D01*
X111354572Y-118021280D01*
X111349107Y-118024137D01*
X111277729Y-118061453D01*
X111172002Y-118116726D01*
X111167201Y-118120586D01*
X111167198Y-118120588D01*
X111134688Y-118146727D01*
X111011447Y-118245815D01*
X110879024Y-118403630D01*
X110876056Y-118409028D01*
X110876053Y-118409033D01*
X110799801Y-118547736D01*
X110779776Y-118584162D01*
X110717484Y-118780532D01*
X110716798Y-118786649D01*
X110716797Y-118786653D01*
X110695207Y-118979137D01*
X110694520Y-118985262D01*
X110264138Y-118985262D01*
X110245480Y-118794970D01*
X110185935Y-118597749D01*
X110089218Y-118415849D01*
X109973121Y-118273500D01*
X109962906Y-118260975D01*
X109962903Y-118260972D01*
X109959011Y-118256200D01*
X109941786Y-118241950D01*
X109805025Y-118128811D01*
X109805021Y-118128809D01*
X109800275Y-118124882D01*
X109663091Y-118050707D01*
X109624474Y-118029827D01*
X109619055Y-118026897D01*
X109422254Y-117965977D01*
X109416129Y-117965333D01*
X109416128Y-117965333D01*
X109223498Y-117945087D01*
X109223496Y-117945087D01*
X109217369Y-117944443D01*
X109130529Y-117952346D01*
X109018342Y-117962555D01*
X109018339Y-117962556D01*
X109012203Y-117963114D01*
X108814572Y-118021280D01*
X108809107Y-118024137D01*
X108737729Y-118061453D01*
X108632002Y-118116726D01*
X108627201Y-118120586D01*
X108627198Y-118120588D01*
X108594688Y-118146727D01*
X108471447Y-118245815D01*
X108339024Y-118403630D01*
X108336056Y-118409028D01*
X108336053Y-118409033D01*
X108259801Y-118547736D01*
X108239776Y-118584162D01*
X108177484Y-118780532D01*
X108176798Y-118786649D01*
X108176797Y-118786653D01*
X108155207Y-118979137D01*
X108154520Y-118985262D01*
X107724138Y-118985262D01*
X107705480Y-118794970D01*
X107645935Y-118597749D01*
X107549218Y-118415849D01*
X107433121Y-118273500D01*
X107422906Y-118260975D01*
X107422903Y-118260972D01*
X107419011Y-118256200D01*
X107401786Y-118241950D01*
X107265025Y-118128811D01*
X107265021Y-118128809D01*
X107260275Y-118124882D01*
X107254854Y-118121951D01*
X107254850Y-118121948D01*
X107086572Y-118030961D01*
X107036163Y-117980966D01*
X107020500Y-117920125D01*
X107020500Y-114478824D01*
X107022533Y-114459725D01*
X107022760Y-114454917D01*
X107024951Y-114444739D01*
X107021373Y-114414509D01*
X107021063Y-114409254D01*
X107020928Y-114409265D01*
X107020500Y-114404087D01*
X107020500Y-114398885D01*
X107017609Y-114381515D01*
X107016773Y-114375644D01*
X107012460Y-114339200D01*
X107012459Y-114339198D01*
X107011236Y-114328861D01*
X107007577Y-114321240D01*
X107006188Y-114312897D01*
X106994225Y-114290726D01*
X106983813Y-114271428D01*
X106981118Y-114266138D01*
X106964162Y-114230827D01*
X106964159Y-114230823D01*
X106960726Y-114223673D01*
X106957407Y-114219726D01*
X106955475Y-114217794D01*
X106954012Y-114216199D01*
X106953752Y-114215719D01*
X106953776Y-114215697D01*
X106953685Y-114215594D01*
X106950778Y-114210206D01*
X106914351Y-114176533D01*
X106910785Y-114173104D01*
X104957405Y-112219723D01*
X104923379Y-112157411D01*
X104920500Y-112130628D01*
X104920500Y-111119823D01*
X110228391Y-111119823D01*
X110229555Y-111128725D01*
X110229555Y-111128728D01*
X110230814Y-111138354D01*
X110246980Y-111261979D01*
X110304720Y-111393203D01*
X110310496Y-111400074D01*
X110353951Y-111451770D01*
X110382472Y-111516786D01*
X110383500Y-111532846D01*
X110383500Y-115393176D01*
X110381467Y-115412275D01*
X110381240Y-115417083D01*
X110379049Y-115427261D01*
X110380273Y-115437600D01*
X110382627Y-115457491D01*
X110382937Y-115462746D01*
X110383072Y-115462735D01*
X110383500Y-115467914D01*
X110383500Y-115473115D01*
X110384354Y-115478243D01*
X110384354Y-115478249D01*
X110386389Y-115490473D01*
X110387226Y-115496349D01*
X110389328Y-115514105D01*
X110392764Y-115543138D01*
X110396423Y-115550758D01*
X110397812Y-115559103D01*
X110402757Y-115568267D01*
X110420192Y-115600580D01*
X110422884Y-115605865D01*
X110443274Y-115648326D01*
X110446592Y-115652274D01*
X110448525Y-115654207D01*
X110449990Y-115655804D01*
X110450254Y-115656294D01*
X110450234Y-115656313D01*
X110450313Y-115656402D01*
X110453222Y-115661794D01*
X110460870Y-115668864D01*
X110460871Y-115668865D01*
X110489636Y-115695455D01*
X110493202Y-115698884D01*
X113279742Y-118485424D01*
X113313768Y-118547736D01*
X113310749Y-118612617D01*
X113273848Y-118728946D01*
X113257484Y-118780532D01*
X113256798Y-118786649D01*
X113256797Y-118786653D01*
X113235207Y-118979137D01*
X113234520Y-118985262D01*
X113251759Y-119190553D01*
X113253458Y-119196478D01*
X113299395Y-119356678D01*
X113308544Y-119388586D01*
X113311359Y-119394063D01*
X113311360Y-119394066D01*
X113373678Y-119515324D01*
X113402712Y-119571818D01*
X113530677Y-119733270D01*
X113535370Y-119737264D01*
X113535371Y-119737265D01*
X113609541Y-119800388D01*
X113687564Y-119866791D01*
X113692942Y-119869797D01*
X113692944Y-119869798D01*
X113723387Y-119886812D01*
X113867398Y-119967297D01*
X113951280Y-119994552D01*
X114057471Y-120029056D01*
X114057475Y-120029057D01*
X114063329Y-120030959D01*
X114267894Y-120055351D01*
X114274029Y-120054879D01*
X114274031Y-120054879D01*
X114346625Y-120049293D01*
X114473300Y-120039546D01*
X114479230Y-120037890D01*
X114479232Y-120037890D01*
X114665797Y-119985800D01*
X114665796Y-119985800D01*
X114671725Y-119984145D01*
X114677214Y-119981372D01*
X114677220Y-119981370D01*
X114850116Y-119894033D01*
X114855610Y-119891258D01*
X114871345Y-119878965D01*
X115013101Y-119768213D01*
X115017951Y-119764424D01*
X115075992Y-119697183D01*
X115148540Y-119613134D01*
X115148540Y-119613133D01*
X115152564Y-119608472D01*
X115156481Y-119601578D01*
X115200246Y-119524536D01*
X115254323Y-119429344D01*
X115265155Y-119396783D01*
X115278496Y-119356678D01*
X115318978Y-119298354D01*
X115384566Y-119271175D01*
X115454437Y-119283770D01*
X115506406Y-119332141D01*
X115520971Y-119368751D01*
X115528564Y-119402444D01*
X115531645Y-119412275D01*
X115611770Y-119609603D01*
X115616413Y-119618794D01*
X115727694Y-119800388D01*
X115733777Y-119808699D01*
X115873213Y-119969667D01*
X115880580Y-119976883D01*
X116044434Y-120112916D01*
X116052881Y-120118831D01*
X116236756Y-120226279D01*
X116246042Y-120230729D01*
X116445001Y-120306703D01*
X116454899Y-120309579D01*
X116558250Y-120330606D01*
X116572299Y-120329410D01*
X116576000Y-120319065D01*
X116576000Y-120318517D01*
X117084000Y-120318517D01*
X117088064Y-120332359D01*
X117101478Y-120334393D01*
X117108184Y-120333534D01*
X117118262Y-120331392D01*
X117322255Y-120270191D01*
X117331842Y-120266433D01*
X117523095Y-120172739D01*
X117531945Y-120167464D01*
X117705328Y-120043792D01*
X117713200Y-120037139D01*
X117864052Y-119886812D01*
X117870730Y-119878965D01*
X117995003Y-119706020D01*
X118000313Y-119697183D01*
X118094670Y-119506267D01*
X118098469Y-119496672D01*
X118160377Y-119292910D01*
X118162555Y-119282837D01*
X118163986Y-119271962D01*
X118161775Y-119257778D01*
X118148617Y-119254000D01*
X117102115Y-119254000D01*
X117086876Y-119258475D01*
X117085671Y-119259865D01*
X117084000Y-119267548D01*
X117084000Y-120318517D01*
X116576000Y-120318517D01*
X116576000Y-118727885D01*
X117084000Y-118727885D01*
X117088475Y-118743124D01*
X117089865Y-118744329D01*
X117097548Y-118746000D01*
X118148344Y-118746000D01*
X118161875Y-118742027D01*
X118163180Y-118732947D01*
X118121214Y-118565875D01*
X118117894Y-118556124D01*
X118032972Y-118360814D01*
X118028105Y-118351739D01*
X117912426Y-118172926D01*
X117906136Y-118164757D01*
X117762806Y-118007240D01*
X117755273Y-118000215D01*
X117588139Y-117868222D01*
X117579552Y-117862517D01*
X117393117Y-117759599D01*
X117383705Y-117755369D01*
X117182959Y-117684280D01*
X117172988Y-117681646D01*
X117101837Y-117668972D01*
X117088540Y-117670432D01*
X117084000Y-117684989D01*
X117084000Y-118727885D01*
X116576000Y-118727885D01*
X116576000Y-117683102D01*
X116572082Y-117669758D01*
X116557806Y-117667771D01*
X116519324Y-117673660D01*
X116509288Y-117676051D01*
X116306868Y-117742212D01*
X116297359Y-117746209D01*
X116108463Y-117844542D01*
X116099738Y-117850036D01*
X115929433Y-117977905D01*
X115921726Y-117984748D01*
X115774590Y-118138717D01*
X115768104Y-118146727D01*
X115648098Y-118322649D01*
X115643000Y-118331623D01*
X115553338Y-118524783D01*
X115549775Y-118534470D01*
X115521012Y-118638185D01*
X115483533Y-118698483D01*
X115419405Y-118728946D01*
X115348986Y-118719903D01*
X115294636Y-118674224D01*
X115278973Y-118640933D01*
X115278143Y-118638185D01*
X115265935Y-118597749D01*
X115169218Y-118415849D01*
X115053121Y-118273500D01*
X115042906Y-118260975D01*
X115042903Y-118260972D01*
X115039011Y-118256200D01*
X115021786Y-118241950D01*
X114885025Y-118128811D01*
X114885021Y-118128809D01*
X114880275Y-118124882D01*
X114743091Y-118050707D01*
X114704474Y-118029827D01*
X114699055Y-118026897D01*
X114502254Y-117965977D01*
X114496129Y-117965333D01*
X114496128Y-117965333D01*
X114303498Y-117945087D01*
X114303496Y-117945087D01*
X114297369Y-117944443D01*
X114210529Y-117952346D01*
X114098342Y-117962555D01*
X114098339Y-117962556D01*
X114092203Y-117963114D01*
X114086295Y-117964853D01*
X114086294Y-117964853D01*
X113898651Y-118020079D01*
X113827654Y-118020124D01*
X113773981Y-117988300D01*
X112452466Y-116666784D01*
X111121405Y-115335723D01*
X111087379Y-115273411D01*
X111084500Y-115246628D01*
X111084500Y-111533208D01*
X111104502Y-111465087D01*
X111117078Y-111448661D01*
X111153200Y-111408754D01*
X111157406Y-111400074D01*
X111211795Y-111287814D01*
X111211795Y-111287813D01*
X111215710Y-111279733D01*
X111239496Y-111138354D01*
X111239647Y-111126000D01*
X111219323Y-110984082D01*
X111159984Y-110853572D01*
X111141598Y-110832234D01*
X111072260Y-110751763D01*
X111072257Y-110751760D01*
X111066400Y-110744963D01*
X110946095Y-110666985D01*
X110808739Y-110625907D01*
X110799763Y-110625852D01*
X110799762Y-110625852D01*
X110739555Y-110625484D01*
X110665376Y-110625031D01*
X110527529Y-110664428D01*
X110406280Y-110740930D01*
X110311377Y-110848388D01*
X110250447Y-110978163D01*
X110228391Y-111119823D01*
X104920500Y-111119823D01*
X104920500Y-109955500D01*
X104940502Y-109887379D01*
X104994158Y-109840886D01*
X105046500Y-109829500D01*
X105389748Y-109829500D01*
X105409239Y-109825623D01*
X105436061Y-109820288D01*
X105436062Y-109820288D01*
X105448231Y-109817867D01*
X105467283Y-109805137D01*
X105504239Y-109780443D01*
X105514552Y-109773552D01*
X105558867Y-109707231D01*
X105570500Y-109648748D01*
X105570500Y-109284752D01*
X105590502Y-109216631D01*
X105644158Y-109170138D01*
X105714432Y-109160034D01*
X105735604Y-109165843D01*
X105735630Y-109165746D01*
X105743609Y-109167884D01*
X105751238Y-109171044D01*
X105868639Y-109186500D01*
X108146381Y-109186500D01*
X108162827Y-109187578D01*
X108194000Y-109191682D01*
X108202188Y-109190604D01*
X108225173Y-109187578D01*
X108241619Y-109186500D01*
X110686381Y-109186500D01*
X110702827Y-109187578D01*
X110734000Y-109191682D01*
X110742188Y-109190604D01*
X110773361Y-109186500D01*
X110882574Y-109172122D01*
X110890762Y-109171044D01*
X110903553Y-109165746D01*
X110982579Y-109133012D01*
X111036841Y-109110536D01*
X111162282Y-109014282D01*
X111171538Y-109002220D01*
X111181429Y-108989329D01*
X111192297Y-108976938D01*
X113664946Y-106504290D01*
X113677337Y-106493423D01*
X113681625Y-106490133D01*
X113702282Y-106474282D01*
X113716067Y-106456318D01*
X113747805Y-106414956D01*
X113793507Y-106355395D01*
X113798536Y-106348841D01*
X113859044Y-106202762D01*
X113879682Y-106046000D01*
X113875578Y-106014827D01*
X113874500Y-105998381D01*
X113874500Y-101957925D01*
X113894502Y-101889804D01*
X113948158Y-101843311D01*
X114018432Y-101833207D01*
X114083012Y-101862701D01*
X114089595Y-101868830D01*
X115529703Y-103308938D01*
X115540570Y-103321328D01*
X115559718Y-103346282D01*
X115566264Y-103351305D01*
X115605287Y-103381248D01*
X115634866Y-103403945D01*
X115685159Y-103442536D01*
X115812947Y-103495468D01*
X115815353Y-103496464D01*
X115831238Y-103503044D01*
X115988000Y-103523682D01*
X115996188Y-103522604D01*
X116019173Y-103519578D01*
X116035619Y-103518500D01*
X127617075Y-103518500D01*
X127685196Y-103538502D01*
X127706170Y-103555405D01*
X131362595Y-107211830D01*
X131396621Y-107274142D01*
X131399500Y-107300925D01*
X131399500Y-111955989D01*
X131379498Y-112024110D01*
X131362595Y-112045084D01*
X131360421Y-112047258D01*
X131352850Y-112052850D01*
X131347258Y-112060421D01*
X131277959Y-112154243D01*
X131277958Y-112154246D01*
X131272366Y-112161816D01*
X131227481Y-112289631D01*
X131224500Y-112321166D01*
X131224500Y-113678834D01*
X131225021Y-113684347D01*
X131226454Y-113699500D01*
X131227481Y-113710369D01*
X131272366Y-113838184D01*
X131277958Y-113845754D01*
X131277959Y-113845757D01*
X131330143Y-113916408D01*
X131352850Y-113947150D01*
X131360421Y-113952742D01*
X131423360Y-113999230D01*
X131466270Y-114055791D01*
X131474500Y-114100581D01*
X131474500Y-124468489D01*
X131454498Y-124536610D01*
X131442969Y-124550915D01*
X131440350Y-124552850D01*
X131434758Y-124560421D01*
X131365459Y-124654243D01*
X131365458Y-124654246D01*
X131359866Y-124661816D01*
X131314981Y-124789631D01*
X131312000Y-124821166D01*
X131312000Y-126178834D01*
X131312279Y-126181782D01*
X131313954Y-126199500D01*
X131314981Y-126210369D01*
X131359866Y-126338184D01*
X131365458Y-126345754D01*
X131365459Y-126345757D01*
X131427835Y-126430206D01*
X131440350Y-126447150D01*
X131447921Y-126452742D01*
X131541743Y-126522041D01*
X131541746Y-126522042D01*
X131549316Y-126527634D01*
X131677131Y-126572519D01*
X131684777Y-126573242D01*
X131684778Y-126573242D01*
X131690748Y-126573806D01*
X131708666Y-126575500D01*
X132441334Y-126575500D01*
X132459252Y-126573806D01*
X132465222Y-126573242D01*
X132465223Y-126573242D01*
X132472869Y-126572519D01*
X132600684Y-126527634D01*
X132608254Y-126522042D01*
X132608257Y-126522041D01*
X132702079Y-126452742D01*
X132709650Y-126447150D01*
X132722165Y-126430206D01*
X132784541Y-126345757D01*
X132784542Y-126345754D01*
X132790134Y-126338184D01*
X132835019Y-126210369D01*
X132836047Y-126199500D01*
X132837721Y-126181782D01*
X132838000Y-126178834D01*
X134237000Y-126178834D01*
X134237279Y-126181782D01*
X134238954Y-126199500D01*
X134239981Y-126210369D01*
X134284866Y-126338184D01*
X134290458Y-126345754D01*
X134290459Y-126345757D01*
X134352835Y-126430206D01*
X134365350Y-126447150D01*
X134372921Y-126452742D01*
X134466743Y-126522041D01*
X134466746Y-126522042D01*
X134474316Y-126527634D01*
X134602131Y-126572519D01*
X134609777Y-126573242D01*
X134609778Y-126573242D01*
X134615748Y-126573806D01*
X134633666Y-126575500D01*
X135366334Y-126575500D01*
X135384252Y-126573806D01*
X135390222Y-126573242D01*
X135390223Y-126573242D01*
X135397869Y-126572519D01*
X135525684Y-126527634D01*
X135533254Y-126522042D01*
X135533257Y-126522041D01*
X135627079Y-126452742D01*
X135634650Y-126447150D01*
X135647165Y-126430206D01*
X135709541Y-126345757D01*
X135709542Y-126345754D01*
X135715134Y-126338184D01*
X135736314Y-126277872D01*
X135757476Y-126217612D01*
X135757477Y-126217608D01*
X135760019Y-126210369D01*
X135760742Y-126202722D01*
X135761449Y-126199500D01*
X135795584Y-126137247D01*
X135857956Y-126103332D01*
X135884522Y-126100500D01*
X138771484Y-126100500D01*
X138839605Y-126120502D01*
X138883145Y-126168124D01*
X138909017Y-126217612D01*
X138966726Y-126327998D01*
X138970586Y-126332799D01*
X138970588Y-126332802D01*
X139056439Y-126439579D01*
X139095815Y-126488553D01*
X139253630Y-126620976D01*
X139259031Y-126623945D01*
X139259041Y-126623952D01*
X139316585Y-126655587D01*
X139366644Y-126705932D01*
X139381537Y-126775349D01*
X139356536Y-126841798D01*
X139299579Y-126884182D01*
X139255884Y-126892001D01*
X139202905Y-126892001D01*
X139196386Y-126892338D01*
X139100794Y-126902257D01*
X139087400Y-126905149D01*
X138933216Y-126956588D01*
X138920038Y-126962761D01*
X138782193Y-127048063D01*
X138770792Y-127057099D01*
X138656261Y-127171829D01*
X138647249Y-127183240D01*
X138562184Y-127321243D01*
X138556037Y-127334424D01*
X138504862Y-127488710D01*
X138501995Y-127502086D01*
X138492328Y-127596438D01*
X138492000Y-127602855D01*
X138492000Y-127977885D01*
X138496475Y-127993124D01*
X138497865Y-127994329D01*
X138505548Y-127996000D01*
X141489884Y-127996000D01*
X141505123Y-127991525D01*
X141506328Y-127990135D01*
X141507999Y-127982452D01*
X141507999Y-127602905D01*
X141507662Y-127596386D01*
X141497743Y-127500794D01*
X141494851Y-127487400D01*
X141443412Y-127333216D01*
X141437239Y-127320038D01*
X141351937Y-127182193D01*
X141342901Y-127170792D01*
X141228171Y-127056261D01*
X141216760Y-127047249D01*
X141078757Y-126962184D01*
X141065576Y-126956037D01*
X140911290Y-126904862D01*
X140897914Y-126901995D01*
X140803562Y-126892328D01*
X140797145Y-126892000D01*
X140745289Y-126892000D01*
X140677168Y-126871998D01*
X140630675Y-126818342D01*
X140620571Y-126748068D01*
X140650065Y-126683488D01*
X140686136Y-126654749D01*
X140728702Y-126632116D01*
X140728708Y-126632112D01*
X140734151Y-126629218D01*
X140865563Y-126522041D01*
X140889025Y-126502906D01*
X140889028Y-126502903D01*
X140893800Y-126499011D01*
X140902452Y-126488553D01*
X141021189Y-126345025D01*
X141021191Y-126345021D01*
X141025118Y-126340275D01*
X141123103Y-126159055D01*
X141184023Y-125962254D01*
X141205557Y-125757369D01*
X141186886Y-125552203D01*
X141128720Y-125354572D01*
X141033274Y-125172002D01*
X141023404Y-125159725D01*
X140908050Y-125016254D01*
X140908050Y-125016253D01*
X140904185Y-125011447D01*
X140746370Y-124879024D01*
X140740972Y-124876056D01*
X140740967Y-124876053D01*
X140571235Y-124782743D01*
X140565838Y-124779776D01*
X140369468Y-124717484D01*
X140363351Y-124716798D01*
X140363347Y-124716797D01*
X140287126Y-124708248D01*
X140209136Y-124699500D01*
X139798159Y-124699500D01*
X139644970Y-124714520D01*
X139447749Y-124774065D01*
X139265849Y-124870782D01*
X139175902Y-124944141D01*
X139110975Y-124997094D01*
X139110972Y-124997097D01*
X139106200Y-125000989D01*
X139102273Y-125005736D01*
X139102271Y-125005738D01*
X138978811Y-125154975D01*
X138978809Y-125154979D01*
X138974882Y-125159725D01*
X138971952Y-125165145D01*
X138971948Y-125165150D01*
X138880961Y-125333428D01*
X138830966Y-125383837D01*
X138770125Y-125399500D01*
X135889000Y-125399500D01*
X135820879Y-125379498D01*
X135774386Y-125325842D01*
X135763000Y-125273500D01*
X135763000Y-124821166D01*
X135760019Y-124789631D01*
X135715134Y-124661816D01*
X135709542Y-124654246D01*
X135709541Y-124654243D01*
X135640242Y-124560421D01*
X135634650Y-124552850D01*
X135600500Y-124527626D01*
X135533257Y-124477959D01*
X135533254Y-124477958D01*
X135525684Y-124472366D01*
X135397869Y-124427481D01*
X135390223Y-124426758D01*
X135390222Y-124426758D01*
X135384252Y-124426194D01*
X135366334Y-124424500D01*
X134633666Y-124424500D01*
X134615748Y-124426194D01*
X134609778Y-124426758D01*
X134609777Y-124426758D01*
X134602131Y-124427481D01*
X134474316Y-124472366D01*
X134466746Y-124477958D01*
X134466743Y-124477959D01*
X134399500Y-124527626D01*
X134365350Y-124552850D01*
X134359758Y-124560421D01*
X134290459Y-124654243D01*
X134290458Y-124654246D01*
X134284866Y-124661816D01*
X134239981Y-124789631D01*
X134237000Y-124821166D01*
X134237000Y-126178834D01*
X132838000Y-126178834D01*
X132838000Y-124821166D01*
X132835019Y-124789631D01*
X132790134Y-124661816D01*
X132784542Y-124654246D01*
X132784541Y-124654243D01*
X132715242Y-124560421D01*
X132709650Y-124552850D01*
X132709771Y-124552761D01*
X132678379Y-124495272D01*
X132675500Y-124468489D01*
X132675500Y-116397095D01*
X138492001Y-116397095D01*
X138492338Y-116403614D01*
X138502257Y-116499206D01*
X138505149Y-116512600D01*
X138556588Y-116666784D01*
X138562761Y-116679962D01*
X138648063Y-116817807D01*
X138657099Y-116829208D01*
X138771829Y-116943739D01*
X138783240Y-116952751D01*
X138921243Y-117037816D01*
X138934424Y-117043963D01*
X139088710Y-117095138D01*
X139102086Y-117098005D01*
X139196438Y-117107672D01*
X139202854Y-117108000D01*
X139727885Y-117108000D01*
X139743124Y-117103525D01*
X139744329Y-117102135D01*
X139746000Y-117094452D01*
X139746000Y-117089884D01*
X140254000Y-117089884D01*
X140258475Y-117105123D01*
X140259865Y-117106328D01*
X140267548Y-117107999D01*
X140797095Y-117107999D01*
X140803614Y-117107662D01*
X140899206Y-117097743D01*
X140912600Y-117094851D01*
X141066784Y-117043412D01*
X141079962Y-117037239D01*
X141217807Y-116951937D01*
X141229208Y-116942901D01*
X141343739Y-116828171D01*
X141352751Y-116816760D01*
X141437816Y-116678757D01*
X141443963Y-116665576D01*
X141495138Y-116511290D01*
X141498005Y-116497914D01*
X141507672Y-116403562D01*
X141508000Y-116397146D01*
X141508000Y-116022115D01*
X141503525Y-116006876D01*
X141502135Y-116005671D01*
X141494452Y-116004000D01*
X140272115Y-116004000D01*
X140256876Y-116008475D01*
X140255671Y-116009865D01*
X140254000Y-116017548D01*
X140254000Y-117089884D01*
X139746000Y-117089884D01*
X139746000Y-116022115D01*
X139741525Y-116006876D01*
X139740135Y-116005671D01*
X139732452Y-116004000D01*
X138510116Y-116004000D01*
X138494877Y-116008475D01*
X138493672Y-116009865D01*
X138492001Y-116017548D01*
X138492001Y-116397095D01*
X132675500Y-116397095D01*
X132675500Y-113916408D01*
X132693642Y-113854620D01*
X132692631Y-113854085D01*
X132695254Y-113849130D01*
X132695502Y-113848287D01*
X132696358Y-113847045D01*
X132697040Y-113845757D01*
X132702634Y-113838184D01*
X132747519Y-113710369D01*
X132748547Y-113699500D01*
X132749979Y-113684347D01*
X132750500Y-113678834D01*
X134149500Y-113678834D01*
X134150021Y-113684347D01*
X134151454Y-113699500D01*
X134152481Y-113710369D01*
X134197366Y-113838184D01*
X134202958Y-113845754D01*
X134202959Y-113845757D01*
X134255143Y-113916408D01*
X134277850Y-113947150D01*
X134285421Y-113952742D01*
X134379243Y-114022041D01*
X134379246Y-114022042D01*
X134386816Y-114027634D01*
X134514631Y-114072519D01*
X134522277Y-114073242D01*
X134522278Y-114073242D01*
X134528248Y-114073806D01*
X134546166Y-114075500D01*
X135278834Y-114075500D01*
X135296752Y-114073806D01*
X135302722Y-114073242D01*
X135302723Y-114073242D01*
X135310369Y-114072519D01*
X135438184Y-114027634D01*
X135445754Y-114022042D01*
X135445757Y-114022041D01*
X135539579Y-113952742D01*
X135547150Y-113947150D01*
X135569857Y-113916408D01*
X135622041Y-113845757D01*
X135622042Y-113845754D01*
X135627634Y-113838184D01*
X135661698Y-113741183D01*
X135669976Y-113717612D01*
X135669977Y-113717608D01*
X135672519Y-113710369D01*
X135673242Y-113702722D01*
X135673949Y-113699500D01*
X135708084Y-113637247D01*
X135770456Y-113603332D01*
X135797022Y-113600500D01*
X138771484Y-113600500D01*
X138839605Y-113620502D01*
X138883145Y-113668124D01*
X138907996Y-113715659D01*
X138966726Y-113827998D01*
X138970586Y-113832799D01*
X138970588Y-113832802D01*
X139020819Y-113895277D01*
X139095815Y-113988553D01*
X139253630Y-114120976D01*
X139259031Y-114123945D01*
X139259041Y-114123952D01*
X139316585Y-114155587D01*
X139366644Y-114205932D01*
X139381537Y-114275349D01*
X139356536Y-114341798D01*
X139299579Y-114384182D01*
X139255884Y-114392001D01*
X139202905Y-114392001D01*
X139196386Y-114392338D01*
X139100794Y-114402257D01*
X139087400Y-114405149D01*
X138933216Y-114456588D01*
X138920038Y-114462761D01*
X138782193Y-114548063D01*
X138770792Y-114557099D01*
X138656261Y-114671829D01*
X138647249Y-114683240D01*
X138562184Y-114821243D01*
X138556037Y-114834424D01*
X138504862Y-114988710D01*
X138501995Y-115002086D01*
X138492328Y-115096438D01*
X138492000Y-115102855D01*
X138492000Y-115477885D01*
X138496475Y-115493124D01*
X138497865Y-115494329D01*
X138505548Y-115496000D01*
X141489884Y-115496000D01*
X141505123Y-115491525D01*
X141506328Y-115490135D01*
X141507999Y-115482452D01*
X141507999Y-115102905D01*
X141507662Y-115096386D01*
X141497743Y-115000794D01*
X141494851Y-114987400D01*
X141443412Y-114833216D01*
X141437239Y-114820038D01*
X141351937Y-114682193D01*
X141342901Y-114670792D01*
X141228171Y-114556261D01*
X141216760Y-114547249D01*
X141078757Y-114462184D01*
X141065576Y-114456037D01*
X140911290Y-114404862D01*
X140897914Y-114401995D01*
X140803562Y-114392328D01*
X140797145Y-114392000D01*
X140745289Y-114392000D01*
X140677168Y-114371998D01*
X140630675Y-114318342D01*
X140620571Y-114248068D01*
X140650065Y-114183488D01*
X140686136Y-114154749D01*
X140728702Y-114132116D01*
X140728708Y-114132112D01*
X140734151Y-114129218D01*
X140876545Y-114013084D01*
X140889025Y-114002906D01*
X140889028Y-114002903D01*
X140893800Y-113999011D01*
X140902452Y-113988553D01*
X141021189Y-113845025D01*
X141021191Y-113845021D01*
X141025118Y-113840275D01*
X141123103Y-113659055D01*
X141184023Y-113462254D01*
X141184667Y-113456128D01*
X141204913Y-113263498D01*
X141204913Y-113263496D01*
X141205557Y-113257369D01*
X141194416Y-113134950D01*
X141187445Y-113058342D01*
X141187444Y-113058339D01*
X141186886Y-113052203D01*
X141128720Y-112854572D01*
X141120175Y-112838226D01*
X141036131Y-112677467D01*
X141033274Y-112672002D01*
X141026620Y-112663725D01*
X140908050Y-112516254D01*
X140908050Y-112516253D01*
X140904185Y-112511447D01*
X140746370Y-112379024D01*
X140740972Y-112376056D01*
X140740967Y-112376053D01*
X140571235Y-112282743D01*
X140565838Y-112279776D01*
X140369468Y-112217484D01*
X140363351Y-112216798D01*
X140363347Y-112216797D01*
X140287126Y-112208248D01*
X140209136Y-112199500D01*
X139798159Y-112199500D01*
X139644970Y-112214520D01*
X139447749Y-112274065D01*
X139265849Y-112370782D01*
X139177175Y-112443103D01*
X139110975Y-112497094D01*
X139110972Y-112497097D01*
X139106200Y-112500989D01*
X139102273Y-112505736D01*
X139102271Y-112505738D01*
X138978811Y-112654975D01*
X138978809Y-112654979D01*
X138974882Y-112659725D01*
X138971952Y-112665145D01*
X138971948Y-112665150D01*
X138880961Y-112833428D01*
X138830966Y-112883837D01*
X138770125Y-112899500D01*
X135801500Y-112899500D01*
X135733379Y-112879498D01*
X135686886Y-112825842D01*
X135675500Y-112773500D01*
X135675500Y-112321166D01*
X135672519Y-112289631D01*
X135627634Y-112161816D01*
X135622042Y-112154246D01*
X135622041Y-112154243D01*
X135552742Y-112060421D01*
X135547150Y-112052850D01*
X135524286Y-112035962D01*
X135445757Y-111977959D01*
X135445754Y-111977958D01*
X135438184Y-111972366D01*
X135310369Y-111927481D01*
X135302723Y-111926758D01*
X135302722Y-111926758D01*
X135296752Y-111926194D01*
X135278834Y-111924500D01*
X134546166Y-111924500D01*
X134528248Y-111926194D01*
X134522278Y-111926758D01*
X134522277Y-111926758D01*
X134514631Y-111927481D01*
X134386816Y-111972366D01*
X134379246Y-111977958D01*
X134379243Y-111977959D01*
X134300714Y-112035962D01*
X134277850Y-112052850D01*
X134272258Y-112060421D01*
X134202959Y-112154243D01*
X134202958Y-112154246D01*
X134197366Y-112161816D01*
X134152481Y-112289631D01*
X134149500Y-112321166D01*
X134149500Y-113678834D01*
X132750500Y-113678834D01*
X132750500Y-112321166D01*
X132747519Y-112289631D01*
X132702634Y-112161816D01*
X132697043Y-112154246D01*
X132697039Y-112154239D01*
X132625149Y-112056909D01*
X132600766Y-111990231D01*
X132600500Y-111982050D01*
X132600500Y-107047619D01*
X132601578Y-107031173D01*
X132604604Y-107008188D01*
X132605682Y-107000000D01*
X132594016Y-106911386D01*
X132586122Y-106851426D01*
X132585044Y-106843238D01*
X132524536Y-106697159D01*
X132495449Y-106659252D01*
X132488350Y-106650000D01*
X132433305Y-106578264D01*
X132428282Y-106571718D01*
X132403328Y-106552570D01*
X132390938Y-106541703D01*
X129582830Y-103733595D01*
X129548804Y-103671283D01*
X129553869Y-103600468D01*
X129596416Y-103543632D01*
X129662936Y-103518821D01*
X129671925Y-103518500D01*
X138525784Y-103518500D01*
X138593905Y-103538502D01*
X138627135Y-103569641D01*
X138697255Y-103664576D01*
X138697258Y-103664579D01*
X138702850Y-103672150D01*
X138710421Y-103677742D01*
X138804243Y-103747041D01*
X138804246Y-103747042D01*
X138811816Y-103752634D01*
X138939631Y-103797519D01*
X138947277Y-103798242D01*
X138947278Y-103798242D01*
X138953248Y-103798806D01*
X138971166Y-103800500D01*
X140528834Y-103800500D01*
X140546752Y-103798806D01*
X140552722Y-103798242D01*
X140552723Y-103798242D01*
X140560369Y-103797519D01*
X140688184Y-103752634D01*
X140695754Y-103747042D01*
X140695757Y-103747041D01*
X140789579Y-103677742D01*
X140797150Y-103672150D01*
X140810132Y-103654574D01*
X140872041Y-103570757D01*
X140872042Y-103570754D01*
X140877634Y-103563184D01*
X140922519Y-103435369D01*
X140925500Y-103403834D01*
X140925500Y-102096166D01*
X140922519Y-102064631D01*
X140877634Y-101936816D01*
X140872042Y-101929246D01*
X140872041Y-101929243D01*
X140802742Y-101835421D01*
X140797150Y-101827850D01*
X140780206Y-101815335D01*
X140695757Y-101752959D01*
X140695754Y-101752958D01*
X140688184Y-101747366D01*
X140560369Y-101702481D01*
X140552723Y-101701758D01*
X140552722Y-101701758D01*
X140546752Y-101701194D01*
X140528834Y-101699500D01*
X138971166Y-101699500D01*
X138953248Y-101701194D01*
X138947278Y-101701758D01*
X138947277Y-101701758D01*
X138939631Y-101702481D01*
X138811816Y-101747366D01*
X138804246Y-101752958D01*
X138804243Y-101752959D01*
X138719794Y-101815335D01*
X138702850Y-101827850D01*
X138697258Y-101835421D01*
X138627959Y-101929243D01*
X138627958Y-101929246D01*
X138622366Y-101936816D01*
X138577481Y-102064631D01*
X138574500Y-102096166D01*
X138574500Y-102191500D01*
X138554498Y-102259621D01*
X138500842Y-102306114D01*
X138448500Y-102317500D01*
X127965619Y-102317500D01*
X127949173Y-102316422D01*
X127926188Y-102313396D01*
X127918000Y-102312318D01*
X127909812Y-102313396D01*
X127886827Y-102316422D01*
X127870381Y-102317500D01*
X116288925Y-102317500D01*
X116220804Y-102297498D01*
X116199830Y-102280595D01*
X113732293Y-99813058D01*
X113721434Y-99800677D01*
X113702282Y-99775718D01*
X113677328Y-99756570D01*
X113664945Y-99745709D01*
X111192292Y-97273057D01*
X111181432Y-97260675D01*
X111162282Y-97235718D01*
X111036841Y-97139464D01*
X110890762Y-97078956D01*
X110773361Y-97063500D01*
X110734000Y-97058318D01*
X110725812Y-97059396D01*
X110702827Y-97062422D01*
X110686381Y-97063500D01*
X102653619Y-97063500D01*
X102637173Y-97062422D01*
X102614188Y-97059396D01*
X102606000Y-97058318D01*
X102597812Y-97059396D01*
X102574827Y-97062422D01*
X102558381Y-97063500D01*
X95214925Y-97063500D01*
X95146804Y-97043498D01*
X95125830Y-97026595D01*
X90843058Y-92743823D01*
X96494391Y-92743823D01*
X96512980Y-92885979D01*
X96516597Y-92894199D01*
X96560433Y-92993823D01*
X96570720Y-93017203D01*
X96576497Y-93024076D01*
X96576498Y-93024077D01*
X96577622Y-93025414D01*
X96662970Y-93126948D01*
X96782313Y-93206390D01*
X96919157Y-93249142D01*
X96928129Y-93249306D01*
X96928132Y-93249307D01*
X96993463Y-93250504D01*
X97062499Y-93251770D01*
X97071533Y-93249307D01*
X97192158Y-93216421D01*
X97192160Y-93216420D01*
X97200817Y-93214060D01*
X97322991Y-93139045D01*
X97419200Y-93032754D01*
X97438062Y-92993823D01*
X98244391Y-92993823D01*
X98245555Y-93002725D01*
X98245555Y-93002728D01*
X98248522Y-93025414D01*
X98262980Y-93135979D01*
X98266597Y-93144199D01*
X98312846Y-93249307D01*
X98320720Y-93267203D01*
X98326497Y-93274076D01*
X98326498Y-93274077D01*
X98333792Y-93282754D01*
X98412970Y-93376948D01*
X98532313Y-93456390D01*
X98669157Y-93499142D01*
X98678129Y-93499306D01*
X98678132Y-93499307D01*
X98743463Y-93500504D01*
X98812499Y-93501770D01*
X98821533Y-93499307D01*
X98942158Y-93466421D01*
X98942160Y-93466420D01*
X98950817Y-93464060D01*
X99072991Y-93389045D01*
X99169200Y-93282754D01*
X99231710Y-93153733D01*
X99253299Y-93025414D01*
X99288458Y-92957224D01*
X99608277Y-92637405D01*
X99670589Y-92603379D01*
X99697372Y-92600500D01*
X109052628Y-92600500D01*
X109120749Y-92620502D01*
X109141723Y-92637405D01*
X116966217Y-100461899D01*
X116978295Y-100476853D01*
X116981527Y-100480405D01*
X116987175Y-100489152D01*
X116995352Y-100495598D01*
X117011086Y-100508002D01*
X117015021Y-100511499D01*
X117015109Y-100511395D01*
X117019068Y-100514750D01*
X117022746Y-100518428D01*
X117026971Y-100521447D01*
X117026979Y-100521454D01*
X117037080Y-100528672D01*
X117041827Y-100532236D01*
X117078811Y-100561392D01*
X117086787Y-100564193D01*
X117093669Y-100569111D01*
X117103647Y-100572095D01*
X117138791Y-100582605D01*
X117144437Y-100584439D01*
X117181427Y-100597429D01*
X117181430Y-100597430D01*
X117188906Y-100600055D01*
X117194044Y-100600500D01*
X117196749Y-100600500D01*
X117198948Y-100600595D01*
X117199480Y-100600754D01*
X117199479Y-100600781D01*
X117199595Y-100600788D01*
X117205463Y-100602543D01*
X117255003Y-100600597D01*
X117259950Y-100600500D01*
X138546484Y-100600500D01*
X138614605Y-100620502D01*
X138658145Y-100668124D01*
X138704867Y-100757493D01*
X138741726Y-100827998D01*
X138745586Y-100832799D01*
X138745588Y-100832802D01*
X138847983Y-100960156D01*
X138870815Y-100988553D01*
X139028630Y-101120976D01*
X139034028Y-101123944D01*
X139034033Y-101123947D01*
X139160551Y-101193500D01*
X139209162Y-101220224D01*
X139405532Y-101282516D01*
X139411649Y-101283202D01*
X139411653Y-101283203D01*
X139487874Y-101291752D01*
X139565864Y-101300500D01*
X139926841Y-101300500D01*
X140080030Y-101285480D01*
X140277251Y-101225935D01*
X140459151Y-101129218D01*
X140596214Y-101017432D01*
X140614025Y-101002906D01*
X140614028Y-101002903D01*
X140618800Y-100999011D01*
X140627452Y-100988553D01*
X140746189Y-100845025D01*
X140746191Y-100845021D01*
X140750118Y-100840275D01*
X140848103Y-100659055D01*
X140909023Y-100462254D01*
X140909667Y-100456128D01*
X140929913Y-100263498D01*
X140929913Y-100263496D01*
X140930557Y-100257369D01*
X140921247Y-100155069D01*
X140912445Y-100058342D01*
X140912444Y-100058339D01*
X140911886Y-100052203D01*
X140853720Y-99854572D01*
X140850623Y-99848647D01*
X140784551Y-99722264D01*
X140758274Y-99672002D01*
X140748404Y-99659725D01*
X140633050Y-99516254D01*
X140633050Y-99516253D01*
X140629185Y-99511447D01*
X140471370Y-99379024D01*
X140465972Y-99376056D01*
X140465967Y-99376053D01*
X140296235Y-99282743D01*
X140290838Y-99279776D01*
X140094468Y-99217484D01*
X140088351Y-99216798D01*
X140088347Y-99216797D01*
X140011182Y-99208142D01*
X139934136Y-99199500D01*
X139573159Y-99199500D01*
X139419970Y-99214520D01*
X139222749Y-99274065D01*
X139040849Y-99370782D01*
X138972515Y-99426514D01*
X138885975Y-99497094D01*
X138885972Y-99497097D01*
X138881200Y-99500989D01*
X138877273Y-99505736D01*
X138877271Y-99505738D01*
X138753811Y-99654975D01*
X138753809Y-99654979D01*
X138749882Y-99659725D01*
X138746952Y-99665145D01*
X138746948Y-99665150D01*
X138655961Y-99833428D01*
X138605966Y-99883837D01*
X138545125Y-99899500D01*
X117447371Y-99899500D01*
X117379250Y-99879498D01*
X117358276Y-99862595D01*
X113459120Y-95963438D01*
X109533783Y-92038101D01*
X109521705Y-92023147D01*
X109518473Y-92019595D01*
X109512825Y-92010848D01*
X109488914Y-91991998D01*
X109484979Y-91988501D01*
X109484891Y-91988605D01*
X109480932Y-91985250D01*
X109477254Y-91981572D01*
X109473029Y-91978553D01*
X109473021Y-91978546D01*
X109462920Y-91971328D01*
X109458173Y-91967764D01*
X109443056Y-91955847D01*
X109421189Y-91938608D01*
X109413213Y-91935807D01*
X109406331Y-91930889D01*
X109361164Y-91917381D01*
X109355558Y-91915559D01*
X109318577Y-91902572D01*
X109318571Y-91902571D01*
X109311094Y-91899945D01*
X109305956Y-91899500D01*
X109303237Y-91899500D01*
X109301055Y-91899405D01*
X109300520Y-91899245D01*
X109300521Y-91899218D01*
X109300403Y-91899211D01*
X109294536Y-91897456D01*
X109244981Y-91899403D01*
X109240034Y-91899500D01*
X99550824Y-91899500D01*
X99531725Y-91897467D01*
X99526917Y-91897240D01*
X99516739Y-91895049D01*
X99487523Y-91898507D01*
X99486509Y-91898627D01*
X99481254Y-91898937D01*
X99481265Y-91899072D01*
X99476087Y-91899500D01*
X99470885Y-91899500D01*
X99453515Y-91902391D01*
X99447645Y-91903227D01*
X99400861Y-91908764D01*
X99393241Y-91912423D01*
X99384897Y-91913812D01*
X99375732Y-91918757D01*
X99375730Y-91918758D01*
X99343441Y-91936181D01*
X99338162Y-91938872D01*
X99295674Y-91959274D01*
X99291726Y-91962592D01*
X99289787Y-91964531D01*
X99288196Y-91965990D01*
X99287706Y-91966254D01*
X99287687Y-91966234D01*
X99287598Y-91966313D01*
X99282206Y-91969222D01*
X99275136Y-91976870D01*
X99275135Y-91976871D01*
X99248545Y-92005636D01*
X99245116Y-92009202D01*
X98792063Y-92462255D01*
X98729751Y-92496281D01*
X98702200Y-92499158D01*
X98694310Y-92499110D01*
X98681376Y-92499031D01*
X98543529Y-92538428D01*
X98422280Y-92614930D01*
X98327377Y-92722388D01*
X98266447Y-92852163D01*
X98244391Y-92993823D01*
X97438062Y-92993823D01*
X97481710Y-92903733D01*
X97503299Y-92775414D01*
X97538458Y-92707224D01*
X98608277Y-91637405D01*
X98670589Y-91603379D01*
X98697372Y-91600500D01*
X109552628Y-91600500D01*
X109620749Y-91620502D01*
X109641723Y-91637405D01*
X115966217Y-97961899D01*
X115978295Y-97976853D01*
X115981527Y-97980405D01*
X115987175Y-97989152D01*
X115995352Y-97995598D01*
X116011086Y-98008002D01*
X116015021Y-98011499D01*
X116015109Y-98011395D01*
X116019068Y-98014750D01*
X116022746Y-98018428D01*
X116026971Y-98021447D01*
X116026979Y-98021454D01*
X116037080Y-98028672D01*
X116041827Y-98032236D01*
X116078811Y-98061392D01*
X116086787Y-98064193D01*
X116093669Y-98069111D01*
X116103647Y-98072095D01*
X116103649Y-98072096D01*
X116138809Y-98082611D01*
X116144457Y-98084446D01*
X116181423Y-98097428D01*
X116181429Y-98097429D01*
X116188906Y-98100055D01*
X116194044Y-98100500D01*
X116196749Y-98100500D01*
X116198945Y-98100595D01*
X116199480Y-98100755D01*
X116199479Y-98100782D01*
X116199595Y-98100789D01*
X116205463Y-98102544D01*
X116255019Y-98100597D01*
X116259966Y-98100500D01*
X138546484Y-98100500D01*
X138614605Y-98120502D01*
X138658145Y-98168124D01*
X138741726Y-98327998D01*
X138745586Y-98332799D01*
X138745588Y-98332802D01*
X138806396Y-98408432D01*
X138870815Y-98488553D01*
X139028630Y-98620976D01*
X139034028Y-98623944D01*
X139034033Y-98623947D01*
X139203765Y-98717257D01*
X139209162Y-98720224D01*
X139405532Y-98782516D01*
X139411649Y-98783202D01*
X139411653Y-98783203D01*
X139487874Y-98791752D01*
X139565864Y-98800500D01*
X139926841Y-98800500D01*
X140080030Y-98785480D01*
X140277251Y-98725935D01*
X140459151Y-98629218D01*
X140549098Y-98555859D01*
X140614025Y-98502906D01*
X140614028Y-98502903D01*
X140618800Y-98499011D01*
X140627452Y-98488553D01*
X140746189Y-98345025D01*
X140746191Y-98345021D01*
X140750118Y-98340275D01*
X140848103Y-98159055D01*
X140909023Y-97962254D01*
X140930557Y-97757369D01*
X140911886Y-97552203D01*
X140853720Y-97354572D01*
X140758274Y-97172002D01*
X140748404Y-97159725D01*
X140633050Y-97016254D01*
X140633050Y-97016253D01*
X140629185Y-97011447D01*
X140471370Y-96879024D01*
X140465972Y-96876056D01*
X140465967Y-96876053D01*
X140296240Y-96782746D01*
X140290838Y-96779776D01*
X140287022Y-96778566D01*
X140232866Y-96733824D01*
X140211268Y-96666193D01*
X140229663Y-96597620D01*
X140282210Y-96549879D01*
X140305579Y-96541271D01*
X140322535Y-96536870D01*
X140332575Y-96533335D01*
X140532970Y-96443063D01*
X140542256Y-96437894D01*
X140724575Y-96315150D01*
X140732870Y-96308481D01*
X140891900Y-96156772D01*
X140898941Y-96148814D01*
X141030141Y-95972475D01*
X141035745Y-95963438D01*
X141135357Y-95767516D01*
X141139357Y-95757665D01*
X141204534Y-95547760D01*
X141206817Y-95537376D01*
X141208861Y-95521957D01*
X141206665Y-95507793D01*
X141193478Y-95504000D01*
X138308808Y-95504000D01*
X138295277Y-95507973D01*
X138293752Y-95518580D01*
X138318477Y-95636421D01*
X138321537Y-95646617D01*
X138402263Y-95851029D01*
X138406994Y-95860561D01*
X138521016Y-96048462D01*
X138527280Y-96057052D01*
X138671327Y-96223052D01*
X138678958Y-96230472D01*
X138848911Y-96369826D01*
X138857678Y-96375850D01*
X139048682Y-96484576D01*
X139058346Y-96489041D01*
X139208553Y-96543564D01*
X139265761Y-96585609D01*
X139291157Y-96651908D01*
X139276677Y-96721412D01*
X139226919Y-96772055D01*
X139222765Y-96774060D01*
X139222749Y-96774065D01*
X139040849Y-96870782D01*
X138991884Y-96910717D01*
X138885975Y-96997094D01*
X138885972Y-96997097D01*
X138881200Y-97000989D01*
X138877273Y-97005736D01*
X138877271Y-97005738D01*
X138753811Y-97154975D01*
X138753809Y-97154979D01*
X138749882Y-97159725D01*
X138746952Y-97165145D01*
X138746948Y-97165150D01*
X138655961Y-97333428D01*
X138605966Y-97383837D01*
X138545125Y-97399500D01*
X116447372Y-97399500D01*
X116379251Y-97379498D01*
X116358277Y-97362595D01*
X113973725Y-94978043D01*
X138291139Y-94978043D01*
X138293335Y-94992207D01*
X138306522Y-94996000D01*
X139477885Y-94996000D01*
X139493124Y-94991525D01*
X139494329Y-94990135D01*
X139496000Y-94982452D01*
X139496000Y-94977885D01*
X140004000Y-94977885D01*
X140008475Y-94993124D01*
X140009865Y-94994329D01*
X140017548Y-94996000D01*
X141191192Y-94996000D01*
X141204723Y-94992027D01*
X141206248Y-94981420D01*
X141181523Y-94863579D01*
X141178463Y-94853383D01*
X141097737Y-94648971D01*
X141093006Y-94639439D01*
X140978984Y-94451538D01*
X140972720Y-94442948D01*
X140828673Y-94276948D01*
X140821042Y-94269528D01*
X140651089Y-94130174D01*
X140642322Y-94124150D01*
X140451318Y-94015424D01*
X140441654Y-94010959D01*
X140235059Y-93935969D01*
X140224792Y-93933198D01*
X140021826Y-93896496D01*
X140008586Y-93897915D01*
X140004000Y-93912550D01*
X140004000Y-94977885D01*
X139496000Y-94977885D01*
X139496000Y-93916151D01*
X139491690Y-93901473D01*
X139479807Y-93899410D01*
X139400675Y-93906124D01*
X139390203Y-93907914D01*
X139177465Y-93963130D01*
X139167425Y-93966665D01*
X138967030Y-94056937D01*
X138957744Y-94062106D01*
X138775425Y-94184850D01*
X138767130Y-94191519D01*
X138608100Y-94343228D01*
X138601059Y-94351186D01*
X138469859Y-94527525D01*
X138464255Y-94536562D01*
X138364643Y-94732484D01*
X138360643Y-94742335D01*
X138295466Y-94952240D01*
X138293183Y-94962624D01*
X138291139Y-94978043D01*
X113973725Y-94978043D01*
X110033783Y-91038101D01*
X110021705Y-91023147D01*
X110018473Y-91019595D01*
X110012825Y-91010848D01*
X109988914Y-90991998D01*
X109984979Y-90988501D01*
X109984891Y-90988605D01*
X109980932Y-90985250D01*
X109977254Y-90981572D01*
X109973029Y-90978553D01*
X109973021Y-90978546D01*
X109962920Y-90971328D01*
X109958173Y-90967764D01*
X109947403Y-90959274D01*
X109921189Y-90938608D01*
X109913213Y-90935807D01*
X109906331Y-90930889D01*
X109861164Y-90917381D01*
X109855558Y-90915559D01*
X109818577Y-90902572D01*
X109818571Y-90902571D01*
X109811094Y-90899945D01*
X109805956Y-90899500D01*
X109803237Y-90899500D01*
X109801055Y-90899405D01*
X109800520Y-90899245D01*
X109800521Y-90899218D01*
X109800403Y-90899211D01*
X109794536Y-90897456D01*
X109744981Y-90899403D01*
X109740034Y-90899500D01*
X98550824Y-90899500D01*
X98531725Y-90897467D01*
X98526917Y-90897240D01*
X98516739Y-90895049D01*
X98487523Y-90898507D01*
X98486509Y-90898627D01*
X98481254Y-90898937D01*
X98481265Y-90899072D01*
X98476087Y-90899500D01*
X98470885Y-90899500D01*
X98453515Y-90902391D01*
X98447644Y-90903227D01*
X98411200Y-90907540D01*
X98411198Y-90907541D01*
X98400861Y-90908764D01*
X98393240Y-90912423D01*
X98384897Y-90913812D01*
X98375733Y-90918757D01*
X98375732Y-90918757D01*
X98343428Y-90936187D01*
X98338138Y-90938882D01*
X98302820Y-90955841D01*
X98302813Y-90955845D01*
X98295673Y-90959274D01*
X98291726Y-90962592D01*
X98289791Y-90964527D01*
X98288196Y-90965990D01*
X98287706Y-90966254D01*
X98287687Y-90966234D01*
X98287598Y-90966313D01*
X98282206Y-90969222D01*
X98275136Y-90976870D01*
X98275135Y-90976871D01*
X98248545Y-91005636D01*
X98245116Y-91009202D01*
X97042063Y-92212255D01*
X96979751Y-92246281D01*
X96952200Y-92249158D01*
X96944310Y-92249110D01*
X96931376Y-92249031D01*
X96793529Y-92288428D01*
X96672280Y-92364930D01*
X96577377Y-92472388D01*
X96516447Y-92602163D01*
X96494391Y-92743823D01*
X90843058Y-92743823D01*
X87637405Y-89538170D01*
X87603379Y-89475858D01*
X87600500Y-89449075D01*
X87600500Y-85695626D01*
X87601578Y-85679179D01*
X87604605Y-85656188D01*
X87605683Y-85648000D01*
X87585044Y-85491238D01*
X87524536Y-85345159D01*
X87452450Y-85251215D01*
X87428282Y-85219718D01*
X87403328Y-85200570D01*
X87390938Y-85189703D01*
X82082611Y-79881376D01*
X82048585Y-79819064D01*
X82053650Y-79748249D01*
X82096197Y-79691413D01*
X82099837Y-79689107D01*
X82101183Y-79688634D01*
X82108764Y-79683035D01*
X82202575Y-79613745D01*
X82210150Y-79608150D01*
X82290634Y-79499183D01*
X82308860Y-79447284D01*
X82332974Y-79378615D01*
X82335519Y-79371368D01*
X82338500Y-79339833D01*
X82338499Y-77632168D01*
X82335519Y-77600632D01*
X82332974Y-77593385D01*
X82293756Y-77481706D01*
X82293755Y-77481704D01*
X82290634Y-77472817D01*
X82210150Y-77363850D01*
X82101183Y-77283366D01*
X82092296Y-77280245D01*
X82092294Y-77280244D01*
X82088279Y-77278834D01*
X111199500Y-77278834D01*
X111202481Y-77310369D01*
X111247366Y-77438184D01*
X111252958Y-77445754D01*
X111252959Y-77445757D01*
X111301246Y-77511131D01*
X111327850Y-77547150D01*
X111335421Y-77552742D01*
X111429243Y-77622041D01*
X111429246Y-77622042D01*
X111436816Y-77627634D01*
X111564631Y-77672519D01*
X111572277Y-77673242D01*
X111572278Y-77673242D01*
X111578248Y-77673806D01*
X111596166Y-77675500D01*
X112903834Y-77675500D01*
X112921752Y-77673806D01*
X112927722Y-77673242D01*
X112927723Y-77673242D01*
X112935369Y-77672519D01*
X113063184Y-77627634D01*
X113070754Y-77622042D01*
X113070757Y-77622041D01*
X113164579Y-77552742D01*
X113172150Y-77547150D01*
X113198754Y-77511131D01*
X113247041Y-77445757D01*
X113247042Y-77445754D01*
X113252634Y-77438184D01*
X113297519Y-77310369D01*
X113300500Y-77278834D01*
X113300500Y-76676841D01*
X113699500Y-76676841D01*
X113714520Y-76830030D01*
X113774065Y-77027251D01*
X113870782Y-77209151D01*
X113935877Y-77288965D01*
X113997094Y-77364025D01*
X113997097Y-77364028D01*
X114000989Y-77368800D01*
X114005736Y-77372727D01*
X114005738Y-77372729D01*
X114154975Y-77496189D01*
X114154979Y-77496191D01*
X114159725Y-77500118D01*
X114340945Y-77598103D01*
X114537746Y-77659023D01*
X114543871Y-77659667D01*
X114543872Y-77659667D01*
X114736502Y-77679913D01*
X114736504Y-77679913D01*
X114742631Y-77680557D01*
X114830956Y-77672519D01*
X114941658Y-77662445D01*
X114941661Y-77662444D01*
X114947797Y-77661886D01*
X115145428Y-77603720D01*
X115327998Y-77508274D01*
X115332799Y-77504414D01*
X115332802Y-77504412D01*
X115483746Y-77383050D01*
X115483747Y-77383050D01*
X115488553Y-77379185D01*
X115620976Y-77221370D01*
X115623944Y-77215972D01*
X115623947Y-77215967D01*
X115717257Y-77046235D01*
X115720224Y-77040838D01*
X115782516Y-76844468D01*
X115783474Y-76835932D01*
X115800107Y-76687636D01*
X115800500Y-76684136D01*
X115800500Y-76273159D01*
X115785480Y-76119970D01*
X115725935Y-75922749D01*
X115629218Y-75740849D01*
X115540756Y-75632384D01*
X115502906Y-75585975D01*
X115502903Y-75585972D01*
X115499011Y-75581200D01*
X115446313Y-75537604D01*
X115345025Y-75453811D01*
X115345021Y-75453809D01*
X115340275Y-75449882D01*
X115159055Y-75351897D01*
X114962254Y-75290977D01*
X114956129Y-75290333D01*
X114956128Y-75290333D01*
X114763498Y-75270087D01*
X114763496Y-75270087D01*
X114757369Y-75269443D01*
X114676988Y-75276758D01*
X114558342Y-75287555D01*
X114558339Y-75287556D01*
X114552203Y-75288114D01*
X114354572Y-75346280D01*
X114172002Y-75441726D01*
X114167201Y-75445586D01*
X114167198Y-75445588D01*
X114094246Y-75504243D01*
X114011447Y-75570815D01*
X113879024Y-75728630D01*
X113876056Y-75734028D01*
X113876053Y-75734033D01*
X113846228Y-75788285D01*
X113779776Y-75909162D01*
X113717484Y-76105532D01*
X113716798Y-76111649D01*
X113716797Y-76111653D01*
X113708248Y-76187874D01*
X113699500Y-76265864D01*
X113699500Y-76676841D01*
X113300500Y-76676841D01*
X113300500Y-75671166D01*
X113297519Y-75639631D01*
X113252634Y-75511816D01*
X113247042Y-75504246D01*
X113247041Y-75504243D01*
X113177742Y-75410421D01*
X113172150Y-75402850D01*
X113155206Y-75390335D01*
X113070757Y-75327959D01*
X113070754Y-75327958D01*
X113063184Y-75322366D01*
X112935369Y-75277481D01*
X112927723Y-75276758D01*
X112927722Y-75276758D01*
X112921752Y-75276194D01*
X112903834Y-75274500D01*
X111596166Y-75274500D01*
X111578248Y-75276194D01*
X111572278Y-75276758D01*
X111572277Y-75276758D01*
X111564631Y-75277481D01*
X111436816Y-75322366D01*
X111429246Y-75327958D01*
X111429243Y-75327959D01*
X111344794Y-75390335D01*
X111327850Y-75402850D01*
X111322258Y-75410421D01*
X111252959Y-75504243D01*
X111252958Y-75504246D01*
X111247366Y-75511816D01*
X111202481Y-75639631D01*
X111199500Y-75671166D01*
X111199500Y-77278834D01*
X82088279Y-77278834D01*
X81980615Y-77241026D01*
X81973368Y-77238481D01*
X81965722Y-77237758D01*
X81965721Y-77237758D01*
X81959751Y-77237194D01*
X81941833Y-77235500D01*
X80736500Y-77235500D01*
X80668379Y-77215498D01*
X80621886Y-77161842D01*
X80610500Y-77109500D01*
X80610500Y-73961619D01*
X80611578Y-73945173D01*
X80614604Y-73922188D01*
X80615682Y-73914000D01*
X80595044Y-73757238D01*
X80534536Y-73611159D01*
X80462450Y-73517215D01*
X80438282Y-73485718D01*
X80413328Y-73466570D01*
X80400938Y-73455703D01*
X77837405Y-70892170D01*
X77803379Y-70829858D01*
X77800500Y-70803075D01*
X77800500Y-69514669D01*
X85532001Y-69514669D01*
X85532371Y-69521490D01*
X85537895Y-69572352D01*
X85541521Y-69587604D01*
X85586676Y-69708054D01*
X85595214Y-69723649D01*
X85671715Y-69825724D01*
X85684276Y-69838285D01*
X85786351Y-69914786D01*
X85801946Y-69923324D01*
X85922394Y-69968478D01*
X85937649Y-69972105D01*
X85988514Y-69977631D01*
X85995328Y-69978000D01*
X91167885Y-69978000D01*
X91183124Y-69973525D01*
X91184329Y-69972135D01*
X91186000Y-69964452D01*
X91186000Y-69959884D01*
X91694000Y-69959884D01*
X91698475Y-69975123D01*
X91699865Y-69976328D01*
X91707548Y-69977999D01*
X96884669Y-69977999D01*
X96891490Y-69977629D01*
X96942352Y-69972105D01*
X96957604Y-69968479D01*
X97078054Y-69923324D01*
X97093649Y-69914786D01*
X97195724Y-69838285D01*
X97208285Y-69825724D01*
X97284786Y-69723649D01*
X97293324Y-69708054D01*
X97338478Y-69587606D01*
X97342105Y-69572351D01*
X97347631Y-69521486D01*
X97348000Y-69514672D01*
X97348000Y-66695096D01*
X105630000Y-66695096D01*
X105630337Y-66701611D01*
X105640256Y-66797203D01*
X105643150Y-66810602D01*
X105694588Y-66964783D01*
X105700762Y-66977962D01*
X105786063Y-67115807D01*
X105795099Y-67127208D01*
X105909830Y-67241739D01*
X105921241Y-67250751D01*
X106059245Y-67335818D01*
X106072423Y-67341962D01*
X106226716Y-67393139D01*
X106240081Y-67396005D01*
X106334439Y-67405672D01*
X106340855Y-67406000D01*
X106915885Y-67406000D01*
X106931124Y-67401525D01*
X106932329Y-67400135D01*
X106934000Y-67392452D01*
X106934000Y-67387885D01*
X107442000Y-67387885D01*
X107446475Y-67403124D01*
X107447865Y-67404329D01*
X107455548Y-67406000D01*
X108035096Y-67406000D01*
X108041611Y-67405663D01*
X108137203Y-67395744D01*
X108150602Y-67392850D01*
X108304783Y-67341412D01*
X108317962Y-67335238D01*
X108455807Y-67249937D01*
X108467208Y-67240901D01*
X108581739Y-67126170D01*
X108590751Y-67114759D01*
X108675818Y-66976755D01*
X108681962Y-66963577D01*
X108733139Y-66809284D01*
X108736005Y-66795919D01*
X108745672Y-66701561D01*
X108746000Y-66695145D01*
X108746000Y-64870115D01*
X108741525Y-64854876D01*
X108740135Y-64853671D01*
X108732452Y-64852000D01*
X107460115Y-64852000D01*
X107444876Y-64856475D01*
X107443671Y-64857865D01*
X107442000Y-64865548D01*
X107442000Y-67387885D01*
X106934000Y-67387885D01*
X106934000Y-64870115D01*
X106929525Y-64854876D01*
X106928135Y-64853671D01*
X106920452Y-64852000D01*
X105648115Y-64852000D01*
X105632876Y-64856475D01*
X105631671Y-64857865D01*
X105630000Y-64865548D01*
X105630000Y-66695096D01*
X97348000Y-66695096D01*
X97348000Y-65042115D01*
X97343525Y-65026876D01*
X97342135Y-65025671D01*
X97334452Y-65024000D01*
X91712115Y-65024000D01*
X91696876Y-65028475D01*
X91695671Y-65029865D01*
X91694000Y-65037548D01*
X91694000Y-69959884D01*
X91186000Y-69959884D01*
X91186000Y-65042115D01*
X91181525Y-65026876D01*
X91180135Y-65025671D01*
X91172452Y-65024000D01*
X85550116Y-65024000D01*
X85534877Y-65028475D01*
X85533672Y-65029865D01*
X85532001Y-65037548D01*
X85532001Y-69514669D01*
X77800500Y-69514669D01*
X77800500Y-69276500D01*
X77820502Y-69208379D01*
X77874158Y-69161886D01*
X77926500Y-69150500D01*
X78319748Y-69150500D01*
X78325816Y-69149293D01*
X78366061Y-69141288D01*
X78366062Y-69141288D01*
X78378231Y-69138867D01*
X78444552Y-69094552D01*
X78488867Y-69028231D01*
X78500500Y-68969748D01*
X78500500Y-67800925D01*
X78520502Y-67732804D01*
X78537405Y-67711830D01*
X81751350Y-64497885D01*
X85532000Y-64497885D01*
X85536475Y-64513124D01*
X85537865Y-64514329D01*
X85545548Y-64516000D01*
X91167885Y-64516000D01*
X91183124Y-64511525D01*
X91184329Y-64510135D01*
X91186000Y-64502452D01*
X91186000Y-64497885D01*
X91694000Y-64497885D01*
X91698475Y-64513124D01*
X91699865Y-64514329D01*
X91707548Y-64516000D01*
X97329884Y-64516000D01*
X97345123Y-64511525D01*
X97346328Y-64510135D01*
X97347999Y-64502452D01*
X97347999Y-64325885D01*
X105630000Y-64325885D01*
X105634475Y-64341124D01*
X105635865Y-64342329D01*
X105643548Y-64344000D01*
X106915885Y-64344000D01*
X106931124Y-64339525D01*
X106932329Y-64338135D01*
X106934000Y-64330452D01*
X106934000Y-64325885D01*
X107442000Y-64325885D01*
X107446475Y-64341124D01*
X107447865Y-64342329D01*
X107455548Y-64344000D01*
X108727885Y-64344000D01*
X108743124Y-64339525D01*
X108744329Y-64338135D01*
X108746000Y-64330452D01*
X108746000Y-62500904D01*
X108745663Y-62494389D01*
X108735744Y-62398797D01*
X108732850Y-62385398D01*
X108681412Y-62231217D01*
X108675238Y-62218038D01*
X108589937Y-62080193D01*
X108580901Y-62068792D01*
X108466170Y-61954261D01*
X108454759Y-61945249D01*
X108316755Y-61860182D01*
X108303577Y-61854038D01*
X108149284Y-61802861D01*
X108135919Y-61799995D01*
X108041561Y-61790328D01*
X108035144Y-61790000D01*
X107460115Y-61790000D01*
X107444876Y-61794475D01*
X107443671Y-61795865D01*
X107442000Y-61803548D01*
X107442000Y-64325885D01*
X106934000Y-64325885D01*
X106934000Y-61808115D01*
X106929525Y-61792876D01*
X106928135Y-61791671D01*
X106920452Y-61790000D01*
X106340904Y-61790000D01*
X106334389Y-61790337D01*
X106238797Y-61800256D01*
X106225398Y-61803150D01*
X106071217Y-61854588D01*
X106058038Y-61860762D01*
X105920193Y-61946063D01*
X105908792Y-61955099D01*
X105794261Y-62069830D01*
X105785249Y-62081241D01*
X105700182Y-62219245D01*
X105694038Y-62232423D01*
X105642861Y-62386716D01*
X105639995Y-62400081D01*
X105630328Y-62494439D01*
X105630000Y-62500856D01*
X105630000Y-64325885D01*
X97347999Y-64325885D01*
X97347999Y-60025331D01*
X97347629Y-60018510D01*
X97342105Y-59967648D01*
X97338479Y-59952396D01*
X97293324Y-59831946D01*
X97284786Y-59816351D01*
X97208285Y-59714276D01*
X97195724Y-59701715D01*
X97093649Y-59625214D01*
X97078054Y-59616676D01*
X96957606Y-59571522D01*
X96942351Y-59567895D01*
X96891486Y-59562369D01*
X96884672Y-59562000D01*
X91712115Y-59562000D01*
X91696876Y-59566475D01*
X91695671Y-59567865D01*
X91694000Y-59575548D01*
X91694000Y-64497885D01*
X91186000Y-64497885D01*
X91186000Y-59580116D01*
X91181525Y-59564877D01*
X91180135Y-59563672D01*
X91172452Y-59562001D01*
X85995331Y-59562001D01*
X85988510Y-59562371D01*
X85937648Y-59567895D01*
X85922396Y-59571521D01*
X85801946Y-59616676D01*
X85786351Y-59625214D01*
X85684276Y-59701715D01*
X85671715Y-59714276D01*
X85595214Y-59816351D01*
X85586676Y-59831946D01*
X85541522Y-59952394D01*
X85537895Y-59967649D01*
X85532369Y-60018514D01*
X85532000Y-60025328D01*
X85532000Y-64497885D01*
X81751350Y-64497885D01*
X83194938Y-63054297D01*
X83207329Y-63043429D01*
X83225736Y-63029305D01*
X83232282Y-63024282D01*
X83328536Y-62898841D01*
X83389044Y-62752762D01*
X83390555Y-62741288D01*
X83396707Y-62694553D01*
X83408604Y-62604189D01*
X83408604Y-62604188D01*
X83409682Y-62596000D01*
X83405578Y-62564827D01*
X83404500Y-62548381D01*
X83404500Y-57964669D01*
X86982001Y-57964669D01*
X86982371Y-57971490D01*
X86987895Y-58022352D01*
X86991521Y-58037604D01*
X87036676Y-58158054D01*
X87045214Y-58173649D01*
X87121715Y-58275724D01*
X87134276Y-58288285D01*
X87236351Y-58364786D01*
X87251946Y-58373324D01*
X87372394Y-58418478D01*
X87387649Y-58422105D01*
X87438514Y-58427631D01*
X87445328Y-58428000D01*
X87767885Y-58428000D01*
X87783124Y-58423525D01*
X87784329Y-58422135D01*
X87786000Y-58414452D01*
X87786000Y-55892115D01*
X87781525Y-55876876D01*
X87780135Y-55875671D01*
X87772452Y-55874000D01*
X87000116Y-55874000D01*
X86984877Y-55878475D01*
X86983672Y-55879865D01*
X86982001Y-55887548D01*
X86982001Y-57964669D01*
X83404500Y-57964669D01*
X83404500Y-53894925D01*
X83424502Y-53826804D01*
X83441405Y-53805830D01*
X84031830Y-53215405D01*
X84094142Y-53181379D01*
X84120925Y-53178500D01*
X86856000Y-53178500D01*
X86924121Y-53198502D01*
X86970614Y-53252158D01*
X86982000Y-53304500D01*
X86982000Y-55347885D01*
X86986475Y-55363124D01*
X86987865Y-55364329D01*
X86995548Y-55366000D01*
X88168000Y-55366000D01*
X88236121Y-55386002D01*
X88282614Y-55439658D01*
X88294000Y-55492000D01*
X88294000Y-58409884D01*
X88298475Y-58425123D01*
X88299865Y-58426328D01*
X88307548Y-58427999D01*
X88634669Y-58427999D01*
X88641490Y-58427629D01*
X88692352Y-58422105D01*
X88707604Y-58418479D01*
X88828054Y-58373324D01*
X88843649Y-58364786D01*
X88945724Y-58288285D01*
X88958285Y-58275724D01*
X89039440Y-58167439D01*
X89096299Y-58124924D01*
X89157893Y-58119983D01*
X89158021Y-58118686D01*
X89164184Y-58119293D01*
X89170252Y-58120500D01*
X90309748Y-58120500D01*
X90315816Y-58119293D01*
X90321979Y-58118686D01*
X90322113Y-58120048D01*
X90385869Y-58125754D01*
X90440560Y-58167439D01*
X90521715Y-58275724D01*
X90534276Y-58288285D01*
X90636351Y-58364786D01*
X90651946Y-58373324D01*
X90772394Y-58418478D01*
X90787649Y-58422105D01*
X90838514Y-58427631D01*
X90845328Y-58428000D01*
X91167885Y-58428000D01*
X91183124Y-58423525D01*
X91184329Y-58422135D01*
X91186000Y-58414452D01*
X91186000Y-55492000D01*
X91206002Y-55423879D01*
X91259658Y-55377386D01*
X91312000Y-55366000D01*
X91568000Y-55366000D01*
X91636121Y-55386002D01*
X91682614Y-55439658D01*
X91694000Y-55492000D01*
X91694000Y-58409884D01*
X91698475Y-58425123D01*
X91699865Y-58426328D01*
X91707548Y-58427999D01*
X92034669Y-58427999D01*
X92041490Y-58427629D01*
X92092352Y-58422105D01*
X92107604Y-58418479D01*
X92228054Y-58373324D01*
X92243649Y-58364786D01*
X92345724Y-58288285D01*
X92358285Y-58275724D01*
X92439440Y-58167439D01*
X92496299Y-58124924D01*
X92557893Y-58119983D01*
X92558021Y-58118686D01*
X92564184Y-58119293D01*
X92570252Y-58120500D01*
X93709748Y-58120500D01*
X93718868Y-58118686D01*
X93756061Y-58111288D01*
X93756062Y-58111288D01*
X93768231Y-58108867D01*
X93834552Y-58064552D01*
X93878867Y-57998231D01*
X93878903Y-57998051D01*
X93918139Y-57949361D01*
X93985502Y-57926940D01*
X94054293Y-57944498D01*
X94100267Y-57993876D01*
X94101133Y-57998231D01*
X94145448Y-58064552D01*
X94211769Y-58108867D01*
X94223938Y-58111288D01*
X94223939Y-58111288D01*
X94261132Y-58118686D01*
X94270252Y-58120500D01*
X95409748Y-58120500D01*
X95418868Y-58118686D01*
X95456061Y-58111288D01*
X95456062Y-58111288D01*
X95468231Y-58108867D01*
X95534552Y-58064552D01*
X95541443Y-58054239D01*
X95541445Y-58054237D01*
X95566572Y-58016632D01*
X95621049Y-57971104D01*
X95691050Y-57962186D01*
X95713670Y-57965769D01*
X95717567Y-57966449D01*
X95821125Y-57986204D01*
X95821130Y-57986205D01*
X95825226Y-57986986D01*
X95829386Y-57987219D01*
X95829390Y-57987219D01*
X95853487Y-57988566D01*
X95866163Y-57989921D01*
X95889849Y-57993672D01*
X95894117Y-57994348D01*
X95910477Y-57995091D01*
X95984128Y-57998436D01*
X95984147Y-57998436D01*
X95985547Y-57998500D01*
X96027642Y-57998500D01*
X96034673Y-57998696D01*
X96117095Y-58003304D01*
X96121254Y-58002984D01*
X96121255Y-58002984D01*
X96174706Y-57998871D01*
X96184373Y-57998500D01*
X105877904Y-57998500D01*
X105946025Y-58018502D01*
X105985299Y-58061233D01*
X105985366Y-58061183D01*
X105990964Y-58068762D01*
X106045490Y-58142584D01*
X106065850Y-58170150D01*
X106174817Y-58250634D01*
X106183704Y-58253755D01*
X106183706Y-58253756D01*
X106282000Y-58288274D01*
X106302632Y-58295519D01*
X106310278Y-58296242D01*
X106310279Y-58296242D01*
X106316249Y-58296806D01*
X106334167Y-58298500D01*
X107187567Y-58298500D01*
X108041832Y-58298499D01*
X108044782Y-58298220D01*
X108044787Y-58298220D01*
X108055406Y-58297216D01*
X108073368Y-58295519D01*
X108080609Y-58292976D01*
X108080610Y-58292976D01*
X108192294Y-58253756D01*
X108192296Y-58253755D01*
X108201183Y-58250634D01*
X108310150Y-58170150D01*
X108330511Y-58142584D01*
X108385036Y-58068762D01*
X108390634Y-58061183D01*
X108390841Y-58061336D01*
X108436293Y-58014698D01*
X108498096Y-57998500D01*
X111222333Y-57998500D01*
X111290454Y-58018502D01*
X111311428Y-58035405D01*
X114801730Y-61525707D01*
X114804785Y-61528869D01*
X114878283Y-61607686D01*
X114890360Y-61617606D01*
X114962981Y-61677258D01*
X114965995Y-61679814D01*
X115048478Y-61752022D01*
X115051952Y-61754330D01*
X115051961Y-61754337D01*
X115072049Y-61767683D01*
X115082297Y-61775265D01*
X115104171Y-61793233D01*
X115107719Y-61795433D01*
X115107722Y-61795435D01*
X115197328Y-61850992D01*
X115200648Y-61853123D01*
X115291961Y-61913792D01*
X115317405Y-61926202D01*
X115328562Y-61932361D01*
X115349064Y-61945073D01*
X115349068Y-61945075D01*
X115352616Y-61947275D01*
X115394967Y-61966308D01*
X115452593Y-61992206D01*
X115456178Y-61993885D01*
X115554701Y-62041938D01*
X115558668Y-62043258D01*
X115558669Y-62043258D01*
X115581549Y-62050869D01*
X115593431Y-62055502D01*
X115615426Y-62065387D01*
X115615434Y-62065390D01*
X115619250Y-62067105D01*
X115623254Y-62068299D01*
X115623255Y-62068299D01*
X115724325Y-62098429D01*
X115728100Y-62099620D01*
X115828108Y-62132889D01*
X115828112Y-62132890D01*
X115832080Y-62134210D01*
X115836191Y-62134994D01*
X115836190Y-62134994D01*
X115859878Y-62139513D01*
X115872263Y-62142532D01*
X115895388Y-62149426D01*
X115895393Y-62149427D01*
X115899391Y-62150619D01*
X115993157Y-62165470D01*
X116007667Y-62167768D01*
X116011567Y-62168449D01*
X116115125Y-62188204D01*
X116115130Y-62188205D01*
X116119226Y-62188986D01*
X116123386Y-62189219D01*
X116123390Y-62189219D01*
X116147487Y-62190566D01*
X116160163Y-62191921D01*
X116184361Y-62195753D01*
X116188117Y-62196348D01*
X116204477Y-62197091D01*
X116278128Y-62200436D01*
X116278147Y-62200436D01*
X116279547Y-62200500D01*
X116321642Y-62200500D01*
X116328673Y-62200696D01*
X116411095Y-62205304D01*
X116415254Y-62204984D01*
X116415255Y-62204984D01*
X116468706Y-62200871D01*
X116478373Y-62200500D01*
X117591779Y-62200500D01*
X117659900Y-62220502D01*
X117706393Y-62274158D01*
X117717702Y-62330896D01*
X117715663Y-62389275D01*
X117725974Y-62494439D01*
X117726360Y-62498371D01*
X117726683Y-62502302D01*
X117733948Y-62611682D01*
X117739366Y-62638547D01*
X117739543Y-62639427D01*
X117741428Y-62652037D01*
X117744189Y-62680203D01*
X117745142Y-62684266D01*
X117769219Y-62786917D01*
X117770062Y-62790786D01*
X117790900Y-62894135D01*
X117790902Y-62894142D01*
X117791728Y-62898239D01*
X117793091Y-62902197D01*
X117800945Y-62925009D01*
X117804480Y-62937255D01*
X117810942Y-62964804D01*
X117812426Y-62968711D01*
X117812427Y-62968714D01*
X117849860Y-63067258D01*
X117851207Y-63070979D01*
X117886900Y-63174637D01*
X117888774Y-63178379D01*
X117888776Y-63178384D01*
X117899576Y-63199950D01*
X117904696Y-63211612D01*
X117914748Y-63238076D01*
X117916737Y-63241755D01*
X117916739Y-63241759D01*
X117966886Y-63334505D01*
X117968713Y-63338015D01*
X117988005Y-63376539D01*
X118017791Y-63436020D01*
X118020136Y-63439471D01*
X118020138Y-63439474D01*
X118033697Y-63459425D01*
X118040321Y-63470321D01*
X118051791Y-63491535D01*
X118051798Y-63491547D01*
X118053784Y-63495219D01*
X118118253Y-63583952D01*
X118120455Y-63587085D01*
X118182101Y-63677795D01*
X118184888Y-63680912D01*
X118200972Y-63698901D01*
X118208972Y-63708815D01*
X118225609Y-63731714D01*
X118254687Y-63763558D01*
X118286359Y-63798245D01*
X118286376Y-63798262D01*
X118287324Y-63799301D01*
X118317086Y-63829063D01*
X118321921Y-63834175D01*
X118376945Y-63895716D01*
X118380115Y-63898433D01*
X118380116Y-63898434D01*
X118420823Y-63933324D01*
X118427920Y-63939897D01*
X135013730Y-80525707D01*
X135016785Y-80528869D01*
X135090283Y-80607686D01*
X135174981Y-80677258D01*
X135177995Y-80679814D01*
X135260478Y-80752022D01*
X135263952Y-80754330D01*
X135263961Y-80754337D01*
X135284049Y-80767683D01*
X135294297Y-80775265D01*
X135316171Y-80793233D01*
X135319719Y-80795433D01*
X135319722Y-80795435D01*
X135409328Y-80850992D01*
X135412648Y-80853123D01*
X135503961Y-80913792D01*
X135529405Y-80926202D01*
X135540562Y-80932361D01*
X135561064Y-80945073D01*
X135561068Y-80945075D01*
X135564616Y-80947275D01*
X135568428Y-80948988D01*
X135664593Y-80992206D01*
X135668178Y-80993885D01*
X135766701Y-81041938D01*
X135770668Y-81043258D01*
X135770669Y-81043258D01*
X135793549Y-81050869D01*
X135805431Y-81055502D01*
X135827426Y-81065387D01*
X135827434Y-81065390D01*
X135831250Y-81067105D01*
X135835254Y-81068299D01*
X135835255Y-81068299D01*
X135936325Y-81098429D01*
X135940100Y-81099620D01*
X136040108Y-81132889D01*
X136040112Y-81132890D01*
X136044080Y-81134210D01*
X136048191Y-81134994D01*
X136048190Y-81134994D01*
X136071878Y-81139513D01*
X136084263Y-81142532D01*
X136107388Y-81149426D01*
X136107393Y-81149427D01*
X136111391Y-81150619D01*
X136205157Y-81165470D01*
X136219667Y-81167768D01*
X136223567Y-81168449D01*
X136327125Y-81188204D01*
X136327130Y-81188205D01*
X136331226Y-81188986D01*
X136335386Y-81189219D01*
X136335390Y-81189219D01*
X136359487Y-81190566D01*
X136372163Y-81191921D01*
X136396361Y-81195753D01*
X136400117Y-81196348D01*
X136416477Y-81197091D01*
X136490128Y-81200436D01*
X136490147Y-81200436D01*
X136491547Y-81200500D01*
X136533642Y-81200500D01*
X136540673Y-81200696D01*
X136623095Y-81205304D01*
X136627254Y-81204984D01*
X136627255Y-81204984D01*
X136680706Y-81200871D01*
X136690373Y-81200500D01*
X140824151Y-81200500D01*
X140826243Y-81200361D01*
X140826245Y-81200361D01*
X141037511Y-81186329D01*
X141041682Y-81186052D01*
X141045776Y-81185227D01*
X141045780Y-81185226D01*
X141183095Y-81157538D01*
X141328239Y-81128272D01*
X141604637Y-81033100D01*
X141608370Y-81031231D01*
X141608374Y-81031229D01*
X141862276Y-80904084D01*
X141862278Y-80904083D01*
X141866020Y-80902209D01*
X142023133Y-80795435D01*
X142104336Y-80740250D01*
X142104339Y-80740248D01*
X142107795Y-80737899D01*
X142325716Y-80543055D01*
X142339234Y-80527284D01*
X142513235Y-80324273D01*
X142515953Y-80321102D01*
X142675164Y-80075938D01*
X142800552Y-79811871D01*
X142812903Y-79773404D01*
X142853285Y-79647627D01*
X142889914Y-79533541D01*
X142925302Y-79336866D01*
X142940943Y-79249940D01*
X142940944Y-79249934D01*
X142941681Y-79245836D01*
X142954941Y-78953813D01*
X142929464Y-78662601D01*
X142865695Y-78377317D01*
X142764756Y-78102973D01*
X142762812Y-78099285D01*
X142762808Y-78099277D01*
X142630373Y-77848092D01*
X142630372Y-77848091D01*
X142628420Y-77844388D01*
X142459082Y-77606107D01*
X142309553Y-77445757D01*
X142262567Y-77395370D01*
X142262565Y-77395368D01*
X142259717Y-77392314D01*
X142033829Y-77206767D01*
X141785384Y-77052725D01*
X141518750Y-76932895D01*
X141432077Y-76907056D01*
X141242606Y-76850572D01*
X141242598Y-76850570D01*
X141238609Y-76849381D01*
X141234492Y-76848729D01*
X141234488Y-76848728D01*
X140953351Y-76804201D01*
X140953346Y-76804201D01*
X140949883Y-76803652D01*
X140900931Y-76801429D01*
X140859872Y-76799564D01*
X140859853Y-76799564D01*
X140858453Y-76799500D01*
X137563667Y-76799500D01*
X137495546Y-76779498D01*
X137474572Y-76762595D01*
X136176646Y-75464669D01*
X138742001Y-75464669D01*
X138742371Y-75471490D01*
X138747895Y-75522352D01*
X138751521Y-75537604D01*
X138796676Y-75658054D01*
X138805214Y-75673649D01*
X138881715Y-75775724D01*
X138894276Y-75788285D01*
X138996351Y-75864786D01*
X139011946Y-75873324D01*
X139132394Y-75918478D01*
X139147649Y-75922105D01*
X139198514Y-75927631D01*
X139205328Y-75928000D01*
X140477885Y-75928000D01*
X140493124Y-75923525D01*
X140494329Y-75922135D01*
X140496000Y-75914452D01*
X140496000Y-75909884D01*
X141004000Y-75909884D01*
X141008475Y-75925123D01*
X141009865Y-75926328D01*
X141017548Y-75927999D01*
X142294669Y-75927999D01*
X142301490Y-75927629D01*
X142352352Y-75922105D01*
X142367604Y-75918479D01*
X142488054Y-75873324D01*
X142503649Y-75864786D01*
X142605724Y-75788285D01*
X142618285Y-75775724D01*
X142694786Y-75673649D01*
X142703324Y-75658054D01*
X142748478Y-75537606D01*
X142752105Y-75522351D01*
X142757631Y-75471486D01*
X142758000Y-75464672D01*
X142758000Y-74192115D01*
X142753525Y-74176876D01*
X142752135Y-74175671D01*
X142744452Y-74174000D01*
X141022115Y-74174000D01*
X141006876Y-74178475D01*
X141005671Y-74179865D01*
X141004000Y-74187548D01*
X141004000Y-75909884D01*
X140496000Y-75909884D01*
X140496000Y-74192115D01*
X140491525Y-74176876D01*
X140490135Y-74175671D01*
X140482452Y-74174000D01*
X138760116Y-74174000D01*
X138744877Y-74178475D01*
X138743672Y-74179865D01*
X138742001Y-74187548D01*
X138742001Y-75464669D01*
X136176646Y-75464669D01*
X134359862Y-73647885D01*
X138742000Y-73647885D01*
X138746475Y-73663124D01*
X138747865Y-73664329D01*
X138755548Y-73666000D01*
X140477885Y-73666000D01*
X140493124Y-73661525D01*
X140494329Y-73660135D01*
X140496000Y-73652452D01*
X140496000Y-73647885D01*
X141004000Y-73647885D01*
X141008475Y-73663124D01*
X141009865Y-73664329D01*
X141017548Y-73666000D01*
X142739884Y-73666000D01*
X142755123Y-73661525D01*
X142756328Y-73660135D01*
X142757999Y-73652452D01*
X142757999Y-72375331D01*
X142757629Y-72368510D01*
X142752105Y-72317648D01*
X142748479Y-72302396D01*
X142703324Y-72181946D01*
X142694786Y-72166351D01*
X142618285Y-72064276D01*
X142605724Y-72051715D01*
X142503649Y-71975214D01*
X142488054Y-71966676D01*
X142367606Y-71921522D01*
X142352351Y-71917895D01*
X142301486Y-71912369D01*
X142294672Y-71912000D01*
X141022115Y-71912000D01*
X141006876Y-71916475D01*
X141005671Y-71917865D01*
X141004000Y-71925548D01*
X141004000Y-73647885D01*
X140496000Y-73647885D01*
X140496000Y-71930116D01*
X140491525Y-71914877D01*
X140490135Y-71913672D01*
X140482452Y-71912001D01*
X139205331Y-71912001D01*
X139198510Y-71912371D01*
X139147648Y-71917895D01*
X139132396Y-71921521D01*
X139011946Y-71966676D01*
X138996351Y-71975214D01*
X138894276Y-72051715D01*
X138881715Y-72064276D01*
X138805214Y-72166351D01*
X138796676Y-72181946D01*
X138751522Y-72302394D01*
X138747895Y-72317649D01*
X138742369Y-72368514D01*
X138742000Y-72375328D01*
X138742000Y-73647885D01*
X134359862Y-73647885D01*
X124077408Y-63365431D01*
X137000109Y-63365431D01*
X137000190Y-63366564D01*
X137005168Y-63374136D01*
X137025401Y-63393539D01*
X137029678Y-63397283D01*
X137345218Y-63649175D01*
X137349801Y-63652505D01*
X137686867Y-63874759D01*
X137691763Y-63877677D01*
X138047543Y-64068444D01*
X138052717Y-64070923D01*
X138424339Y-64228668D01*
X138429674Y-64230652D01*
X138814069Y-64354068D01*
X138819570Y-64355563D01*
X139213575Y-64443633D01*
X139219187Y-64444622D01*
X139619538Y-64496619D01*
X139625244Y-64497098D01*
X140028642Y-64512595D01*
X140034368Y-64512555D01*
X140437518Y-64491427D01*
X140443199Y-64490870D01*
X140842795Y-64433288D01*
X140848390Y-64432220D01*
X141241123Y-64338657D01*
X141246605Y-64337086D01*
X141629233Y-64208318D01*
X141634563Y-64206250D01*
X142003946Y-64043332D01*
X142009053Y-64040797D01*
X142362145Y-63845075D01*
X142367024Y-63842074D01*
X142700898Y-63615174D01*
X142705511Y-63611723D01*
X142991829Y-63376539D01*
X143000290Y-63364106D01*
X142994040Y-63353250D01*
X142647408Y-63006618D01*
X141762111Y-62121320D01*
X141236023Y-61595233D01*
X140012812Y-60372022D01*
X139998868Y-60364408D01*
X139997035Y-60364539D01*
X139990420Y-60368790D01*
X138763978Y-61595232D01*
X137878680Y-62480529D01*
X137352593Y-63006617D01*
X137007723Y-63351487D01*
X137000109Y-63365431D01*
X124077408Y-63365431D01*
X122256646Y-61544669D01*
X122992001Y-61544669D01*
X122992371Y-61551490D01*
X122997895Y-61602352D01*
X123001521Y-61617604D01*
X123046676Y-61738054D01*
X123055214Y-61753649D01*
X123131715Y-61855724D01*
X123144276Y-61868285D01*
X123246351Y-61944786D01*
X123261946Y-61953324D01*
X123382394Y-61998478D01*
X123397649Y-62002105D01*
X123448514Y-62007631D01*
X123455328Y-62008000D01*
X124727885Y-62008000D01*
X124743124Y-62003525D01*
X124744329Y-62002135D01*
X124746000Y-61994452D01*
X124746000Y-61989884D01*
X125254000Y-61989884D01*
X125258475Y-62005123D01*
X125259865Y-62006328D01*
X125267548Y-62007999D01*
X126544669Y-62007999D01*
X126551490Y-62007629D01*
X126602352Y-62002105D01*
X126617604Y-61998479D01*
X126738054Y-61953324D01*
X126753649Y-61944786D01*
X126855724Y-61868285D01*
X126868285Y-61855724D01*
X126944786Y-61753649D01*
X126953324Y-61738054D01*
X126998478Y-61617606D01*
X127002105Y-61602351D01*
X127007631Y-61551486D01*
X127008000Y-61544672D01*
X127008000Y-60272115D01*
X127003525Y-60256876D01*
X127002135Y-60255671D01*
X126994452Y-60254000D01*
X125272115Y-60254000D01*
X125256876Y-60258475D01*
X125255671Y-60259865D01*
X125254000Y-60267548D01*
X125254000Y-61989884D01*
X124746000Y-61989884D01*
X124746000Y-60272115D01*
X124741525Y-60256876D01*
X124740135Y-60255671D01*
X124732452Y-60254000D01*
X123010116Y-60254000D01*
X122994877Y-60258475D01*
X122993672Y-60259865D01*
X122992001Y-60267548D01*
X122992001Y-61544669D01*
X122256646Y-61544669D01*
X122157405Y-61445428D01*
X122123379Y-61383116D01*
X122120500Y-61356333D01*
X122120500Y-60154638D01*
X135489964Y-60154638D01*
X135490163Y-60160343D01*
X135522540Y-60562753D01*
X135523258Y-60568430D01*
X135591970Y-60966229D01*
X135593201Y-60971829D01*
X135697689Y-61361786D01*
X135699413Y-61367219D01*
X135838817Y-61746108D01*
X135841025Y-61751362D01*
X136014192Y-62116050D01*
X136016877Y-62121099D01*
X136222390Y-62468606D01*
X136225500Y-62473358D01*
X136461668Y-62800812D01*
X136465208Y-62805278D01*
X136625528Y-62989704D01*
X136638657Y-62998113D01*
X136648570Y-62992220D01*
X136993382Y-62647408D01*
X137878680Y-61762111D01*
X137950260Y-61690531D01*
X138404767Y-61236023D01*
X139627978Y-60012812D01*
X139634356Y-60001132D01*
X140364408Y-60001132D01*
X140364539Y-60002965D01*
X140368790Y-60009580D01*
X141595232Y-61236022D01*
X142049739Y-61690530D01*
X142121319Y-61762110D01*
X143006617Y-62647407D01*
X143350688Y-62991478D01*
X143364134Y-62998820D01*
X143373970Y-62991900D01*
X143573611Y-62755657D01*
X143577097Y-62751130D01*
X143808659Y-62420424D01*
X143811716Y-62415608D01*
X144012350Y-62065281D01*
X144014962Y-62060199D01*
X144183020Y-61693127D01*
X144185159Y-61687834D01*
X144319255Y-61307047D01*
X144320908Y-61301573D01*
X144419939Y-60910206D01*
X144421090Y-60904600D01*
X144484245Y-60505854D01*
X144484880Y-60500192D01*
X144511709Y-60096260D01*
X144511843Y-60092753D01*
X144512796Y-60001773D01*
X144512734Y-59998225D01*
X144494371Y-59593843D01*
X144493855Y-59588165D01*
X144439063Y-59188177D01*
X144438036Y-59182577D01*
X144347216Y-58789198D01*
X144345682Y-58783702D01*
X144219588Y-58400183D01*
X144217558Y-58394841D01*
X144057226Y-58024336D01*
X144054722Y-58019202D01*
X143861471Y-57664752D01*
X143858508Y-57659861D01*
X143633930Y-57324389D01*
X143630537Y-57319787D01*
X143376832Y-57006489D01*
X143363963Y-56999226D01*
X143362596Y-56999305D01*
X143355268Y-57003942D01*
X143006618Y-57352592D01*
X142121320Y-58237889D01*
X141595233Y-58763977D01*
X140372022Y-59987188D01*
X140364408Y-60001132D01*
X139634356Y-60001132D01*
X139635592Y-59998868D01*
X139635461Y-59997035D01*
X139631210Y-59990420D01*
X138404768Y-58763978D01*
X137519471Y-57878680D01*
X136993383Y-57352593D01*
X136650424Y-57009634D01*
X136636480Y-57002020D01*
X136636287Y-57002033D01*
X136627465Y-57008012D01*
X136524743Y-57121298D01*
X136521091Y-57125712D01*
X136278139Y-57448120D01*
X136274906Y-57452843D01*
X136062173Y-57795946D01*
X136059379Y-57800946D01*
X135878624Y-58161905D01*
X135876290Y-58167147D01*
X135728992Y-58543009D01*
X135727149Y-58548422D01*
X135614517Y-58936103D01*
X135613175Y-58941653D01*
X135536142Y-59337952D01*
X135535309Y-59343593D01*
X135494512Y-59745234D01*
X135494192Y-59750958D01*
X135489964Y-60154638D01*
X122120500Y-60154638D01*
X122120500Y-60054468D01*
X122120630Y-60048753D01*
X122124752Y-59957983D01*
X122124752Y-59957978D01*
X122124941Y-59953813D01*
X122114323Y-59832445D01*
X122114123Y-59829840D01*
X122108884Y-59750958D01*
X122107352Y-59727885D01*
X122992000Y-59727885D01*
X122996475Y-59743124D01*
X122997865Y-59744329D01*
X123005548Y-59746000D01*
X124727885Y-59746000D01*
X124743124Y-59741525D01*
X124744329Y-59740135D01*
X124746000Y-59732452D01*
X124746000Y-59727885D01*
X125254000Y-59727885D01*
X125258475Y-59743124D01*
X125259865Y-59744329D01*
X125267548Y-59746000D01*
X126989884Y-59746000D01*
X127005123Y-59741525D01*
X127006328Y-59740135D01*
X127007999Y-59732452D01*
X127007999Y-58455331D01*
X127007629Y-58448510D01*
X127002105Y-58397648D01*
X126998479Y-58382396D01*
X126953324Y-58261946D01*
X126944786Y-58246351D01*
X126868285Y-58144276D01*
X126855724Y-58131715D01*
X126753649Y-58055214D01*
X126738054Y-58046676D01*
X126617606Y-58001522D01*
X126602351Y-57997895D01*
X126551486Y-57992369D01*
X126544672Y-57992000D01*
X125272115Y-57992000D01*
X125256876Y-57996475D01*
X125255671Y-57997865D01*
X125254000Y-58005548D01*
X125254000Y-59727885D01*
X124746000Y-59727885D01*
X124746000Y-58010116D01*
X124741525Y-57994877D01*
X124740135Y-57993672D01*
X124732452Y-57992001D01*
X123455331Y-57992001D01*
X123448510Y-57992371D01*
X123397648Y-57997895D01*
X123382396Y-58001521D01*
X123261946Y-58046676D01*
X123246351Y-58055214D01*
X123144276Y-58131715D01*
X123131715Y-58144276D01*
X123055214Y-58246351D01*
X123046676Y-58261946D01*
X123001522Y-58382394D01*
X122997895Y-58397649D01*
X122992369Y-58448514D01*
X122992000Y-58455328D01*
X122992000Y-59727885D01*
X122107352Y-59727885D01*
X122106052Y-59708318D01*
X122102870Y-59692538D01*
X122100868Y-59678643D01*
X122099464Y-59662601D01*
X122082826Y-59588165D01*
X122072892Y-59543723D01*
X122072344Y-59541142D01*
X122049097Y-59425853D01*
X122048272Y-59421761D01*
X122046912Y-59417810D01*
X122043032Y-59406541D01*
X122039202Y-59393006D01*
X122036607Y-59381397D01*
X122035695Y-59377317D01*
X121993635Y-59263002D01*
X121992750Y-59260516D01*
X121953100Y-59145363D01*
X121945896Y-59130976D01*
X121940309Y-59118065D01*
X121936201Y-59106899D01*
X121936198Y-59106892D01*
X121934756Y-59102973D01*
X121932810Y-59099281D01*
X121932805Y-59099271D01*
X121877948Y-58995225D01*
X121876742Y-58992879D01*
X121824084Y-58887724D01*
X121824083Y-58887722D01*
X121822209Y-58883980D01*
X121813165Y-58870673D01*
X121805924Y-58858621D01*
X121800373Y-58848092D01*
X121800372Y-58848091D01*
X121798420Y-58844388D01*
X121727838Y-58745070D01*
X121726341Y-58742915D01*
X121660249Y-58645663D01*
X121657899Y-58642205D01*
X121647175Y-58630211D01*
X121638398Y-58619216D01*
X121631502Y-58609513D01*
X121629082Y-58606107D01*
X121546012Y-58517026D01*
X121544249Y-58515094D01*
X121466377Y-58428000D01*
X121463055Y-58424284D01*
X121450842Y-58413816D01*
X121440689Y-58404080D01*
X121432568Y-58395371D01*
X121432565Y-58395368D01*
X121429717Y-58392314D01*
X121335539Y-58314955D01*
X121333594Y-58313323D01*
X121315975Y-58298221D01*
X121241102Y-58234047D01*
X121227605Y-58225282D01*
X121216268Y-58216984D01*
X121207057Y-58209418D01*
X121207053Y-58209415D01*
X121203829Y-58206767D01*
X121200284Y-58204569D01*
X121200277Y-58204564D01*
X121100313Y-58142584D01*
X121098086Y-58141171D01*
X120999443Y-58077112D01*
X120999441Y-58077111D01*
X120995938Y-58074836D01*
X120992164Y-58073044D01*
X120992157Y-58073040D01*
X120981402Y-58067933D01*
X120969056Y-58061202D01*
X120955384Y-58052725D01*
X120844272Y-58002789D01*
X120841884Y-58001686D01*
X120835587Y-57998696D01*
X120731871Y-57949448D01*
X120716553Y-57944530D01*
X120703433Y-57939494D01*
X120688750Y-57932895D01*
X120571901Y-57898060D01*
X120569516Y-57897321D01*
X120453541Y-57860086D01*
X120437713Y-57857238D01*
X120424031Y-57853979D01*
X120408609Y-57849381D01*
X120361419Y-57841907D01*
X120288324Y-57830330D01*
X120285722Y-57829890D01*
X120169954Y-57809060D01*
X120169955Y-57809060D01*
X120165836Y-57808319D01*
X120149744Y-57807589D01*
X120135779Y-57806170D01*
X120119883Y-57803652D01*
X120097564Y-57802638D01*
X120029872Y-57799564D01*
X120029853Y-57799564D01*
X120028453Y-57799500D01*
X119974468Y-57799500D01*
X119968753Y-57799370D01*
X119877983Y-57795248D01*
X119877978Y-57795248D01*
X119873813Y-57795059D01*
X119869665Y-57795422D01*
X119869660Y-57795422D01*
X119828526Y-57799021D01*
X119817545Y-57799500D01*
X117351667Y-57799500D01*
X117283546Y-57779498D01*
X117262572Y-57762595D01*
X116138690Y-56638713D01*
X137001723Y-56638713D01*
X137001735Y-56639144D01*
X137007102Y-56647892D01*
X137352592Y-56993382D01*
X137809617Y-57450408D01*
X137878679Y-57519470D01*
X138763977Y-58404767D01*
X139987188Y-59627978D01*
X140001132Y-59635592D01*
X140002965Y-59635461D01*
X140009580Y-59631210D01*
X141236022Y-58404768D01*
X142121320Y-57519471D01*
X142190382Y-57450409D01*
X142647407Y-56993383D01*
X142990943Y-56649847D01*
X142998351Y-56636280D01*
X142991609Y-56626624D01*
X142780533Y-56445711D01*
X142776040Y-56442200D01*
X142446969Y-56208341D01*
X142442146Y-56205233D01*
X142093242Y-56002166D01*
X142088177Y-55999519D01*
X141722296Y-55828905D01*
X141717003Y-55826724D01*
X141337166Y-55689973D01*
X141331706Y-55688284D01*
X140941036Y-55586522D01*
X140935446Y-55585334D01*
X140537154Y-55519397D01*
X140531490Y-55518721D01*
X140128851Y-55489153D01*
X140123150Y-55488994D01*
X139719489Y-55496040D01*
X139713801Y-55496398D01*
X139312457Y-55539998D01*
X139306787Y-55540876D01*
X138911058Y-55620669D01*
X138905512Y-55622051D01*
X138518627Y-55737387D01*
X138513223Y-55739269D01*
X138138396Y-55889189D01*
X138133189Y-55891551D01*
X137773475Y-56074834D01*
X137768510Y-56077655D01*
X137426897Y-56292781D01*
X137422202Y-56296044D01*
X137101494Y-56541243D01*
X137097114Y-56544917D01*
X137009910Y-56625106D01*
X137001723Y-56638713D01*
X116138690Y-56638713D01*
X113772270Y-54272293D01*
X113769214Y-54269130D01*
X113722010Y-54218510D01*
X113695717Y-54190314D01*
X113692488Y-54187662D01*
X113692483Y-54187657D01*
X113611010Y-54120734D01*
X113607991Y-54118174D01*
X113596326Y-54107962D01*
X113525522Y-54045977D01*
X113501943Y-54030311D01*
X113491695Y-54022728D01*
X113469829Y-54004767D01*
X113376688Y-53947017D01*
X113373359Y-53944880D01*
X113308389Y-53901715D01*
X113282039Y-53884208D01*
X113256595Y-53871798D01*
X113245438Y-53865639D01*
X113224936Y-53852927D01*
X113224932Y-53852925D01*
X113221384Y-53850725D01*
X113164619Y-53825214D01*
X113121407Y-53805794D01*
X113117822Y-53804115D01*
X113091666Y-53791358D01*
X113019299Y-53756062D01*
X112992451Y-53747131D01*
X112980569Y-53742498D01*
X112958574Y-53732613D01*
X112958566Y-53732610D01*
X112954750Y-53730895D01*
X112849673Y-53699570D01*
X112845900Y-53698380D01*
X112745892Y-53665111D01*
X112745888Y-53665110D01*
X112741920Y-53663790D01*
X112730304Y-53661574D01*
X112714122Y-53658487D01*
X112701737Y-53655468D01*
X112678612Y-53648574D01*
X112678607Y-53648573D01*
X112674609Y-53647381D01*
X112566333Y-53630232D01*
X112562433Y-53629551D01*
X112458875Y-53609796D01*
X112458870Y-53609795D01*
X112454774Y-53609014D01*
X112450614Y-53608781D01*
X112450610Y-53608781D01*
X112426513Y-53607434D01*
X112413837Y-53606079D01*
X112389368Y-53602204D01*
X112385883Y-53601652D01*
X112369523Y-53600909D01*
X112295872Y-53597564D01*
X112295853Y-53597564D01*
X112294453Y-53597500D01*
X112252358Y-53597500D01*
X112245327Y-53597304D01*
X112162905Y-53592696D01*
X112158746Y-53593016D01*
X112158744Y-53593016D01*
X112105291Y-53597129D01*
X112095625Y-53597500D01*
X108498096Y-53597500D01*
X108429975Y-53577498D01*
X108390701Y-53534767D01*
X108390634Y-53534817D01*
X108390170Y-53534189D01*
X108310150Y-53425850D01*
X108201183Y-53345366D01*
X108192296Y-53342245D01*
X108192294Y-53342244D01*
X108090334Y-53306439D01*
X108073368Y-53300481D01*
X108065722Y-53299758D01*
X108065721Y-53299758D01*
X108059751Y-53299194D01*
X108041833Y-53297500D01*
X107188433Y-53297500D01*
X106334168Y-53297501D01*
X106331218Y-53297780D01*
X106331213Y-53297780D01*
X106320594Y-53298784D01*
X106302632Y-53300481D01*
X106295391Y-53303024D01*
X106295390Y-53303024D01*
X106183706Y-53342244D01*
X106183704Y-53342245D01*
X106174817Y-53345366D01*
X106065850Y-53425850D01*
X105985366Y-53534817D01*
X105985159Y-53534664D01*
X105939707Y-53581302D01*
X105877904Y-53597500D01*
X96484825Y-53597500D01*
X96465116Y-53595949D01*
X96435325Y-53591231D01*
X96431433Y-53590551D01*
X96327875Y-53570796D01*
X96327870Y-53570795D01*
X96323774Y-53570014D01*
X96319614Y-53569781D01*
X96319610Y-53569781D01*
X96295513Y-53568434D01*
X96282837Y-53567079D01*
X96258368Y-53563204D01*
X96254883Y-53562652D01*
X96238523Y-53561909D01*
X96164872Y-53558564D01*
X96164853Y-53558564D01*
X96163453Y-53558500D01*
X96121358Y-53558500D01*
X96114327Y-53558304D01*
X96031905Y-53553696D01*
X96027746Y-53554016D01*
X96027744Y-53554016D01*
X95974291Y-53558129D01*
X95964625Y-53558500D01*
X95834849Y-53558500D01*
X95832757Y-53558639D01*
X95832755Y-53558639D01*
X95776580Y-53562370D01*
X95724850Y-53565806D01*
X95655554Y-53550362D01*
X95605607Y-53499906D01*
X95590500Y-53440083D01*
X95590500Y-53300252D01*
X95578867Y-53241769D01*
X95534552Y-53175448D01*
X95468231Y-53131133D01*
X95456062Y-53128712D01*
X95456061Y-53128712D01*
X95415816Y-53120707D01*
X95409748Y-53119500D01*
X94270252Y-53119500D01*
X94264184Y-53120707D01*
X94223939Y-53128712D01*
X94223938Y-53128712D01*
X94211769Y-53131133D01*
X94145448Y-53175448D01*
X94101133Y-53241769D01*
X94101097Y-53241949D01*
X94061861Y-53290639D01*
X93994498Y-53313060D01*
X93925707Y-53295502D01*
X93879733Y-53246124D01*
X93878867Y-53241769D01*
X93834552Y-53175448D01*
X93768231Y-53131133D01*
X93756062Y-53128712D01*
X93756061Y-53128712D01*
X93715816Y-53120707D01*
X93709748Y-53119500D01*
X93646712Y-53119500D01*
X93578591Y-53099498D01*
X93570011Y-53093464D01*
X93562332Y-53087572D01*
X93549938Y-53076703D01*
X91390297Y-50917062D01*
X91379429Y-50904671D01*
X91365305Y-50886264D01*
X91360282Y-50879718D01*
X91234841Y-50783464D01*
X91088762Y-50722956D01*
X90971361Y-50707500D01*
X90932000Y-50702318D01*
X90923812Y-50703396D01*
X90900827Y-50706422D01*
X90884381Y-50707500D01*
X78787619Y-50707500D01*
X78771173Y-50706422D01*
X78748188Y-50703396D01*
X78740000Y-50702318D01*
X78700639Y-50707500D01*
X78583238Y-50722956D01*
X78437159Y-50783464D01*
X78311718Y-50879718D01*
X78306695Y-50886264D01*
X78292571Y-50904671D01*
X78281703Y-50917062D01*
X76809062Y-52389703D01*
X76796672Y-52400570D01*
X76771718Y-52419718D01*
X76747550Y-52451215D01*
X76675464Y-52545159D01*
X76614956Y-52691238D01*
X76594318Y-52848000D01*
X76595396Y-52856188D01*
X76598422Y-52879173D01*
X76599500Y-52895619D01*
X76599500Y-53944165D01*
X76579498Y-54012286D01*
X76525842Y-54058779D01*
X76486065Y-54069500D01*
X76480252Y-54069500D01*
X76474184Y-54070707D01*
X76433939Y-54078712D01*
X76433938Y-54078712D01*
X76421769Y-54081133D01*
X76355448Y-54125448D01*
X76311133Y-54191769D01*
X76299500Y-54250252D01*
X76299500Y-56389748D01*
X76311133Y-56448231D01*
X76355448Y-56514552D01*
X76421769Y-56558867D01*
X76433938Y-56561288D01*
X76433939Y-56561288D01*
X76474184Y-56569293D01*
X76480252Y-56570500D01*
X76485994Y-56570500D01*
X76551682Y-56597024D01*
X76592692Y-56654979D01*
X76599500Y-56695835D01*
X76599500Y-60723500D01*
X76579498Y-60791621D01*
X76525842Y-60838114D01*
X76473500Y-60849500D01*
X76080252Y-60849500D01*
X76074184Y-60850707D01*
X76033939Y-60858712D01*
X76033938Y-60858712D01*
X76021769Y-60861133D01*
X75955448Y-60905448D01*
X75911133Y-60971769D01*
X75899500Y-61030252D01*
X75899500Y-62569748D01*
X75911133Y-62628231D01*
X75955448Y-62694552D01*
X76021769Y-62738867D01*
X76033938Y-62741288D01*
X76033939Y-62741288D01*
X76074184Y-62749293D01*
X76080252Y-62750500D01*
X78319748Y-62750500D01*
X78325816Y-62749293D01*
X78366061Y-62741288D01*
X78366062Y-62741288D01*
X78378231Y-62738867D01*
X78444552Y-62694552D01*
X78488867Y-62628231D01*
X78500500Y-62569748D01*
X78500500Y-61030252D01*
X78488867Y-60971769D01*
X78444552Y-60905448D01*
X78378231Y-60861133D01*
X78366062Y-60858712D01*
X78366061Y-60858712D01*
X78325816Y-60850707D01*
X78319748Y-60849500D01*
X77926500Y-60849500D01*
X77858379Y-60829498D01*
X77811886Y-60775842D01*
X77800500Y-60723500D01*
X77800500Y-56695835D01*
X77820502Y-56627714D01*
X77874158Y-56581221D01*
X77913935Y-56570500D01*
X77919748Y-56570500D01*
X77925816Y-56569293D01*
X77966061Y-56561288D01*
X77966062Y-56561288D01*
X77978231Y-56558867D01*
X78044552Y-56514552D01*
X78088867Y-56448231D01*
X78100500Y-56389748D01*
X78100500Y-54250252D01*
X78088867Y-54191769D01*
X78044552Y-54125448D01*
X77978231Y-54081133D01*
X77966062Y-54078712D01*
X77966061Y-54078712D01*
X77925816Y-54070707D01*
X77919748Y-54069500D01*
X77914006Y-54069500D01*
X77848318Y-54042976D01*
X77807308Y-53985021D01*
X77800500Y-53944165D01*
X77800500Y-53148925D01*
X77820502Y-53080804D01*
X77837405Y-53059830D01*
X78951830Y-51945405D01*
X79014142Y-51911379D01*
X79040925Y-51908500D01*
X83334895Y-51908500D01*
X83403016Y-51928502D01*
X83449509Y-51982158D01*
X83459613Y-52052432D01*
X83430119Y-52117012D01*
X83411598Y-52134463D01*
X83398267Y-52144692D01*
X83398264Y-52144695D01*
X83391718Y-52149718D01*
X83386695Y-52156264D01*
X83372571Y-52174671D01*
X83361703Y-52187062D01*
X82413062Y-53135703D01*
X82400672Y-53146570D01*
X82375718Y-53165718D01*
X82370695Y-53172264D01*
X82309390Y-53252158D01*
X82287844Y-53280238D01*
X82279464Y-53291159D01*
X82218956Y-53437238D01*
X82198318Y-53594000D01*
X82199396Y-53602188D01*
X82202422Y-53625173D01*
X82203500Y-53641619D01*
X82203500Y-62295075D01*
X82183498Y-62363196D01*
X82166595Y-62384170D01*
X77338170Y-67212595D01*
X77275858Y-67246621D01*
X77249075Y-67249500D01*
X76080252Y-67249500D01*
X76074184Y-67250707D01*
X76033939Y-67258712D01*
X76033938Y-67258712D01*
X76021769Y-67261133D01*
X75955448Y-67305448D01*
X75911133Y-67371769D01*
X75899500Y-67430252D01*
X75899500Y-68969748D01*
X50010500Y-68969748D01*
X50010500Y-63365431D01*
X57000109Y-63365431D01*
X57000190Y-63366564D01*
X57005168Y-63374136D01*
X57025401Y-63393539D01*
X57029678Y-63397283D01*
X57345218Y-63649175D01*
X57349801Y-63652505D01*
X57686867Y-63874759D01*
X57691763Y-63877677D01*
X58047543Y-64068444D01*
X58052717Y-64070923D01*
X58424339Y-64228668D01*
X58429674Y-64230652D01*
X58814069Y-64354068D01*
X58819570Y-64355563D01*
X59213575Y-64443633D01*
X59219187Y-64444622D01*
X59619538Y-64496619D01*
X59625244Y-64497098D01*
X60028642Y-64512595D01*
X60034368Y-64512555D01*
X60437518Y-64491427D01*
X60443199Y-64490870D01*
X60842795Y-64433288D01*
X60848390Y-64432220D01*
X61241123Y-64338657D01*
X61246605Y-64337086D01*
X61629233Y-64208318D01*
X61634563Y-64206250D01*
X62003946Y-64043332D01*
X62009053Y-64040797D01*
X62362145Y-63845075D01*
X62367024Y-63842074D01*
X62700898Y-63615174D01*
X62705511Y-63611723D01*
X62991829Y-63376539D01*
X63000290Y-63364106D01*
X62994040Y-63353250D01*
X62647408Y-63006618D01*
X61762111Y-62121320D01*
X61236023Y-61595233D01*
X60012812Y-60372022D01*
X59998868Y-60364408D01*
X59997035Y-60364539D01*
X59990420Y-60368790D01*
X58763978Y-61595232D01*
X57878680Y-62480529D01*
X57352593Y-63006617D01*
X57007723Y-63351487D01*
X57000109Y-63365431D01*
X50010500Y-63365431D01*
X50010500Y-60154638D01*
X55489964Y-60154638D01*
X55490163Y-60160343D01*
X55522540Y-60562753D01*
X55523258Y-60568430D01*
X55591970Y-60966229D01*
X55593201Y-60971829D01*
X55697689Y-61361786D01*
X55699413Y-61367219D01*
X55838817Y-61746108D01*
X55841025Y-61751362D01*
X56014192Y-62116050D01*
X56016877Y-62121099D01*
X56222390Y-62468606D01*
X56225500Y-62473358D01*
X56461668Y-62800812D01*
X56465208Y-62805278D01*
X56625528Y-62989704D01*
X56638657Y-62998113D01*
X56648570Y-62992220D01*
X56993382Y-62647408D01*
X57878680Y-61762111D01*
X57950260Y-61690531D01*
X58404767Y-61236023D01*
X59627978Y-60012812D01*
X59634356Y-60001132D01*
X60364408Y-60001132D01*
X60364539Y-60002965D01*
X60368790Y-60009580D01*
X61595232Y-61236022D01*
X62049739Y-61690530D01*
X62121319Y-61762110D01*
X63006617Y-62647407D01*
X63350688Y-62991478D01*
X63364134Y-62998820D01*
X63373970Y-62991900D01*
X63573611Y-62755657D01*
X63577097Y-62751130D01*
X63808659Y-62420424D01*
X63811716Y-62415608D01*
X64012350Y-62065281D01*
X64014962Y-62060199D01*
X64183020Y-61693127D01*
X64185159Y-61687834D01*
X64319255Y-61307047D01*
X64320908Y-61301573D01*
X64419939Y-60910206D01*
X64421090Y-60904600D01*
X64484245Y-60505854D01*
X64484880Y-60500192D01*
X64511709Y-60096260D01*
X64511843Y-60092753D01*
X64512796Y-60001773D01*
X64512734Y-59998225D01*
X64494371Y-59593843D01*
X64493855Y-59588165D01*
X64439063Y-59188177D01*
X64438036Y-59182577D01*
X64347216Y-58789198D01*
X64345682Y-58783702D01*
X64219588Y-58400183D01*
X64217558Y-58394841D01*
X64057226Y-58024336D01*
X64054722Y-58019202D01*
X63861471Y-57664752D01*
X63858508Y-57659861D01*
X63633930Y-57324389D01*
X63630537Y-57319787D01*
X63376832Y-57006489D01*
X63363963Y-56999226D01*
X63362596Y-56999305D01*
X63355268Y-57003942D01*
X63006618Y-57352592D01*
X62121320Y-58237889D01*
X61595233Y-58763977D01*
X60372022Y-59987188D01*
X60364408Y-60001132D01*
X59634356Y-60001132D01*
X59635592Y-59998868D01*
X59635461Y-59997035D01*
X59631210Y-59990420D01*
X58404768Y-58763978D01*
X57519471Y-57878680D01*
X56993383Y-57352593D01*
X56650424Y-57009634D01*
X56636480Y-57002020D01*
X56636287Y-57002033D01*
X56627465Y-57008012D01*
X56524743Y-57121298D01*
X56521091Y-57125712D01*
X56278139Y-57448120D01*
X56274906Y-57452843D01*
X56062173Y-57795946D01*
X56059379Y-57800946D01*
X55878624Y-58161905D01*
X55876290Y-58167147D01*
X55728992Y-58543009D01*
X55727149Y-58548422D01*
X55614517Y-58936103D01*
X55613175Y-58941653D01*
X55536142Y-59337952D01*
X55535309Y-59343593D01*
X55494512Y-59745234D01*
X55494192Y-59750958D01*
X55489964Y-60154638D01*
X50010500Y-60154638D01*
X50010500Y-56638713D01*
X57001723Y-56638713D01*
X57001735Y-56639144D01*
X57007102Y-56647892D01*
X57352592Y-56993382D01*
X57809617Y-57450408D01*
X57878679Y-57519470D01*
X58763977Y-58404767D01*
X59987188Y-59627978D01*
X60001132Y-59635592D01*
X60002965Y-59635461D01*
X60009580Y-59631210D01*
X61236022Y-58404768D01*
X62121320Y-57519471D01*
X62190382Y-57450409D01*
X62647407Y-56993383D01*
X62990943Y-56649847D01*
X62998351Y-56636280D01*
X62991609Y-56626624D01*
X62780533Y-56445711D01*
X62776040Y-56442200D01*
X62737300Y-56414669D01*
X71592001Y-56414669D01*
X71592371Y-56421490D01*
X71597895Y-56472352D01*
X71601521Y-56487604D01*
X71646676Y-56608054D01*
X71655214Y-56623649D01*
X71731715Y-56725724D01*
X71744276Y-56738285D01*
X71846351Y-56814786D01*
X71861946Y-56823324D01*
X71982394Y-56868478D01*
X71997649Y-56872105D01*
X72048514Y-56877631D01*
X72055328Y-56878000D01*
X72527885Y-56878000D01*
X72543124Y-56873525D01*
X72544329Y-56872135D01*
X72546000Y-56864452D01*
X72546000Y-56859884D01*
X73054000Y-56859884D01*
X73058475Y-56875123D01*
X73059865Y-56876328D01*
X73067548Y-56877999D01*
X73544669Y-56877999D01*
X73551490Y-56877629D01*
X73602352Y-56872105D01*
X73617604Y-56868479D01*
X73738054Y-56823324D01*
X73753649Y-56814786D01*
X73855724Y-56738285D01*
X73868285Y-56725724D01*
X73944786Y-56623649D01*
X73953324Y-56608054D01*
X73998478Y-56487606D01*
X74002105Y-56472351D01*
X74007631Y-56421486D01*
X74008000Y-56414672D01*
X74008000Y-55592115D01*
X74003525Y-55576876D01*
X74002135Y-55575671D01*
X73994452Y-55574000D01*
X73072115Y-55574000D01*
X73056876Y-55578475D01*
X73055671Y-55579865D01*
X73054000Y-55587548D01*
X73054000Y-56859884D01*
X72546000Y-56859884D01*
X72546000Y-55592115D01*
X72541525Y-55576876D01*
X72540135Y-55575671D01*
X72532452Y-55574000D01*
X71610116Y-55574000D01*
X71594877Y-55578475D01*
X71593672Y-55579865D01*
X71592001Y-55587548D01*
X71592001Y-56414669D01*
X62737300Y-56414669D01*
X62446969Y-56208341D01*
X62442146Y-56205233D01*
X62093242Y-56002166D01*
X62088177Y-55999519D01*
X61722296Y-55828905D01*
X61717003Y-55826724D01*
X61337166Y-55689973D01*
X61331706Y-55688284D01*
X60941036Y-55586522D01*
X60935446Y-55585334D01*
X60537154Y-55519397D01*
X60531490Y-55518721D01*
X60128851Y-55489153D01*
X60123150Y-55488994D01*
X59719489Y-55496040D01*
X59713801Y-55496398D01*
X59312457Y-55539998D01*
X59306787Y-55540876D01*
X58911058Y-55620669D01*
X58905512Y-55622051D01*
X58518627Y-55737387D01*
X58513223Y-55739269D01*
X58138396Y-55889189D01*
X58133189Y-55891551D01*
X57773475Y-56074834D01*
X57768510Y-56077655D01*
X57426897Y-56292781D01*
X57422202Y-56296044D01*
X57101494Y-56541243D01*
X57097114Y-56544917D01*
X57009910Y-56625106D01*
X57001723Y-56638713D01*
X50010500Y-56638713D01*
X50010500Y-55047885D01*
X71592000Y-55047885D01*
X71596475Y-55063124D01*
X71597865Y-55064329D01*
X71605548Y-55066000D01*
X72527885Y-55066000D01*
X72543124Y-55061525D01*
X72544329Y-55060135D01*
X72546000Y-55052452D01*
X72546000Y-55047885D01*
X73054000Y-55047885D01*
X73058475Y-55063124D01*
X73059865Y-55064329D01*
X73067548Y-55066000D01*
X73989884Y-55066000D01*
X74005123Y-55061525D01*
X74006328Y-55060135D01*
X74007999Y-55052452D01*
X74007999Y-54225331D01*
X74007629Y-54218510D01*
X74002105Y-54167648D01*
X73998479Y-54152396D01*
X73953324Y-54031946D01*
X73944786Y-54016351D01*
X73868285Y-53914276D01*
X73855724Y-53901715D01*
X73753649Y-53825214D01*
X73738054Y-53816676D01*
X73617606Y-53771522D01*
X73602351Y-53767895D01*
X73551486Y-53762369D01*
X73544672Y-53762000D01*
X73072115Y-53762000D01*
X73056876Y-53766475D01*
X73055671Y-53767865D01*
X73054000Y-53775548D01*
X73054000Y-55047885D01*
X72546000Y-55047885D01*
X72546000Y-53780116D01*
X72541525Y-53764877D01*
X72540135Y-53763672D01*
X72532452Y-53762001D01*
X72055331Y-53762001D01*
X72048510Y-53762371D01*
X71997648Y-53767895D01*
X71982396Y-53771521D01*
X71861946Y-53816676D01*
X71846351Y-53825214D01*
X71744276Y-53901715D01*
X71731715Y-53914276D01*
X71655214Y-54016351D01*
X71646676Y-54031946D01*
X71601522Y-54152394D01*
X71597895Y-54167649D01*
X71592369Y-54218514D01*
X71592000Y-54225328D01*
X71592000Y-55047885D01*
X50010500Y-55047885D01*
X50010500Y-50136500D01*
X50030502Y-50068379D01*
X50084158Y-50021886D01*
X50136500Y-50010500D01*
X149863500Y-50010500D01*
X149931621Y-50030502D01*
G37*
%TD.AperFunction*%
%TA.AperFunction,Conductor*%
G36*
X102760239Y-103288504D02*
G01*
X102766769Y-103292867D01*
X102825252Y-103304500D01*
X103414748Y-103304500D01*
X103422977Y-103302863D01*
X103424131Y-103302967D01*
X103426979Y-103302686D01*
X103427032Y-103303226D01*
X103493689Y-103309190D01*
X103549757Y-103352744D01*
X103573377Y-103419696D01*
X103571137Y-103451020D01*
X103569500Y-103459252D01*
X103569500Y-104048748D01*
X103581133Y-104107231D01*
X103583726Y-104111112D01*
X103590743Y-104176370D01*
X103585496Y-104194239D01*
X103581133Y-104200769D01*
X103569500Y-104259252D01*
X103569500Y-104848748D01*
X103581133Y-104907231D01*
X103583726Y-104911112D01*
X103590743Y-104976370D01*
X103585496Y-104994239D01*
X103581133Y-105000769D01*
X103569500Y-105059252D01*
X103569500Y-105331354D01*
X103549498Y-105399475D01*
X103519065Y-105432180D01*
X103414276Y-105510715D01*
X103401715Y-105523276D01*
X103325214Y-105625351D01*
X103316676Y-105640946D01*
X103271522Y-105761394D01*
X103267895Y-105776649D01*
X103262369Y-105827514D01*
X103262000Y-105834328D01*
X103262000Y-105881885D01*
X103266475Y-105897124D01*
X103267865Y-105898329D01*
X103275548Y-105900000D01*
X105859884Y-105900000D01*
X105875123Y-105895525D01*
X105876328Y-105894135D01*
X105877999Y-105886452D01*
X105877999Y-105834331D01*
X105877629Y-105827510D01*
X105872105Y-105776648D01*
X105868479Y-105761396D01*
X105823324Y-105640946D01*
X105814786Y-105625351D01*
X105738285Y-105523276D01*
X105725724Y-105510715D01*
X105620935Y-105432180D01*
X105578420Y-105375321D01*
X105570500Y-105331354D01*
X105570500Y-105059252D01*
X105569293Y-105053184D01*
X105568686Y-105047021D01*
X105570409Y-105046851D01*
X105575994Y-104984376D01*
X105619545Y-104928306D01*
X105693249Y-104904500D01*
X111356628Y-104904500D01*
X111424749Y-104924502D01*
X111445723Y-104941405D01*
X111463540Y-104959222D01*
X111497566Y-105021534D01*
X111499379Y-105031971D01*
X111512980Y-105135979D01*
X111570720Y-105267203D01*
X111576497Y-105274076D01*
X111576498Y-105274077D01*
X111601707Y-105304067D01*
X111662970Y-105376948D01*
X111782313Y-105456390D01*
X111919157Y-105499142D01*
X111928129Y-105499306D01*
X111928132Y-105499307D01*
X111993463Y-105500504D01*
X112062499Y-105501770D01*
X112071533Y-105499307D01*
X112192158Y-105466421D01*
X112192160Y-105466420D01*
X112200817Y-105464060D01*
X112322991Y-105389045D01*
X112419200Y-105282754D01*
X112434108Y-105251984D01*
X112481810Y-105199401D01*
X112550369Y-105180955D01*
X112618016Y-105202503D01*
X112663276Y-105257203D01*
X112673500Y-105306922D01*
X112673500Y-105745074D01*
X112653498Y-105813195D01*
X112636595Y-105834169D01*
X110522170Y-107948595D01*
X110459858Y-107982620D01*
X110433075Y-107985500D01*
X108494926Y-107985500D01*
X108426805Y-107965498D01*
X108405831Y-107948595D01*
X107128297Y-106671062D01*
X107117429Y-106658671D01*
X107103305Y-106640264D01*
X107098282Y-106633718D01*
X106972841Y-106537464D01*
X106826762Y-106476956D01*
X106709361Y-106461500D01*
X106670000Y-106456318D01*
X106661812Y-106457396D01*
X106638827Y-106460422D01*
X106622381Y-106461500D01*
X105978944Y-106461500D01*
X105910823Y-106441498D01*
X105896431Y-106430724D01*
X105872135Y-106409671D01*
X105864452Y-106408000D01*
X103280116Y-106408000D01*
X103264877Y-106412475D01*
X103263672Y-106413865D01*
X103262001Y-106421548D01*
X103262001Y-106473669D01*
X103262371Y-106480490D01*
X103267895Y-106531352D01*
X103271521Y-106546604D01*
X103316676Y-106667054D01*
X103325214Y-106682649D01*
X103401715Y-106784724D01*
X103414276Y-106797285D01*
X103519065Y-106875820D01*
X103561580Y-106932679D01*
X103569500Y-106976646D01*
X103569500Y-107248748D01*
X103581133Y-107307231D01*
X103583726Y-107311112D01*
X103590743Y-107376370D01*
X103585496Y-107394239D01*
X103581133Y-107400769D01*
X103569500Y-107459252D01*
X103569500Y-108048748D01*
X103581133Y-108107231D01*
X103583726Y-108111112D01*
X103590743Y-108176370D01*
X103585496Y-108194239D01*
X103581133Y-108200769D01*
X103569500Y-108259252D01*
X103569500Y-108848748D01*
X103581133Y-108907231D01*
X103583726Y-108911112D01*
X103590743Y-108976370D01*
X103585496Y-108994239D01*
X103581133Y-109000769D01*
X103569500Y-109059252D01*
X103569500Y-109648748D01*
X103571137Y-109656977D01*
X103571033Y-109658131D01*
X103571314Y-109660979D01*
X103570774Y-109661032D01*
X103564810Y-109727689D01*
X103521256Y-109783757D01*
X103454304Y-109807377D01*
X103422980Y-109805137D01*
X103414748Y-109803500D01*
X102825252Y-109803500D01*
X102766769Y-109815133D01*
X102762888Y-109817726D01*
X102697630Y-109824743D01*
X102679761Y-109819496D01*
X102673231Y-109815133D01*
X102614748Y-109803500D01*
X102025252Y-109803500D01*
X101966769Y-109815133D01*
X101962888Y-109817726D01*
X101897630Y-109824743D01*
X101879761Y-109819496D01*
X101873231Y-109815133D01*
X101814748Y-109803500D01*
X101225252Y-109803500D01*
X101166769Y-109815133D01*
X101162888Y-109817726D01*
X101097630Y-109824743D01*
X101079761Y-109819496D01*
X101073231Y-109815133D01*
X101014748Y-109803500D01*
X100425252Y-109803500D01*
X100366769Y-109815133D01*
X100362888Y-109817726D01*
X100297630Y-109824743D01*
X100279761Y-109819496D01*
X100273231Y-109815133D01*
X100214748Y-109803500D01*
X99625252Y-109803500D01*
X99566769Y-109815133D01*
X99562888Y-109817726D01*
X99497630Y-109824743D01*
X99479761Y-109819496D01*
X99473231Y-109815133D01*
X99414748Y-109803500D01*
X98825252Y-109803500D01*
X98766769Y-109815133D01*
X98762888Y-109817726D01*
X98697630Y-109824743D01*
X98679761Y-109819496D01*
X98673231Y-109815133D01*
X98614748Y-109803500D01*
X98025252Y-109803500D01*
X97966769Y-109815133D01*
X97962888Y-109817726D01*
X97897630Y-109824743D01*
X97879761Y-109819496D01*
X97873231Y-109815133D01*
X97814748Y-109803500D01*
X97225252Y-109803500D01*
X97217023Y-109805137D01*
X97215869Y-109805033D01*
X97213021Y-109805314D01*
X97212968Y-109804774D01*
X97146311Y-109798810D01*
X97090243Y-109755256D01*
X97066623Y-109688304D01*
X97068863Y-109656980D01*
X97070500Y-109648748D01*
X97070500Y-109059252D01*
X97058867Y-109000769D01*
X97056274Y-108996888D01*
X97049257Y-108931630D01*
X97054504Y-108913761D01*
X97058867Y-108907231D01*
X97070500Y-108848748D01*
X97070500Y-108259252D01*
X97058867Y-108200769D01*
X97056274Y-108196888D01*
X97049257Y-108131630D01*
X97054504Y-108113761D01*
X97058867Y-108107231D01*
X97070500Y-108048748D01*
X97070500Y-107776646D01*
X97090502Y-107708525D01*
X97120935Y-107675820D01*
X97225724Y-107597285D01*
X97238285Y-107584724D01*
X97314786Y-107482649D01*
X97323324Y-107467054D01*
X97368478Y-107346606D01*
X97372105Y-107331351D01*
X97377631Y-107280486D01*
X97378000Y-107273672D01*
X97378000Y-107226115D01*
X97373525Y-107210876D01*
X97372135Y-107209671D01*
X97364452Y-107208000D01*
X94780116Y-107208000D01*
X94761751Y-107213393D01*
X94707285Y-107248396D01*
X94671786Y-107253500D01*
X94156711Y-107253500D01*
X94088590Y-107233498D01*
X94067616Y-107216595D01*
X93211946Y-106360925D01*
X93203620Y-106351204D01*
X93203516Y-106351293D01*
X93200354Y-106347600D01*
X93197478Y-106343664D01*
X93186735Y-106332921D01*
X93180377Y-106326074D01*
X93154259Y-106295763D01*
X93148400Y-106288963D01*
X93140866Y-106284080D01*
X93134104Y-106278181D01*
X93134108Y-106278176D01*
X93123014Y-106269200D01*
X91967405Y-105113591D01*
X91933379Y-105051279D01*
X91930500Y-105024496D01*
X91930500Y-104253711D01*
X91950502Y-104185590D01*
X92004158Y-104139097D01*
X92074432Y-104128993D01*
X92139012Y-104158487D01*
X92145595Y-104164616D01*
X94439259Y-106458280D01*
X94446725Y-106467624D01*
X94447115Y-106467292D01*
X94452933Y-106474128D01*
X94457723Y-106481720D01*
X94464451Y-106487662D01*
X94464452Y-106487663D01*
X94497393Y-106516755D01*
X94503081Y-106522102D01*
X94514300Y-106533321D01*
X94517888Y-106536010D01*
X94517889Y-106536011D01*
X94522477Y-106539450D01*
X94530316Y-106545832D01*
X94565181Y-106576623D01*
X94573299Y-106580434D01*
X94576452Y-106582506D01*
X94589473Y-106590329D01*
X94592782Y-106592141D01*
X94599969Y-106597527D01*
X94608374Y-106600678D01*
X94608376Y-106600679D01*
X94643530Y-106613857D01*
X94652850Y-106617784D01*
X94694956Y-106637553D01*
X94694674Y-106638153D01*
X94748252Y-106673434D01*
X94756237Y-106688253D01*
X94767865Y-106698329D01*
X94775548Y-106700000D01*
X95797885Y-106700000D01*
X95816250Y-106694607D01*
X95870716Y-106659604D01*
X95906215Y-106654500D01*
X96105940Y-106654500D01*
X96199468Y-106641106D01*
X96269736Y-106651249D01*
X96298015Y-106675780D01*
X96300514Y-106672896D01*
X96329865Y-106698329D01*
X96337548Y-106700000D01*
X97359884Y-106700000D01*
X97375123Y-106695525D01*
X97376328Y-106694135D01*
X97377999Y-106686452D01*
X97377999Y-106634331D01*
X97377629Y-106627510D01*
X97372105Y-106576648D01*
X97368479Y-106561396D01*
X97323324Y-106440946D01*
X97314786Y-106425351D01*
X97238285Y-106323276D01*
X97225724Y-106310715D01*
X97151151Y-106254826D01*
X97108636Y-106197967D01*
X97103610Y-106127149D01*
X97137670Y-106064855D01*
X97151151Y-106053174D01*
X97225724Y-105997285D01*
X97238285Y-105984724D01*
X97314786Y-105882649D01*
X97323324Y-105867054D01*
X97368478Y-105746606D01*
X97372105Y-105731351D01*
X97377631Y-105680486D01*
X97378000Y-105673672D01*
X97378000Y-105626115D01*
X97373525Y-105610876D01*
X97372135Y-105609671D01*
X97364452Y-105608000D01*
X96342115Y-105608000D01*
X96326876Y-105612475D01*
X96315334Y-105625795D01*
X96255608Y-105664179D01*
X96200726Y-105667783D01*
X96108991Y-105653500D01*
X95942000Y-105653500D01*
X95873879Y-105633498D01*
X95827386Y-105579842D01*
X95816000Y-105527500D01*
X95816000Y-105226000D01*
X95836002Y-105157879D01*
X95889658Y-105111386D01*
X95942000Y-105100000D01*
X97359884Y-105100000D01*
X97375123Y-105095525D01*
X97376328Y-105094135D01*
X97377999Y-105086452D01*
X97377999Y-105034331D01*
X97377629Y-105027510D01*
X97372105Y-104976648D01*
X97368479Y-104961396D01*
X97323324Y-104840946D01*
X97314786Y-104825351D01*
X97238285Y-104723276D01*
X97225724Y-104710715D01*
X97120935Y-104632180D01*
X97078420Y-104575321D01*
X97070500Y-104531354D01*
X97070500Y-104259252D01*
X97058867Y-104200769D01*
X97056274Y-104196888D01*
X97049257Y-104131630D01*
X97054504Y-104113761D01*
X97058867Y-104107231D01*
X97070500Y-104048748D01*
X97070500Y-103459252D01*
X97068863Y-103451023D01*
X97068967Y-103449869D01*
X97068686Y-103447021D01*
X97069226Y-103446968D01*
X97075190Y-103380311D01*
X97118744Y-103324243D01*
X97185696Y-103300623D01*
X97217020Y-103302863D01*
X97225252Y-103304500D01*
X97814748Y-103304500D01*
X97873231Y-103292867D01*
X97877112Y-103290274D01*
X97942370Y-103283257D01*
X97960239Y-103288504D01*
X97966769Y-103292867D01*
X98025252Y-103304500D01*
X98614748Y-103304500D01*
X98673231Y-103292867D01*
X98677112Y-103290274D01*
X98742370Y-103283257D01*
X98760239Y-103288504D01*
X98766769Y-103292867D01*
X98825252Y-103304500D01*
X99414748Y-103304500D01*
X99473231Y-103292867D01*
X99477112Y-103290274D01*
X99542370Y-103283257D01*
X99560239Y-103288504D01*
X99566769Y-103292867D01*
X99625252Y-103304500D01*
X100214748Y-103304500D01*
X100273231Y-103292867D01*
X100277112Y-103290274D01*
X100342370Y-103283257D01*
X100360239Y-103288504D01*
X100366769Y-103292867D01*
X100425252Y-103304500D01*
X101014748Y-103304500D01*
X101073231Y-103292867D01*
X101077112Y-103290274D01*
X101142370Y-103283257D01*
X101160239Y-103288504D01*
X101166769Y-103292867D01*
X101225252Y-103304500D01*
X101814748Y-103304500D01*
X101873231Y-103292867D01*
X101877112Y-103290274D01*
X101942370Y-103283257D01*
X101960239Y-103288504D01*
X101966769Y-103292867D01*
X102025252Y-103304500D01*
X102614748Y-103304500D01*
X102673231Y-103292867D01*
X102677112Y-103290274D01*
X102742370Y-103283257D01*
X102760239Y-103288504D01*
G37*
%TD.AperFunction*%
%TD*%
M02*
