%TF.GenerationSoftware,KiCad,Pcbnew,6.0.11-2627ca5db0~126~ubuntu22.04.1*%
%TF.CreationDate,2023-04-10T19:38:19+02:00*%
%TF.ProjectId,Slicor_carte_v_rin,536c6963-6f72-45f6-9361-7274655f76e9,rev?*%
%TF.SameCoordinates,Original*%
%TF.FileFunction,Legend,Top*%
%TF.FilePolarity,Positive*%
%FSLAX46Y46*%
G04 Gerber Fmt 4.6, Leading zero omitted, Abs format (unit mm)*
G04 Created by KiCad (PCBNEW 6.0.11-2627ca5db0~126~ubuntu22.04.1) date 2023-04-10 19:38:19*
%MOMM*%
%LPD*%
G01*
G04 APERTURE LIST*
G04 Aperture macros list*
%AMRoundRect*
0 Rectangle with rounded corners*
0 $1 Rounding radius*
0 $2 $3 $4 $5 $6 $7 $8 $9 X,Y pos of 4 corners*
0 Add a 4 corners polygon primitive as box body*
4,1,4,$2,$3,$4,$5,$6,$7,$8,$9,$2,$3,0*
0 Add four circle primitives for the rounded corners*
1,1,$1+$1,$2,$3*
1,1,$1+$1,$4,$5*
1,1,$1+$1,$6,$7*
1,1,$1+$1,$8,$9*
0 Add four rect primitives between the rounded corners*
20,1,$1+$1,$2,$3,$4,$5,0*
20,1,$1+$1,$4,$5,$6,$7,0*
20,1,$1+$1,$6,$7,$8,$9,0*
20,1,$1+$1,$8,$9,$2,$3,0*%
G04 Aperture macros list end*
%ADD10C,0.150000*%
%ADD11C,0.120000*%
%ADD12RoundRect,0.250000X-0.312500X-0.625000X0.312500X-0.625000X0.312500X0.625000X-0.312500X0.625000X0*%
%ADD13RoundRect,0.250000X0.750000X-0.600000X0.750000X0.600000X-0.750000X0.600000X-0.750000X-0.600000X0*%
%ADD14O,2.000000X1.700000*%
%ADD15R,1.200000X1.400000*%
%ADD16RoundRect,0.250000X0.725000X-0.600000X0.725000X0.600000X-0.725000X0.600000X-0.725000X-0.600000X0*%
%ADD17O,1.950000X1.700000*%
%ADD18RoundRect,0.250001X2.049999X0.799999X-2.049999X0.799999X-2.049999X-0.799999X2.049999X-0.799999X0*%
%ADD19C,0.900000*%
%ADD20C,8.000000*%
%ADD21RoundRect,0.250001X-0.799999X2.049999X-0.799999X-2.049999X0.799999X-2.049999X0.799999X2.049999X0*%
%ADD22R,1.600000X0.550000*%
%ADD23R,0.550000X1.600000*%
%ADD24R,3.000000X3.000000*%
%ADD25C,3.000000*%
%ADD26RoundRect,0.250000X-0.600000X-0.750000X0.600000X-0.750000X0.600000X0.750000X-0.600000X0.750000X0*%
%ADD27O,1.700000X2.000000*%
%ADD28RoundRect,0.250000X-0.600000X-0.725000X0.600000X-0.725000X0.600000X0.725000X-0.600000X0.725000X0*%
%ADD29O,1.700000X1.950000*%
%ADD30RoundRect,0.075000X-0.075000X0.125000X-0.075000X-0.125000X0.075000X-0.125000X0.075000X0.125000X0*%
%ADD31R,1.100000X4.600000*%
%ADD32R,10.800000X9.400000*%
%ADD33RoundRect,0.075000X0.075000X-0.125000X0.075000X0.125000X-0.075000X0.125000X-0.075000X-0.125000X0*%
%ADD34R,1.400000X2.100000*%
%ADD35R,1.700000X1.700000*%
%ADD36O,1.700000X1.700000*%
%ADD37R,2.200000X1.500000*%
G04 APERTURE END LIST*
D10*
%TO.C,R2*%
X133283333Y-111632380D02*
X132950000Y-111156190D01*
X132711904Y-111632380D02*
X132711904Y-110632380D01*
X133092857Y-110632380D01*
X133188095Y-110680000D01*
X133235714Y-110727619D01*
X133283333Y-110822857D01*
X133283333Y-110965714D01*
X133235714Y-111060952D01*
X133188095Y-111108571D01*
X133092857Y-111156190D01*
X132711904Y-111156190D01*
X133664285Y-110727619D02*
X133711904Y-110680000D01*
X133807142Y-110632380D01*
X134045238Y-110632380D01*
X134140476Y-110680000D01*
X134188095Y-110727619D01*
X134235714Y-110822857D01*
X134235714Y-110918095D01*
X134188095Y-111060952D01*
X133616666Y-111632380D01*
X134235714Y-111632380D01*
%TO.C,R1*%
X133370833Y-124132380D02*
X133037500Y-123656190D01*
X132799404Y-124132380D02*
X132799404Y-123132380D01*
X133180357Y-123132380D01*
X133275595Y-123180000D01*
X133323214Y-123227619D01*
X133370833Y-123322857D01*
X133370833Y-123465714D01*
X133323214Y-123560952D01*
X133275595Y-123608571D01*
X133180357Y-123656190D01*
X132799404Y-123656190D01*
X134323214Y-124132380D02*
X133751785Y-124132380D01*
X134037500Y-124132380D02*
X134037500Y-123132380D01*
X133942261Y-123275238D01*
X133847023Y-123370476D01*
X133751785Y-123418095D01*
%TO.C,J9*%
X135902380Y-114833333D02*
X136616666Y-114833333D01*
X136759523Y-114880952D01*
X136854761Y-114976190D01*
X136902380Y-115119047D01*
X136902380Y-115214285D01*
X136902380Y-114309523D02*
X136902380Y-114119047D01*
X136854761Y-114023809D01*
X136807142Y-113976190D01*
X136664285Y-113880952D01*
X136473809Y-113833333D01*
X136092857Y-113833333D01*
X135997619Y-113880952D01*
X135950000Y-113928571D01*
X135902380Y-114023809D01*
X135902380Y-114214285D01*
X135950000Y-114309523D01*
X135997619Y-114357142D01*
X136092857Y-114404761D01*
X136330952Y-114404761D01*
X136426190Y-114357142D01*
X136473809Y-114309523D01*
X136521428Y-114214285D01*
X136521428Y-114023809D01*
X136473809Y-113928571D01*
X136426190Y-113880952D01*
X136330952Y-113833333D01*
%TO.C,J8*%
X135902380Y-127333333D02*
X136616666Y-127333333D01*
X136759523Y-127380952D01*
X136854761Y-127476190D01*
X136902380Y-127619047D01*
X136902380Y-127714285D01*
X136330952Y-126714285D02*
X136283333Y-126809523D01*
X136235714Y-126857142D01*
X136140476Y-126904761D01*
X136092857Y-126904761D01*
X135997619Y-126857142D01*
X135950000Y-126809523D01*
X135902380Y-126714285D01*
X135902380Y-126523809D01*
X135950000Y-126428571D01*
X135997619Y-126380952D01*
X136092857Y-126333333D01*
X136140476Y-126333333D01*
X136235714Y-126380952D01*
X136283333Y-126428571D01*
X136330952Y-126523809D01*
X136330952Y-126714285D01*
X136378571Y-126809523D01*
X136426190Y-126857142D01*
X136521428Y-126904761D01*
X136711904Y-126904761D01*
X136807142Y-126857142D01*
X136854761Y-126809523D01*
X136902380Y-126714285D01*
X136902380Y-126523809D01*
X136854761Y-126428571D01*
X136807142Y-126380952D01*
X136711904Y-126333333D01*
X136521428Y-126333333D01*
X136426190Y-126380952D01*
X136378571Y-126428571D01*
X136330952Y-126523809D01*
%TO.C,Y1*%
X86726190Y-110126190D02*
X87202380Y-110126190D01*
X86202380Y-110459523D02*
X86726190Y-110126190D01*
X86202380Y-109792857D01*
X87202380Y-108935714D02*
X87202380Y-109507142D01*
X87202380Y-109221428D02*
X86202380Y-109221428D01*
X86345238Y-109316666D01*
X86440476Y-109411904D01*
X86488095Y-109507142D01*
%TO.C,J5*%
X135652380Y-99333333D02*
X136366666Y-99333333D01*
X136509523Y-99380952D01*
X136604761Y-99476190D01*
X136652380Y-99619047D01*
X136652380Y-99714285D01*
X135652380Y-98380952D02*
X135652380Y-98857142D01*
X136128571Y-98904761D01*
X136080952Y-98857142D01*
X136033333Y-98761904D01*
X136033333Y-98523809D01*
X136080952Y-98428571D01*
X136128571Y-98380952D01*
X136223809Y-98333333D01*
X136461904Y-98333333D01*
X136557142Y-98380952D01*
X136604761Y-98428571D01*
X136652380Y-98523809D01*
X136652380Y-98761904D01*
X136604761Y-98857142D01*
X136557142Y-98904761D01*
%TO.C,C2*%
X75271333Y-85043142D02*
X75223714Y-85090761D01*
X75080857Y-85138380D01*
X74985619Y-85138380D01*
X74842761Y-85090761D01*
X74747523Y-84995523D01*
X74699904Y-84900285D01*
X74652285Y-84709809D01*
X74652285Y-84566952D01*
X74699904Y-84376476D01*
X74747523Y-84281238D01*
X74842761Y-84186000D01*
X74985619Y-84138380D01*
X75080857Y-84138380D01*
X75223714Y-84186000D01*
X75271333Y-84233619D01*
X75652285Y-84233619D02*
X75699904Y-84186000D01*
X75795142Y-84138380D01*
X76033238Y-84138380D01*
X76128476Y-84186000D01*
X76176095Y-84233619D01*
X76223714Y-84328857D01*
X76223714Y-84424095D01*
X76176095Y-84566952D01*
X75604666Y-85138380D01*
X76223714Y-85138380D01*
%TO.C,H2*%
X55238095Y-143962380D02*
X55238095Y-142962380D01*
X55238095Y-143438571D02*
X55809523Y-143438571D01*
X55809523Y-143962380D02*
X55809523Y-142962380D01*
X56238095Y-143057619D02*
X56285714Y-143010000D01*
X56380952Y-142962380D01*
X56619047Y-142962380D01*
X56714285Y-143010000D01*
X56761904Y-143057619D01*
X56809523Y-143152857D01*
X56809523Y-143248095D01*
X56761904Y-143390952D01*
X56190476Y-143962380D01*
X56809523Y-143962380D01*
%TO.C,C1*%
X113745142Y-60364666D02*
X113792761Y-60412285D01*
X113840380Y-60555142D01*
X113840380Y-60650380D01*
X113792761Y-60793238D01*
X113697523Y-60888476D01*
X113602285Y-60936095D01*
X113411809Y-60983714D01*
X113268952Y-60983714D01*
X113078476Y-60936095D01*
X112983238Y-60888476D01*
X112888000Y-60793238D01*
X112840380Y-60650380D01*
X112840380Y-60555142D01*
X112888000Y-60412285D01*
X112935619Y-60364666D01*
X113840380Y-59412285D02*
X113840380Y-59983714D01*
X113840380Y-59698000D02*
X112840380Y-59698000D01*
X112983238Y-59793238D01*
X113078476Y-59888476D01*
X113126095Y-59983714D01*
%TO.C,uC1*%
X106488095Y-104285714D02*
X106488095Y-104952380D01*
X106059523Y-104285714D02*
X106059523Y-104809523D01*
X106107142Y-104904761D01*
X106202380Y-104952380D01*
X106345238Y-104952380D01*
X106440476Y-104904761D01*
X106488095Y-104857142D01*
X107535714Y-104857142D02*
X107488095Y-104904761D01*
X107345238Y-104952380D01*
X107250000Y-104952380D01*
X107107142Y-104904761D01*
X107011904Y-104809523D01*
X106964285Y-104714285D01*
X106916666Y-104523809D01*
X106916666Y-104380952D01*
X106964285Y-104190476D01*
X107011904Y-104095238D01*
X107107142Y-104000000D01*
X107250000Y-103952380D01*
X107345238Y-103952380D01*
X107488095Y-104000000D01*
X107535714Y-104047619D01*
X108488095Y-104952380D02*
X107916666Y-104952380D01*
X108202380Y-104952380D02*
X108202380Y-103952380D01*
X108107142Y-104095238D01*
X108011904Y-104190476D01*
X107916666Y-104238095D01*
%TO.C,J1*%
X122126666Y-64532380D02*
X122126666Y-65246666D01*
X122079047Y-65389523D01*
X121983809Y-65484761D01*
X121840952Y-65532380D01*
X121745714Y-65532380D01*
X123126666Y-65532380D02*
X122555238Y-65532380D01*
X122840952Y-65532380D02*
X122840952Y-64532380D01*
X122745714Y-64675238D01*
X122650476Y-64770476D01*
X122555238Y-64818095D01*
%TO.C,H4*%
X142748095Y-56332380D02*
X142748095Y-55332380D01*
X142748095Y-55808571D02*
X143319523Y-55808571D01*
X143319523Y-56332380D02*
X143319523Y-55332380D01*
X144224285Y-55665714D02*
X144224285Y-56332380D01*
X143986190Y-55284761D02*
X143748095Y-55999047D01*
X144367142Y-55999047D01*
%TO.C,J3*%
X113166666Y-72377380D02*
X113166666Y-73091666D01*
X113119047Y-73234523D01*
X113023809Y-73329761D01*
X112880952Y-73377380D01*
X112785714Y-73377380D01*
X113547619Y-72377380D02*
X114166666Y-72377380D01*
X113833333Y-72758333D01*
X113976190Y-72758333D01*
X114071428Y-72805952D01*
X114119047Y-72853571D01*
X114166666Y-72948809D01*
X114166666Y-73186904D01*
X114119047Y-73282142D01*
X114071428Y-73329761D01*
X113976190Y-73377380D01*
X113690476Y-73377380D01*
X113595238Y-73329761D01*
X113547619Y-73282142D01*
%TO.C,J7*%
X86166666Y-135377380D02*
X86166666Y-136091666D01*
X86119047Y-136234523D01*
X86023809Y-136329761D01*
X85880952Y-136377380D01*
X85785714Y-136377380D01*
X86547619Y-135377380D02*
X87214285Y-135377380D01*
X86785714Y-136377380D01*
%TO.C,C4*%
X87107142Y-115416666D02*
X87154761Y-115464285D01*
X87202380Y-115607142D01*
X87202380Y-115702380D01*
X87154761Y-115845238D01*
X87059523Y-115940476D01*
X86964285Y-115988095D01*
X86773809Y-116035714D01*
X86630952Y-116035714D01*
X86440476Y-115988095D01*
X86345238Y-115940476D01*
X86250000Y-115845238D01*
X86202380Y-115702380D01*
X86202380Y-115607142D01*
X86250000Y-115464285D01*
X86297619Y-115416666D01*
X86535714Y-114559523D02*
X87202380Y-114559523D01*
X86154761Y-114797619D02*
X86869047Y-115035714D01*
X86869047Y-114416666D01*
%TO.C,J2*%
X145282380Y-76793333D02*
X145996666Y-76793333D01*
X146139523Y-76840952D01*
X146234761Y-76936190D01*
X146282380Y-77079047D01*
X146282380Y-77174285D01*
X145377619Y-76364761D02*
X145330000Y-76317142D01*
X145282380Y-76221904D01*
X145282380Y-75983809D01*
X145330000Y-75888571D01*
X145377619Y-75840952D01*
X145472857Y-75793333D01*
X145568095Y-75793333D01*
X145710952Y-75840952D01*
X146282380Y-76412380D01*
X146282380Y-75793333D01*
%TO.C,U1*%
X97542380Y-62156904D02*
X98351904Y-62156904D01*
X98447142Y-62109285D01*
X98494761Y-62061666D01*
X98542380Y-61966428D01*
X98542380Y-61775952D01*
X98494761Y-61680714D01*
X98447142Y-61633095D01*
X98351904Y-61585476D01*
X97542380Y-61585476D01*
X98542380Y-60585476D02*
X98542380Y-61156904D01*
X98542380Y-60871190D02*
X97542380Y-60871190D01*
X97685238Y-60966428D01*
X97780476Y-61061666D01*
X97828095Y-61156904D01*
%TO.C,J6*%
X106166666Y-135377380D02*
X106166666Y-136091666D01*
X106119047Y-136234523D01*
X106023809Y-136329761D01*
X105880952Y-136377380D01*
X105785714Y-136377380D01*
X107071428Y-135377380D02*
X106880952Y-135377380D01*
X106785714Y-135425000D01*
X106738095Y-135472619D01*
X106642857Y-135615476D01*
X106595238Y-135805952D01*
X106595238Y-136186904D01*
X106642857Y-136282142D01*
X106690476Y-136329761D01*
X106785714Y-136377380D01*
X106976190Y-136377380D01*
X107071428Y-136329761D01*
X107119047Y-136282142D01*
X107166666Y-136186904D01*
X107166666Y-135948809D01*
X107119047Y-135853571D01*
X107071428Y-135805952D01*
X106976190Y-135758333D01*
X106785714Y-135758333D01*
X106690476Y-135805952D01*
X106642857Y-135853571D01*
X106595238Y-135948809D01*
%TO.C,R13*%
X100754642Y-98074380D02*
X100421309Y-97598190D01*
X100183214Y-98074380D02*
X100183214Y-97074380D01*
X100564166Y-97074380D01*
X100659404Y-97122000D01*
X100707023Y-97169619D01*
X100754642Y-97264857D01*
X100754642Y-97407714D01*
X100707023Y-97502952D01*
X100659404Y-97550571D01*
X100564166Y-97598190D01*
X100183214Y-97598190D01*
X101707023Y-98074380D02*
X101135595Y-98074380D01*
X101421309Y-98074380D02*
X101421309Y-97074380D01*
X101326071Y-97217238D01*
X101230833Y-97312476D01*
X101135595Y-97360095D01*
X102040357Y-97074380D02*
X102659404Y-97074380D01*
X102326071Y-97455333D01*
X102468928Y-97455333D01*
X102564166Y-97502952D01*
X102611785Y-97550571D01*
X102659404Y-97645809D01*
X102659404Y-97883904D01*
X102611785Y-97979142D01*
X102564166Y-98026761D01*
X102468928Y-98074380D01*
X102183214Y-98074380D01*
X102087976Y-98026761D01*
X102040357Y-97979142D01*
%TO.C,H1*%
X55118095Y-56332380D02*
X55118095Y-55332380D01*
X55118095Y-55808571D02*
X55689523Y-55808571D01*
X55689523Y-56332380D02*
X55689523Y-55332380D01*
X56689523Y-56332380D02*
X56118095Y-56332380D01*
X56403809Y-56332380D02*
X56403809Y-55332380D01*
X56308571Y-55475238D01*
X56213333Y-55570476D01*
X56118095Y-55618095D01*
%TO.C,C3*%
X87357142Y-105166666D02*
X87404761Y-105214285D01*
X87452380Y-105357142D01*
X87452380Y-105452380D01*
X87404761Y-105595238D01*
X87309523Y-105690476D01*
X87214285Y-105738095D01*
X87023809Y-105785714D01*
X86880952Y-105785714D01*
X86690476Y-105738095D01*
X86595238Y-105690476D01*
X86500000Y-105595238D01*
X86452380Y-105452380D01*
X86452380Y-105357142D01*
X86500000Y-105214285D01*
X86547619Y-105166666D01*
X86452380Y-104833333D02*
X86452380Y-104214285D01*
X86833333Y-104547619D01*
X86833333Y-104404761D01*
X86880952Y-104309523D01*
X86928571Y-104261904D01*
X87023809Y-104214285D01*
X87261904Y-104214285D01*
X87357142Y-104261904D01*
X87404761Y-104309523D01*
X87452380Y-104404761D01*
X87452380Y-104690476D01*
X87404761Y-104785714D01*
X87357142Y-104833333D01*
%TO.C,D5*%
X74261904Y-58202380D02*
X74261904Y-57202380D01*
X74500000Y-57202380D01*
X74642857Y-57250000D01*
X74738095Y-57345238D01*
X74785714Y-57440476D01*
X74833333Y-57630952D01*
X74833333Y-57773809D01*
X74785714Y-57964285D01*
X74738095Y-58059523D01*
X74642857Y-58154761D01*
X74500000Y-58202380D01*
X74261904Y-58202380D01*
X75738095Y-57202380D02*
X75261904Y-57202380D01*
X75214285Y-57678571D01*
X75261904Y-57630952D01*
X75357142Y-57583333D01*
X75595238Y-57583333D01*
X75690476Y-57630952D01*
X75738095Y-57678571D01*
X75785714Y-57773809D01*
X75785714Y-58011904D01*
X75738095Y-58107142D01*
X75690476Y-58154761D01*
X75595238Y-58202380D01*
X75357142Y-58202380D01*
X75261904Y-58154761D01*
X75214285Y-58107142D01*
%TO.C,J4*%
X96172380Y-119333333D02*
X96886666Y-119333333D01*
X97029523Y-119380952D01*
X97124761Y-119476190D01*
X97172380Y-119619047D01*
X97172380Y-119714285D01*
X96505714Y-118428571D02*
X97172380Y-118428571D01*
X96124761Y-118666666D02*
X96839047Y-118904761D01*
X96839047Y-118285714D01*
%TO.C,H3*%
X134238095Y-136952380D02*
X134238095Y-135952380D01*
X134238095Y-136428571D02*
X134809523Y-136428571D01*
X134809523Y-136952380D02*
X134809523Y-135952380D01*
X135190476Y-135952380D02*
X135809523Y-135952380D01*
X135476190Y-136333333D01*
X135619047Y-136333333D01*
X135714285Y-136380952D01*
X135761904Y-136428571D01*
X135809523Y-136523809D01*
X135809523Y-136761904D01*
X135761904Y-136857142D01*
X135714285Y-136904761D01*
X135619047Y-136952380D01*
X135333333Y-136952380D01*
X135238095Y-136904761D01*
X135190476Y-136857142D01*
%TO.C,L1*%
X82102380Y-65166666D02*
X82102380Y-65642857D01*
X81102380Y-65642857D01*
X82102380Y-64309523D02*
X82102380Y-64880952D01*
X82102380Y-64595238D02*
X81102380Y-64595238D01*
X81245238Y-64690476D01*
X81340476Y-64785714D01*
X81388095Y-64880952D01*
D11*
%TO.C,R2*%
X132722936Y-113910000D02*
X134177064Y-113910000D01*
X132722936Y-112090000D02*
X134177064Y-112090000D01*
%TO.C,R1*%
X132810436Y-126410000D02*
X134264564Y-126410000D01*
X132810436Y-124590000D02*
X134264564Y-124590000D01*
%TO.C,J9*%
X139800000Y-110700000D02*
X139800000Y-111450000D01*
X139800000Y-111450000D02*
X142750000Y-111450000D01*
X142750000Y-111450000D02*
X142750000Y-114500000D01*
X139800000Y-117550000D02*
X142750000Y-117550000D01*
X137550000Y-114000000D02*
X137550000Y-115000000D01*
X137550000Y-115000000D02*
X138300000Y-115000000D01*
X138300000Y-115000000D02*
X138300000Y-114000000D01*
X138300000Y-112500000D02*
X138300000Y-110700000D01*
X137550000Y-110700000D02*
X137550000Y-112500000D01*
X137250000Y-118600000D02*
X138500000Y-118600000D01*
X137540000Y-118310000D02*
X143510000Y-118310000D01*
X137550000Y-118300000D02*
X138300000Y-118300000D01*
X143510000Y-118310000D02*
X143510000Y-110690000D01*
X138300000Y-114000000D02*
X137550000Y-114000000D01*
X139800000Y-118300000D02*
X139800000Y-117550000D01*
X138300000Y-118300000D02*
X138300000Y-116500000D01*
X137250000Y-117350000D02*
X137250000Y-118600000D01*
X138300000Y-110700000D02*
X137550000Y-110700000D01*
X137550000Y-116500000D02*
X137550000Y-118300000D01*
X137540000Y-110690000D02*
X137540000Y-118310000D01*
X142750000Y-117550000D02*
X142750000Y-114500000D01*
X137550000Y-112500000D02*
X138300000Y-112500000D01*
X143510000Y-110690000D02*
X137540000Y-110690000D01*
X138300000Y-116500000D02*
X137550000Y-116500000D01*
%TO.C,J8*%
X139800000Y-123200000D02*
X139800000Y-123950000D01*
X139800000Y-123950000D02*
X142750000Y-123950000D01*
X142750000Y-123950000D02*
X142750000Y-127000000D01*
X139800000Y-130050000D02*
X142750000Y-130050000D01*
X137550000Y-126500000D02*
X137550000Y-127500000D01*
X137550000Y-127500000D02*
X138300000Y-127500000D01*
X138300000Y-127500000D02*
X138300000Y-126500000D01*
X138300000Y-125000000D02*
X138300000Y-123200000D01*
X137550000Y-123200000D02*
X137550000Y-125000000D01*
X137250000Y-131100000D02*
X138500000Y-131100000D01*
X137540000Y-130810000D02*
X143510000Y-130810000D01*
X137550000Y-130800000D02*
X138300000Y-130800000D01*
X143510000Y-130810000D02*
X143510000Y-123190000D01*
X138300000Y-126500000D02*
X137550000Y-126500000D01*
X139800000Y-130800000D02*
X139800000Y-130050000D01*
X138300000Y-130800000D02*
X138300000Y-129000000D01*
X137250000Y-129850000D02*
X137250000Y-131100000D01*
X138300000Y-123200000D02*
X137550000Y-123200000D01*
X137550000Y-129000000D02*
X137550000Y-130800000D01*
X137540000Y-123190000D02*
X137540000Y-130810000D01*
X142750000Y-130050000D02*
X142750000Y-127000000D01*
X137550000Y-125000000D02*
X138300000Y-125000000D01*
X143510000Y-123190000D02*
X137540000Y-123190000D01*
X138300000Y-129000000D02*
X137550000Y-129000000D01*
%TO.C,Y1*%
X87750000Y-107650000D02*
X87750000Y-111650000D01*
X91050000Y-107650000D02*
X87750000Y-107650000D01*
%TO.C,J5*%
X143260000Y-92690000D02*
X137290000Y-92690000D01*
X139550000Y-92700000D02*
X139550000Y-93450000D01*
X138050000Y-94500000D02*
X138050000Y-92700000D01*
X142500000Y-93450000D02*
X142500000Y-99000000D01*
X138050000Y-92700000D02*
X137300000Y-92700000D01*
X138050000Y-105300000D02*
X138050000Y-103500000D01*
X139550000Y-105300000D02*
X139550000Y-104550000D01*
X137300000Y-96000000D02*
X137300000Y-102000000D01*
X137000000Y-105600000D02*
X138250000Y-105600000D01*
X137300000Y-105300000D02*
X138050000Y-105300000D01*
X137290000Y-105310000D02*
X143260000Y-105310000D01*
X142500000Y-104550000D02*
X142500000Y-99000000D01*
X138050000Y-103500000D02*
X137300000Y-103500000D01*
X138050000Y-102000000D02*
X138050000Y-96000000D01*
X139550000Y-93450000D02*
X142500000Y-93450000D01*
X137300000Y-102000000D02*
X138050000Y-102000000D01*
X137300000Y-94500000D02*
X138050000Y-94500000D01*
X137300000Y-92700000D02*
X137300000Y-94500000D01*
X139550000Y-104550000D02*
X142500000Y-104550000D01*
X137300000Y-103500000D02*
X137300000Y-105300000D01*
X143260000Y-105310000D02*
X143260000Y-92690000D01*
X137290000Y-92690000D02*
X137290000Y-105310000D01*
X138050000Y-96000000D02*
X137300000Y-96000000D01*
X137000000Y-104350000D02*
X137000000Y-105600000D01*
%TO.C,C2*%
X79633563Y-83746000D02*
X70178000Y-83746000D01*
X79633563Y-73226000D02*
X70178000Y-73226000D01*
X70178000Y-73226000D02*
X70178000Y-77176000D01*
X80698000Y-82681563D02*
X79633563Y-83746000D01*
X80698000Y-74290437D02*
X79633563Y-73226000D01*
X80698000Y-74290437D02*
X80698000Y-77176000D01*
X80698000Y-82681563D02*
X80698000Y-79796000D01*
X70178000Y-83746000D02*
X70178000Y-79796000D01*
%TO.C,C1*%
X102992437Y-54938000D02*
X105878000Y-54938000D01*
X101928000Y-56002437D02*
X101928000Y-65458000D01*
X111383563Y-54938000D02*
X112448000Y-56002437D01*
X102992437Y-54938000D02*
X101928000Y-56002437D01*
X111383563Y-54938000D02*
X108498000Y-54938000D01*
X101928000Y-65458000D02*
X105878000Y-65458000D01*
X112448000Y-65458000D02*
X108498000Y-65458000D01*
X112448000Y-56002437D02*
X112448000Y-65458000D01*
D10*
%TO.C,uC1*%
X96695000Y-110179000D02*
X96695000Y-109854000D01*
X96695000Y-103154000D02*
X95270000Y-103154000D01*
X103945000Y-102929000D02*
X103945000Y-103254000D01*
X103945000Y-110179000D02*
X103945000Y-109854000D01*
X103945000Y-102929000D02*
X103620000Y-102929000D01*
X103945000Y-110179000D02*
X103620000Y-110179000D01*
X96695000Y-110179000D02*
X97020000Y-110179000D01*
X96695000Y-102929000D02*
X97020000Y-102929000D01*
X96695000Y-102929000D02*
X96695000Y-103154000D01*
D11*
%TO.C,J1*%
X117380000Y-63810000D02*
X127540000Y-63810000D01*
X127540000Y-56190000D02*
X117380000Y-56190000D01*
X117380000Y-56190000D02*
X117380000Y-63810000D01*
X117380000Y-57460000D02*
X127540000Y-57460000D01*
X127540000Y-63810000D02*
X127540000Y-56190000D01*
%TO.C,J3*%
X113000000Y-74775000D02*
X114000000Y-74775000D01*
X116550000Y-76275000D02*
X116550000Y-79225000D01*
X109700000Y-74025000D02*
X109700000Y-74775000D01*
X116550000Y-79225000D02*
X113500000Y-79225000D01*
X117310000Y-74015000D02*
X109690000Y-74015000D01*
X109700000Y-74775000D02*
X111500000Y-74775000D01*
X115500000Y-74025000D02*
X115500000Y-74775000D01*
X110450000Y-79225000D02*
X113500000Y-79225000D01*
X114000000Y-74025000D02*
X113000000Y-74025000D01*
X109700000Y-76275000D02*
X110450000Y-76275000D01*
X117300000Y-74025000D02*
X115500000Y-74025000D01*
X117300000Y-76275000D02*
X116550000Y-76275000D01*
X109690000Y-74015000D02*
X109690000Y-79985000D01*
X111500000Y-74775000D02*
X111500000Y-74025000D01*
X113000000Y-74025000D02*
X113000000Y-74775000D01*
X110650000Y-73725000D02*
X109400000Y-73725000D01*
X110450000Y-76275000D02*
X110450000Y-79225000D01*
X117300000Y-74775000D02*
X117300000Y-74025000D01*
X109400000Y-73725000D02*
X109400000Y-74975000D01*
X117310000Y-79985000D02*
X117310000Y-74015000D01*
X109690000Y-79985000D02*
X117310000Y-79985000D01*
X115500000Y-74775000D02*
X117300000Y-74775000D01*
X114000000Y-74775000D02*
X114000000Y-74025000D01*
X111500000Y-74025000D02*
X109700000Y-74025000D01*
%TO.C,J7*%
X80200000Y-139275000D02*
X80950000Y-139275000D01*
X80190000Y-137015000D02*
X80190000Y-142985000D01*
X82000000Y-137775000D02*
X82000000Y-137025000D01*
X89500000Y-137025000D02*
X83500000Y-137025000D01*
X92050000Y-142225000D02*
X86500000Y-142225000D01*
X82000000Y-137025000D02*
X80200000Y-137025000D01*
X92800000Y-137025000D02*
X91000000Y-137025000D01*
X80950000Y-142225000D02*
X86500000Y-142225000D01*
X92810000Y-142985000D02*
X92810000Y-137015000D01*
X91000000Y-137775000D02*
X92800000Y-137775000D01*
X80190000Y-142985000D02*
X92810000Y-142985000D01*
X92800000Y-139275000D02*
X92050000Y-139275000D01*
X92050000Y-139275000D02*
X92050000Y-142225000D01*
X80200000Y-137025000D02*
X80200000Y-137775000D01*
X80200000Y-137775000D02*
X82000000Y-137775000D01*
X83500000Y-137025000D02*
X83500000Y-137775000D01*
X92800000Y-137775000D02*
X92800000Y-137025000D01*
X92810000Y-137015000D02*
X80190000Y-137015000D01*
X83500000Y-137775000D02*
X89500000Y-137775000D01*
X91000000Y-137025000D02*
X91000000Y-137775000D01*
X81150000Y-136725000D02*
X79900000Y-136725000D01*
X89500000Y-137775000D02*
X89500000Y-137025000D01*
X80950000Y-139275000D02*
X80950000Y-142225000D01*
X79900000Y-136725000D02*
X79900000Y-137975000D01*
%TO.C,J2*%
X144560000Y-71380000D02*
X136940000Y-71380000D01*
X144560000Y-81540000D02*
X144560000Y-71380000D01*
X138210000Y-81540000D02*
X138210000Y-71380000D01*
X136940000Y-81540000D02*
X144560000Y-81540000D01*
X136940000Y-71380000D02*
X136940000Y-81540000D01*
%TO.C,U1*%
X87190000Y-58445000D02*
X87190000Y-57345000D01*
X96640000Y-58445000D02*
X95690000Y-58445000D01*
X96640000Y-59945000D02*
X96640000Y-58445000D01*
X95690000Y-58445000D02*
X95690000Y-53320000D01*
X86240000Y-58445000D02*
X87190000Y-58445000D01*
X86240000Y-59945000D02*
X86240000Y-58445000D01*
%TO.C,J6*%
X100190000Y-137015000D02*
X100190000Y-142985000D01*
X100950000Y-142225000D02*
X106500000Y-142225000D01*
X112800000Y-137775000D02*
X112800000Y-137025000D01*
X100950000Y-139275000D02*
X100950000Y-142225000D01*
X100190000Y-142985000D02*
X112810000Y-142985000D01*
X100200000Y-137775000D02*
X102000000Y-137775000D01*
X102000000Y-137025000D02*
X100200000Y-137025000D01*
X112050000Y-142225000D02*
X106500000Y-142225000D01*
X100200000Y-139275000D02*
X100950000Y-139275000D01*
X103500000Y-137025000D02*
X103500000Y-137775000D01*
X103500000Y-137775000D02*
X109500000Y-137775000D01*
X111000000Y-137025000D02*
X111000000Y-137775000D01*
X109500000Y-137025000D02*
X103500000Y-137025000D01*
X101150000Y-136725000D02*
X99900000Y-136725000D01*
X109500000Y-137775000D02*
X109500000Y-137025000D01*
X100200000Y-137025000D02*
X100200000Y-137775000D01*
X112810000Y-142985000D02*
X112810000Y-137015000D01*
X99900000Y-136725000D02*
X99900000Y-137975000D01*
X112800000Y-137025000D02*
X111000000Y-137025000D01*
X111000000Y-137775000D02*
X112800000Y-137775000D01*
X112050000Y-139275000D02*
X112050000Y-142225000D01*
X102000000Y-137775000D02*
X102000000Y-137025000D01*
X112800000Y-139275000D02*
X112050000Y-139275000D01*
X112810000Y-137015000D02*
X100190000Y-137015000D01*
%TO.C,R13*%
X100670436Y-98532000D02*
X102124564Y-98532000D01*
X100670436Y-100352000D02*
X102124564Y-100352000D01*
%TO.C,D5*%
X78080000Y-56680000D02*
X73100000Y-56680000D01*
X78080000Y-56680000D02*
X78080000Y-53960000D01*
X78080000Y-53960000D02*
X73100000Y-53960000D01*
%TO.C,J4*%
X100320000Y-117670000D02*
X118160000Y-117670000D01*
X100320000Y-120330000D02*
X100320000Y-117670000D01*
X99050000Y-120330000D02*
X97720000Y-120330000D01*
X100320000Y-120330000D02*
X118160000Y-120330000D01*
X97720000Y-120330000D02*
X97720000Y-119000000D01*
X118160000Y-120330000D02*
X118160000Y-117670000D01*
%TO.C,L1*%
X80900000Y-61300000D02*
X80900000Y-68700000D01*
X80900000Y-68700000D02*
X78600000Y-68700000D01*
X73500000Y-68700000D02*
X73500000Y-61300000D01*
X73500000Y-61300000D02*
X75800000Y-61300000D01*
X75800000Y-68700000D02*
X73500000Y-68700000D01*
X78600000Y-61300000D02*
X80900000Y-61300000D01*
%TD*%
%LPC*%
D12*
%TO.C,R2*%
X131987500Y-113000000D03*
X134912500Y-113000000D03*
%TD*%
%TO.C,R1*%
X132075000Y-125500000D03*
X135000000Y-125500000D03*
%TD*%
D13*
%TO.C,J9*%
X140000000Y-115750000D03*
D14*
X140000000Y-113250000D03*
%TD*%
D13*
%TO.C,J8*%
X140000000Y-128250000D03*
D14*
X140000000Y-125750000D03*
%TD*%
D15*
%TO.C,Y1*%
X90250000Y-108550000D03*
X90250000Y-110750000D03*
X88550000Y-110750000D03*
X88550000Y-108550000D03*
%TD*%
D16*
%TO.C,J5*%
X139750000Y-102750000D03*
D17*
X139750000Y-100250000D03*
X139750000Y-97750000D03*
X139750000Y-95250000D03*
%TD*%
D18*
%TO.C,C2*%
X79838000Y-78486000D03*
X71038000Y-78486000D03*
%TD*%
D19*
%TO.C,H2*%
X57878680Y-142121320D03*
X62121320Y-137878680D03*
X63000000Y-140000000D03*
X60000000Y-137000000D03*
X57000000Y-140000000D03*
X62121320Y-142121320D03*
X60000000Y-143000000D03*
X57878680Y-137878680D03*
D20*
X60000000Y-140000000D03*
%TD*%
D21*
%TO.C,C1*%
X107188000Y-55798000D03*
X107188000Y-64598000D03*
%TD*%
D22*
%TO.C,uC1*%
X96070000Y-103754000D03*
X96070000Y-104554000D03*
X96070000Y-105354000D03*
X96070000Y-106154000D03*
X96070000Y-106954000D03*
X96070000Y-107754000D03*
X96070000Y-108554000D03*
X96070000Y-109354000D03*
D23*
X97520000Y-110804000D03*
X98320000Y-110804000D03*
X99120000Y-110804000D03*
X99920000Y-110804000D03*
X100720000Y-110804000D03*
X101520000Y-110804000D03*
X102320000Y-110804000D03*
X103120000Y-110804000D03*
D22*
X104570000Y-109354000D03*
X104570000Y-108554000D03*
X104570000Y-107754000D03*
X104570000Y-106954000D03*
X104570000Y-106154000D03*
X104570000Y-105354000D03*
X104570000Y-104554000D03*
X104570000Y-103754000D03*
D23*
X103120000Y-102304000D03*
X102320000Y-102304000D03*
X101520000Y-102304000D03*
X100720000Y-102304000D03*
X99920000Y-102304000D03*
X99120000Y-102304000D03*
X98320000Y-102304000D03*
X97520000Y-102304000D03*
%TD*%
D24*
%TO.C,J1*%
X125000000Y-60000000D03*
D25*
X119920000Y-60000000D03*
%TD*%
D19*
%TO.C,H4*%
X142121320Y-62121320D03*
X143000000Y-60000000D03*
X137878680Y-62121320D03*
D20*
X140000000Y-60000000D03*
D19*
X140000000Y-63000000D03*
X140000000Y-57000000D03*
X142121320Y-57878680D03*
X137000000Y-60000000D03*
X137878680Y-57878680D03*
%TD*%
D26*
%TO.C,J3*%
X112250000Y-76475000D03*
D27*
X114750000Y-76475000D03*
%TD*%
D28*
%TO.C,J7*%
X82750000Y-139475000D03*
D29*
X85250000Y-139475000D03*
X87750000Y-139475000D03*
X90250000Y-139475000D03*
%TD*%
D30*
%TO.C,C4*%
X88500000Y-112925000D03*
X88500000Y-112425000D03*
%TD*%
D24*
%TO.C,J2*%
X140750000Y-73920000D03*
D25*
X140750000Y-79000000D03*
%TD*%
D31*
%TO.C,U1*%
X94840000Y-55620000D03*
X93140000Y-55620000D03*
D32*
X91440000Y-64770000D03*
D31*
X91440000Y-55620000D03*
X89740000Y-55620000D03*
X88040000Y-55620000D03*
%TD*%
D28*
%TO.C,J6*%
X102750000Y-139475000D03*
D29*
X105250000Y-139475000D03*
X107750000Y-139475000D03*
X110250000Y-139475000D03*
%TD*%
D12*
%TO.C,R13*%
X99935000Y-99442000D03*
X102860000Y-99442000D03*
%TD*%
D19*
%TO.C,H1*%
X57878680Y-57878680D03*
X62121320Y-57878680D03*
X62121320Y-62121320D03*
X60000000Y-63000000D03*
X63000000Y-60000000D03*
X57000000Y-60000000D03*
X60000000Y-57000000D03*
D20*
X60000000Y-60000000D03*
D19*
X57878680Y-62121320D03*
%TD*%
D33*
%TO.C,C3*%
X88500000Y-106500000D03*
X88500000Y-107000000D03*
%TD*%
D34*
%TO.C,D5*%
X77200000Y-55320000D03*
X72800000Y-55320000D03*
%TD*%
D35*
%TO.C,J4*%
X99050000Y-119000000D03*
D36*
X101590000Y-119000000D03*
X104130000Y-119000000D03*
X106670000Y-119000000D03*
X109210000Y-119000000D03*
X111750000Y-119000000D03*
X114290000Y-119000000D03*
X116830000Y-119000000D03*
%TD*%
D19*
%TO.C,H3*%
X137000000Y-140000000D03*
X142121320Y-142121320D03*
X137878680Y-137878680D03*
X140000000Y-137000000D03*
D20*
X140000000Y-140000000D03*
D19*
X142121320Y-137878680D03*
X137878680Y-142121320D03*
X143000000Y-140000000D03*
X140000000Y-143000000D03*
%TD*%
D37*
%TO.C,L1*%
X77200000Y-61800000D03*
X77200000Y-68200000D03*
%TD*%
M02*
