M48
; DRILL file {KiCad 6.0.11-2627ca5db0~126~ubuntu22.04.1} date lun. 10 avril 2023 19:38:19
; FORMAT={-:-/ absolute / inch / decimal}
; #@! TF.CreationDate,2023-04-10T19:38:19+02:00
; #@! TF.GenerationSoftware,Kicad,Pcbnew,6.0.11-2627ca5db0~126~ubuntu22.04.1
; #@! TF.FileFunction,Plated,1,4,PTH
FMAT,2
INCH
; #@! TA.AperFunction,Plated,PTH,ViaDrill
T1C0.0118
; #@! TA.AperFunction,Plated,PTH,ComponentDrill
T2C0.0236
; #@! TA.AperFunction,Plated,PTH,ComponentDrill
T3C0.0374
; #@! TA.AperFunction,Plated,PTH,ComponentDrill
T4C0.0394
; #@! TA.AperFunction,Plated,PTH,ComponentDrill
T5C0.0598
; #@! TA.AperFunction,Plated,PTH,ComponentDrill
T6C0.1575
%
G90
G05
T1
X3.6811Y-3.9665
X3.6896Y-4.185
X3.7303Y-3.9665
X3.7795Y-4.4291
X3.7795Y-4.4882
X3.7795Y-4.5276
X3.8096Y-3.925
X3.8189Y-3.6516
X3.8524Y-4.4547
X3.8577Y-3.937
X3.8878Y-3.6614
X3.9173Y-4.5276
X3.9621Y-4.5281
X3.9796Y-3.975
X4.0596Y-4.455
X4.0696Y-4.515
X4.0978Y-3.9632
X4.2224Y-3.9272
X4.3596Y-4.375
X4.4094Y-4.0551
X4.4094Y-4.1339
T2
X2.2441Y-2.3622
X2.2441Y-5.5118
X2.2787Y-2.2787
X2.2787Y-2.4457
X2.2787Y-5.4283
X2.2787Y-5.5953
X2.3622Y-2.2441
X2.3622Y-2.4803
X2.3622Y-5.3937
X2.3622Y-5.6299
X2.4457Y-2.2787
X2.4457Y-2.4457
X2.4457Y-5.4283
X2.4457Y-5.5953
X2.4803Y-2.3622
X2.4803Y-5.5118
X5.3937Y-2.3622
X5.3937Y-5.5118
X5.4283Y-2.2787
X5.4283Y-2.4457
X5.4283Y-5.4283
X5.4283Y-5.5953
X5.5118Y-2.2441
X5.5118Y-2.4803
X5.5118Y-5.3937
X5.5118Y-5.6299
X5.5953Y-2.2787
X5.5953Y-2.4457
X5.5953Y-5.4283
X5.5953Y-5.5953
X5.6299Y-2.3622
X5.6299Y-5.5118
T3
X3.2579Y-5.4911
X3.3563Y-5.4911
X3.4547Y-5.4911
X3.5531Y-5.4911
X4.0453Y-5.4911
X4.1437Y-5.4911
X4.2421Y-5.4911
X4.3406Y-5.4911
X5.502Y-3.75
X5.502Y-3.8484
X5.502Y-3.9469
X5.502Y-4.0453
T4
X3.8996Y-4.685
X3.9996Y-4.685
X4.0996Y-4.685
X4.1996Y-4.685
X4.2996Y-4.685
X4.3996Y-4.685
X4.4193Y-3.0108
X4.4996Y-4.685
X4.5177Y-3.0108
X4.5996Y-4.685
X5.5118Y-4.4587
X5.5118Y-4.5571
X5.5118Y-4.9508
X5.5118Y-5.0492
T5
X4.7213Y-2.3622
X4.9213Y-2.3622
X5.5413Y-2.9102
X5.5413Y-3.1102
T6
X2.3622Y-2.3622
X2.3622Y-5.5118
X5.5118Y-2.3622
X5.5118Y-5.5118
T0
M30
