%TF.GenerationSoftware,KiCad,Pcbnew,6.0.11-2627ca5db0~126~ubuntu22.04.1*%
%TF.CreationDate,2023-04-10T19:38:19+02:00*%
%TF.ProjectId,Slicor_carte_v_rin,536c6963-6f72-45f6-9361-7274655f76e9,rev?*%
%TF.SameCoordinates,Original*%
%TF.FileFunction,Copper,L4,Bot*%
%TF.FilePolarity,Positive*%
%FSLAX46Y46*%
G04 Gerber Fmt 4.6, Leading zero omitted, Abs format (unit mm)*
G04 Created by KiCad (PCBNEW 6.0.11-2627ca5db0~126~ubuntu22.04.1) date 2023-04-10 19:38:19*
%MOMM*%
%LPD*%
G01*
G04 APERTURE LIST*
G04 Aperture macros list*
%AMRoundRect*
0 Rectangle with rounded corners*
0 $1 Rounding radius*
0 $2 $3 $4 $5 $6 $7 $8 $9 X,Y pos of 4 corners*
0 Add a 4 corners polygon primitive as box body*
4,1,4,$2,$3,$4,$5,$6,$7,$8,$9,$2,$3,0*
0 Add four circle primitives for the rounded corners*
1,1,$1+$1,$2,$3*
1,1,$1+$1,$4,$5*
1,1,$1+$1,$6,$7*
1,1,$1+$1,$8,$9*
0 Add four rect primitives between the rounded corners*
20,1,$1+$1,$2,$3,$4,$5,0*
20,1,$1+$1,$4,$5,$6,$7,0*
20,1,$1+$1,$6,$7,$8,$9,0*
20,1,$1+$1,$8,$9,$2,$3,0*%
G04 Aperture macros list end*
%TA.AperFunction,ComponentPad*%
%ADD10RoundRect,0.250000X0.750000X-0.600000X0.750000X0.600000X-0.750000X0.600000X-0.750000X-0.600000X0*%
%TD*%
%TA.AperFunction,ComponentPad*%
%ADD11O,2.000000X1.700000*%
%TD*%
%TA.AperFunction,ComponentPad*%
%ADD12RoundRect,0.250000X0.725000X-0.600000X0.725000X0.600000X-0.725000X0.600000X-0.725000X-0.600000X0*%
%TD*%
%TA.AperFunction,ComponentPad*%
%ADD13O,1.950000X1.700000*%
%TD*%
%TA.AperFunction,ComponentPad*%
%ADD14C,0.900000*%
%TD*%
%TA.AperFunction,ComponentPad*%
%ADD15C,8.000000*%
%TD*%
%TA.AperFunction,ComponentPad*%
%ADD16R,3.000000X3.000000*%
%TD*%
%TA.AperFunction,ComponentPad*%
%ADD17C,3.000000*%
%TD*%
%TA.AperFunction,ComponentPad*%
%ADD18RoundRect,0.250000X-0.600000X-0.750000X0.600000X-0.750000X0.600000X0.750000X-0.600000X0.750000X0*%
%TD*%
%TA.AperFunction,ComponentPad*%
%ADD19O,1.700000X2.000000*%
%TD*%
%TA.AperFunction,ComponentPad*%
%ADD20RoundRect,0.250000X-0.600000X-0.725000X0.600000X-0.725000X0.600000X0.725000X-0.600000X0.725000X0*%
%TD*%
%TA.AperFunction,ComponentPad*%
%ADD21O,1.700000X1.950000*%
%TD*%
%TA.AperFunction,ComponentPad*%
%ADD22R,1.700000X1.700000*%
%TD*%
%TA.AperFunction,ComponentPad*%
%ADD23O,1.700000X1.700000*%
%TD*%
%TA.AperFunction,ViaPad*%
%ADD24C,0.600000*%
%TD*%
%TA.AperFunction,ViaPad*%
%ADD25C,0.800000*%
%TD*%
%TA.AperFunction,Conductor*%
%ADD26C,0.300000*%
%TD*%
G04 APERTURE END LIST*
D10*
%TO.P,J9,1,Pin_1*%
%TO.N,GND*%
X140000000Y-115750000D03*
D11*
%TO.P,J9,2,Pin_2*%
%TO.N,Contacteur_B*%
X140000000Y-113250000D03*
%TD*%
D10*
%TO.P,J8,1,Pin_1*%
%TO.N,GND*%
X140000000Y-128250000D03*
D11*
%TO.P,J8,2,Pin_2*%
%TO.N,Contacteur_A*%
X140000000Y-125750000D03*
%TD*%
D12*
%TO.P,J5,1,Pin_1*%
%TO.N,+5V*%
X139750000Y-102750000D03*
D13*
%TO.P,J5,2,Pin_2*%
%TO.N,A*%
X139750000Y-100250000D03*
%TO.P,J5,3,Pin_3*%
%TO.N,B*%
X139750000Y-97750000D03*
%TO.P,J5,4,Pin_4*%
%TO.N,GND*%
X139750000Y-95250000D03*
%TD*%
D14*
%TO.P,H2,1,1*%
%TO.N,GND*%
X57878680Y-142121320D03*
X62121320Y-137878680D03*
X63000000Y-140000000D03*
X60000000Y-137000000D03*
X57000000Y-140000000D03*
X62121320Y-142121320D03*
X60000000Y-143000000D03*
X57878680Y-137878680D03*
D15*
X60000000Y-140000000D03*
%TD*%
D16*
%TO.P,J1,1,Pin_1*%
%TO.N,GND*%
X125000000Y-60000000D03*
D17*
%TO.P,J1,2,Pin_2*%
%TO.N,+24V*%
X119920000Y-60000000D03*
%TD*%
D14*
%TO.P,H4,1,1*%
%TO.N,GND*%
X142121320Y-62121320D03*
X143000000Y-60000000D03*
X137878680Y-62121320D03*
D15*
X140000000Y-60000000D03*
D14*
X140000000Y-63000000D03*
X140000000Y-57000000D03*
X142121320Y-57878680D03*
X137000000Y-60000000D03*
X137878680Y-57878680D03*
%TD*%
D18*
%TO.P,J3,1,Pin_1*%
%TO.N,UART TX*%
X112250000Y-76475000D03*
D19*
%TO.P,J3,2,Pin_2*%
%TO.N,UART RX*%
X114750000Y-76475000D03*
%TD*%
D20*
%TO.P,J7,1,Pin_1*%
%TO.N,Pwm_Bridge_A*%
X82750000Y-139475000D03*
D21*
%TO.P,J7,2,Pin_2*%
%TO.N,IN1_A*%
X85250000Y-139475000D03*
%TO.P,J7,3,Pin_3*%
%TO.N,IN2_A*%
X87750000Y-139475000D03*
%TO.P,J7,4,Pin_4*%
%TO.N,GND*%
X90250000Y-139475000D03*
%TD*%
D16*
%TO.P,J2,1,Pin_1*%
%TO.N,GND*%
X140750000Y-73920000D03*
D17*
%TO.P,J2,2,Pin_2*%
%TO.N,+24V*%
X140750000Y-79000000D03*
%TD*%
D20*
%TO.P,J6,1,Pin_1*%
%TO.N,Pwm_Bridge_B*%
X102750000Y-139475000D03*
D21*
%TO.P,J6,2,Pin_2*%
%TO.N,IN1_B*%
X105250000Y-139475000D03*
%TO.P,J6,3,Pin_3*%
%TO.N,IN2_B*%
X107750000Y-139475000D03*
%TO.P,J6,4,Pin_4*%
%TO.N,GND*%
X110250000Y-139475000D03*
%TD*%
D14*
%TO.P,H1,1,1*%
%TO.N,GND*%
X57878680Y-57878680D03*
X62121320Y-57878680D03*
X62121320Y-62121320D03*
X60000000Y-63000000D03*
X63000000Y-60000000D03*
X57000000Y-60000000D03*
X60000000Y-57000000D03*
D15*
X60000000Y-60000000D03*
D14*
X57878680Y-62121320D03*
%TD*%
D22*
%TO.P,J4,1,Pin_1*%
%TO.N,+5V*%
X99050000Y-119000000D03*
D23*
%TO.P,J4,2,Pin_2*%
%TO.N,MISO*%
X101590000Y-119000000D03*
%TO.P,J4,3,Pin_3*%
%TO.N,MOSI*%
X104130000Y-119000000D03*
%TO.P,J4,4,Pin_4*%
%TO.N,SCK*%
X106670000Y-119000000D03*
%TO.P,J4,5,Pin_5*%
%TO.N,RST*%
X109210000Y-119000000D03*
%TO.P,J4,6,Pin_6*%
%TO.N,UART TX*%
X111750000Y-119000000D03*
%TO.P,J4,7,Pin_7*%
%TO.N,UART RX*%
X114290000Y-119000000D03*
%TO.P,J4,8,Pin_8*%
%TO.N,GND*%
X116830000Y-119000000D03*
%TD*%
D14*
%TO.P,H3,1,1*%
%TO.N,GND*%
X137000000Y-140000000D03*
X142121320Y-142121320D03*
X137878680Y-137878680D03*
X140000000Y-137000000D03*
D15*
X140000000Y-140000000D03*
D14*
X142121320Y-137878680D03*
X137878680Y-142121320D03*
X143000000Y-140000000D03*
X140000000Y-143000000D03*
%TD*%
D24*
%TO.N,Contacteur_A*%
X112000000Y-105000000D03*
%TO.N,Contacteur_B*%
X112000000Y-103000000D03*
D25*
%TO.N,GND*%
X93716000Y-106300000D03*
D24*
%TO.N,MISO*%
X103114000Y-113158000D03*
%TO.N,MOSI*%
X103368000Y-114682000D03*
%TO.N,RST*%
X101082000Y-100966000D03*
%TO.N,UART TX*%
X96764000Y-99696000D03*
%TO.N,UART RX*%
X110734000Y-111126000D03*
X97985266Y-99998734D03*
X104084000Y-100666000D03*
X107250000Y-99750000D03*
%TO.N,Pwm_Bridge_B*%
X97850000Y-113150000D03*
%TO.N,IN1_B*%
X99500000Y-115000000D03*
%TO.N,IN2_B*%
X100637500Y-115012500D03*
%TO.N,Pwm_Bridge_A*%
X96000000Y-112500000D03*
%TO.N,A*%
X94750000Y-100750000D03*
X98750000Y-93000000D03*
%TO.N,B*%
X97000000Y-92750000D03*
X93500000Y-100750000D03*
%TO.N,IN1_A*%
X96000000Y-114000000D03*
%TO.N,IN2_A*%
X96000000Y-115000000D03*
%TD*%
D26*
%TO.N,Contacteur_B*%
X115000000Y-105000000D02*
X134000000Y-105000000D01*
X134000000Y-105000000D02*
X140000000Y-111000000D01*
X112000000Y-103000000D02*
X113000000Y-103000000D01*
X113000000Y-103000000D02*
X115000000Y-105000000D01*
X140000000Y-111000000D02*
X140000000Y-113250000D01*
%TO.N,Contacteur_A*%
X140000000Y-123000000D02*
X140000000Y-125750000D01*
X112000000Y-105000000D02*
X124000000Y-117000000D01*
X124000000Y-117000000D02*
X134000000Y-117000000D01*
X134000000Y-117000000D02*
X140000000Y-123000000D01*
%TO.N,MISO*%
X103114000Y-113158000D02*
X101590000Y-114682000D01*
X101590000Y-114682000D02*
X101590000Y-119000000D01*
%TO.N,MOSI*%
X103368000Y-114682000D02*
X104130000Y-115444000D01*
X104130000Y-115444000D02*
X104130000Y-119000000D01*
%TO.N,RST*%
X102606000Y-100966000D02*
X109210000Y-107570000D01*
X109210000Y-107570000D02*
X109210000Y-119000000D01*
X101082000Y-100966000D02*
X102606000Y-100966000D01*
%TO.N,UART TX*%
X112250000Y-91750000D02*
X105320000Y-98680000D01*
X105221000Y-100279000D02*
X111750000Y-106808000D01*
X111750000Y-106808000D02*
X111750000Y-119000000D01*
X112250000Y-76475000D02*
X112250000Y-91750000D01*
X96764000Y-99696000D02*
X96764000Y-99188000D01*
X103622000Y-98680000D02*
X105221000Y-100279000D01*
X96764000Y-99188000D02*
X97272000Y-98680000D01*
X103320000Y-98680000D02*
X103622000Y-98680000D01*
X105320000Y-98680000D02*
X103320000Y-98680000D01*
X97272000Y-98680000D02*
X103320000Y-98680000D01*
%TO.N,UART RX*%
X102598000Y-99180000D02*
X104084000Y-100666000D01*
X97985266Y-99998734D02*
X98804000Y-99180000D01*
X114750000Y-92250000D02*
X114750000Y-76475000D01*
X107250000Y-99750000D02*
X114750000Y-92250000D01*
X104084000Y-100666000D02*
X110734000Y-107316000D01*
X110734000Y-107316000D02*
X110734000Y-111126000D01*
X98804000Y-99180000D02*
X102598000Y-99180000D01*
%TO.N,Pwm_Bridge_B*%
X94250000Y-133000000D02*
X100725000Y-139475000D01*
X94250000Y-119000000D02*
X94250000Y-133000000D01*
X97850000Y-115400000D02*
X94250000Y-119000000D01*
X97850000Y-113150000D02*
X97850000Y-115400000D01*
X100725000Y-139475000D02*
X102750000Y-139475000D01*
%TO.N,IN1_B*%
X105250000Y-138250000D02*
X105250000Y-139475000D01*
X99250000Y-136000000D02*
X103000000Y-136000000D01*
X95250000Y-119250000D02*
X95250000Y-132000000D01*
X99500000Y-115000000D02*
X95250000Y-119250000D01*
X95250000Y-132000000D02*
X99250000Y-136000000D01*
X103000000Y-136000000D02*
X105250000Y-138250000D01*
%TO.N,IN2_B*%
X107750000Y-137500000D02*
X107750000Y-139475000D01*
X104500000Y-134250000D02*
X107750000Y-137500000D01*
X96250000Y-131000000D02*
X99500000Y-134250000D01*
X100637500Y-115012500D02*
X96250000Y-119400000D01*
X96250000Y-119400000D02*
X96250000Y-131000000D01*
X99500000Y-134250000D02*
X104500000Y-134250000D01*
%TO.N,Pwm_Bridge_A*%
X82750000Y-125750000D02*
X82750000Y-139475000D01*
X96000000Y-112500000D02*
X82750000Y-125750000D01*
%TO.N,A*%
X94750000Y-97000000D02*
X98750000Y-93000000D01*
X94750000Y-100750000D02*
X94750000Y-97000000D01*
%TO.N,B*%
X93500000Y-96250000D02*
X97000000Y-92750000D01*
X93500000Y-100750000D02*
X93500000Y-96250000D01*
%TO.N,IN1_A*%
X96000000Y-114000000D02*
X85250000Y-124750000D01*
X85250000Y-124750000D02*
X85250000Y-139475000D01*
%TO.N,IN2_A*%
X87750000Y-123250000D02*
X87750000Y-139475000D01*
X96000000Y-115000000D02*
X87750000Y-123250000D01*
%TD*%
%TA.AperFunction,Conductor*%
%TO.N,GND*%
G36*
X149931621Y-50030502D02*
G01*
X149978114Y-50084158D01*
X149989500Y-50136500D01*
X149989500Y-149863500D01*
X149969498Y-149931621D01*
X149915842Y-149978114D01*
X149863500Y-149989500D01*
X50136500Y-149989500D01*
X50068379Y-149969498D01*
X50021886Y-149915842D01*
X50010500Y-149863500D01*
X50010500Y-143365431D01*
X57000109Y-143365431D01*
X57000190Y-143366564D01*
X57005168Y-143374136D01*
X57025401Y-143393539D01*
X57029678Y-143397283D01*
X57345218Y-143649175D01*
X57349801Y-143652505D01*
X57686867Y-143874759D01*
X57691763Y-143877677D01*
X58047543Y-144068444D01*
X58052717Y-144070923D01*
X58424339Y-144228668D01*
X58429674Y-144230652D01*
X58814069Y-144354068D01*
X58819570Y-144355563D01*
X59213575Y-144443633D01*
X59219187Y-144444622D01*
X59619538Y-144496619D01*
X59625244Y-144497098D01*
X60028642Y-144512595D01*
X60034368Y-144512555D01*
X60437518Y-144491427D01*
X60443199Y-144490870D01*
X60842795Y-144433288D01*
X60848390Y-144432220D01*
X61241123Y-144338657D01*
X61246605Y-144337086D01*
X61629233Y-144208318D01*
X61634563Y-144206250D01*
X62003946Y-144043332D01*
X62009053Y-144040797D01*
X62362145Y-143845075D01*
X62367024Y-143842074D01*
X62700898Y-143615174D01*
X62705511Y-143611723D01*
X62991829Y-143376539D01*
X62999388Y-143365431D01*
X137000109Y-143365431D01*
X137000190Y-143366564D01*
X137005168Y-143374136D01*
X137025401Y-143393539D01*
X137029678Y-143397283D01*
X137345218Y-143649175D01*
X137349801Y-143652505D01*
X137686867Y-143874759D01*
X137691763Y-143877677D01*
X138047543Y-144068444D01*
X138052717Y-144070923D01*
X138424339Y-144228668D01*
X138429674Y-144230652D01*
X138814069Y-144354068D01*
X138819570Y-144355563D01*
X139213575Y-144443633D01*
X139219187Y-144444622D01*
X139619538Y-144496619D01*
X139625244Y-144497098D01*
X140028642Y-144512595D01*
X140034368Y-144512555D01*
X140437518Y-144491427D01*
X140443199Y-144490870D01*
X140842795Y-144433288D01*
X140848390Y-144432220D01*
X141241123Y-144338657D01*
X141246605Y-144337086D01*
X141629233Y-144208318D01*
X141634563Y-144206250D01*
X142003946Y-144043332D01*
X142009053Y-144040797D01*
X142362145Y-143845075D01*
X142367024Y-143842074D01*
X142700898Y-143615174D01*
X142705511Y-143611723D01*
X142991829Y-143376539D01*
X143000290Y-143364106D01*
X142994040Y-143353250D01*
X142647408Y-143006618D01*
X141762111Y-142121320D01*
X141236023Y-141595233D01*
X140012812Y-140372022D01*
X139998868Y-140364408D01*
X139997035Y-140364539D01*
X139990420Y-140368790D01*
X138763978Y-141595232D01*
X137878680Y-142480529D01*
X137352593Y-143006617D01*
X137007723Y-143351487D01*
X137000109Y-143365431D01*
X62999388Y-143365431D01*
X63000290Y-143364106D01*
X62994040Y-143353250D01*
X62647408Y-143006618D01*
X61762111Y-142121320D01*
X61236023Y-141595233D01*
X60012812Y-140372022D01*
X59998868Y-140364408D01*
X59997035Y-140364539D01*
X59990420Y-140368790D01*
X58763978Y-141595232D01*
X57878680Y-142480529D01*
X57352593Y-143006617D01*
X57007723Y-143351487D01*
X57000109Y-143365431D01*
X50010500Y-143365431D01*
X50010500Y-140154638D01*
X55489964Y-140154638D01*
X55490163Y-140160343D01*
X55522540Y-140562753D01*
X55523258Y-140568430D01*
X55591970Y-140966229D01*
X55593201Y-140971829D01*
X55697689Y-141361786D01*
X55699413Y-141367219D01*
X55838817Y-141746108D01*
X55841025Y-141751362D01*
X56014192Y-142116050D01*
X56016877Y-142121099D01*
X56222390Y-142468606D01*
X56225500Y-142473358D01*
X56461668Y-142800812D01*
X56465208Y-142805278D01*
X56625528Y-142989704D01*
X56638657Y-142998113D01*
X56648570Y-142992220D01*
X56993382Y-142647408D01*
X57878680Y-141762111D01*
X57950260Y-141690531D01*
X58404767Y-141236023D01*
X59627978Y-140012812D01*
X59634356Y-140001132D01*
X60364408Y-140001132D01*
X60364539Y-140002965D01*
X60368790Y-140009580D01*
X61595232Y-141236022D01*
X62049739Y-141690530D01*
X62121319Y-141762110D01*
X63006617Y-142647407D01*
X63350688Y-142991478D01*
X63364134Y-142998820D01*
X63373970Y-142991900D01*
X63573611Y-142755657D01*
X63577097Y-142751130D01*
X63808659Y-142420424D01*
X63811716Y-142415608D01*
X64012350Y-142065281D01*
X64014962Y-142060199D01*
X64183020Y-141693127D01*
X64185159Y-141687834D01*
X64319255Y-141307047D01*
X64320908Y-141301573D01*
X64419939Y-140910206D01*
X64421090Y-140904600D01*
X64484245Y-140505854D01*
X64484880Y-140500192D01*
X64501243Y-140253834D01*
X81699500Y-140253834D01*
X81702481Y-140285369D01*
X81747366Y-140413184D01*
X81752958Y-140420754D01*
X81752959Y-140420757D01*
X81801246Y-140486131D01*
X81827850Y-140522150D01*
X81835421Y-140527742D01*
X81929243Y-140597041D01*
X81929246Y-140597042D01*
X81936816Y-140602634D01*
X82064631Y-140647519D01*
X82072277Y-140648242D01*
X82072278Y-140648242D01*
X82078248Y-140648806D01*
X82096166Y-140650500D01*
X83403834Y-140650500D01*
X83421752Y-140648806D01*
X83427722Y-140648242D01*
X83427723Y-140648242D01*
X83435369Y-140647519D01*
X83563184Y-140602634D01*
X83570754Y-140597042D01*
X83570757Y-140597041D01*
X83664579Y-140527742D01*
X83672150Y-140522150D01*
X83698754Y-140486131D01*
X83747041Y-140420757D01*
X83747042Y-140420754D01*
X83752634Y-140413184D01*
X83797519Y-140285369D01*
X83800500Y-140253834D01*
X83800500Y-138696166D01*
X83797519Y-138664631D01*
X83752634Y-138536816D01*
X83747042Y-138529246D01*
X83747041Y-138529243D01*
X83677742Y-138435421D01*
X83672150Y-138427850D01*
X83611625Y-138383145D01*
X83570757Y-138352959D01*
X83570754Y-138352958D01*
X83563184Y-138347366D01*
X83435369Y-138302481D01*
X83427723Y-138301758D01*
X83427722Y-138301758D01*
X83421752Y-138301194D01*
X83403834Y-138299500D01*
X83226500Y-138299500D01*
X83158379Y-138279498D01*
X83111886Y-138225842D01*
X83100500Y-138173500D01*
X83100500Y-125947372D01*
X83120502Y-125879251D01*
X83137405Y-125858277D01*
X95337311Y-113658371D01*
X95399623Y-113624345D01*
X95470438Y-113629410D01*
X95527274Y-113671957D01*
X95552085Y-113738477D01*
X95540461Y-113801015D01*
X95516447Y-113852163D01*
X95515066Y-113861035D01*
X95497748Y-113972264D01*
X95467504Y-114036497D01*
X95462343Y-114041975D01*
X85038101Y-124466217D01*
X85023147Y-124478295D01*
X85019595Y-124481527D01*
X85010848Y-124487175D01*
X85004402Y-124495352D01*
X84991998Y-124511086D01*
X84988501Y-124515021D01*
X84988605Y-124515109D01*
X84985250Y-124519068D01*
X84981572Y-124522746D01*
X84978553Y-124526971D01*
X84978546Y-124526979D01*
X84971328Y-124537080D01*
X84967764Y-124541827D01*
X84938608Y-124578811D01*
X84935807Y-124586787D01*
X84930889Y-124593669D01*
X84917381Y-124638836D01*
X84915559Y-124644442D01*
X84902572Y-124681423D01*
X84902571Y-124681429D01*
X84899945Y-124688906D01*
X84899500Y-124694044D01*
X84899500Y-124696763D01*
X84899405Y-124698945D01*
X84899245Y-124699480D01*
X84899218Y-124699479D01*
X84899211Y-124699597D01*
X84897456Y-124705464D01*
X84897865Y-124715872D01*
X84899403Y-124755019D01*
X84899500Y-124759966D01*
X84899500Y-138271484D01*
X84879498Y-138339605D01*
X84831876Y-138383145D01*
X84757061Y-138422258D01*
X84672002Y-138466726D01*
X84667201Y-138470586D01*
X84667198Y-138470588D01*
X84573779Y-138545699D01*
X84511447Y-138595815D01*
X84379024Y-138753630D01*
X84376056Y-138759028D01*
X84376053Y-138759033D01*
X84282743Y-138928765D01*
X84279776Y-138934162D01*
X84217484Y-139130532D01*
X84216798Y-139136649D01*
X84216797Y-139136653D01*
X84211646Y-139182577D01*
X84199500Y-139290864D01*
X84199500Y-139651841D01*
X84214520Y-139805030D01*
X84274065Y-140002251D01*
X84370782Y-140184151D01*
X84425198Y-140250871D01*
X84497094Y-140339025D01*
X84497097Y-140339028D01*
X84500989Y-140343800D01*
X84505736Y-140347727D01*
X84505738Y-140347729D01*
X84654975Y-140471189D01*
X84654979Y-140471191D01*
X84659725Y-140475118D01*
X84840945Y-140573103D01*
X85037746Y-140634023D01*
X85043871Y-140634667D01*
X85043872Y-140634667D01*
X85236502Y-140654913D01*
X85236504Y-140654913D01*
X85242631Y-140655557D01*
X85330956Y-140647519D01*
X85441658Y-140637445D01*
X85441661Y-140637444D01*
X85447797Y-140636886D01*
X85645428Y-140578720D01*
X85827998Y-140483274D01*
X85832799Y-140479414D01*
X85832802Y-140479412D01*
X85983746Y-140358050D01*
X85983747Y-140358050D01*
X85988553Y-140354185D01*
X86120976Y-140196370D01*
X86123944Y-140190972D01*
X86123947Y-140190967D01*
X86217257Y-140021235D01*
X86220224Y-140015838D01*
X86282516Y-139819468D01*
X86283474Y-139810932D01*
X86300107Y-139662636D01*
X86300500Y-139659136D01*
X86300500Y-139298159D01*
X86285480Y-139144970D01*
X86225935Y-138947749D01*
X86129218Y-138765849D01*
X86040756Y-138657384D01*
X86002906Y-138610975D01*
X86002903Y-138610972D01*
X85999011Y-138606200D01*
X85970578Y-138582678D01*
X85845025Y-138478811D01*
X85845021Y-138478809D01*
X85840275Y-138474882D01*
X85834854Y-138471951D01*
X85834850Y-138471948D01*
X85666572Y-138380961D01*
X85616163Y-138330966D01*
X85600500Y-138270125D01*
X85600500Y-124947372D01*
X85620502Y-124879251D01*
X85637405Y-124858277D01*
X87184405Y-123311277D01*
X87246717Y-123277251D01*
X87317532Y-123282316D01*
X87374368Y-123324863D01*
X87399179Y-123391383D01*
X87399500Y-123400372D01*
X87399500Y-138271484D01*
X87379498Y-138339605D01*
X87331876Y-138383145D01*
X87257061Y-138422258D01*
X87172002Y-138466726D01*
X87167201Y-138470586D01*
X87167198Y-138470588D01*
X87073779Y-138545699D01*
X87011447Y-138595815D01*
X86879024Y-138753630D01*
X86876056Y-138759028D01*
X86876053Y-138759033D01*
X86782743Y-138928765D01*
X86779776Y-138934162D01*
X86717484Y-139130532D01*
X86716798Y-139136649D01*
X86716797Y-139136653D01*
X86711646Y-139182577D01*
X86699500Y-139290864D01*
X86699500Y-139651841D01*
X86714520Y-139805030D01*
X86774065Y-140002251D01*
X86870782Y-140184151D01*
X86925198Y-140250871D01*
X86997094Y-140339025D01*
X86997097Y-140339028D01*
X87000989Y-140343800D01*
X87005736Y-140347727D01*
X87005738Y-140347729D01*
X87154975Y-140471189D01*
X87154979Y-140471191D01*
X87159725Y-140475118D01*
X87340945Y-140573103D01*
X87537746Y-140634023D01*
X87543871Y-140634667D01*
X87543872Y-140634667D01*
X87736502Y-140654913D01*
X87736504Y-140654913D01*
X87742631Y-140655557D01*
X87830956Y-140647519D01*
X87941658Y-140637445D01*
X87941661Y-140637444D01*
X87947797Y-140636886D01*
X88145428Y-140578720D01*
X88327998Y-140483274D01*
X88332799Y-140479414D01*
X88332802Y-140479412D01*
X88483746Y-140358050D01*
X88483747Y-140358050D01*
X88488553Y-140354185D01*
X88620976Y-140196370D01*
X88623944Y-140190972D01*
X88623947Y-140190967D01*
X88717254Y-140021240D01*
X88720224Y-140015838D01*
X88721434Y-140012022D01*
X88766176Y-139957866D01*
X88833807Y-139936268D01*
X88902380Y-139954663D01*
X88950121Y-140007210D01*
X88958729Y-140030579D01*
X88963130Y-140047535D01*
X88966665Y-140057575D01*
X89056937Y-140257970D01*
X89062106Y-140267256D01*
X89184850Y-140449575D01*
X89191519Y-140457870D01*
X89343228Y-140616900D01*
X89351186Y-140623941D01*
X89527525Y-140755141D01*
X89536562Y-140760745D01*
X89732484Y-140860357D01*
X89742335Y-140864357D01*
X89952240Y-140929534D01*
X89962624Y-140931817D01*
X89978043Y-140933861D01*
X89992207Y-140931665D01*
X89996000Y-140918478D01*
X89996000Y-140916192D01*
X90504000Y-140916192D01*
X90507973Y-140929723D01*
X90518580Y-140931248D01*
X90636421Y-140906523D01*
X90646617Y-140903463D01*
X90851029Y-140822737D01*
X90860561Y-140818006D01*
X91048462Y-140703984D01*
X91057052Y-140697720D01*
X91223052Y-140553673D01*
X91230472Y-140546042D01*
X91369826Y-140376089D01*
X91375850Y-140367322D01*
X91484576Y-140176318D01*
X91489041Y-140166654D01*
X91564031Y-139960059D01*
X91566802Y-139949792D01*
X91603504Y-139746826D01*
X91602085Y-139733586D01*
X91587450Y-139729000D01*
X90522115Y-139729000D01*
X90506876Y-139733475D01*
X90505671Y-139734865D01*
X90504000Y-139742548D01*
X90504000Y-140916192D01*
X89996000Y-140916192D01*
X89996000Y-139202885D01*
X90504000Y-139202885D01*
X90508475Y-139218124D01*
X90509865Y-139219329D01*
X90517548Y-139221000D01*
X91583849Y-139221000D01*
X91598527Y-139216690D01*
X91600590Y-139204807D01*
X91593876Y-139125675D01*
X91592086Y-139115203D01*
X91536870Y-138902465D01*
X91533335Y-138892425D01*
X91443063Y-138692030D01*
X91437894Y-138682744D01*
X91315150Y-138500425D01*
X91308481Y-138492130D01*
X91156772Y-138333100D01*
X91148814Y-138326059D01*
X90972475Y-138194859D01*
X90963438Y-138189255D01*
X90767516Y-138089643D01*
X90757665Y-138085643D01*
X90547760Y-138020466D01*
X90537376Y-138018183D01*
X90521957Y-138016139D01*
X90507793Y-138018335D01*
X90504000Y-138031522D01*
X90504000Y-139202885D01*
X89996000Y-139202885D01*
X89996000Y-138033808D01*
X89992027Y-138020277D01*
X89981420Y-138018752D01*
X89863579Y-138043477D01*
X89853383Y-138046537D01*
X89648971Y-138127263D01*
X89639439Y-138131994D01*
X89451539Y-138246015D01*
X89442948Y-138252280D01*
X89276948Y-138396327D01*
X89269528Y-138403958D01*
X89130174Y-138573911D01*
X89124150Y-138582678D01*
X89015424Y-138773682D01*
X89010959Y-138783346D01*
X88956436Y-138933553D01*
X88914391Y-138990761D01*
X88848092Y-139016157D01*
X88778588Y-139001677D01*
X88727945Y-138951919D01*
X88725940Y-138947765D01*
X88725935Y-138947749D01*
X88629218Y-138765849D01*
X88540756Y-138657384D01*
X88502906Y-138610975D01*
X88502903Y-138610972D01*
X88499011Y-138606200D01*
X88470578Y-138582678D01*
X88345025Y-138478811D01*
X88345021Y-138478809D01*
X88340275Y-138474882D01*
X88334854Y-138471951D01*
X88334850Y-138471948D01*
X88166572Y-138380961D01*
X88116163Y-138330966D01*
X88100500Y-138270125D01*
X88100500Y-132983261D01*
X93895049Y-132983261D01*
X93896273Y-132993600D01*
X93898627Y-133013491D01*
X93898937Y-133018746D01*
X93899072Y-133018735D01*
X93899500Y-133023914D01*
X93899500Y-133029115D01*
X93900354Y-133034243D01*
X93900354Y-133034249D01*
X93902389Y-133046473D01*
X93903226Y-133052349D01*
X93908764Y-133099138D01*
X93912423Y-133106758D01*
X93913812Y-133115103D01*
X93918757Y-133124267D01*
X93936192Y-133156580D01*
X93938884Y-133161865D01*
X93959274Y-133204326D01*
X93962592Y-133208274D01*
X93964525Y-133210207D01*
X93965990Y-133211804D01*
X93966254Y-133212294D01*
X93966234Y-133212313D01*
X93966313Y-133212402D01*
X93969222Y-133217794D01*
X93976870Y-133224864D01*
X93976871Y-133224865D01*
X94005636Y-133251455D01*
X94009202Y-133254884D01*
X100441215Y-139686896D01*
X100453297Y-139701855D01*
X100456527Y-139705404D01*
X100462175Y-139714152D01*
X100470352Y-139720598D01*
X100486090Y-139733005D01*
X100490020Y-139736498D01*
X100490108Y-139736394D01*
X100494072Y-139739753D01*
X100497747Y-139743428D01*
X100501972Y-139746448D01*
X100501974Y-139746449D01*
X100512059Y-139753656D01*
X100516805Y-139757219D01*
X100553811Y-139786392D01*
X100561787Y-139789193D01*
X100568669Y-139794111D01*
X100613836Y-139807619D01*
X100619442Y-139809441D01*
X100656423Y-139822428D01*
X100656429Y-139822429D01*
X100663906Y-139825055D01*
X100669044Y-139825500D01*
X100671763Y-139825500D01*
X100673945Y-139825595D01*
X100674480Y-139825755D01*
X100674479Y-139825782D01*
X100674597Y-139825789D01*
X100680464Y-139827544D01*
X100730019Y-139825597D01*
X100734966Y-139825500D01*
X101573500Y-139825500D01*
X101641621Y-139845502D01*
X101688114Y-139899158D01*
X101699500Y-139951500D01*
X101699500Y-140253834D01*
X101702481Y-140285369D01*
X101747366Y-140413184D01*
X101752958Y-140420754D01*
X101752959Y-140420757D01*
X101801246Y-140486131D01*
X101827850Y-140522150D01*
X101835421Y-140527742D01*
X101929243Y-140597041D01*
X101929246Y-140597042D01*
X101936816Y-140602634D01*
X102064631Y-140647519D01*
X102072277Y-140648242D01*
X102072278Y-140648242D01*
X102078248Y-140648806D01*
X102096166Y-140650500D01*
X103403834Y-140650500D01*
X103421752Y-140648806D01*
X103427722Y-140648242D01*
X103427723Y-140648242D01*
X103435369Y-140647519D01*
X103563184Y-140602634D01*
X103570754Y-140597042D01*
X103570757Y-140597041D01*
X103664579Y-140527742D01*
X103672150Y-140522150D01*
X103698754Y-140486131D01*
X103747041Y-140420757D01*
X103747042Y-140420754D01*
X103752634Y-140413184D01*
X103797519Y-140285369D01*
X103800500Y-140253834D01*
X103800500Y-138696166D01*
X103797519Y-138664631D01*
X103752634Y-138536816D01*
X103747042Y-138529246D01*
X103747041Y-138529243D01*
X103677742Y-138435421D01*
X103672150Y-138427850D01*
X103611625Y-138383145D01*
X103570757Y-138352959D01*
X103570754Y-138352958D01*
X103563184Y-138347366D01*
X103435369Y-138302481D01*
X103427723Y-138301758D01*
X103427722Y-138301758D01*
X103421752Y-138301194D01*
X103403834Y-138299500D01*
X102096166Y-138299500D01*
X102078248Y-138301194D01*
X102072278Y-138301758D01*
X102072277Y-138301758D01*
X102064631Y-138302481D01*
X101936816Y-138347366D01*
X101929246Y-138352958D01*
X101929243Y-138352959D01*
X101888375Y-138383145D01*
X101827850Y-138427850D01*
X101822258Y-138435421D01*
X101752959Y-138529243D01*
X101752958Y-138529246D01*
X101747366Y-138536816D01*
X101702481Y-138664631D01*
X101699500Y-138696166D01*
X101699500Y-138998500D01*
X101679498Y-139066621D01*
X101625842Y-139113114D01*
X101573500Y-139124500D01*
X100922372Y-139124500D01*
X100854251Y-139104498D01*
X100833277Y-139087595D01*
X94637405Y-132891723D01*
X94603379Y-132829411D01*
X94600500Y-132802628D01*
X94600500Y-119197372D01*
X94620502Y-119129251D01*
X94637405Y-119108277D01*
X94694320Y-119051362D01*
X94756632Y-119017336D01*
X94827447Y-119022401D01*
X94884283Y-119064948D01*
X94909094Y-119131468D01*
X94903463Y-119173507D01*
X94904240Y-119173674D01*
X94902571Y-119181429D01*
X94899945Y-119188906D01*
X94899500Y-119194044D01*
X94899500Y-119196763D01*
X94899405Y-119198945D01*
X94899245Y-119199480D01*
X94899218Y-119199479D01*
X94899211Y-119199597D01*
X94897456Y-119205464D01*
X94897865Y-119215872D01*
X94899403Y-119255019D01*
X94899500Y-119259966D01*
X94899500Y-131949176D01*
X94897467Y-131968275D01*
X94897240Y-131973083D01*
X94895049Y-131983261D01*
X94896273Y-131993600D01*
X94898627Y-132013491D01*
X94898937Y-132018746D01*
X94899072Y-132018735D01*
X94899500Y-132023914D01*
X94899500Y-132029115D01*
X94900354Y-132034243D01*
X94900354Y-132034249D01*
X94902389Y-132046473D01*
X94903226Y-132052349D01*
X94908764Y-132099138D01*
X94912423Y-132106758D01*
X94913812Y-132115103D01*
X94918757Y-132124267D01*
X94936192Y-132156580D01*
X94938884Y-132161865D01*
X94959274Y-132204326D01*
X94962592Y-132208274D01*
X94964525Y-132210207D01*
X94965990Y-132211804D01*
X94966254Y-132212294D01*
X94966234Y-132212313D01*
X94966313Y-132212402D01*
X94969222Y-132217794D01*
X94976870Y-132224864D01*
X94976871Y-132224865D01*
X95005636Y-132251455D01*
X95009202Y-132254884D01*
X98966217Y-136211899D01*
X98978295Y-136226853D01*
X98981527Y-136230405D01*
X98987175Y-136239152D01*
X98995352Y-136245598D01*
X99011086Y-136258002D01*
X99015021Y-136261499D01*
X99015109Y-136261395D01*
X99019068Y-136264750D01*
X99022746Y-136268428D01*
X99026971Y-136271447D01*
X99026979Y-136271454D01*
X99037080Y-136278672D01*
X99041827Y-136282236D01*
X99078811Y-136311392D01*
X99086787Y-136314193D01*
X99093669Y-136319111D01*
X99103647Y-136322095D01*
X99138791Y-136332605D01*
X99144437Y-136334439D01*
X99181427Y-136347429D01*
X99181430Y-136347430D01*
X99188906Y-136350055D01*
X99194044Y-136350500D01*
X99196749Y-136350500D01*
X99198948Y-136350595D01*
X99199480Y-136350754D01*
X99199479Y-136350781D01*
X99199595Y-136350788D01*
X99205463Y-136352543D01*
X99255003Y-136350597D01*
X99259950Y-136350500D01*
X102802628Y-136350500D01*
X102870749Y-136370502D01*
X102891723Y-136387405D01*
X104747091Y-138242773D01*
X104781117Y-138305085D01*
X104776052Y-138375900D01*
X104733505Y-138432736D01*
X104716373Y-138443529D01*
X104672002Y-138466726D01*
X104667201Y-138470586D01*
X104667198Y-138470588D01*
X104573779Y-138545699D01*
X104511447Y-138595815D01*
X104379024Y-138753630D01*
X104376056Y-138759028D01*
X104376053Y-138759033D01*
X104282743Y-138928765D01*
X104279776Y-138934162D01*
X104217484Y-139130532D01*
X104216798Y-139136649D01*
X104216797Y-139136653D01*
X104211646Y-139182577D01*
X104199500Y-139290864D01*
X104199500Y-139651841D01*
X104214520Y-139805030D01*
X104274065Y-140002251D01*
X104370782Y-140184151D01*
X104425198Y-140250871D01*
X104497094Y-140339025D01*
X104497097Y-140339028D01*
X104500989Y-140343800D01*
X104505736Y-140347727D01*
X104505738Y-140347729D01*
X104654975Y-140471189D01*
X104654979Y-140471191D01*
X104659725Y-140475118D01*
X104840945Y-140573103D01*
X105037746Y-140634023D01*
X105043871Y-140634667D01*
X105043872Y-140634667D01*
X105236502Y-140654913D01*
X105236504Y-140654913D01*
X105242631Y-140655557D01*
X105330956Y-140647519D01*
X105441658Y-140637445D01*
X105441661Y-140637444D01*
X105447797Y-140636886D01*
X105645428Y-140578720D01*
X105827998Y-140483274D01*
X105832799Y-140479414D01*
X105832802Y-140479412D01*
X105983746Y-140358050D01*
X105983747Y-140358050D01*
X105988553Y-140354185D01*
X106120976Y-140196370D01*
X106123944Y-140190972D01*
X106123947Y-140190967D01*
X106217257Y-140021235D01*
X106220224Y-140015838D01*
X106282516Y-139819468D01*
X106283474Y-139810932D01*
X106300107Y-139662636D01*
X106300500Y-139659136D01*
X106300500Y-139298159D01*
X106285480Y-139144970D01*
X106225935Y-138947749D01*
X106129218Y-138765849D01*
X106040756Y-138657384D01*
X106002906Y-138610975D01*
X106002903Y-138610972D01*
X105999011Y-138606200D01*
X105970578Y-138582678D01*
X105845025Y-138478811D01*
X105845021Y-138478809D01*
X105840275Y-138474882D01*
X105767293Y-138435421D01*
X105669224Y-138382395D01*
X105618815Y-138332400D01*
X105604279Y-138269865D01*
X105604952Y-138266740D01*
X105601373Y-138236501D01*
X105601064Y-138231253D01*
X105600928Y-138231264D01*
X105600500Y-138226085D01*
X105600500Y-138220885D01*
X105599647Y-138215759D01*
X105599646Y-138215750D01*
X105597613Y-138203537D01*
X105596776Y-138197661D01*
X105592461Y-138161203D01*
X105592461Y-138161202D01*
X105591237Y-138150862D01*
X105587576Y-138143239D01*
X105586188Y-138134897D01*
X105563806Y-138093416D01*
X105561133Y-138088169D01*
X105540727Y-138045674D01*
X105537408Y-138041726D01*
X105535479Y-138039797D01*
X105534010Y-138038196D01*
X105533753Y-138037719D01*
X105533776Y-138037698D01*
X105533687Y-138037597D01*
X105530778Y-138032206D01*
X105522265Y-138024336D01*
X105494364Y-137998545D01*
X105490798Y-137995116D01*
X103283783Y-135788101D01*
X103271705Y-135773147D01*
X103268473Y-135769595D01*
X103262825Y-135760848D01*
X103238914Y-135741998D01*
X103234979Y-135738501D01*
X103234891Y-135738605D01*
X103230932Y-135735250D01*
X103227254Y-135731572D01*
X103223029Y-135728553D01*
X103223021Y-135728546D01*
X103212920Y-135721328D01*
X103208173Y-135717764D01*
X103197718Y-135709522D01*
X103171189Y-135688608D01*
X103163213Y-135685807D01*
X103156331Y-135680889D01*
X103111164Y-135667381D01*
X103105558Y-135665559D01*
X103068577Y-135652572D01*
X103068571Y-135652571D01*
X103061094Y-135649945D01*
X103055956Y-135649500D01*
X103053237Y-135649500D01*
X103051055Y-135649405D01*
X103050520Y-135649245D01*
X103050521Y-135649218D01*
X103050403Y-135649211D01*
X103044536Y-135647456D01*
X102994981Y-135649403D01*
X102990034Y-135649500D01*
X99447372Y-135649500D01*
X99379251Y-135629498D01*
X99358277Y-135612595D01*
X95637405Y-131891723D01*
X95603379Y-131829411D01*
X95600500Y-131802628D01*
X95600500Y-119447372D01*
X95620502Y-119379251D01*
X95637405Y-119358277D01*
X95684042Y-119311640D01*
X95746354Y-119277614D01*
X95817169Y-119282679D01*
X95874005Y-119325226D01*
X95899040Y-119395784D01*
X95899403Y-119405015D01*
X95899500Y-119409966D01*
X95899500Y-130949176D01*
X95897467Y-130968275D01*
X95897240Y-130973083D01*
X95895049Y-130983261D01*
X95896273Y-130993600D01*
X95898627Y-131013491D01*
X95898937Y-131018746D01*
X95899072Y-131018735D01*
X95899500Y-131023914D01*
X95899500Y-131029115D01*
X95900354Y-131034243D01*
X95900354Y-131034249D01*
X95902389Y-131046473D01*
X95903226Y-131052349D01*
X95908764Y-131099138D01*
X95912423Y-131106758D01*
X95913812Y-131115103D01*
X95918757Y-131124267D01*
X95936192Y-131156580D01*
X95938884Y-131161865D01*
X95959274Y-131204326D01*
X95962592Y-131208274D01*
X95964525Y-131210207D01*
X95965990Y-131211804D01*
X95966254Y-131212294D01*
X95966234Y-131212313D01*
X95966313Y-131212402D01*
X95969222Y-131217794D01*
X95976870Y-131224864D01*
X95976871Y-131224865D01*
X96005636Y-131251455D01*
X96009202Y-131254884D01*
X99216217Y-134461899D01*
X99228295Y-134476853D01*
X99231527Y-134480405D01*
X99237175Y-134489152D01*
X99245352Y-134495598D01*
X99261086Y-134508002D01*
X99265021Y-134511499D01*
X99265109Y-134511395D01*
X99269068Y-134514750D01*
X99272746Y-134518428D01*
X99276971Y-134521447D01*
X99276979Y-134521454D01*
X99287080Y-134528672D01*
X99291827Y-134532236D01*
X99328811Y-134561392D01*
X99336787Y-134564193D01*
X99343669Y-134569111D01*
X99388836Y-134582619D01*
X99394442Y-134584441D01*
X99431423Y-134597428D01*
X99431429Y-134597429D01*
X99438906Y-134600055D01*
X99444044Y-134600500D01*
X99446763Y-134600500D01*
X99448945Y-134600595D01*
X99449480Y-134600755D01*
X99449479Y-134600782D01*
X99449597Y-134600789D01*
X99455464Y-134602544D01*
X99505019Y-134600597D01*
X99509966Y-134600500D01*
X104302628Y-134600500D01*
X104370749Y-134620502D01*
X104391723Y-134637405D01*
X107362595Y-137608277D01*
X107396621Y-137670589D01*
X107399500Y-137697372D01*
X107399500Y-138271484D01*
X107379498Y-138339605D01*
X107331876Y-138383145D01*
X107257061Y-138422258D01*
X107172002Y-138466726D01*
X107167201Y-138470586D01*
X107167198Y-138470588D01*
X107073779Y-138545699D01*
X107011447Y-138595815D01*
X106879024Y-138753630D01*
X106876056Y-138759028D01*
X106876053Y-138759033D01*
X106782743Y-138928765D01*
X106779776Y-138934162D01*
X106717484Y-139130532D01*
X106716798Y-139136649D01*
X106716797Y-139136653D01*
X106711646Y-139182577D01*
X106699500Y-139290864D01*
X106699500Y-139651841D01*
X106714520Y-139805030D01*
X106774065Y-140002251D01*
X106870782Y-140184151D01*
X106925198Y-140250871D01*
X106997094Y-140339025D01*
X106997097Y-140339028D01*
X107000989Y-140343800D01*
X107005736Y-140347727D01*
X107005738Y-140347729D01*
X107154975Y-140471189D01*
X107154979Y-140471191D01*
X107159725Y-140475118D01*
X107340945Y-140573103D01*
X107537746Y-140634023D01*
X107543871Y-140634667D01*
X107543872Y-140634667D01*
X107736502Y-140654913D01*
X107736504Y-140654913D01*
X107742631Y-140655557D01*
X107830956Y-140647519D01*
X107941658Y-140637445D01*
X107941661Y-140637444D01*
X107947797Y-140636886D01*
X108145428Y-140578720D01*
X108327998Y-140483274D01*
X108332799Y-140479414D01*
X108332802Y-140479412D01*
X108483746Y-140358050D01*
X108483747Y-140358050D01*
X108488553Y-140354185D01*
X108620976Y-140196370D01*
X108623944Y-140190972D01*
X108623947Y-140190967D01*
X108717254Y-140021240D01*
X108720224Y-140015838D01*
X108721434Y-140012022D01*
X108766176Y-139957866D01*
X108833807Y-139936268D01*
X108902380Y-139954663D01*
X108950121Y-140007210D01*
X108958729Y-140030579D01*
X108963130Y-140047535D01*
X108966665Y-140057575D01*
X109056937Y-140257970D01*
X109062106Y-140267256D01*
X109184850Y-140449575D01*
X109191519Y-140457870D01*
X109343228Y-140616900D01*
X109351186Y-140623941D01*
X109527525Y-140755141D01*
X109536562Y-140760745D01*
X109732484Y-140860357D01*
X109742335Y-140864357D01*
X109952240Y-140929534D01*
X109962624Y-140931817D01*
X109978043Y-140933861D01*
X109992207Y-140931665D01*
X109996000Y-140918478D01*
X109996000Y-140916192D01*
X110504000Y-140916192D01*
X110507973Y-140929723D01*
X110518580Y-140931248D01*
X110636421Y-140906523D01*
X110646617Y-140903463D01*
X110851029Y-140822737D01*
X110860561Y-140818006D01*
X111048462Y-140703984D01*
X111057052Y-140697720D01*
X111223052Y-140553673D01*
X111230472Y-140546042D01*
X111369826Y-140376089D01*
X111375850Y-140367322D01*
X111484576Y-140176318D01*
X111489041Y-140166654D01*
X111493403Y-140154638D01*
X135489964Y-140154638D01*
X135490163Y-140160343D01*
X135522540Y-140562753D01*
X135523258Y-140568430D01*
X135591970Y-140966229D01*
X135593201Y-140971829D01*
X135697689Y-141361786D01*
X135699413Y-141367219D01*
X135838817Y-141746108D01*
X135841025Y-141751362D01*
X136014192Y-142116050D01*
X136016877Y-142121099D01*
X136222390Y-142468606D01*
X136225500Y-142473358D01*
X136461668Y-142800812D01*
X136465208Y-142805278D01*
X136625528Y-142989704D01*
X136638657Y-142998113D01*
X136648570Y-142992220D01*
X136993382Y-142647408D01*
X137878680Y-141762111D01*
X137950260Y-141690531D01*
X138404767Y-141236023D01*
X139627978Y-140012812D01*
X139634356Y-140001132D01*
X140364408Y-140001132D01*
X140364539Y-140002965D01*
X140368790Y-140009580D01*
X141595232Y-141236022D01*
X142049739Y-141690530D01*
X142121319Y-141762110D01*
X143006617Y-142647407D01*
X143350688Y-142991478D01*
X143364134Y-142998820D01*
X143373970Y-142991900D01*
X143573611Y-142755657D01*
X143577097Y-142751130D01*
X143808659Y-142420424D01*
X143811716Y-142415608D01*
X144012350Y-142065281D01*
X144014962Y-142060199D01*
X144183020Y-141693127D01*
X144185159Y-141687834D01*
X144319255Y-141307047D01*
X144320908Y-141301573D01*
X144419939Y-140910206D01*
X144421090Y-140904600D01*
X144484245Y-140505854D01*
X144484880Y-140500192D01*
X144511709Y-140096260D01*
X144511843Y-140092753D01*
X144512796Y-140001773D01*
X144512734Y-139998225D01*
X144494371Y-139593843D01*
X144493855Y-139588165D01*
X144439063Y-139188177D01*
X144438036Y-139182577D01*
X144347216Y-138789198D01*
X144345682Y-138783702D01*
X144219588Y-138400183D01*
X144217558Y-138394841D01*
X144057226Y-138024336D01*
X144054722Y-138019202D01*
X143861471Y-137664752D01*
X143858508Y-137659861D01*
X143633930Y-137324389D01*
X143630537Y-137319787D01*
X143376832Y-137006489D01*
X143363963Y-136999226D01*
X143362596Y-136999305D01*
X143355268Y-137003942D01*
X143006618Y-137352592D01*
X142121320Y-138237889D01*
X141595233Y-138763977D01*
X140372022Y-139987188D01*
X140364408Y-140001132D01*
X139634356Y-140001132D01*
X139635592Y-139998868D01*
X139635461Y-139997035D01*
X139631210Y-139990420D01*
X138404768Y-138763978D01*
X137519471Y-137878680D01*
X136993383Y-137352593D01*
X136650424Y-137009634D01*
X136636480Y-137002020D01*
X136636287Y-137002033D01*
X136627465Y-137008012D01*
X136524743Y-137121298D01*
X136521091Y-137125712D01*
X136278139Y-137448120D01*
X136274906Y-137452843D01*
X136062173Y-137795946D01*
X136059379Y-137800946D01*
X135878624Y-138161905D01*
X135876290Y-138167147D01*
X135728992Y-138543009D01*
X135727149Y-138548422D01*
X135614517Y-138936103D01*
X135613175Y-138941653D01*
X135536142Y-139337952D01*
X135535309Y-139343593D01*
X135494512Y-139745234D01*
X135494192Y-139750958D01*
X135489964Y-140154638D01*
X111493403Y-140154638D01*
X111564031Y-139960059D01*
X111566802Y-139949792D01*
X111603504Y-139746826D01*
X111602085Y-139733586D01*
X111587450Y-139729000D01*
X110522115Y-139729000D01*
X110506876Y-139733475D01*
X110505671Y-139734865D01*
X110504000Y-139742548D01*
X110504000Y-140916192D01*
X109996000Y-140916192D01*
X109996000Y-139202885D01*
X110504000Y-139202885D01*
X110508475Y-139218124D01*
X110509865Y-139219329D01*
X110517548Y-139221000D01*
X111583849Y-139221000D01*
X111598527Y-139216690D01*
X111600590Y-139204807D01*
X111593876Y-139125675D01*
X111592086Y-139115203D01*
X111536870Y-138902465D01*
X111533335Y-138892425D01*
X111443063Y-138692030D01*
X111437894Y-138682744D01*
X111315150Y-138500425D01*
X111308481Y-138492130D01*
X111156772Y-138333100D01*
X111148814Y-138326059D01*
X110972475Y-138194859D01*
X110963438Y-138189255D01*
X110767516Y-138089643D01*
X110757665Y-138085643D01*
X110547760Y-138020466D01*
X110537376Y-138018183D01*
X110521957Y-138016139D01*
X110507793Y-138018335D01*
X110504000Y-138031522D01*
X110504000Y-139202885D01*
X109996000Y-139202885D01*
X109996000Y-138033808D01*
X109992027Y-138020277D01*
X109981420Y-138018752D01*
X109863579Y-138043477D01*
X109853383Y-138046537D01*
X109648971Y-138127263D01*
X109639439Y-138131994D01*
X109451539Y-138246015D01*
X109442948Y-138252280D01*
X109276948Y-138396327D01*
X109269528Y-138403958D01*
X109130174Y-138573911D01*
X109124150Y-138582678D01*
X109015424Y-138773682D01*
X109010959Y-138783346D01*
X108956436Y-138933553D01*
X108914391Y-138990761D01*
X108848092Y-139016157D01*
X108778588Y-139001677D01*
X108727945Y-138951919D01*
X108725940Y-138947765D01*
X108725935Y-138947749D01*
X108629218Y-138765849D01*
X108540756Y-138657384D01*
X108502906Y-138610975D01*
X108502903Y-138610972D01*
X108499011Y-138606200D01*
X108470578Y-138582678D01*
X108345025Y-138478811D01*
X108345021Y-138478809D01*
X108340275Y-138474882D01*
X108334854Y-138471951D01*
X108334850Y-138471948D01*
X108166572Y-138380961D01*
X108116163Y-138330966D01*
X108100500Y-138270125D01*
X108100500Y-137550824D01*
X108102533Y-137531725D01*
X108102760Y-137526917D01*
X108104951Y-137516739D01*
X108101373Y-137486509D01*
X108101063Y-137481254D01*
X108100928Y-137481265D01*
X108100500Y-137476087D01*
X108100500Y-137470885D01*
X108097609Y-137453515D01*
X108096773Y-137447644D01*
X108092460Y-137411205D01*
X108091236Y-137400861D01*
X108087577Y-137393241D01*
X108086188Y-137384897D01*
X108063819Y-137343441D01*
X108061122Y-137338150D01*
X108054515Y-137324389D01*
X108040726Y-137295674D01*
X108037408Y-137291726D01*
X108035469Y-137289787D01*
X108034010Y-137288196D01*
X108033746Y-137287706D01*
X108033766Y-137287687D01*
X108033687Y-137287598D01*
X108030778Y-137282206D01*
X107994364Y-137248545D01*
X107990798Y-137245116D01*
X107384395Y-136638713D01*
X137001723Y-136638713D01*
X137001735Y-136639144D01*
X137007102Y-136647892D01*
X137352592Y-136993382D01*
X137809617Y-137450408D01*
X137878679Y-137519470D01*
X138763977Y-138404767D01*
X139987188Y-139627978D01*
X140001132Y-139635592D01*
X140002965Y-139635461D01*
X140009580Y-139631210D01*
X141236022Y-138404768D01*
X142121320Y-137519471D01*
X142190382Y-137450409D01*
X142647407Y-136993383D01*
X142990943Y-136649847D01*
X142998351Y-136636280D01*
X142991609Y-136626624D01*
X142780533Y-136445711D01*
X142776040Y-136442200D01*
X142446969Y-136208341D01*
X142442146Y-136205233D01*
X142093242Y-136002166D01*
X142088177Y-135999519D01*
X141722296Y-135828905D01*
X141717003Y-135826724D01*
X141337166Y-135689973D01*
X141331706Y-135688284D01*
X140941036Y-135586522D01*
X140935446Y-135585334D01*
X140537154Y-135519397D01*
X140531490Y-135518721D01*
X140128851Y-135489153D01*
X140123150Y-135488994D01*
X139719489Y-135496040D01*
X139713801Y-135496398D01*
X139312457Y-135539998D01*
X139306787Y-135540876D01*
X138911058Y-135620669D01*
X138905512Y-135622051D01*
X138518627Y-135737387D01*
X138513223Y-135739269D01*
X138138396Y-135889189D01*
X138133189Y-135891551D01*
X137773475Y-136074834D01*
X137768510Y-136077655D01*
X137426897Y-136292781D01*
X137422202Y-136296044D01*
X137101494Y-136541243D01*
X137097114Y-136544917D01*
X137009910Y-136625106D01*
X137001723Y-136638713D01*
X107384395Y-136638713D01*
X104783783Y-134038101D01*
X104771705Y-134023147D01*
X104768473Y-134019595D01*
X104762825Y-134010848D01*
X104738914Y-133991998D01*
X104734979Y-133988501D01*
X104734891Y-133988605D01*
X104730932Y-133985250D01*
X104727254Y-133981572D01*
X104723029Y-133978553D01*
X104723021Y-133978546D01*
X104712920Y-133971328D01*
X104708173Y-133967764D01*
X104697718Y-133959522D01*
X104671189Y-133938608D01*
X104663213Y-133935807D01*
X104656331Y-133930889D01*
X104611164Y-133917381D01*
X104605558Y-133915559D01*
X104568577Y-133902572D01*
X104568571Y-133902571D01*
X104561094Y-133899945D01*
X104555956Y-133899500D01*
X104553237Y-133899500D01*
X104551055Y-133899405D01*
X104550520Y-133899245D01*
X104550521Y-133899218D01*
X104550403Y-133899211D01*
X104544536Y-133897456D01*
X104494981Y-133899403D01*
X104490034Y-133899500D01*
X99697372Y-133899500D01*
X99629251Y-133879498D01*
X99608277Y-133862595D01*
X96637405Y-130891723D01*
X96603379Y-130829411D01*
X96600500Y-130802628D01*
X96600500Y-128897095D01*
X138492001Y-128897095D01*
X138492338Y-128903614D01*
X138502257Y-128999206D01*
X138505149Y-129012600D01*
X138556588Y-129166784D01*
X138562761Y-129179962D01*
X138648063Y-129317807D01*
X138657099Y-129329208D01*
X138771829Y-129443739D01*
X138783240Y-129452751D01*
X138921243Y-129537816D01*
X138934424Y-129543963D01*
X139088710Y-129595138D01*
X139102086Y-129598005D01*
X139196438Y-129607672D01*
X139202854Y-129608000D01*
X139727885Y-129608000D01*
X139743124Y-129603525D01*
X139744329Y-129602135D01*
X139746000Y-129594452D01*
X139746000Y-129589884D01*
X140254000Y-129589884D01*
X140258475Y-129605123D01*
X140259865Y-129606328D01*
X140267548Y-129607999D01*
X140797095Y-129607999D01*
X140803614Y-129607662D01*
X140899206Y-129597743D01*
X140912600Y-129594851D01*
X141066784Y-129543412D01*
X141079962Y-129537239D01*
X141217807Y-129451937D01*
X141229208Y-129442901D01*
X141343739Y-129328171D01*
X141352751Y-129316760D01*
X141437816Y-129178757D01*
X141443963Y-129165576D01*
X141495138Y-129011290D01*
X141498005Y-128997914D01*
X141507672Y-128903562D01*
X141508000Y-128897146D01*
X141508000Y-128522115D01*
X141503525Y-128506876D01*
X141502135Y-128505671D01*
X141494452Y-128504000D01*
X140272115Y-128504000D01*
X140256876Y-128508475D01*
X140255671Y-128509865D01*
X140254000Y-128517548D01*
X140254000Y-129589884D01*
X139746000Y-129589884D01*
X139746000Y-128522115D01*
X139741525Y-128506876D01*
X139740135Y-128505671D01*
X139732452Y-128504000D01*
X138510116Y-128504000D01*
X138494877Y-128508475D01*
X138493672Y-128509865D01*
X138492001Y-128517548D01*
X138492001Y-128897095D01*
X96600500Y-128897095D01*
X96600500Y-119597372D01*
X96620502Y-119529251D01*
X96637405Y-119508277D01*
X97784405Y-118361277D01*
X97846717Y-118327251D01*
X97917532Y-118332316D01*
X97974368Y-118374863D01*
X97999179Y-118441383D01*
X97999500Y-118450372D01*
X97999500Y-119869748D01*
X98000707Y-119875816D01*
X98004331Y-119894033D01*
X98011133Y-119928231D01*
X98055448Y-119994552D01*
X98121769Y-120038867D01*
X98133938Y-120041288D01*
X98133939Y-120041288D01*
X98174184Y-120049293D01*
X98180252Y-120050500D01*
X99919748Y-120050500D01*
X99925816Y-120049293D01*
X99966061Y-120041288D01*
X99966062Y-120041288D01*
X99978231Y-120038867D01*
X100044552Y-119994552D01*
X100088867Y-119928231D01*
X100095670Y-119894033D01*
X100099293Y-119875816D01*
X100100500Y-119869748D01*
X100100500Y-118130252D01*
X100088867Y-118071769D01*
X100044552Y-118005448D01*
X99978231Y-117961133D01*
X99966062Y-117958712D01*
X99966061Y-117958712D01*
X99925816Y-117950707D01*
X99919748Y-117949500D01*
X98500372Y-117949500D01*
X98432251Y-117929498D01*
X98385758Y-117875842D01*
X98375654Y-117805568D01*
X98405148Y-117740988D01*
X98411277Y-117734405D01*
X100594781Y-115550901D01*
X100657093Y-115516875D01*
X100686183Y-115514017D01*
X100691020Y-115514106D01*
X100691025Y-115514105D01*
X100699999Y-115514270D01*
X100708663Y-115511908D01*
X100829658Y-115478921D01*
X100829660Y-115478920D01*
X100838317Y-115476560D01*
X100960491Y-115401545D01*
X100966786Y-115394591D01*
X101020084Y-115335707D01*
X101080628Y-115298626D01*
X101151607Y-115300163D01*
X101210489Y-115339831D01*
X101238577Y-115405035D01*
X101239500Y-115420262D01*
X101239500Y-117921484D01*
X101219498Y-117989605D01*
X101171876Y-118033145D01*
X101097996Y-118071769D01*
X101012002Y-118116726D01*
X101007201Y-118120586D01*
X101007198Y-118120588D01*
X100974688Y-118146727D01*
X100851447Y-118245815D01*
X100719024Y-118403630D01*
X100716056Y-118409028D01*
X100716053Y-118409033D01*
X100709315Y-118421290D01*
X100619776Y-118584162D01*
X100557484Y-118780532D01*
X100556798Y-118786649D01*
X100556797Y-118786653D01*
X100544707Y-118894442D01*
X100534520Y-118985262D01*
X100537178Y-119016916D01*
X100550342Y-119173674D01*
X100551759Y-119190553D01*
X100556035Y-119205464D01*
X100599395Y-119356678D01*
X100608544Y-119388586D01*
X100611359Y-119394063D01*
X100611360Y-119394066D01*
X100689023Y-119545182D01*
X100702712Y-119571818D01*
X100830677Y-119733270D01*
X100835370Y-119737264D01*
X100835371Y-119737265D01*
X100909541Y-119800388D01*
X100987564Y-119866791D01*
X100992942Y-119869797D01*
X100992944Y-119869798D01*
X101023387Y-119886812D01*
X101167398Y-119967297D01*
X101251280Y-119994552D01*
X101357471Y-120029056D01*
X101357475Y-120029057D01*
X101363329Y-120030959D01*
X101567894Y-120055351D01*
X101574029Y-120054879D01*
X101574031Y-120054879D01*
X101646625Y-120049293D01*
X101773300Y-120039546D01*
X101779230Y-120037890D01*
X101779232Y-120037890D01*
X101965797Y-119985800D01*
X101965796Y-119985800D01*
X101971725Y-119984145D01*
X101977214Y-119981372D01*
X101977220Y-119981370D01*
X102150116Y-119894033D01*
X102155610Y-119891258D01*
X102171345Y-119878965D01*
X102313101Y-119768213D01*
X102317951Y-119764424D01*
X102375992Y-119697183D01*
X102448540Y-119613134D01*
X102448540Y-119613133D01*
X102452564Y-119608472D01*
X102473387Y-119571818D01*
X102509483Y-119508277D01*
X102554323Y-119429344D01*
X102619351Y-119233863D01*
X102645171Y-119029474D01*
X102645583Y-119000000D01*
X102625480Y-118794970D01*
X102565935Y-118597749D01*
X102469218Y-118415849D01*
X102393206Y-118322649D01*
X102342906Y-118260975D01*
X102342903Y-118260972D01*
X102339011Y-118256200D01*
X102321786Y-118241950D01*
X102185025Y-118128811D01*
X102185021Y-118128809D01*
X102180275Y-118124882D01*
X102174854Y-118121951D01*
X102174850Y-118121948D01*
X102006572Y-118030961D01*
X101956163Y-117980966D01*
X101940500Y-117920125D01*
X101940500Y-114879372D01*
X101960502Y-114811251D01*
X101977405Y-114790277D01*
X102091859Y-114675823D01*
X102862391Y-114675823D01*
X102863555Y-114684725D01*
X102863555Y-114684728D01*
X102871177Y-114743014D01*
X102880980Y-114817979D01*
X102938720Y-114949203D01*
X102944497Y-114956076D01*
X102944498Y-114956077D01*
X102995834Y-115017149D01*
X103030970Y-115058948D01*
X103150313Y-115138390D01*
X103287157Y-115181142D01*
X103322200Y-115181784D01*
X103389942Y-115203031D01*
X103408986Y-115218668D01*
X103742595Y-115552277D01*
X103776621Y-115614589D01*
X103779500Y-115641372D01*
X103779500Y-117921484D01*
X103759498Y-117989605D01*
X103711876Y-118033145D01*
X103637996Y-118071769D01*
X103552002Y-118116726D01*
X103547201Y-118120586D01*
X103547198Y-118120588D01*
X103514688Y-118146727D01*
X103391447Y-118245815D01*
X103259024Y-118403630D01*
X103256056Y-118409028D01*
X103256053Y-118409033D01*
X103249315Y-118421290D01*
X103159776Y-118584162D01*
X103097484Y-118780532D01*
X103096798Y-118786649D01*
X103096797Y-118786653D01*
X103084707Y-118894442D01*
X103074520Y-118985262D01*
X103077178Y-119016916D01*
X103090342Y-119173674D01*
X103091759Y-119190553D01*
X103096035Y-119205464D01*
X103139395Y-119356678D01*
X103148544Y-119388586D01*
X103151359Y-119394063D01*
X103151360Y-119394066D01*
X103229023Y-119545182D01*
X103242712Y-119571818D01*
X103370677Y-119733270D01*
X103375370Y-119737264D01*
X103375371Y-119737265D01*
X103449541Y-119800388D01*
X103527564Y-119866791D01*
X103532942Y-119869797D01*
X103532944Y-119869798D01*
X103563387Y-119886812D01*
X103707398Y-119967297D01*
X103791280Y-119994552D01*
X103897471Y-120029056D01*
X103897475Y-120029057D01*
X103903329Y-120030959D01*
X104107894Y-120055351D01*
X104114029Y-120054879D01*
X104114031Y-120054879D01*
X104186625Y-120049293D01*
X104313300Y-120039546D01*
X104319230Y-120037890D01*
X104319232Y-120037890D01*
X104505797Y-119985800D01*
X104505796Y-119985800D01*
X104511725Y-119984145D01*
X104517214Y-119981372D01*
X104517220Y-119981370D01*
X104690116Y-119894033D01*
X104695610Y-119891258D01*
X104711345Y-119878965D01*
X104853101Y-119768213D01*
X104857951Y-119764424D01*
X104915992Y-119697183D01*
X104988540Y-119613134D01*
X104988540Y-119613133D01*
X104992564Y-119608472D01*
X105013387Y-119571818D01*
X105049483Y-119508277D01*
X105094323Y-119429344D01*
X105159351Y-119233863D01*
X105185171Y-119029474D01*
X105185583Y-119000000D01*
X105184138Y-118985262D01*
X105614520Y-118985262D01*
X105617178Y-119016916D01*
X105630342Y-119173674D01*
X105631759Y-119190553D01*
X105636035Y-119205464D01*
X105679395Y-119356678D01*
X105688544Y-119388586D01*
X105691359Y-119394063D01*
X105691360Y-119394066D01*
X105769023Y-119545182D01*
X105782712Y-119571818D01*
X105910677Y-119733270D01*
X105915370Y-119737264D01*
X105915371Y-119737265D01*
X105989541Y-119800388D01*
X106067564Y-119866791D01*
X106072942Y-119869797D01*
X106072944Y-119869798D01*
X106103387Y-119886812D01*
X106247398Y-119967297D01*
X106331280Y-119994552D01*
X106437471Y-120029056D01*
X106437475Y-120029057D01*
X106443329Y-120030959D01*
X106647894Y-120055351D01*
X106654029Y-120054879D01*
X106654031Y-120054879D01*
X106726625Y-120049293D01*
X106853300Y-120039546D01*
X106859230Y-120037890D01*
X106859232Y-120037890D01*
X107045797Y-119985800D01*
X107045796Y-119985800D01*
X107051725Y-119984145D01*
X107057214Y-119981372D01*
X107057220Y-119981370D01*
X107230116Y-119894033D01*
X107235610Y-119891258D01*
X107251345Y-119878965D01*
X107393101Y-119768213D01*
X107397951Y-119764424D01*
X107455992Y-119697183D01*
X107528540Y-119613134D01*
X107528540Y-119613133D01*
X107532564Y-119608472D01*
X107553387Y-119571818D01*
X107589483Y-119508277D01*
X107634323Y-119429344D01*
X107699351Y-119233863D01*
X107725171Y-119029474D01*
X107725583Y-119000000D01*
X107705480Y-118794970D01*
X107645935Y-118597749D01*
X107549218Y-118415849D01*
X107473206Y-118322649D01*
X107422906Y-118260975D01*
X107422903Y-118260972D01*
X107419011Y-118256200D01*
X107401786Y-118241950D01*
X107265025Y-118128811D01*
X107265021Y-118128809D01*
X107260275Y-118124882D01*
X107123091Y-118050707D01*
X107084474Y-118029827D01*
X107079055Y-118026897D01*
X106882254Y-117965977D01*
X106876129Y-117965333D01*
X106876128Y-117965333D01*
X106683498Y-117945087D01*
X106683496Y-117945087D01*
X106677369Y-117944443D01*
X106590529Y-117952346D01*
X106478342Y-117962555D01*
X106478339Y-117962556D01*
X106472203Y-117963114D01*
X106274572Y-118021280D01*
X106269107Y-118024137D01*
X106197729Y-118061453D01*
X106092002Y-118116726D01*
X106087201Y-118120586D01*
X106087198Y-118120588D01*
X106054688Y-118146727D01*
X105931447Y-118245815D01*
X105799024Y-118403630D01*
X105796056Y-118409028D01*
X105796053Y-118409033D01*
X105789315Y-118421290D01*
X105699776Y-118584162D01*
X105637484Y-118780532D01*
X105636798Y-118786649D01*
X105636797Y-118786653D01*
X105624707Y-118894442D01*
X105614520Y-118985262D01*
X105184138Y-118985262D01*
X105165480Y-118794970D01*
X105105935Y-118597749D01*
X105009218Y-118415849D01*
X104933206Y-118322649D01*
X104882906Y-118260975D01*
X104882903Y-118260972D01*
X104879011Y-118256200D01*
X104861786Y-118241950D01*
X104725025Y-118128811D01*
X104725021Y-118128809D01*
X104720275Y-118124882D01*
X104714854Y-118121951D01*
X104714850Y-118121948D01*
X104546572Y-118030961D01*
X104496163Y-117980966D01*
X104480500Y-117920125D01*
X104480500Y-115494826D01*
X104482533Y-115475727D01*
X104482760Y-115470923D01*
X104484952Y-115460740D01*
X104483728Y-115450398D01*
X104483728Y-115450395D01*
X104481374Y-115430512D01*
X104481064Y-115425253D01*
X104480928Y-115425264D01*
X104480500Y-115420087D01*
X104480500Y-115414885D01*
X104477610Y-115397521D01*
X104476774Y-115391651D01*
X104472460Y-115355201D01*
X104472460Y-115355199D01*
X104471236Y-115344862D01*
X104467577Y-115337242D01*
X104466188Y-115328897D01*
X104443806Y-115287416D01*
X104441113Y-115282130D01*
X104427998Y-115254818D01*
X104420726Y-115239674D01*
X104417408Y-115235726D01*
X104415475Y-115233793D01*
X104414010Y-115232196D01*
X104413746Y-115231706D01*
X104413766Y-115231687D01*
X104413687Y-115231598D01*
X104410778Y-115226206D01*
X104402624Y-115218668D01*
X104374364Y-115192545D01*
X104370798Y-115189116D01*
X103904994Y-114723312D01*
X103870968Y-114661000D01*
X103869362Y-114652079D01*
X103854596Y-114548968D01*
X103854595Y-114548965D01*
X103853323Y-114540082D01*
X103836227Y-114502480D01*
X103834179Y-114497977D01*
X103793984Y-114409572D01*
X103715375Y-114318342D01*
X103706260Y-114307763D01*
X103706257Y-114307760D01*
X103700400Y-114300963D01*
X103580095Y-114222985D01*
X103442739Y-114181907D01*
X103433763Y-114181852D01*
X103433762Y-114181852D01*
X103373555Y-114181484D01*
X103299376Y-114181031D01*
X103161529Y-114220428D01*
X103040280Y-114296930D01*
X102945377Y-114404388D01*
X102884447Y-114534163D01*
X102880876Y-114557099D01*
X102864699Y-114661000D01*
X102862391Y-114675823D01*
X102091859Y-114675823D01*
X103071281Y-113696401D01*
X103133593Y-113662375D01*
X103162683Y-113659517D01*
X103167520Y-113659606D01*
X103167525Y-113659605D01*
X103176499Y-113659770D01*
X103200715Y-113653168D01*
X103306158Y-113624421D01*
X103306160Y-113624420D01*
X103314817Y-113622060D01*
X103436991Y-113547045D01*
X103447007Y-113535980D01*
X103527178Y-113447407D01*
X103533200Y-113440754D01*
X103595710Y-113311733D01*
X103619496Y-113170354D01*
X103619647Y-113158000D01*
X103603303Y-113043872D01*
X103600596Y-113024968D01*
X103600595Y-113024965D01*
X103599323Y-113016082D01*
X103592995Y-113002163D01*
X103543700Y-112893746D01*
X103539984Y-112885572D01*
X103501531Y-112840945D01*
X103452260Y-112783763D01*
X103452257Y-112783760D01*
X103446400Y-112776963D01*
X103326095Y-112698985D01*
X103188739Y-112657907D01*
X103179763Y-112657852D01*
X103179762Y-112657852D01*
X103119555Y-112657484D01*
X103045376Y-112657031D01*
X102907529Y-112696428D01*
X102786280Y-112772930D01*
X102691377Y-112880388D01*
X102630447Y-113010163D01*
X102623902Y-113052203D01*
X102611748Y-113130264D01*
X102581504Y-113194497D01*
X102576343Y-113199975D01*
X101378101Y-114398217D01*
X101363147Y-114410295D01*
X101359595Y-114413527D01*
X101350848Y-114419175D01*
X101344402Y-114427352D01*
X101331998Y-114443086D01*
X101328501Y-114447021D01*
X101328605Y-114447109D01*
X101325250Y-114451068D01*
X101321572Y-114454746D01*
X101318553Y-114458971D01*
X101318546Y-114458979D01*
X101311328Y-114469080D01*
X101307764Y-114473827D01*
X101278608Y-114510811D01*
X101275807Y-114518787D01*
X101270889Y-114525669D01*
X101257381Y-114570836D01*
X101255559Y-114576442D01*
X101242572Y-114613422D01*
X101242570Y-114613431D01*
X101239945Y-114620906D01*
X101239500Y-114626044D01*
X101239500Y-114627692D01*
X101238261Y-114633448D01*
X101204370Y-114695833D01*
X101142131Y-114729993D01*
X101071305Y-114725080D01*
X101019631Y-114689178D01*
X100987664Y-114652079D01*
X100975759Y-114638262D01*
X100975757Y-114638260D01*
X100969900Y-114631463D01*
X100849595Y-114553485D01*
X100712239Y-114512407D01*
X100703263Y-114512352D01*
X100703262Y-114512352D01*
X100643055Y-114511984D01*
X100568876Y-114511531D01*
X100431029Y-114550928D01*
X100309780Y-114627430D01*
X100303838Y-114634158D01*
X100303837Y-114634159D01*
X100288011Y-114652079D01*
X100214877Y-114734888D01*
X100211062Y-114743014D01*
X100185693Y-114797048D01*
X100138637Y-114850210D01*
X100070309Y-114869492D01*
X100002403Y-114848772D01*
X99956937Y-114795650D01*
X99929700Y-114735746D01*
X99925984Y-114727572D01*
X99898636Y-114695833D01*
X99838260Y-114625763D01*
X99838257Y-114625760D01*
X99832400Y-114618963D01*
X99712095Y-114540985D01*
X99574739Y-114499907D01*
X99565763Y-114499852D01*
X99565762Y-114499852D01*
X99505555Y-114499484D01*
X99431376Y-114499031D01*
X99293529Y-114538428D01*
X99172280Y-114614930D01*
X99166338Y-114621658D01*
X99166337Y-114621659D01*
X99155298Y-114634159D01*
X99077377Y-114722388D01*
X99016447Y-114852163D01*
X99000268Y-114956077D01*
X98997748Y-114972264D01*
X98967504Y-115036497D01*
X98962343Y-115041975D01*
X98405680Y-115598638D01*
X98343368Y-115632664D01*
X98272553Y-115627599D01*
X98215717Y-115585052D01*
X98190906Y-115518532D01*
X98196537Y-115476493D01*
X98195760Y-115476326D01*
X98197429Y-115468571D01*
X98200055Y-115461094D01*
X98200500Y-115455956D01*
X98200500Y-115453237D01*
X98200595Y-115451055D01*
X98200755Y-115450520D01*
X98200782Y-115450521D01*
X98200789Y-115450403D01*
X98202544Y-115444536D01*
X98200597Y-115394981D01*
X98200500Y-115390034D01*
X98200500Y-113557208D01*
X98220502Y-113489087D01*
X98233078Y-113472661D01*
X98269200Y-113432754D01*
X98273406Y-113424074D01*
X98327795Y-113311814D01*
X98327795Y-113311813D01*
X98331710Y-113303733D01*
X98355496Y-113162354D01*
X98355647Y-113150000D01*
X98341642Y-113052203D01*
X98336596Y-113016968D01*
X98336595Y-113016965D01*
X98335323Y-113008082D01*
X98275984Y-112877572D01*
X98195153Y-112783763D01*
X98188260Y-112775763D01*
X98188257Y-112775760D01*
X98182400Y-112768963D01*
X98062095Y-112690985D01*
X97924739Y-112649907D01*
X97915763Y-112649852D01*
X97915762Y-112649852D01*
X97855555Y-112649484D01*
X97781376Y-112649031D01*
X97643529Y-112688428D01*
X97522280Y-112764930D01*
X97427377Y-112872388D01*
X97366447Y-113002163D01*
X97344391Y-113143823D01*
X97345555Y-113152725D01*
X97345555Y-113152728D01*
X97347299Y-113166065D01*
X97362980Y-113285979D01*
X97420720Y-113417203D01*
X97463536Y-113468139D01*
X97469951Y-113475770D01*
X97498472Y-113540786D01*
X97499500Y-113556846D01*
X97499500Y-115202628D01*
X97479498Y-115270749D01*
X97462595Y-115291723D01*
X94038101Y-118716217D01*
X94023147Y-118728295D01*
X94019595Y-118731527D01*
X94010848Y-118737175D01*
X94004402Y-118745352D01*
X93991998Y-118761086D01*
X93988501Y-118765021D01*
X93988605Y-118765109D01*
X93985250Y-118769068D01*
X93981572Y-118772746D01*
X93978553Y-118776971D01*
X93978546Y-118776979D01*
X93971328Y-118787080D01*
X93967764Y-118791827D01*
X93938608Y-118828811D01*
X93935807Y-118836787D01*
X93930889Y-118843669D01*
X93917381Y-118888836D01*
X93915559Y-118894442D01*
X93902572Y-118931423D01*
X93902571Y-118931429D01*
X93899945Y-118938906D01*
X93899500Y-118944044D01*
X93899500Y-118946763D01*
X93899405Y-118948945D01*
X93899245Y-118949480D01*
X93899218Y-118949479D01*
X93899211Y-118949597D01*
X93897456Y-118955464D01*
X93897865Y-118965872D01*
X93899403Y-119005019D01*
X93899500Y-119009966D01*
X93899500Y-132949176D01*
X93897467Y-132968275D01*
X93897240Y-132973083D01*
X93895049Y-132983261D01*
X88100500Y-132983261D01*
X88100500Y-123447372D01*
X88120502Y-123379251D01*
X88137405Y-123358277D01*
X95957280Y-115538401D01*
X96019592Y-115504375D01*
X96048682Y-115501517D01*
X96053520Y-115501606D01*
X96053524Y-115501605D01*
X96062499Y-115501770D01*
X96083663Y-115496000D01*
X96192158Y-115466421D01*
X96192160Y-115466420D01*
X96200817Y-115464060D01*
X96322991Y-115389045D01*
X96419200Y-115282754D01*
X96467668Y-115182716D01*
X96477795Y-115161814D01*
X96477795Y-115161813D01*
X96481710Y-115153733D01*
X96505496Y-115012354D01*
X96505647Y-115000000D01*
X96488372Y-114879372D01*
X96486596Y-114866968D01*
X96486595Y-114866965D01*
X96485323Y-114858082D01*
X96474567Y-114834424D01*
X96464030Y-114811251D01*
X96425984Y-114727572D01*
X96398636Y-114695833D01*
X96338260Y-114625763D01*
X96338257Y-114625760D01*
X96332400Y-114618963D01*
X96313235Y-114606541D01*
X96266952Y-114552706D01*
X96257122Y-114482393D01*
X96286867Y-114417927D01*
X96308543Y-114399604D01*
X96308436Y-114399475D01*
X96315342Y-114393741D01*
X96322991Y-114389045D01*
X96365757Y-114341798D01*
X96413178Y-114289407D01*
X96419200Y-114282754D01*
X96468060Y-114181907D01*
X96477795Y-114161814D01*
X96477795Y-114161813D01*
X96481710Y-114153733D01*
X96505496Y-114012354D01*
X96505647Y-114000000D01*
X96485323Y-113858082D01*
X96479387Y-113845025D01*
X96429700Y-113735746D01*
X96425984Y-113727572D01*
X96371615Y-113664474D01*
X96338260Y-113625763D01*
X96338257Y-113625760D01*
X96332400Y-113618963D01*
X96212095Y-113540985D01*
X96074739Y-113499907D01*
X96065763Y-113499852D01*
X96065762Y-113499852D01*
X96005555Y-113499484D01*
X95931376Y-113499031D01*
X95793529Y-113538428D01*
X95792829Y-113535980D01*
X95735816Y-113543722D01*
X95671468Y-113513725D01*
X95633553Y-113453700D01*
X95634108Y-113382706D01*
X95665628Y-113330054D01*
X95957281Y-113038401D01*
X96019593Y-113004375D01*
X96048683Y-113001517D01*
X96053520Y-113001606D01*
X96053525Y-113001605D01*
X96062499Y-113001770D01*
X96090867Y-112994036D01*
X96192158Y-112966421D01*
X96192160Y-112966420D01*
X96200817Y-112964060D01*
X96322991Y-112889045D01*
X96339534Y-112870769D01*
X96413178Y-112789407D01*
X96419200Y-112782754D01*
X96459786Y-112698985D01*
X96477795Y-112661814D01*
X96477795Y-112661813D01*
X96481710Y-112653733D01*
X96505496Y-112512354D01*
X96505647Y-112500000D01*
X96497473Y-112442924D01*
X96486596Y-112366968D01*
X96486595Y-112366965D01*
X96485323Y-112358082D01*
X96425984Y-112227572D01*
X96407598Y-112206234D01*
X96338260Y-112125763D01*
X96338257Y-112125760D01*
X96332400Y-112118963D01*
X96212095Y-112040985D01*
X96074739Y-111999907D01*
X96065763Y-111999852D01*
X96065762Y-111999852D01*
X96005555Y-111999484D01*
X95931376Y-111999031D01*
X95793529Y-112038428D01*
X95672280Y-112114930D01*
X95577377Y-112222388D01*
X95516447Y-112352163D01*
X95497748Y-112472264D01*
X95467504Y-112536497D01*
X95462343Y-112541975D01*
X82538101Y-125466217D01*
X82523147Y-125478295D01*
X82519595Y-125481527D01*
X82510848Y-125487175D01*
X82504402Y-125495352D01*
X82491998Y-125511086D01*
X82488501Y-125515021D01*
X82488605Y-125515109D01*
X82485250Y-125519068D01*
X82481572Y-125522746D01*
X82478553Y-125526971D01*
X82478546Y-125526979D01*
X82471328Y-125537080D01*
X82467764Y-125541827D01*
X82438608Y-125578811D01*
X82435807Y-125586787D01*
X82430889Y-125593669D01*
X82417381Y-125638836D01*
X82415559Y-125644442D01*
X82402572Y-125681423D01*
X82402571Y-125681429D01*
X82399945Y-125688906D01*
X82399500Y-125694044D01*
X82399500Y-125696763D01*
X82399405Y-125698945D01*
X82399245Y-125699480D01*
X82399218Y-125699479D01*
X82399211Y-125699597D01*
X82397456Y-125705464D01*
X82398916Y-125742631D01*
X82399403Y-125755019D01*
X82399500Y-125759966D01*
X82399500Y-138173500D01*
X82379498Y-138241621D01*
X82325842Y-138288114D01*
X82273500Y-138299500D01*
X82096166Y-138299500D01*
X82078248Y-138301194D01*
X82072278Y-138301758D01*
X82072277Y-138301758D01*
X82064631Y-138302481D01*
X81936816Y-138347366D01*
X81929246Y-138352958D01*
X81929243Y-138352959D01*
X81888375Y-138383145D01*
X81827850Y-138427850D01*
X81822258Y-138435421D01*
X81752959Y-138529243D01*
X81752958Y-138529246D01*
X81747366Y-138536816D01*
X81702481Y-138664631D01*
X81699500Y-138696166D01*
X81699500Y-140253834D01*
X64501243Y-140253834D01*
X64511709Y-140096260D01*
X64511843Y-140092753D01*
X64512796Y-140001773D01*
X64512734Y-139998225D01*
X64494371Y-139593843D01*
X64493855Y-139588165D01*
X64439063Y-139188177D01*
X64438036Y-139182577D01*
X64347216Y-138789198D01*
X64345682Y-138783702D01*
X64219588Y-138400183D01*
X64217558Y-138394841D01*
X64057226Y-138024336D01*
X64054722Y-138019202D01*
X63861471Y-137664752D01*
X63858508Y-137659861D01*
X63633930Y-137324389D01*
X63630537Y-137319787D01*
X63376832Y-137006489D01*
X63363963Y-136999226D01*
X63362596Y-136999305D01*
X63355268Y-137003942D01*
X63006618Y-137352592D01*
X62121320Y-138237889D01*
X61595233Y-138763977D01*
X60372022Y-139987188D01*
X60364408Y-140001132D01*
X59634356Y-140001132D01*
X59635592Y-139998868D01*
X59635461Y-139997035D01*
X59631210Y-139990420D01*
X58404768Y-138763978D01*
X57519471Y-137878680D01*
X56993383Y-137352593D01*
X56650424Y-137009634D01*
X56636480Y-137002020D01*
X56636287Y-137002033D01*
X56627465Y-137008012D01*
X56524743Y-137121298D01*
X56521091Y-137125712D01*
X56278139Y-137448120D01*
X56274906Y-137452843D01*
X56062173Y-137795946D01*
X56059379Y-137800946D01*
X55878624Y-138161905D01*
X55876290Y-138167147D01*
X55728992Y-138543009D01*
X55727149Y-138548422D01*
X55614517Y-138936103D01*
X55613175Y-138941653D01*
X55536142Y-139337952D01*
X55535309Y-139343593D01*
X55494512Y-139745234D01*
X55494192Y-139750958D01*
X55489964Y-140154638D01*
X50010500Y-140154638D01*
X50010500Y-136638713D01*
X57001723Y-136638713D01*
X57001735Y-136639144D01*
X57007102Y-136647892D01*
X57352592Y-136993382D01*
X57809617Y-137450408D01*
X57878679Y-137519470D01*
X58763977Y-138404767D01*
X59987188Y-139627978D01*
X60001132Y-139635592D01*
X60002965Y-139635461D01*
X60009580Y-139631210D01*
X61236022Y-138404768D01*
X62121320Y-137519471D01*
X62190382Y-137450409D01*
X62647407Y-136993383D01*
X62990943Y-136649847D01*
X62998351Y-136636280D01*
X62991609Y-136626624D01*
X62780533Y-136445711D01*
X62776040Y-136442200D01*
X62446969Y-136208341D01*
X62442146Y-136205233D01*
X62093242Y-136002166D01*
X62088177Y-135999519D01*
X61722296Y-135828905D01*
X61717003Y-135826724D01*
X61337166Y-135689973D01*
X61331706Y-135688284D01*
X60941036Y-135586522D01*
X60935446Y-135585334D01*
X60537154Y-135519397D01*
X60531490Y-135518721D01*
X60128851Y-135489153D01*
X60123150Y-135488994D01*
X59719489Y-135496040D01*
X59713801Y-135496398D01*
X59312457Y-135539998D01*
X59306787Y-135540876D01*
X58911058Y-135620669D01*
X58905512Y-135622051D01*
X58518627Y-135737387D01*
X58513223Y-135739269D01*
X58138396Y-135889189D01*
X58133189Y-135891551D01*
X57773475Y-136074834D01*
X57768510Y-136077655D01*
X57426897Y-136292781D01*
X57422202Y-136296044D01*
X57101494Y-136541243D01*
X57097114Y-136544917D01*
X57009910Y-136625106D01*
X57001723Y-136638713D01*
X50010500Y-136638713D01*
X50010500Y-100743823D01*
X92994391Y-100743823D01*
X92995555Y-100752725D01*
X92995555Y-100752728D01*
X93000593Y-100791251D01*
X93012980Y-100885979D01*
X93016597Y-100894199D01*
X93055999Y-100983746D01*
X93070720Y-101017203D01*
X93076497Y-101024076D01*
X93076498Y-101024077D01*
X93083792Y-101032754D01*
X93162970Y-101126948D01*
X93282313Y-101206390D01*
X93419157Y-101249142D01*
X93428129Y-101249306D01*
X93428132Y-101249307D01*
X93493463Y-101250504D01*
X93562499Y-101251770D01*
X93571533Y-101249307D01*
X93692158Y-101216421D01*
X93692160Y-101216420D01*
X93700817Y-101214060D01*
X93822991Y-101139045D01*
X93919200Y-101032754D01*
X93967432Y-100933203D01*
X93977795Y-100911814D01*
X93977795Y-100911813D01*
X93981710Y-100903733D01*
X94001403Y-100786683D01*
X94018387Y-100751728D01*
X94017080Y-100748819D01*
X94232148Y-100748819D01*
X94250593Y-100791251D01*
X94262980Y-100885979D01*
X94266597Y-100894199D01*
X94305999Y-100983746D01*
X94320720Y-101017203D01*
X94326497Y-101024076D01*
X94326498Y-101024077D01*
X94333792Y-101032754D01*
X94412970Y-101126948D01*
X94532313Y-101206390D01*
X94669157Y-101249142D01*
X94678129Y-101249306D01*
X94678132Y-101249307D01*
X94743463Y-101250504D01*
X94812499Y-101251770D01*
X94821533Y-101249307D01*
X94942158Y-101216421D01*
X94942160Y-101216420D01*
X94950817Y-101214060D01*
X95072991Y-101139045D01*
X95169200Y-101032754D01*
X95204535Y-100959823D01*
X100576391Y-100959823D01*
X100577555Y-100968725D01*
X100577555Y-100968728D01*
X100580894Y-100994262D01*
X100594980Y-101101979D01*
X100613356Y-101143741D01*
X100645704Y-101217257D01*
X100652720Y-101233203D01*
X100658497Y-101240076D01*
X100658498Y-101240077D01*
X100739190Y-101336072D01*
X100744970Y-101342948D01*
X100864313Y-101422390D01*
X101001157Y-101465142D01*
X101010129Y-101465306D01*
X101010132Y-101465307D01*
X101075463Y-101466504D01*
X101144499Y-101467770D01*
X101153533Y-101465307D01*
X101274158Y-101432421D01*
X101274160Y-101432420D01*
X101282817Y-101430060D01*
X101404991Y-101355045D01*
X101411015Y-101348390D01*
X101414427Y-101345557D01*
X101479615Y-101317432D01*
X101494913Y-101316500D01*
X102408628Y-101316500D01*
X102476749Y-101336502D01*
X102497723Y-101353405D01*
X108822595Y-107678277D01*
X108856621Y-107740589D01*
X108859500Y-107767372D01*
X108859500Y-117921484D01*
X108839498Y-117989605D01*
X108791876Y-118033145D01*
X108717996Y-118071769D01*
X108632002Y-118116726D01*
X108627201Y-118120586D01*
X108627198Y-118120588D01*
X108594688Y-118146727D01*
X108471447Y-118245815D01*
X108339024Y-118403630D01*
X108336056Y-118409028D01*
X108336053Y-118409033D01*
X108329315Y-118421290D01*
X108239776Y-118584162D01*
X108177484Y-118780532D01*
X108176798Y-118786649D01*
X108176797Y-118786653D01*
X108164707Y-118894442D01*
X108154520Y-118985262D01*
X108157178Y-119016916D01*
X108170342Y-119173674D01*
X108171759Y-119190553D01*
X108176035Y-119205464D01*
X108219395Y-119356678D01*
X108228544Y-119388586D01*
X108231359Y-119394063D01*
X108231360Y-119394066D01*
X108309023Y-119545182D01*
X108322712Y-119571818D01*
X108450677Y-119733270D01*
X108455370Y-119737264D01*
X108455371Y-119737265D01*
X108529541Y-119800388D01*
X108607564Y-119866791D01*
X108612942Y-119869797D01*
X108612944Y-119869798D01*
X108643387Y-119886812D01*
X108787398Y-119967297D01*
X108871280Y-119994552D01*
X108977471Y-120029056D01*
X108977475Y-120029057D01*
X108983329Y-120030959D01*
X109187894Y-120055351D01*
X109194029Y-120054879D01*
X109194031Y-120054879D01*
X109266625Y-120049293D01*
X109393300Y-120039546D01*
X109399230Y-120037890D01*
X109399232Y-120037890D01*
X109585797Y-119985800D01*
X109585796Y-119985800D01*
X109591725Y-119984145D01*
X109597214Y-119981372D01*
X109597220Y-119981370D01*
X109770116Y-119894033D01*
X109775610Y-119891258D01*
X109791345Y-119878965D01*
X109933101Y-119768213D01*
X109937951Y-119764424D01*
X109995992Y-119697183D01*
X110068540Y-119613134D01*
X110068540Y-119613133D01*
X110072564Y-119608472D01*
X110093387Y-119571818D01*
X110129483Y-119508277D01*
X110174323Y-119429344D01*
X110239351Y-119233863D01*
X110265171Y-119029474D01*
X110265583Y-119000000D01*
X110245480Y-118794970D01*
X110185935Y-118597749D01*
X110089218Y-118415849D01*
X110013206Y-118322649D01*
X109962906Y-118260975D01*
X109962903Y-118260972D01*
X109959011Y-118256200D01*
X109941786Y-118241950D01*
X109805025Y-118128811D01*
X109805021Y-118128809D01*
X109800275Y-118124882D01*
X109794854Y-118121951D01*
X109794850Y-118121948D01*
X109626572Y-118030961D01*
X109576163Y-117980966D01*
X109560500Y-117920125D01*
X109560500Y-107620824D01*
X109562533Y-107601725D01*
X109562760Y-107596917D01*
X109564951Y-107586739D01*
X109561373Y-107556509D01*
X109561063Y-107551254D01*
X109560928Y-107551265D01*
X109560500Y-107546087D01*
X109560500Y-107540885D01*
X109557609Y-107523515D01*
X109556773Y-107517644D01*
X109552460Y-107481200D01*
X109552459Y-107481198D01*
X109551236Y-107470861D01*
X109547577Y-107463240D01*
X109546188Y-107454897D01*
X109541243Y-107445732D01*
X109523813Y-107413428D01*
X109521118Y-107408138D01*
X109504159Y-107372820D01*
X109504155Y-107372813D01*
X109500726Y-107365673D01*
X109497408Y-107361726D01*
X109495473Y-107359791D01*
X109494010Y-107358196D01*
X109493746Y-107357706D01*
X109493766Y-107357687D01*
X109493687Y-107357598D01*
X109490778Y-107352206D01*
X109454364Y-107318545D01*
X109450798Y-107315116D01*
X102889783Y-100754101D01*
X102877705Y-100739147D01*
X102874473Y-100735595D01*
X102868825Y-100726848D01*
X102844914Y-100707998D01*
X102840979Y-100704501D01*
X102840891Y-100704605D01*
X102836932Y-100701250D01*
X102833254Y-100697572D01*
X102829029Y-100694553D01*
X102829021Y-100694546D01*
X102818920Y-100687328D01*
X102814173Y-100683764D01*
X102791639Y-100666000D01*
X102777189Y-100654608D01*
X102769213Y-100651807D01*
X102762331Y-100646889D01*
X102717164Y-100633381D01*
X102711558Y-100631559D01*
X102674577Y-100618572D01*
X102674571Y-100618571D01*
X102667094Y-100615945D01*
X102661956Y-100615500D01*
X102659237Y-100615500D01*
X102657055Y-100615405D01*
X102656520Y-100615245D01*
X102656521Y-100615218D01*
X102656403Y-100615211D01*
X102650536Y-100613456D01*
X102600981Y-100615403D01*
X102596034Y-100615500D01*
X101494704Y-100615500D01*
X101426583Y-100595498D01*
X101417779Y-100588884D01*
X101414400Y-100584963D01*
X101294095Y-100506985D01*
X101156739Y-100465907D01*
X101147763Y-100465852D01*
X101147762Y-100465852D01*
X101087555Y-100465484D01*
X101013376Y-100465031D01*
X100875529Y-100504428D01*
X100754280Y-100580930D01*
X100748338Y-100587658D01*
X100748337Y-100587659D01*
X100721036Y-100618572D01*
X100659377Y-100688388D01*
X100598447Y-100818163D01*
X100595004Y-100840275D01*
X100580536Y-100933203D01*
X100576391Y-100959823D01*
X95204535Y-100959823D01*
X95217432Y-100933203D01*
X95227795Y-100911814D01*
X95227795Y-100911813D01*
X95231710Y-100903733D01*
X95255496Y-100762354D01*
X95255647Y-100750000D01*
X95245027Y-100675845D01*
X95236596Y-100616968D01*
X95236595Y-100616965D01*
X95235323Y-100608082D01*
X95229602Y-100595498D01*
X95201171Y-100532968D01*
X95175984Y-100477572D01*
X95131047Y-100425420D01*
X95101733Y-100360757D01*
X95100500Y-100343172D01*
X95100500Y-99689823D01*
X96258391Y-99689823D01*
X96259555Y-99698725D01*
X96259555Y-99698728D01*
X96260666Y-99707224D01*
X96276980Y-99831979D01*
X96334720Y-99963203D01*
X96340497Y-99970076D01*
X96340498Y-99970077D01*
X96397380Y-100037746D01*
X96426970Y-100072948D01*
X96546313Y-100152390D01*
X96683157Y-100195142D01*
X96692129Y-100195306D01*
X96692132Y-100195307D01*
X96757463Y-100196504D01*
X96826499Y-100197770D01*
X96835533Y-100195307D01*
X96956158Y-100162421D01*
X96956160Y-100162420D01*
X96964817Y-100160060D01*
X97086991Y-100085045D01*
X97122066Y-100046295D01*
X97177178Y-99985407D01*
X97183200Y-99978754D01*
X97223837Y-99894880D01*
X97241795Y-99857814D01*
X97241795Y-99857813D01*
X97245710Y-99849733D01*
X97269496Y-99708354D01*
X97269647Y-99696000D01*
X97249323Y-99554082D01*
X97243808Y-99541951D01*
X97212179Y-99472388D01*
X97189984Y-99423572D01*
X97184122Y-99416769D01*
X97179288Y-99409210D01*
X97182366Y-99407242D01*
X97160241Y-99358301D01*
X97170613Y-99288066D01*
X97195931Y-99251751D01*
X97380277Y-99067405D01*
X97442589Y-99033379D01*
X97469372Y-99030500D01*
X98153628Y-99030500D01*
X98221749Y-99050502D01*
X98268242Y-99104158D01*
X98278346Y-99174432D01*
X98248852Y-99239012D01*
X98242723Y-99245595D01*
X98027329Y-99460989D01*
X97965017Y-99495015D01*
X97937466Y-99497892D01*
X97929576Y-99497844D01*
X97916642Y-99497765D01*
X97778795Y-99537162D01*
X97657546Y-99613664D01*
X97562643Y-99721122D01*
X97501713Y-99850897D01*
X97496251Y-99885979D01*
X97483064Y-99970677D01*
X97479657Y-99992557D01*
X97480821Y-100001459D01*
X97480821Y-100001462D01*
X97484913Y-100032754D01*
X97498246Y-100134713D01*
X97555986Y-100265937D01*
X97561763Y-100272810D01*
X97561764Y-100272811D01*
X97627520Y-100351037D01*
X97648236Y-100375682D01*
X97767579Y-100455124D01*
X97904423Y-100497876D01*
X97913395Y-100498040D01*
X97913398Y-100498041D01*
X97978729Y-100499238D01*
X98047765Y-100500504D01*
X98056799Y-100498041D01*
X98177424Y-100465155D01*
X98177426Y-100465154D01*
X98186083Y-100462794D01*
X98308257Y-100387779D01*
X98404466Y-100281488D01*
X98459218Y-100168480D01*
X98463061Y-100160548D01*
X98463061Y-100160547D01*
X98466976Y-100152467D01*
X98488565Y-100024148D01*
X98523724Y-99955958D01*
X98912277Y-99567405D01*
X98974589Y-99533379D01*
X99001372Y-99530500D01*
X102400628Y-99530500D01*
X102468749Y-99550502D01*
X102489723Y-99567405D01*
X103547540Y-100625222D01*
X103581566Y-100687534D01*
X103583379Y-100697971D01*
X103596980Y-100801979D01*
X103654720Y-100933203D01*
X103660497Y-100940076D01*
X103660498Y-100940077D01*
X103725329Y-101017203D01*
X103746970Y-101042948D01*
X103866313Y-101122390D01*
X104003157Y-101165142D01*
X104038200Y-101165784D01*
X104105942Y-101187031D01*
X104124986Y-101202668D01*
X110346595Y-107424277D01*
X110380621Y-107486589D01*
X110383500Y-107513372D01*
X110383500Y-110719050D01*
X110363498Y-110787171D01*
X110351942Y-110802457D01*
X110311377Y-110848388D01*
X110307563Y-110856512D01*
X110307562Y-110856513D01*
X110286741Y-110900861D01*
X110250447Y-110978163D01*
X110249066Y-110987035D01*
X110230189Y-111108277D01*
X110228391Y-111119823D01*
X110246980Y-111261979D01*
X110304720Y-111393203D01*
X110310497Y-111400076D01*
X110310498Y-111400077D01*
X110317792Y-111408754D01*
X110396970Y-111502948D01*
X110516313Y-111582390D01*
X110653157Y-111625142D01*
X110662129Y-111625306D01*
X110662132Y-111625307D01*
X110727463Y-111626504D01*
X110796499Y-111627770D01*
X110805533Y-111625307D01*
X110926158Y-111592421D01*
X110926160Y-111592420D01*
X110934817Y-111590060D01*
X111056991Y-111515045D01*
X111153200Y-111408754D01*
X111157111Y-111400681D01*
X111157114Y-111400677D01*
X111160108Y-111394496D01*
X111207810Y-111341912D01*
X111276369Y-111323467D01*
X111344017Y-111345015D01*
X111389276Y-111399715D01*
X111399500Y-111449434D01*
X111399500Y-117921484D01*
X111379498Y-117989605D01*
X111331876Y-118033145D01*
X111257996Y-118071769D01*
X111172002Y-118116726D01*
X111167201Y-118120586D01*
X111167198Y-118120588D01*
X111134688Y-118146727D01*
X111011447Y-118245815D01*
X110879024Y-118403630D01*
X110876056Y-118409028D01*
X110876053Y-118409033D01*
X110869315Y-118421290D01*
X110779776Y-118584162D01*
X110717484Y-118780532D01*
X110716798Y-118786649D01*
X110716797Y-118786653D01*
X110704707Y-118894442D01*
X110694520Y-118985262D01*
X110697178Y-119016916D01*
X110710342Y-119173674D01*
X110711759Y-119190553D01*
X110716035Y-119205464D01*
X110759395Y-119356678D01*
X110768544Y-119388586D01*
X110771359Y-119394063D01*
X110771360Y-119394066D01*
X110849023Y-119545182D01*
X110862712Y-119571818D01*
X110990677Y-119733270D01*
X110995370Y-119737264D01*
X110995371Y-119737265D01*
X111069541Y-119800388D01*
X111147564Y-119866791D01*
X111152942Y-119869797D01*
X111152944Y-119869798D01*
X111183387Y-119886812D01*
X111327398Y-119967297D01*
X111411280Y-119994552D01*
X111517471Y-120029056D01*
X111517475Y-120029057D01*
X111523329Y-120030959D01*
X111727894Y-120055351D01*
X111734029Y-120054879D01*
X111734031Y-120054879D01*
X111806625Y-120049293D01*
X111933300Y-120039546D01*
X111939230Y-120037890D01*
X111939232Y-120037890D01*
X112125797Y-119985800D01*
X112125796Y-119985800D01*
X112131725Y-119984145D01*
X112137214Y-119981372D01*
X112137220Y-119981370D01*
X112310116Y-119894033D01*
X112315610Y-119891258D01*
X112331345Y-119878965D01*
X112473101Y-119768213D01*
X112477951Y-119764424D01*
X112535992Y-119697183D01*
X112608540Y-119613134D01*
X112608540Y-119613133D01*
X112612564Y-119608472D01*
X112633387Y-119571818D01*
X112669483Y-119508277D01*
X112714323Y-119429344D01*
X112779351Y-119233863D01*
X112805171Y-119029474D01*
X112805583Y-119000000D01*
X112804138Y-118985262D01*
X113234520Y-118985262D01*
X113237178Y-119016916D01*
X113250342Y-119173674D01*
X113251759Y-119190553D01*
X113256035Y-119205464D01*
X113299395Y-119356678D01*
X113308544Y-119388586D01*
X113311359Y-119394063D01*
X113311360Y-119394066D01*
X113389023Y-119545182D01*
X113402712Y-119571818D01*
X113530677Y-119733270D01*
X113535370Y-119737264D01*
X113535371Y-119737265D01*
X113609541Y-119800388D01*
X113687564Y-119866791D01*
X113692942Y-119869797D01*
X113692944Y-119869798D01*
X113723387Y-119886812D01*
X113867398Y-119967297D01*
X113951280Y-119994552D01*
X114057471Y-120029056D01*
X114057475Y-120029057D01*
X114063329Y-120030959D01*
X114267894Y-120055351D01*
X114274029Y-120054879D01*
X114274031Y-120054879D01*
X114346625Y-120049293D01*
X114473300Y-120039546D01*
X114479230Y-120037890D01*
X114479232Y-120037890D01*
X114665797Y-119985800D01*
X114665796Y-119985800D01*
X114671725Y-119984145D01*
X114677214Y-119981372D01*
X114677220Y-119981370D01*
X114850116Y-119894033D01*
X114855610Y-119891258D01*
X114871345Y-119878965D01*
X115013101Y-119768213D01*
X115017951Y-119764424D01*
X115075992Y-119697183D01*
X115148540Y-119613134D01*
X115148540Y-119613133D01*
X115152564Y-119608472D01*
X115173387Y-119571818D01*
X115209483Y-119508277D01*
X115254323Y-119429344D01*
X115265687Y-119395182D01*
X115278496Y-119356678D01*
X115318978Y-119298354D01*
X115384566Y-119271175D01*
X115454437Y-119283770D01*
X115506406Y-119332141D01*
X115520971Y-119368751D01*
X115528564Y-119402444D01*
X115531645Y-119412275D01*
X115611770Y-119609603D01*
X115616413Y-119618794D01*
X115727694Y-119800388D01*
X115733777Y-119808699D01*
X115873213Y-119969667D01*
X115880580Y-119976883D01*
X116044434Y-120112916D01*
X116052881Y-120118831D01*
X116236756Y-120226279D01*
X116246042Y-120230729D01*
X116445001Y-120306703D01*
X116454899Y-120309579D01*
X116558250Y-120330606D01*
X116572299Y-120329410D01*
X116576000Y-120319065D01*
X116576000Y-120318517D01*
X117084000Y-120318517D01*
X117088064Y-120332359D01*
X117101478Y-120334393D01*
X117108184Y-120333534D01*
X117118262Y-120331392D01*
X117322255Y-120270191D01*
X117331842Y-120266433D01*
X117523095Y-120172739D01*
X117531945Y-120167464D01*
X117705328Y-120043792D01*
X117713200Y-120037139D01*
X117864052Y-119886812D01*
X117870730Y-119878965D01*
X117995003Y-119706020D01*
X118000313Y-119697183D01*
X118094670Y-119506267D01*
X118098469Y-119496672D01*
X118160377Y-119292910D01*
X118162555Y-119282837D01*
X118163986Y-119271962D01*
X118161775Y-119257778D01*
X118148617Y-119254000D01*
X117102115Y-119254000D01*
X117086876Y-119258475D01*
X117085671Y-119259865D01*
X117084000Y-119267548D01*
X117084000Y-120318517D01*
X116576000Y-120318517D01*
X116576000Y-118727885D01*
X117084000Y-118727885D01*
X117088475Y-118743124D01*
X117089865Y-118744329D01*
X117097548Y-118746000D01*
X118148344Y-118746000D01*
X118161875Y-118742027D01*
X118163180Y-118732947D01*
X118121214Y-118565875D01*
X118117894Y-118556124D01*
X118032972Y-118360814D01*
X118028105Y-118351739D01*
X117912426Y-118172926D01*
X117906136Y-118164757D01*
X117762806Y-118007240D01*
X117755273Y-118000215D01*
X117588139Y-117868222D01*
X117579552Y-117862517D01*
X117393117Y-117759599D01*
X117383705Y-117755369D01*
X117182959Y-117684280D01*
X117172988Y-117681646D01*
X117101837Y-117668972D01*
X117088540Y-117670432D01*
X117084000Y-117684989D01*
X117084000Y-118727885D01*
X116576000Y-118727885D01*
X116576000Y-117683102D01*
X116572082Y-117669758D01*
X116557806Y-117667771D01*
X116519324Y-117673660D01*
X116509288Y-117676051D01*
X116306868Y-117742212D01*
X116297359Y-117746209D01*
X116108463Y-117844542D01*
X116099738Y-117850036D01*
X115929433Y-117977905D01*
X115921726Y-117984748D01*
X115774590Y-118138717D01*
X115768104Y-118146727D01*
X115648098Y-118322649D01*
X115643000Y-118331623D01*
X115553338Y-118524783D01*
X115549775Y-118534470D01*
X115521012Y-118638185D01*
X115483533Y-118698483D01*
X115419405Y-118728946D01*
X115348986Y-118719903D01*
X115294636Y-118674224D01*
X115278973Y-118640933D01*
X115278143Y-118638185D01*
X115265935Y-118597749D01*
X115169218Y-118415849D01*
X115093206Y-118322649D01*
X115042906Y-118260975D01*
X115042903Y-118260972D01*
X115039011Y-118256200D01*
X115021786Y-118241950D01*
X114885025Y-118128811D01*
X114885021Y-118128809D01*
X114880275Y-118124882D01*
X114743091Y-118050707D01*
X114704474Y-118029827D01*
X114699055Y-118026897D01*
X114502254Y-117965977D01*
X114496129Y-117965333D01*
X114496128Y-117965333D01*
X114303498Y-117945087D01*
X114303496Y-117945087D01*
X114297369Y-117944443D01*
X114210529Y-117952346D01*
X114098342Y-117962555D01*
X114098339Y-117962556D01*
X114092203Y-117963114D01*
X113894572Y-118021280D01*
X113889107Y-118024137D01*
X113817729Y-118061453D01*
X113712002Y-118116726D01*
X113707201Y-118120586D01*
X113707198Y-118120588D01*
X113674688Y-118146727D01*
X113551447Y-118245815D01*
X113419024Y-118403630D01*
X113416056Y-118409028D01*
X113416053Y-118409033D01*
X113409315Y-118421290D01*
X113319776Y-118584162D01*
X113257484Y-118780532D01*
X113256798Y-118786649D01*
X113256797Y-118786653D01*
X113244707Y-118894442D01*
X113234520Y-118985262D01*
X112804138Y-118985262D01*
X112785480Y-118794970D01*
X112725935Y-118597749D01*
X112629218Y-118415849D01*
X112553206Y-118322649D01*
X112502906Y-118260975D01*
X112502903Y-118260972D01*
X112499011Y-118256200D01*
X112481786Y-118241950D01*
X112345025Y-118128811D01*
X112345021Y-118128809D01*
X112340275Y-118124882D01*
X112334854Y-118121951D01*
X112334850Y-118121948D01*
X112166572Y-118030961D01*
X112116163Y-117980966D01*
X112100500Y-117920125D01*
X112100500Y-106858824D01*
X112102533Y-106839725D01*
X112102760Y-106834917D01*
X112104951Y-106824739D01*
X112101373Y-106794509D01*
X112101063Y-106789254D01*
X112100928Y-106789265D01*
X112100500Y-106784087D01*
X112100500Y-106778885D01*
X112097609Y-106761515D01*
X112096773Y-106755644D01*
X112092460Y-106719200D01*
X112092459Y-106719198D01*
X112091236Y-106708861D01*
X112087577Y-106701240D01*
X112086188Y-106692897D01*
X112081243Y-106683732D01*
X112063813Y-106651428D01*
X112061118Y-106646138D01*
X112044159Y-106610820D01*
X112044155Y-106610813D01*
X112040726Y-106603673D01*
X112037408Y-106599726D01*
X112035473Y-106597791D01*
X112034010Y-106596196D01*
X112033746Y-106595706D01*
X112033766Y-106595687D01*
X112033687Y-106595598D01*
X112030778Y-106590206D01*
X111994364Y-106556545D01*
X111990798Y-106553116D01*
X110431505Y-104993823D01*
X111494391Y-104993823D01*
X111512980Y-105135979D01*
X111516597Y-105144199D01*
X111561214Y-105245598D01*
X111570720Y-105267203D01*
X111576497Y-105274076D01*
X111576498Y-105274077D01*
X111642456Y-105352544D01*
X111662970Y-105376948D01*
X111782313Y-105456390D01*
X111919157Y-105499142D01*
X111954200Y-105499784D01*
X112021942Y-105521031D01*
X112040986Y-105536668D01*
X123716217Y-117211899D01*
X123728295Y-117226853D01*
X123731527Y-117230405D01*
X123737175Y-117239152D01*
X123745352Y-117245598D01*
X123761086Y-117258002D01*
X123765021Y-117261499D01*
X123765109Y-117261395D01*
X123769066Y-117264748D01*
X123772747Y-117268429D01*
X123776979Y-117271453D01*
X123787072Y-117278666D01*
X123791818Y-117282229D01*
X123828811Y-117311392D01*
X123836787Y-117314193D01*
X123843669Y-117319111D01*
X123888836Y-117332619D01*
X123894442Y-117334441D01*
X123931423Y-117347428D01*
X123931429Y-117347429D01*
X123938906Y-117350055D01*
X123944044Y-117350500D01*
X123946763Y-117350500D01*
X123948945Y-117350595D01*
X123949480Y-117350755D01*
X123949479Y-117350782D01*
X123949597Y-117350789D01*
X123955464Y-117352544D01*
X124005019Y-117350597D01*
X124009966Y-117350500D01*
X133802628Y-117350500D01*
X133870749Y-117370502D01*
X133891723Y-117387405D01*
X139612595Y-123108277D01*
X139646621Y-123170589D01*
X139649500Y-123197372D01*
X139649500Y-124619577D01*
X139629498Y-124687698D01*
X139575842Y-124734191D01*
X139559919Y-124740199D01*
X139447749Y-124774065D01*
X139265849Y-124870782D01*
X139235932Y-124895182D01*
X139110975Y-124997094D01*
X139110972Y-124997097D01*
X139106200Y-125000989D01*
X139102273Y-125005736D01*
X139102271Y-125005738D01*
X138978811Y-125154975D01*
X138978809Y-125154979D01*
X138974882Y-125159725D01*
X138876897Y-125340945D01*
X138815977Y-125537746D01*
X138815333Y-125543871D01*
X138815333Y-125543872D01*
X138798978Y-125699486D01*
X138794443Y-125742631D01*
X138813114Y-125947797D01*
X138871280Y-126145428D01*
X138966726Y-126327998D01*
X138970586Y-126332799D01*
X138970588Y-126332802D01*
X138980416Y-126345025D01*
X139095815Y-126488553D01*
X139253630Y-126620976D01*
X139259031Y-126623945D01*
X139259041Y-126623952D01*
X139316585Y-126655587D01*
X139366644Y-126705932D01*
X139381537Y-126775349D01*
X139356536Y-126841798D01*
X139299579Y-126884182D01*
X139255884Y-126892001D01*
X139202905Y-126892001D01*
X139196386Y-126892338D01*
X139100794Y-126902257D01*
X139087400Y-126905149D01*
X138933216Y-126956588D01*
X138920038Y-126962761D01*
X138782193Y-127048063D01*
X138770792Y-127057099D01*
X138656261Y-127171829D01*
X138647249Y-127183240D01*
X138562184Y-127321243D01*
X138556037Y-127334424D01*
X138504862Y-127488710D01*
X138501995Y-127502086D01*
X138492328Y-127596438D01*
X138492000Y-127602855D01*
X138492000Y-127977885D01*
X138496475Y-127993124D01*
X138497865Y-127994329D01*
X138505548Y-127996000D01*
X141489884Y-127996000D01*
X141505123Y-127991525D01*
X141506328Y-127990135D01*
X141507999Y-127982452D01*
X141507999Y-127602905D01*
X141507662Y-127596386D01*
X141497743Y-127500794D01*
X141494851Y-127487400D01*
X141443412Y-127333216D01*
X141437239Y-127320038D01*
X141351937Y-127182193D01*
X141342901Y-127170792D01*
X141228171Y-127056261D01*
X141216760Y-127047249D01*
X141078757Y-126962184D01*
X141065576Y-126956037D01*
X140911290Y-126904862D01*
X140897914Y-126901995D01*
X140803562Y-126892328D01*
X140797145Y-126892000D01*
X140745289Y-126892000D01*
X140677168Y-126871998D01*
X140630675Y-126818342D01*
X140620571Y-126748068D01*
X140650065Y-126683488D01*
X140686136Y-126654749D01*
X140728702Y-126632116D01*
X140728708Y-126632112D01*
X140734151Y-126629218D01*
X140824098Y-126555859D01*
X140889025Y-126502906D01*
X140889028Y-126502903D01*
X140893800Y-126499011D01*
X140902452Y-126488553D01*
X141021189Y-126345025D01*
X141021191Y-126345021D01*
X141025118Y-126340275D01*
X141123103Y-126159055D01*
X141184023Y-125962254D01*
X141184922Y-125953705D01*
X141204913Y-125763498D01*
X141204913Y-125763496D01*
X141205557Y-125757369D01*
X141194766Y-125638794D01*
X141187445Y-125558342D01*
X141187444Y-125558339D01*
X141186886Y-125552203D01*
X141128720Y-125354572D01*
X141033274Y-125172002D01*
X141023404Y-125159725D01*
X140908050Y-125016254D01*
X140908050Y-125016253D01*
X140904185Y-125011447D01*
X140746370Y-124879024D01*
X140740972Y-124876056D01*
X140740967Y-124876053D01*
X140571235Y-124782743D01*
X140565838Y-124779776D01*
X140438400Y-124739351D01*
X140379517Y-124699688D01*
X140351425Y-124634486D01*
X140350500Y-124619249D01*
X140350500Y-123050824D01*
X140352533Y-123031725D01*
X140352760Y-123026917D01*
X140354951Y-123016739D01*
X140351373Y-122986509D01*
X140351063Y-122981254D01*
X140350928Y-122981265D01*
X140350500Y-122976087D01*
X140350500Y-122970885D01*
X140347609Y-122953515D01*
X140346773Y-122947644D01*
X140342460Y-122911200D01*
X140342459Y-122911198D01*
X140341236Y-122900861D01*
X140337577Y-122893240D01*
X140336188Y-122884897D01*
X140331243Y-122875732D01*
X140313813Y-122843428D01*
X140311118Y-122838138D01*
X140294159Y-122802820D01*
X140294155Y-122802813D01*
X140290726Y-122795673D01*
X140287408Y-122791726D01*
X140285473Y-122789791D01*
X140284010Y-122788196D01*
X140283746Y-122787706D01*
X140283766Y-122787687D01*
X140283687Y-122787598D01*
X140280778Y-122782206D01*
X140244364Y-122748545D01*
X140240798Y-122745116D01*
X134283783Y-116788101D01*
X134271705Y-116773147D01*
X134268473Y-116769595D01*
X134262825Y-116760848D01*
X134238914Y-116741998D01*
X134234979Y-116738501D01*
X134234891Y-116738605D01*
X134230932Y-116735250D01*
X134227254Y-116731572D01*
X134223029Y-116728553D01*
X134223021Y-116728546D01*
X134212920Y-116721328D01*
X134208173Y-116717764D01*
X134197718Y-116709522D01*
X134171189Y-116688608D01*
X134163213Y-116685807D01*
X134156331Y-116680889D01*
X134111164Y-116667381D01*
X134105558Y-116665559D01*
X134068577Y-116652572D01*
X134068571Y-116652571D01*
X134061094Y-116649945D01*
X134055956Y-116649500D01*
X134053237Y-116649500D01*
X134051055Y-116649405D01*
X134050520Y-116649245D01*
X134050521Y-116649218D01*
X134050403Y-116649211D01*
X134044536Y-116647456D01*
X133994981Y-116649403D01*
X133990034Y-116649500D01*
X124197372Y-116649500D01*
X124129251Y-116629498D01*
X124108277Y-116612595D01*
X123892777Y-116397095D01*
X138492001Y-116397095D01*
X138492338Y-116403614D01*
X138502257Y-116499206D01*
X138505149Y-116512600D01*
X138556588Y-116666784D01*
X138562761Y-116679962D01*
X138648063Y-116817807D01*
X138657099Y-116829208D01*
X138771829Y-116943739D01*
X138783240Y-116952751D01*
X138921243Y-117037816D01*
X138934424Y-117043963D01*
X139088710Y-117095138D01*
X139102086Y-117098005D01*
X139196438Y-117107672D01*
X139202854Y-117108000D01*
X139727885Y-117108000D01*
X139743124Y-117103525D01*
X139744329Y-117102135D01*
X139746000Y-117094452D01*
X139746000Y-117089884D01*
X140254000Y-117089884D01*
X140258475Y-117105123D01*
X140259865Y-117106328D01*
X140267548Y-117107999D01*
X140797095Y-117107999D01*
X140803614Y-117107662D01*
X140899206Y-117097743D01*
X140912600Y-117094851D01*
X141066784Y-117043412D01*
X141079962Y-117037239D01*
X141217807Y-116951937D01*
X141229208Y-116942901D01*
X141343739Y-116828171D01*
X141352751Y-116816760D01*
X141437816Y-116678757D01*
X141443963Y-116665576D01*
X141495138Y-116511290D01*
X141498005Y-116497914D01*
X141507672Y-116403562D01*
X141508000Y-116397146D01*
X141508000Y-116022115D01*
X141503525Y-116006876D01*
X141502135Y-116005671D01*
X141494452Y-116004000D01*
X140272115Y-116004000D01*
X140256876Y-116008475D01*
X140255671Y-116009865D01*
X140254000Y-116017548D01*
X140254000Y-117089884D01*
X139746000Y-117089884D01*
X139746000Y-116022115D01*
X139741525Y-116006876D01*
X139740135Y-116005671D01*
X139732452Y-116004000D01*
X138510116Y-116004000D01*
X138494877Y-116008475D01*
X138493672Y-116009865D01*
X138492001Y-116017548D01*
X138492001Y-116397095D01*
X123892777Y-116397095D01*
X112536994Y-105041312D01*
X112502968Y-104979000D01*
X112501362Y-104970079D01*
X112486596Y-104866968D01*
X112486595Y-104866965D01*
X112485323Y-104858082D01*
X112425984Y-104727572D01*
X112374132Y-104667395D01*
X112338260Y-104625763D01*
X112338257Y-104625760D01*
X112332400Y-104618963D01*
X112212095Y-104540985D01*
X112074739Y-104499907D01*
X112065763Y-104499852D01*
X112065762Y-104499852D01*
X112005555Y-104499484D01*
X111931376Y-104499031D01*
X111793529Y-104538428D01*
X111672280Y-104614930D01*
X111577377Y-104722388D01*
X111516447Y-104852163D01*
X111515066Y-104861035D01*
X111496699Y-104979000D01*
X111494391Y-104993823D01*
X110431505Y-104993823D01*
X108431505Y-102993823D01*
X111494391Y-102993823D01*
X111512980Y-103135979D01*
X111570720Y-103267203D01*
X111576497Y-103274076D01*
X111576498Y-103274077D01*
X111657190Y-103370072D01*
X111662970Y-103376948D01*
X111782313Y-103456390D01*
X111919157Y-103499142D01*
X111928129Y-103499306D01*
X111928132Y-103499307D01*
X111993463Y-103500504D01*
X112062499Y-103501770D01*
X112071533Y-103499307D01*
X112192158Y-103466421D01*
X112192160Y-103466420D01*
X112200817Y-103464060D01*
X112261904Y-103426552D01*
X112315343Y-103393741D01*
X112315344Y-103393741D01*
X112322991Y-103389045D01*
X112329015Y-103382390D01*
X112332427Y-103379557D01*
X112397615Y-103351432D01*
X112412913Y-103350500D01*
X112802628Y-103350500D01*
X112870749Y-103370502D01*
X112891723Y-103387405D01*
X114716217Y-105211899D01*
X114728295Y-105226853D01*
X114731527Y-105230405D01*
X114737175Y-105239152D01*
X114745352Y-105245598D01*
X114761086Y-105258002D01*
X114765021Y-105261499D01*
X114765109Y-105261395D01*
X114769068Y-105264750D01*
X114772746Y-105268428D01*
X114776971Y-105271447D01*
X114776979Y-105271454D01*
X114787080Y-105278672D01*
X114791827Y-105282236D01*
X114828811Y-105311392D01*
X114836787Y-105314193D01*
X114843669Y-105319111D01*
X114853647Y-105322095D01*
X114853649Y-105322096D01*
X114888809Y-105332611D01*
X114894457Y-105334446D01*
X114931423Y-105347428D01*
X114931429Y-105347429D01*
X114938906Y-105350055D01*
X114944044Y-105350500D01*
X114946749Y-105350500D01*
X114948945Y-105350595D01*
X114949480Y-105350755D01*
X114949479Y-105350782D01*
X114949595Y-105350789D01*
X114955463Y-105352544D01*
X115005019Y-105350597D01*
X115009966Y-105350500D01*
X133802628Y-105350500D01*
X133870749Y-105370502D01*
X133891723Y-105387405D01*
X139612595Y-111108277D01*
X139646621Y-111170589D01*
X139649500Y-111197372D01*
X139649500Y-112119577D01*
X139629498Y-112187698D01*
X139575842Y-112234191D01*
X139559919Y-112240199D01*
X139447749Y-112274065D01*
X139265849Y-112370782D01*
X139175902Y-112444141D01*
X139110975Y-112497094D01*
X139110972Y-112497097D01*
X139106200Y-112500989D01*
X139102273Y-112505736D01*
X139102271Y-112505738D01*
X138978811Y-112654975D01*
X138978809Y-112654979D01*
X138974882Y-112659725D01*
X138876897Y-112840945D01*
X138815977Y-113037746D01*
X138815333Y-113043871D01*
X138815333Y-113043872D01*
X138801536Y-113175149D01*
X138794443Y-113242631D01*
X138798388Y-113285979D01*
X138812351Y-113439410D01*
X138813114Y-113447797D01*
X138871280Y-113645428D01*
X138966726Y-113827998D01*
X138970586Y-113832799D01*
X138970588Y-113832802D01*
X139082718Y-113972264D01*
X139095815Y-113988553D01*
X139253630Y-114120976D01*
X139259031Y-114123945D01*
X139259041Y-114123952D01*
X139316585Y-114155587D01*
X139366644Y-114205932D01*
X139381537Y-114275349D01*
X139356536Y-114341798D01*
X139299579Y-114384182D01*
X139255884Y-114392001D01*
X139202905Y-114392001D01*
X139196386Y-114392338D01*
X139100794Y-114402257D01*
X139087400Y-114405149D01*
X138933216Y-114456588D01*
X138920038Y-114462761D01*
X138782193Y-114548063D01*
X138770792Y-114557099D01*
X138656261Y-114671829D01*
X138647249Y-114683240D01*
X138562184Y-114821243D01*
X138556037Y-114834424D01*
X138504862Y-114988710D01*
X138501995Y-115002086D01*
X138492328Y-115096438D01*
X138492000Y-115102855D01*
X138492000Y-115477885D01*
X138496475Y-115493124D01*
X138497865Y-115494329D01*
X138505548Y-115496000D01*
X141489884Y-115496000D01*
X141505123Y-115491525D01*
X141506328Y-115490135D01*
X141507999Y-115482452D01*
X141507999Y-115102905D01*
X141507662Y-115096386D01*
X141497743Y-115000794D01*
X141494851Y-114987400D01*
X141443412Y-114833216D01*
X141437239Y-114820038D01*
X141351937Y-114682193D01*
X141342901Y-114670792D01*
X141228171Y-114556261D01*
X141216760Y-114547249D01*
X141078757Y-114462184D01*
X141065576Y-114456037D01*
X140911290Y-114404862D01*
X140897914Y-114401995D01*
X140803562Y-114392328D01*
X140797145Y-114392000D01*
X140745289Y-114392000D01*
X140677168Y-114371998D01*
X140630675Y-114318342D01*
X140620571Y-114248068D01*
X140650065Y-114183488D01*
X140686136Y-114154749D01*
X140728702Y-114132116D01*
X140728708Y-114132112D01*
X140734151Y-114129218D01*
X140871561Y-114017149D01*
X140889025Y-114002906D01*
X140889028Y-114002903D01*
X140893800Y-113999011D01*
X140902452Y-113988553D01*
X141021189Y-113845025D01*
X141021191Y-113845021D01*
X141025118Y-113840275D01*
X141123103Y-113659055D01*
X141184023Y-113462254D01*
X141184922Y-113453700D01*
X141204913Y-113263498D01*
X141204913Y-113263496D01*
X141205557Y-113257369D01*
X141186886Y-113052203D01*
X141128720Y-112854572D01*
X141033274Y-112672002D01*
X141024011Y-112660480D01*
X140908050Y-112516254D01*
X140908050Y-112516253D01*
X140904185Y-112511447D01*
X140746370Y-112379024D01*
X140740972Y-112376056D01*
X140740967Y-112376053D01*
X140571235Y-112282743D01*
X140565838Y-112279776D01*
X140438400Y-112239351D01*
X140379517Y-112199688D01*
X140351425Y-112134486D01*
X140350500Y-112119249D01*
X140350500Y-111050824D01*
X140352533Y-111031725D01*
X140352760Y-111026917D01*
X140354951Y-111016739D01*
X140351373Y-110986509D01*
X140351063Y-110981254D01*
X140350928Y-110981265D01*
X140350500Y-110976087D01*
X140350500Y-110970885D01*
X140347609Y-110953515D01*
X140346773Y-110947644D01*
X140342460Y-110911200D01*
X140342459Y-110911198D01*
X140341236Y-110900861D01*
X140337577Y-110893240D01*
X140336188Y-110884897D01*
X140326903Y-110867689D01*
X140313813Y-110843428D01*
X140311118Y-110838138D01*
X140294159Y-110802820D01*
X140294155Y-110802813D01*
X140290726Y-110795673D01*
X140287408Y-110791726D01*
X140285473Y-110789791D01*
X140284010Y-110788196D01*
X140283746Y-110787706D01*
X140283766Y-110787687D01*
X140283687Y-110787598D01*
X140280778Y-110782206D01*
X140244364Y-110748545D01*
X140240798Y-110745116D01*
X134283783Y-104788101D01*
X134271705Y-104773147D01*
X134268473Y-104769595D01*
X134262825Y-104760848D01*
X134238914Y-104741998D01*
X134234979Y-104738501D01*
X134234891Y-104738605D01*
X134230932Y-104735250D01*
X134227254Y-104731572D01*
X134223029Y-104728553D01*
X134223021Y-104728546D01*
X134212920Y-104721328D01*
X134208173Y-104717764D01*
X134197718Y-104709522D01*
X134171189Y-104688608D01*
X134163213Y-104685807D01*
X134156331Y-104680889D01*
X134111164Y-104667381D01*
X134105558Y-104665559D01*
X134068577Y-104652572D01*
X134068571Y-104652571D01*
X134061094Y-104649945D01*
X134055956Y-104649500D01*
X134053237Y-104649500D01*
X134051055Y-104649405D01*
X134050520Y-104649245D01*
X134050521Y-104649218D01*
X134050403Y-104649211D01*
X134044536Y-104647456D01*
X133994981Y-104649403D01*
X133990034Y-104649500D01*
X115197372Y-104649500D01*
X115129251Y-104629498D01*
X115108277Y-104612595D01*
X113899516Y-103403834D01*
X138574500Y-103403834D01*
X138577481Y-103435369D01*
X138622366Y-103563184D01*
X138627958Y-103570754D01*
X138627959Y-103570757D01*
X138690335Y-103655206D01*
X138702850Y-103672150D01*
X138710421Y-103677742D01*
X138804243Y-103747041D01*
X138804246Y-103747042D01*
X138811816Y-103752634D01*
X138939631Y-103797519D01*
X138947277Y-103798242D01*
X138947278Y-103798242D01*
X138953248Y-103798806D01*
X138971166Y-103800500D01*
X140528834Y-103800500D01*
X140546752Y-103798806D01*
X140552722Y-103798242D01*
X140552723Y-103798242D01*
X140560369Y-103797519D01*
X140688184Y-103752634D01*
X140695754Y-103747042D01*
X140695757Y-103747041D01*
X140789579Y-103677742D01*
X140797150Y-103672150D01*
X140809665Y-103655206D01*
X140872041Y-103570757D01*
X140872042Y-103570754D01*
X140877634Y-103563184D01*
X140922519Y-103435369D01*
X140925500Y-103403834D01*
X140925500Y-102096166D01*
X140922519Y-102064631D01*
X140877634Y-101936816D01*
X140872042Y-101929246D01*
X140872041Y-101929243D01*
X140802742Y-101835421D01*
X140797150Y-101827850D01*
X140780206Y-101815335D01*
X140695757Y-101752959D01*
X140695754Y-101752958D01*
X140688184Y-101747366D01*
X140560369Y-101702481D01*
X140552723Y-101701758D01*
X140552722Y-101701758D01*
X140546752Y-101701194D01*
X140528834Y-101699500D01*
X138971166Y-101699500D01*
X138953248Y-101701194D01*
X138947278Y-101701758D01*
X138947277Y-101701758D01*
X138939631Y-101702481D01*
X138811816Y-101747366D01*
X138804246Y-101752958D01*
X138804243Y-101752959D01*
X138719794Y-101815335D01*
X138702850Y-101827850D01*
X138697258Y-101835421D01*
X138627959Y-101929243D01*
X138627958Y-101929246D01*
X138622366Y-101936816D01*
X138577481Y-102064631D01*
X138574500Y-102096166D01*
X138574500Y-103403834D01*
X113899516Y-103403834D01*
X113283783Y-102788101D01*
X113271705Y-102773147D01*
X113268473Y-102769595D01*
X113262825Y-102760848D01*
X113238914Y-102741998D01*
X113234979Y-102738501D01*
X113234891Y-102738605D01*
X113230932Y-102735250D01*
X113227254Y-102731572D01*
X113223029Y-102728553D01*
X113223021Y-102728546D01*
X113212920Y-102721328D01*
X113208173Y-102717764D01*
X113197718Y-102709522D01*
X113171189Y-102688608D01*
X113163213Y-102685807D01*
X113156331Y-102680889D01*
X113111164Y-102667381D01*
X113105558Y-102665559D01*
X113068577Y-102652572D01*
X113068571Y-102652571D01*
X113061094Y-102649945D01*
X113055956Y-102649500D01*
X113053237Y-102649500D01*
X113051055Y-102649405D01*
X113050520Y-102649245D01*
X113050521Y-102649218D01*
X113050403Y-102649211D01*
X113044536Y-102647456D01*
X112994981Y-102649403D01*
X112990034Y-102649500D01*
X112412704Y-102649500D01*
X112344583Y-102629498D01*
X112335779Y-102622884D01*
X112332400Y-102618963D01*
X112212095Y-102540985D01*
X112074739Y-102499907D01*
X112065763Y-102499852D01*
X112065762Y-102499852D01*
X112005555Y-102499484D01*
X111931376Y-102499031D01*
X111793529Y-102538428D01*
X111672280Y-102614930D01*
X111577377Y-102722388D01*
X111516447Y-102852163D01*
X111494391Y-102993823D01*
X108431505Y-102993823D01*
X105448254Y-100010572D01*
X105448251Y-100010570D01*
X105181504Y-99743823D01*
X106744391Y-99743823D01*
X106762980Y-99885979D01*
X106820720Y-100017203D01*
X106826497Y-100024076D01*
X106826498Y-100024077D01*
X106877747Y-100085045D01*
X106912970Y-100126948D01*
X106920447Y-100131925D01*
X107019116Y-100197605D01*
X107032313Y-100206390D01*
X107169157Y-100249142D01*
X107178129Y-100249306D01*
X107178132Y-100249307D01*
X107243463Y-100250504D01*
X107312499Y-100251770D01*
X107321533Y-100249307D01*
X107346020Y-100242631D01*
X138569443Y-100242631D01*
X138573436Y-100286506D01*
X138586078Y-100425420D01*
X138588114Y-100447797D01*
X138646280Y-100645428D01*
X138741726Y-100827998D01*
X138745586Y-100832799D01*
X138745588Y-100832802D01*
X138854875Y-100968728D01*
X138870815Y-100988553D01*
X139028630Y-101120976D01*
X139034028Y-101123944D01*
X139034033Y-101123947D01*
X139183998Y-101206390D01*
X139209162Y-101220224D01*
X139405532Y-101282516D01*
X139411649Y-101283202D01*
X139411653Y-101283203D01*
X139487874Y-101291752D01*
X139565864Y-101300500D01*
X139926841Y-101300500D01*
X140080030Y-101285480D01*
X140277251Y-101225935D01*
X140459151Y-101129218D01*
X140577427Y-101032754D01*
X140614025Y-101002906D01*
X140614028Y-101002903D01*
X140618800Y-100999011D01*
X140627452Y-100988553D01*
X140746189Y-100845025D01*
X140746191Y-100845021D01*
X140750118Y-100840275D01*
X140848103Y-100659055D01*
X140909023Y-100462254D01*
X140909667Y-100456128D01*
X140929913Y-100263498D01*
X140929913Y-100263496D01*
X140930557Y-100257369D01*
X140921154Y-100154043D01*
X140912445Y-100058342D01*
X140912444Y-100058339D01*
X140911886Y-100052203D01*
X140853720Y-99854572D01*
X140846563Y-99840881D01*
X140795821Y-99743823D01*
X140758274Y-99672002D01*
X140748404Y-99659725D01*
X140633050Y-99516254D01*
X140633050Y-99516253D01*
X140629185Y-99511447D01*
X140471370Y-99379024D01*
X140465972Y-99376056D01*
X140465967Y-99376053D01*
X140296235Y-99282743D01*
X140290838Y-99279776D01*
X140094468Y-99217484D01*
X140088351Y-99216798D01*
X140088347Y-99216797D01*
X140012126Y-99208248D01*
X139934136Y-99199500D01*
X139573159Y-99199500D01*
X139419970Y-99214520D01*
X139222749Y-99274065D01*
X139040849Y-99370782D01*
X138966100Y-99431746D01*
X138885975Y-99497094D01*
X138885972Y-99497097D01*
X138881200Y-99500989D01*
X138877273Y-99505736D01*
X138877271Y-99505738D01*
X138753811Y-99654975D01*
X138753809Y-99654979D01*
X138749882Y-99659725D01*
X138651897Y-99840945D01*
X138590977Y-100037746D01*
X138590333Y-100043871D01*
X138590333Y-100043872D01*
X138570173Y-100235690D01*
X138569443Y-100242631D01*
X107346020Y-100242631D01*
X107442158Y-100216421D01*
X107442160Y-100216420D01*
X107450817Y-100214060D01*
X107572991Y-100139045D01*
X107582235Y-100128833D01*
X107663178Y-100039407D01*
X107669200Y-100032754D01*
X107731710Y-99903733D01*
X107753299Y-99775414D01*
X107788458Y-99707224D01*
X111977102Y-95518580D01*
X138293752Y-95518580D01*
X138318477Y-95636421D01*
X138321537Y-95646617D01*
X138402263Y-95851029D01*
X138406994Y-95860561D01*
X138521016Y-96048462D01*
X138527280Y-96057052D01*
X138671327Y-96223052D01*
X138678958Y-96230472D01*
X138848911Y-96369826D01*
X138857678Y-96375850D01*
X139048682Y-96484576D01*
X139058346Y-96489041D01*
X139208553Y-96543564D01*
X139265761Y-96585609D01*
X139291157Y-96651908D01*
X139276677Y-96721412D01*
X139226919Y-96772055D01*
X139222765Y-96774060D01*
X139222749Y-96774065D01*
X139040849Y-96870782D01*
X138966496Y-96931423D01*
X138885975Y-96997094D01*
X138885972Y-96997097D01*
X138881200Y-97000989D01*
X138877273Y-97005736D01*
X138877271Y-97005738D01*
X138753811Y-97154975D01*
X138753809Y-97154979D01*
X138749882Y-97159725D01*
X138651897Y-97340945D01*
X138590977Y-97537746D01*
X138590333Y-97543871D01*
X138590333Y-97543872D01*
X138589458Y-97552203D01*
X138569443Y-97742631D01*
X138588114Y-97947797D01*
X138646280Y-98145428D01*
X138741726Y-98327998D01*
X138745586Y-98332799D01*
X138745588Y-98332802D01*
X138829735Y-98437460D01*
X138870815Y-98488553D01*
X139028630Y-98620976D01*
X139034028Y-98623944D01*
X139034033Y-98623947D01*
X139203765Y-98717257D01*
X139209162Y-98720224D01*
X139405532Y-98782516D01*
X139411649Y-98783202D01*
X139411653Y-98783203D01*
X139487874Y-98791752D01*
X139565864Y-98800500D01*
X139926841Y-98800500D01*
X140080030Y-98785480D01*
X140277251Y-98725935D01*
X140459151Y-98629218D01*
X140549098Y-98555859D01*
X140614025Y-98502906D01*
X140614028Y-98502903D01*
X140618800Y-98499011D01*
X140627452Y-98488553D01*
X140746189Y-98345025D01*
X140746191Y-98345021D01*
X140750118Y-98340275D01*
X140848103Y-98159055D01*
X140909023Y-97962254D01*
X140909922Y-97953705D01*
X140929913Y-97763498D01*
X140929913Y-97763496D01*
X140930557Y-97757369D01*
X140911886Y-97552203D01*
X140853720Y-97354572D01*
X140758274Y-97172002D01*
X140748404Y-97159725D01*
X140633050Y-97016254D01*
X140633050Y-97016253D01*
X140629185Y-97011447D01*
X140471370Y-96879024D01*
X140465972Y-96876056D01*
X140465967Y-96876053D01*
X140339542Y-96806551D01*
X140290838Y-96779776D01*
X140287022Y-96778566D01*
X140232866Y-96733824D01*
X140211268Y-96666193D01*
X140229663Y-96597620D01*
X140282210Y-96549879D01*
X140305579Y-96541271D01*
X140322535Y-96536870D01*
X140332575Y-96533335D01*
X140532970Y-96443063D01*
X140542256Y-96437894D01*
X140724575Y-96315150D01*
X140732870Y-96308481D01*
X140891900Y-96156772D01*
X140898941Y-96148814D01*
X141030141Y-95972475D01*
X141035745Y-95963438D01*
X141135357Y-95767516D01*
X141139357Y-95757665D01*
X141204534Y-95547760D01*
X141206817Y-95537376D01*
X141208861Y-95521957D01*
X141206665Y-95507793D01*
X141193478Y-95504000D01*
X138308808Y-95504000D01*
X138295277Y-95507973D01*
X138293752Y-95518580D01*
X111977102Y-95518580D01*
X112517639Y-94978043D01*
X138291139Y-94978043D01*
X138293335Y-94992207D01*
X138306522Y-94996000D01*
X139477885Y-94996000D01*
X139493124Y-94991525D01*
X139494329Y-94990135D01*
X139496000Y-94982452D01*
X139496000Y-94977885D01*
X140004000Y-94977885D01*
X140008475Y-94993124D01*
X140009865Y-94994329D01*
X140017548Y-94996000D01*
X141191192Y-94996000D01*
X141204723Y-94992027D01*
X141206248Y-94981420D01*
X141181523Y-94863579D01*
X141178463Y-94853383D01*
X141097737Y-94648971D01*
X141093006Y-94639439D01*
X140978984Y-94451538D01*
X140972720Y-94442948D01*
X140828673Y-94276948D01*
X140821042Y-94269528D01*
X140651089Y-94130174D01*
X140642322Y-94124150D01*
X140451318Y-94015424D01*
X140441654Y-94010959D01*
X140235059Y-93935969D01*
X140224792Y-93933198D01*
X140021826Y-93896496D01*
X140008586Y-93897915D01*
X140004000Y-93912550D01*
X140004000Y-94977885D01*
X139496000Y-94977885D01*
X139496000Y-93916151D01*
X139491690Y-93901473D01*
X139479807Y-93899410D01*
X139400675Y-93906124D01*
X139390203Y-93907914D01*
X139177465Y-93963130D01*
X139167425Y-93966665D01*
X138967030Y-94056937D01*
X138957744Y-94062106D01*
X138775425Y-94184850D01*
X138767130Y-94191519D01*
X138608100Y-94343228D01*
X138601059Y-94351186D01*
X138469859Y-94527525D01*
X138464255Y-94536562D01*
X138364643Y-94732484D01*
X138360643Y-94742335D01*
X138295466Y-94952240D01*
X138293183Y-94962624D01*
X138291139Y-94978043D01*
X112517639Y-94978043D01*
X114961899Y-92533783D01*
X114976853Y-92521705D01*
X114980405Y-92518473D01*
X114989152Y-92512825D01*
X115008002Y-92488914D01*
X115011499Y-92484979D01*
X115011395Y-92484891D01*
X115014748Y-92480934D01*
X115018429Y-92477253D01*
X115028667Y-92462927D01*
X115032230Y-92458181D01*
X115054947Y-92429364D01*
X115061392Y-92421189D01*
X115064193Y-92413213D01*
X115069111Y-92406331D01*
X115082619Y-92361164D01*
X115084441Y-92355558D01*
X115097428Y-92318577D01*
X115097429Y-92318571D01*
X115100055Y-92311094D01*
X115100500Y-92305956D01*
X115100500Y-92303237D01*
X115100595Y-92301055D01*
X115100755Y-92300520D01*
X115100782Y-92300521D01*
X115100789Y-92300403D01*
X115102544Y-92294536D01*
X115100597Y-92244981D01*
X115100500Y-92240034D01*
X115100500Y-78955361D01*
X139045316Y-78955361D01*
X139057443Y-79207820D01*
X139106752Y-79455713D01*
X139108331Y-79460111D01*
X139108333Y-79460118D01*
X139190577Y-79689186D01*
X139192160Y-79693595D01*
X139311792Y-79916240D01*
X139314587Y-79919984D01*
X139314589Y-79919986D01*
X139460226Y-80115018D01*
X139460231Y-80115024D01*
X139463018Y-80118756D01*
X139466327Y-80122036D01*
X139466332Y-80122042D01*
X139639200Y-80293408D01*
X139642517Y-80296696D01*
X139646279Y-80299454D01*
X139646282Y-80299457D01*
X139842575Y-80443384D01*
X139846346Y-80446149D01*
X139850481Y-80448325D01*
X139850485Y-80448327D01*
X139967952Y-80510129D01*
X140070026Y-80563833D01*
X140308644Y-80647162D01*
X140313237Y-80648034D01*
X140552369Y-80693435D01*
X140552372Y-80693435D01*
X140556958Y-80694306D01*
X140677081Y-80699026D01*
X140804845Y-80704046D01*
X140804850Y-80704046D01*
X140809513Y-80704229D01*
X140887657Y-80695671D01*
X141056107Y-80677223D01*
X141056112Y-80677222D01*
X141060760Y-80676713D01*
X141178861Y-80645620D01*
X141300658Y-80613554D01*
X141300661Y-80613553D01*
X141305181Y-80612363D01*
X141537405Y-80512591D01*
X141644774Y-80446149D01*
X141748358Y-80382050D01*
X141748362Y-80382047D01*
X141752331Y-80379591D01*
X141846989Y-80299457D01*
X141941672Y-80219302D01*
X141941673Y-80219301D01*
X141945238Y-80216283D01*
X142027886Y-80122042D01*
X142108806Y-80029771D01*
X142108810Y-80029766D01*
X142111888Y-80026256D01*
X142182653Y-79916240D01*
X142246094Y-79817610D01*
X142246096Y-79817607D01*
X142248619Y-79813684D01*
X142352428Y-79583236D01*
X142421034Y-79339976D01*
X142437263Y-79212409D01*
X142452533Y-79092378D01*
X142452533Y-79092372D01*
X142452931Y-79089247D01*
X142455268Y-79000000D01*
X142436537Y-78747945D01*
X142380756Y-78501428D01*
X142289150Y-78265863D01*
X142163731Y-78046426D01*
X142007255Y-77847938D01*
X141823160Y-77674758D01*
X141647275Y-77552742D01*
X141619331Y-77533356D01*
X141619328Y-77533354D01*
X141615489Y-77530691D01*
X141611296Y-77528623D01*
X141392993Y-77420968D01*
X141392990Y-77420967D01*
X141388805Y-77418903D01*
X141344379Y-77404682D01*
X141249955Y-77374457D01*
X141148087Y-77341849D01*
X141143480Y-77341099D01*
X141143477Y-77341098D01*
X140903235Y-77301972D01*
X140903236Y-77301972D01*
X140898624Y-77301221D01*
X140776026Y-77299616D01*
X140650573Y-77297974D01*
X140650570Y-77297974D01*
X140645896Y-77297913D01*
X140395455Y-77331996D01*
X140390965Y-77333305D01*
X140390959Y-77333306D01*
X140287851Y-77363360D01*
X140152803Y-77402723D01*
X140148556Y-77404681D01*
X140148553Y-77404682D01*
X140113226Y-77420968D01*
X139923270Y-77508539D01*
X139919361Y-77511102D01*
X139715812Y-77644554D01*
X139715807Y-77644558D01*
X139711899Y-77647120D01*
X139523333Y-77815421D01*
X139361715Y-78009746D01*
X139230595Y-78225825D01*
X139228786Y-78230139D01*
X139228785Y-78230141D01*
X139213806Y-78265863D01*
X139132854Y-78458911D01*
X139070639Y-78703883D01*
X139045316Y-78955361D01*
X115100500Y-78955361D01*
X115100500Y-77703516D01*
X115120502Y-77635395D01*
X115168124Y-77591855D01*
X115322533Y-77511131D01*
X115327998Y-77508274D01*
X115332799Y-77504414D01*
X115332802Y-77504412D01*
X115483746Y-77383050D01*
X115483747Y-77383050D01*
X115488553Y-77379185D01*
X115620976Y-77221370D01*
X115623944Y-77215972D01*
X115623947Y-77215967D01*
X115717257Y-77046235D01*
X115720224Y-77040838D01*
X115782516Y-76844468D01*
X115783474Y-76835932D01*
X115800107Y-76687636D01*
X115800500Y-76684136D01*
X115800500Y-76273159D01*
X115785480Y-76119970D01*
X115725935Y-75922749D01*
X115629218Y-75740849D01*
X115540756Y-75632384D01*
X115502906Y-75585975D01*
X115502903Y-75585972D01*
X115499011Y-75581200D01*
X115446313Y-75537604D01*
X115358150Y-75464669D01*
X138742001Y-75464669D01*
X138742371Y-75471490D01*
X138747895Y-75522352D01*
X138751521Y-75537604D01*
X138796676Y-75658054D01*
X138805214Y-75673649D01*
X138881715Y-75775724D01*
X138894276Y-75788285D01*
X138996351Y-75864786D01*
X139011946Y-75873324D01*
X139132394Y-75918478D01*
X139147649Y-75922105D01*
X139198514Y-75927631D01*
X139205328Y-75928000D01*
X140477885Y-75928000D01*
X140493124Y-75923525D01*
X140494329Y-75922135D01*
X140496000Y-75914452D01*
X140496000Y-75909884D01*
X141004000Y-75909884D01*
X141008475Y-75925123D01*
X141009865Y-75926328D01*
X141017548Y-75927999D01*
X142294669Y-75927999D01*
X142301490Y-75927629D01*
X142352352Y-75922105D01*
X142367604Y-75918479D01*
X142488054Y-75873324D01*
X142503649Y-75864786D01*
X142605724Y-75788285D01*
X142618285Y-75775724D01*
X142694786Y-75673649D01*
X142703324Y-75658054D01*
X142748478Y-75537606D01*
X142752105Y-75522351D01*
X142757631Y-75471486D01*
X142758000Y-75464672D01*
X142758000Y-74192115D01*
X142753525Y-74176876D01*
X142752135Y-74175671D01*
X142744452Y-74174000D01*
X141022115Y-74174000D01*
X141006876Y-74178475D01*
X141005671Y-74179865D01*
X141004000Y-74187548D01*
X141004000Y-75909884D01*
X140496000Y-75909884D01*
X140496000Y-74192115D01*
X140491525Y-74176876D01*
X140490135Y-74175671D01*
X140482452Y-74174000D01*
X138760116Y-74174000D01*
X138744877Y-74178475D01*
X138743672Y-74179865D01*
X138742001Y-74187548D01*
X138742001Y-75464669D01*
X115358150Y-75464669D01*
X115345025Y-75453811D01*
X115345021Y-75453809D01*
X115340275Y-75449882D01*
X115159055Y-75351897D01*
X114962254Y-75290977D01*
X114956129Y-75290333D01*
X114956128Y-75290333D01*
X114763498Y-75270087D01*
X114763496Y-75270087D01*
X114757369Y-75269443D01*
X114676988Y-75276758D01*
X114558342Y-75287555D01*
X114558339Y-75287556D01*
X114552203Y-75288114D01*
X114354572Y-75346280D01*
X114172002Y-75441726D01*
X114167201Y-75445586D01*
X114167198Y-75445588D01*
X114094246Y-75504243D01*
X114011447Y-75570815D01*
X113879024Y-75728630D01*
X113876056Y-75734028D01*
X113876053Y-75734033D01*
X113846228Y-75788285D01*
X113779776Y-75909162D01*
X113717484Y-76105532D01*
X113716798Y-76111649D01*
X113716797Y-76111653D01*
X113708248Y-76187874D01*
X113699500Y-76265864D01*
X113699500Y-76676841D01*
X113714520Y-76830030D01*
X113774065Y-77027251D01*
X113870782Y-77209151D01*
X113925198Y-77275871D01*
X113997094Y-77364025D01*
X113997097Y-77364028D01*
X114000989Y-77368800D01*
X114005736Y-77372727D01*
X114005738Y-77372729D01*
X114154975Y-77496189D01*
X114154979Y-77496191D01*
X114159725Y-77500118D01*
X114165145Y-77503048D01*
X114165150Y-77503052D01*
X114333428Y-77594039D01*
X114383837Y-77644034D01*
X114399500Y-77704875D01*
X114399500Y-92052628D01*
X114379498Y-92120749D01*
X114362595Y-92141723D01*
X107292063Y-99212255D01*
X107229751Y-99246281D01*
X107202200Y-99249158D01*
X107194310Y-99249110D01*
X107181376Y-99249031D01*
X107043529Y-99288428D01*
X106922280Y-99364930D01*
X106916338Y-99371658D01*
X106916337Y-99371659D01*
X106881010Y-99411660D01*
X106827377Y-99472388D01*
X106766447Y-99602163D01*
X106763609Y-99620393D01*
X106749167Y-99713149D01*
X106744391Y-99743823D01*
X105181504Y-99743823D01*
X104683275Y-99245593D01*
X104649251Y-99183283D01*
X104654316Y-99112467D01*
X104696863Y-99055632D01*
X104763383Y-99030821D01*
X104772372Y-99030500D01*
X105269176Y-99030500D01*
X105288275Y-99032533D01*
X105293083Y-99032760D01*
X105303261Y-99034951D01*
X105333491Y-99031373D01*
X105338746Y-99031063D01*
X105338735Y-99030928D01*
X105343914Y-99030500D01*
X105349115Y-99030500D01*
X105354243Y-99029646D01*
X105354249Y-99029646D01*
X105366473Y-99027611D01*
X105372349Y-99026774D01*
X105408799Y-99022460D01*
X105408801Y-99022460D01*
X105419138Y-99021236D01*
X105426758Y-99017577D01*
X105435103Y-99016188D01*
X105476584Y-98993806D01*
X105481870Y-98991113D01*
X105524326Y-98970726D01*
X105528274Y-98967408D01*
X105530207Y-98965475D01*
X105531804Y-98964010D01*
X105532294Y-98963746D01*
X105532313Y-98963766D01*
X105532402Y-98963687D01*
X105537794Y-98960778D01*
X105571455Y-98924364D01*
X105574884Y-98920798D01*
X112461899Y-92033783D01*
X112476853Y-92021705D01*
X112480405Y-92018473D01*
X112489152Y-92012825D01*
X112508002Y-91988914D01*
X112511499Y-91984979D01*
X112511395Y-91984891D01*
X112514750Y-91980932D01*
X112518428Y-91977254D01*
X112521447Y-91973029D01*
X112521454Y-91973021D01*
X112528672Y-91962920D01*
X112532236Y-91958173D01*
X112554946Y-91929365D01*
X112561392Y-91921189D01*
X112564193Y-91913213D01*
X112569111Y-91906331D01*
X112582619Y-91861164D01*
X112584441Y-91855558D01*
X112597428Y-91818577D01*
X112597429Y-91818571D01*
X112600055Y-91811094D01*
X112600500Y-91805956D01*
X112600500Y-91803237D01*
X112600595Y-91801055D01*
X112600755Y-91800520D01*
X112600782Y-91800521D01*
X112600789Y-91800403D01*
X112602544Y-91794536D01*
X112600597Y-91744981D01*
X112600500Y-91740034D01*
X112600500Y-77801500D01*
X112620502Y-77733379D01*
X112674158Y-77686886D01*
X112726500Y-77675500D01*
X112903834Y-77675500D01*
X112921752Y-77673806D01*
X112927722Y-77673242D01*
X112927723Y-77673242D01*
X112935369Y-77672519D01*
X113063184Y-77627634D01*
X113070754Y-77622042D01*
X113070757Y-77622041D01*
X113164579Y-77552742D01*
X113172150Y-77547150D01*
X113200669Y-77508539D01*
X113247041Y-77445757D01*
X113247042Y-77445754D01*
X113252634Y-77438184D01*
X113297519Y-77310369D01*
X113300500Y-77278834D01*
X113300500Y-75671166D01*
X113297519Y-75639631D01*
X113252634Y-75511816D01*
X113247042Y-75504246D01*
X113247041Y-75504243D01*
X113177742Y-75410421D01*
X113172150Y-75402850D01*
X113155206Y-75390335D01*
X113070757Y-75327959D01*
X113070754Y-75327958D01*
X113063184Y-75322366D01*
X112935369Y-75277481D01*
X112927723Y-75276758D01*
X112927722Y-75276758D01*
X112921752Y-75276194D01*
X112903834Y-75274500D01*
X111596166Y-75274500D01*
X111578248Y-75276194D01*
X111572278Y-75276758D01*
X111572277Y-75276758D01*
X111564631Y-75277481D01*
X111436816Y-75322366D01*
X111429246Y-75327958D01*
X111429243Y-75327959D01*
X111344794Y-75390335D01*
X111327850Y-75402850D01*
X111322258Y-75410421D01*
X111252959Y-75504243D01*
X111252958Y-75504246D01*
X111247366Y-75511816D01*
X111202481Y-75639631D01*
X111199500Y-75671166D01*
X111199500Y-77278834D01*
X111202481Y-77310369D01*
X111247366Y-77438184D01*
X111252958Y-77445754D01*
X111252959Y-77445757D01*
X111299331Y-77508539D01*
X111327850Y-77547150D01*
X111335421Y-77552742D01*
X111429243Y-77622041D01*
X111429246Y-77622042D01*
X111436816Y-77627634D01*
X111564631Y-77672519D01*
X111572277Y-77673242D01*
X111572278Y-77673242D01*
X111578248Y-77673806D01*
X111596166Y-77675500D01*
X111773500Y-77675500D01*
X111841621Y-77695502D01*
X111888114Y-77749158D01*
X111899500Y-77801500D01*
X111899500Y-91552628D01*
X111879498Y-91620749D01*
X111862595Y-91641723D01*
X105211723Y-98292595D01*
X105149411Y-98326621D01*
X105122628Y-98329500D01*
X103677002Y-98329500D01*
X103672404Y-98329211D01*
X103666536Y-98327456D01*
X103616981Y-98329403D01*
X103612034Y-98329500D01*
X97322824Y-98329500D01*
X97303725Y-98327467D01*
X97298917Y-98327240D01*
X97288739Y-98325049D01*
X97259523Y-98328507D01*
X97258509Y-98328627D01*
X97253254Y-98328937D01*
X97253265Y-98329072D01*
X97248087Y-98329500D01*
X97242885Y-98329500D01*
X97225515Y-98332391D01*
X97219644Y-98333227D01*
X97183200Y-98337540D01*
X97183198Y-98337541D01*
X97172861Y-98338764D01*
X97165240Y-98342423D01*
X97156897Y-98343812D01*
X97147733Y-98348757D01*
X97147732Y-98348757D01*
X97115428Y-98366187D01*
X97110138Y-98368882D01*
X97074827Y-98385838D01*
X97074823Y-98385841D01*
X97067673Y-98389274D01*
X97063726Y-98392593D01*
X97061794Y-98394525D01*
X97060199Y-98395988D01*
X97059719Y-98396248D01*
X97059697Y-98396224D01*
X97059594Y-98396315D01*
X97054206Y-98399222D01*
X97047136Y-98406870D01*
X97020534Y-98435647D01*
X97017106Y-98439212D01*
X96552101Y-98904217D01*
X96537147Y-98916295D01*
X96533595Y-98919527D01*
X96524848Y-98925175D01*
X96518402Y-98933352D01*
X96505998Y-98949086D01*
X96502501Y-98953021D01*
X96502605Y-98953109D01*
X96499250Y-98957068D01*
X96495572Y-98960746D01*
X96492553Y-98964971D01*
X96492546Y-98964979D01*
X96485328Y-98975080D01*
X96481764Y-98979827D01*
X96452608Y-99016811D01*
X96449807Y-99024787D01*
X96444889Y-99031669D01*
X96431381Y-99076836D01*
X96429559Y-99082442D01*
X96416572Y-99119423D01*
X96416571Y-99119429D01*
X96413945Y-99126906D01*
X96413500Y-99132044D01*
X96413500Y-99134763D01*
X96413405Y-99136945D01*
X96413245Y-99137480D01*
X96413218Y-99137479D01*
X96413211Y-99137597D01*
X96411456Y-99143464D01*
X96411865Y-99153872D01*
X96413403Y-99193019D01*
X96413500Y-99197966D01*
X96413500Y-99289050D01*
X96393498Y-99357171D01*
X96381942Y-99372457D01*
X96341377Y-99418388D01*
X96280447Y-99548163D01*
X96279066Y-99557035D01*
X96260315Y-99677467D01*
X96258391Y-99689823D01*
X95100500Y-99689823D01*
X95100500Y-97197372D01*
X95120502Y-97129251D01*
X95137405Y-97108277D01*
X98707281Y-93538401D01*
X98769593Y-93504375D01*
X98798683Y-93501517D01*
X98803520Y-93501606D01*
X98803525Y-93501605D01*
X98812499Y-93501770D01*
X98821163Y-93499408D01*
X98942158Y-93466421D01*
X98942160Y-93466420D01*
X98950817Y-93464060D01*
X99072991Y-93389045D01*
X99169200Y-93282754D01*
X99231710Y-93153733D01*
X99255496Y-93012354D01*
X99255647Y-93000000D01*
X99235323Y-92858082D01*
X99175984Y-92727572D01*
X99157598Y-92706234D01*
X99088260Y-92625763D01*
X99088257Y-92625760D01*
X99082400Y-92618963D01*
X98962095Y-92540985D01*
X98824739Y-92499907D01*
X98815763Y-92499852D01*
X98815762Y-92499852D01*
X98755555Y-92499484D01*
X98681376Y-92499031D01*
X98543529Y-92538428D01*
X98422280Y-92614930D01*
X98327377Y-92722388D01*
X98266447Y-92852163D01*
X98265066Y-92861035D01*
X98247748Y-92972264D01*
X98217504Y-93036497D01*
X98212343Y-93041975D01*
X94538101Y-96716217D01*
X94523147Y-96728295D01*
X94519595Y-96731527D01*
X94510848Y-96737175D01*
X94504402Y-96745352D01*
X94491998Y-96761086D01*
X94488501Y-96765021D01*
X94488605Y-96765109D01*
X94485250Y-96769068D01*
X94481572Y-96772746D01*
X94478553Y-96776971D01*
X94478546Y-96776979D01*
X94471328Y-96787080D01*
X94467764Y-96791827D01*
X94438608Y-96828811D01*
X94435807Y-96836787D01*
X94430889Y-96843669D01*
X94417381Y-96888836D01*
X94415559Y-96894442D01*
X94402572Y-96931423D01*
X94402571Y-96931429D01*
X94399945Y-96938906D01*
X94399500Y-96944044D01*
X94399500Y-96946763D01*
X94399405Y-96948945D01*
X94399245Y-96949480D01*
X94399218Y-96949479D01*
X94399211Y-96949597D01*
X94397456Y-96955464D01*
X94397865Y-96965872D01*
X94399403Y-97005019D01*
X94399500Y-97009966D01*
X94399500Y-100343050D01*
X94379498Y-100411171D01*
X94367942Y-100426457D01*
X94327377Y-100472388D01*
X94323563Y-100480512D01*
X94323562Y-100480513D01*
X94306942Y-100515913D01*
X94266447Y-100602163D01*
X94257975Y-100656578D01*
X94249277Y-100712440D01*
X94232148Y-100748819D01*
X94017080Y-100748819D01*
X94000050Y-100710918D01*
X93986596Y-100616968D01*
X93986595Y-100616965D01*
X93985323Y-100608082D01*
X93979602Y-100595498D01*
X93951171Y-100532968D01*
X93925984Y-100477572D01*
X93881047Y-100425420D01*
X93851733Y-100360757D01*
X93850500Y-100343172D01*
X93850500Y-96447372D01*
X93870502Y-96379251D01*
X93887405Y-96358277D01*
X96957281Y-93288401D01*
X97019593Y-93254375D01*
X97048683Y-93251517D01*
X97053520Y-93251606D01*
X97053525Y-93251605D01*
X97062499Y-93251770D01*
X97071163Y-93249408D01*
X97192158Y-93216421D01*
X97192160Y-93216420D01*
X97200817Y-93214060D01*
X97322991Y-93139045D01*
X97419200Y-93032754D01*
X97481710Y-92903733D01*
X97505496Y-92762354D01*
X97505647Y-92750000D01*
X97487855Y-92625763D01*
X97486596Y-92616968D01*
X97486595Y-92616965D01*
X97485323Y-92608082D01*
X97425984Y-92477572D01*
X97384445Y-92429364D01*
X97338260Y-92375763D01*
X97338257Y-92375760D01*
X97332400Y-92368963D01*
X97212095Y-92290985D01*
X97074739Y-92249907D01*
X97065763Y-92249852D01*
X97065762Y-92249852D01*
X97005555Y-92249484D01*
X96931376Y-92249031D01*
X96793529Y-92288428D01*
X96672280Y-92364930D01*
X96666338Y-92371658D01*
X96666337Y-92371659D01*
X96637807Y-92403964D01*
X96577377Y-92472388D01*
X96516447Y-92602163D01*
X96497748Y-92722264D01*
X96467504Y-92786497D01*
X96462343Y-92791975D01*
X93288101Y-95966217D01*
X93273147Y-95978295D01*
X93269595Y-95981527D01*
X93260848Y-95987175D01*
X93254402Y-95995352D01*
X93241998Y-96011086D01*
X93238501Y-96015021D01*
X93238605Y-96015109D01*
X93235250Y-96019068D01*
X93231572Y-96022746D01*
X93228553Y-96026971D01*
X93228546Y-96026979D01*
X93221328Y-96037080D01*
X93217764Y-96041827D01*
X93209522Y-96052282D01*
X93188608Y-96078811D01*
X93185807Y-96086787D01*
X93180889Y-96093669D01*
X93167381Y-96138836D01*
X93165559Y-96144442D01*
X93152572Y-96181423D01*
X93152571Y-96181429D01*
X93149945Y-96188906D01*
X93149500Y-96194044D01*
X93149500Y-96196763D01*
X93149405Y-96198945D01*
X93149245Y-96199480D01*
X93149218Y-96199479D01*
X93149211Y-96199597D01*
X93147456Y-96205464D01*
X93147865Y-96215872D01*
X93149403Y-96255019D01*
X93149500Y-96259966D01*
X93149500Y-100343050D01*
X93129498Y-100411171D01*
X93117942Y-100426457D01*
X93077377Y-100472388D01*
X93073563Y-100480512D01*
X93073562Y-100480513D01*
X93056942Y-100515913D01*
X93016447Y-100602163D01*
X93007975Y-100656578D01*
X92998038Y-100720402D01*
X92994391Y-100743823D01*
X50010500Y-100743823D01*
X50010500Y-73647885D01*
X138742000Y-73647885D01*
X138746475Y-73663124D01*
X138747865Y-73664329D01*
X138755548Y-73666000D01*
X140477885Y-73666000D01*
X140493124Y-73661525D01*
X140494329Y-73660135D01*
X140496000Y-73652452D01*
X140496000Y-73647885D01*
X141004000Y-73647885D01*
X141008475Y-73663124D01*
X141009865Y-73664329D01*
X141017548Y-73666000D01*
X142739884Y-73666000D01*
X142755123Y-73661525D01*
X142756328Y-73660135D01*
X142757999Y-73652452D01*
X142757999Y-72375331D01*
X142757629Y-72368510D01*
X142752105Y-72317648D01*
X142748479Y-72302396D01*
X142703324Y-72181946D01*
X142694786Y-72166351D01*
X142618285Y-72064276D01*
X142605724Y-72051715D01*
X142503649Y-71975214D01*
X142488054Y-71966676D01*
X142367606Y-71921522D01*
X142352351Y-71917895D01*
X142301486Y-71912369D01*
X142294672Y-71912000D01*
X141022115Y-71912000D01*
X141006876Y-71916475D01*
X141005671Y-71917865D01*
X141004000Y-71925548D01*
X141004000Y-73647885D01*
X140496000Y-73647885D01*
X140496000Y-71930116D01*
X140491525Y-71914877D01*
X140490135Y-71913672D01*
X140482452Y-71912001D01*
X139205331Y-71912001D01*
X139198510Y-71912371D01*
X139147648Y-71917895D01*
X139132396Y-71921521D01*
X139011946Y-71966676D01*
X138996351Y-71975214D01*
X138894276Y-72051715D01*
X138881715Y-72064276D01*
X138805214Y-72166351D01*
X138796676Y-72181946D01*
X138751522Y-72302394D01*
X138747895Y-72317649D01*
X138742369Y-72368514D01*
X138742000Y-72375328D01*
X138742000Y-73647885D01*
X50010500Y-73647885D01*
X50010500Y-63365431D01*
X57000109Y-63365431D01*
X57000190Y-63366564D01*
X57005168Y-63374136D01*
X57025401Y-63393539D01*
X57029678Y-63397283D01*
X57345218Y-63649175D01*
X57349801Y-63652505D01*
X57686867Y-63874759D01*
X57691763Y-63877677D01*
X58047543Y-64068444D01*
X58052717Y-64070923D01*
X58424339Y-64228668D01*
X58429674Y-64230652D01*
X58814069Y-64354068D01*
X58819570Y-64355563D01*
X59213575Y-64443633D01*
X59219187Y-64444622D01*
X59619538Y-64496619D01*
X59625244Y-64497098D01*
X60028642Y-64512595D01*
X60034368Y-64512555D01*
X60437518Y-64491427D01*
X60443199Y-64490870D01*
X60842795Y-64433288D01*
X60848390Y-64432220D01*
X61241123Y-64338657D01*
X61246605Y-64337086D01*
X61629233Y-64208318D01*
X61634563Y-64206250D01*
X62003946Y-64043332D01*
X62009053Y-64040797D01*
X62362145Y-63845075D01*
X62367024Y-63842074D01*
X62700898Y-63615174D01*
X62705511Y-63611723D01*
X62991829Y-63376539D01*
X62999388Y-63365431D01*
X137000109Y-63365431D01*
X137000190Y-63366564D01*
X137005168Y-63374136D01*
X137025401Y-63393539D01*
X137029678Y-63397283D01*
X137345218Y-63649175D01*
X137349801Y-63652505D01*
X137686867Y-63874759D01*
X137691763Y-63877677D01*
X138047543Y-64068444D01*
X138052717Y-64070923D01*
X138424339Y-64228668D01*
X138429674Y-64230652D01*
X138814069Y-64354068D01*
X138819570Y-64355563D01*
X139213575Y-64443633D01*
X139219187Y-64444622D01*
X139619538Y-64496619D01*
X139625244Y-64497098D01*
X140028642Y-64512595D01*
X140034368Y-64512555D01*
X140437518Y-64491427D01*
X140443199Y-64490870D01*
X140842795Y-64433288D01*
X140848390Y-64432220D01*
X141241123Y-64338657D01*
X141246605Y-64337086D01*
X141629233Y-64208318D01*
X141634563Y-64206250D01*
X142003946Y-64043332D01*
X142009053Y-64040797D01*
X142362145Y-63845075D01*
X142367024Y-63842074D01*
X142700898Y-63615174D01*
X142705511Y-63611723D01*
X142991829Y-63376539D01*
X143000290Y-63364106D01*
X142994040Y-63353250D01*
X142647408Y-63006618D01*
X141762111Y-62121320D01*
X141236023Y-61595233D01*
X140012812Y-60372022D01*
X139998868Y-60364408D01*
X139997035Y-60364539D01*
X139990420Y-60368790D01*
X138763978Y-61595232D01*
X137878680Y-62480529D01*
X137352593Y-63006617D01*
X137007723Y-63351487D01*
X137000109Y-63365431D01*
X62999388Y-63365431D01*
X63000290Y-63364106D01*
X62994040Y-63353250D01*
X62647408Y-63006618D01*
X61762111Y-62121320D01*
X61236023Y-61595233D01*
X60012812Y-60372022D01*
X59998868Y-60364408D01*
X59997035Y-60364539D01*
X59990420Y-60368790D01*
X58763978Y-61595232D01*
X57878680Y-62480529D01*
X57352593Y-63006617D01*
X57007723Y-63351487D01*
X57000109Y-63365431D01*
X50010500Y-63365431D01*
X50010500Y-60154638D01*
X55489964Y-60154638D01*
X55490163Y-60160343D01*
X55522540Y-60562753D01*
X55523258Y-60568430D01*
X55591970Y-60966229D01*
X55593201Y-60971829D01*
X55697689Y-61361786D01*
X55699413Y-61367219D01*
X55838817Y-61746108D01*
X55841025Y-61751362D01*
X56014192Y-62116050D01*
X56016877Y-62121099D01*
X56222390Y-62468606D01*
X56225500Y-62473358D01*
X56461668Y-62800812D01*
X56465208Y-62805278D01*
X56625528Y-62989704D01*
X56638657Y-62998113D01*
X56648570Y-62992220D01*
X56993382Y-62647408D01*
X57878680Y-61762111D01*
X57950260Y-61690531D01*
X58404767Y-61236023D01*
X59627978Y-60012812D01*
X59634356Y-60001132D01*
X60364408Y-60001132D01*
X60364539Y-60002965D01*
X60368790Y-60009580D01*
X61595232Y-61236022D01*
X62049739Y-61690530D01*
X62121319Y-61762110D01*
X63006617Y-62647407D01*
X63350688Y-62991478D01*
X63364134Y-62998820D01*
X63373970Y-62991900D01*
X63573611Y-62755657D01*
X63577097Y-62751130D01*
X63808659Y-62420424D01*
X63811716Y-62415608D01*
X64012350Y-62065281D01*
X64014962Y-62060199D01*
X64183020Y-61693127D01*
X64185159Y-61687834D01*
X64319255Y-61307047D01*
X64320908Y-61301573D01*
X64419939Y-60910206D01*
X64421090Y-60904600D01*
X64484245Y-60505854D01*
X64484880Y-60500192D01*
X64511709Y-60096260D01*
X64511843Y-60092753D01*
X64512796Y-60001773D01*
X64512734Y-59998225D01*
X64510788Y-59955361D01*
X118215316Y-59955361D01*
X118215540Y-59960027D01*
X118215540Y-59960033D01*
X118221065Y-60075044D01*
X118227443Y-60207820D01*
X118276752Y-60455713D01*
X118278331Y-60460111D01*
X118278333Y-60460118D01*
X118360577Y-60689186D01*
X118362160Y-60693595D01*
X118481792Y-60916240D01*
X118484587Y-60919984D01*
X118484589Y-60919986D01*
X118630226Y-61115018D01*
X118630231Y-61115024D01*
X118633018Y-61118756D01*
X118636327Y-61122036D01*
X118636332Y-61122042D01*
X118751311Y-61236022D01*
X118812517Y-61296696D01*
X118816279Y-61299454D01*
X118816282Y-61299457D01*
X119012575Y-61443384D01*
X119016346Y-61446149D01*
X119020481Y-61448325D01*
X119020485Y-61448327D01*
X119137952Y-61510129D01*
X119240026Y-61563833D01*
X119478644Y-61647162D01*
X119483237Y-61648034D01*
X119722369Y-61693435D01*
X119722372Y-61693435D01*
X119726958Y-61694306D01*
X119847081Y-61699026D01*
X119974845Y-61704046D01*
X119974850Y-61704046D01*
X119979513Y-61704229D01*
X120057657Y-61695671D01*
X120226107Y-61677223D01*
X120226112Y-61677222D01*
X120230760Y-61676713D01*
X120348861Y-61645620D01*
X120470658Y-61613554D01*
X120470661Y-61613553D01*
X120475181Y-61612363D01*
X120632742Y-61544669D01*
X122992001Y-61544669D01*
X122992371Y-61551490D01*
X122997895Y-61602352D01*
X123001521Y-61617604D01*
X123046676Y-61738054D01*
X123055214Y-61753649D01*
X123131715Y-61855724D01*
X123144276Y-61868285D01*
X123246351Y-61944786D01*
X123261946Y-61953324D01*
X123382394Y-61998478D01*
X123397649Y-62002105D01*
X123448514Y-62007631D01*
X123455328Y-62008000D01*
X124727885Y-62008000D01*
X124743124Y-62003525D01*
X124744329Y-62002135D01*
X124746000Y-61994452D01*
X124746000Y-61989884D01*
X125254000Y-61989884D01*
X125258475Y-62005123D01*
X125259865Y-62006328D01*
X125267548Y-62007999D01*
X126544669Y-62007999D01*
X126551490Y-62007629D01*
X126602352Y-62002105D01*
X126617604Y-61998479D01*
X126738054Y-61953324D01*
X126753649Y-61944786D01*
X126855724Y-61868285D01*
X126868285Y-61855724D01*
X126944786Y-61753649D01*
X126953324Y-61738054D01*
X126998478Y-61617606D01*
X127002105Y-61602351D01*
X127007631Y-61551486D01*
X127008000Y-61544672D01*
X127008000Y-60272115D01*
X127003525Y-60256876D01*
X127002135Y-60255671D01*
X126994452Y-60254000D01*
X125272115Y-60254000D01*
X125256876Y-60258475D01*
X125255671Y-60259865D01*
X125254000Y-60267548D01*
X125254000Y-61989884D01*
X124746000Y-61989884D01*
X124746000Y-60272115D01*
X124741525Y-60256876D01*
X124740135Y-60255671D01*
X124732452Y-60254000D01*
X123010116Y-60254000D01*
X122994877Y-60258475D01*
X122993672Y-60259865D01*
X122992001Y-60267548D01*
X122992001Y-61544669D01*
X120632742Y-61544669D01*
X120707405Y-61512591D01*
X120814774Y-61446149D01*
X120918358Y-61382050D01*
X120918362Y-61382047D01*
X120922331Y-61379591D01*
X121008023Y-61307047D01*
X121111672Y-61219302D01*
X121111673Y-61219301D01*
X121115238Y-61216283D01*
X121197886Y-61122042D01*
X121278806Y-61029771D01*
X121278810Y-61029766D01*
X121281888Y-61026256D01*
X121352653Y-60916240D01*
X121416094Y-60817610D01*
X121416096Y-60817607D01*
X121418619Y-60813684D01*
X121522428Y-60583236D01*
X121591034Y-60339976D01*
X121607263Y-60212409D01*
X121614612Y-60154638D01*
X135489964Y-60154638D01*
X135490163Y-60160343D01*
X135522540Y-60562753D01*
X135523258Y-60568430D01*
X135591970Y-60966229D01*
X135593201Y-60971829D01*
X135697689Y-61361786D01*
X135699413Y-61367219D01*
X135838817Y-61746108D01*
X135841025Y-61751362D01*
X136014192Y-62116050D01*
X136016877Y-62121099D01*
X136222390Y-62468606D01*
X136225500Y-62473358D01*
X136461668Y-62800812D01*
X136465208Y-62805278D01*
X136625528Y-62989704D01*
X136638657Y-62998113D01*
X136648570Y-62992220D01*
X136993382Y-62647408D01*
X137878680Y-61762111D01*
X137950260Y-61690531D01*
X138404767Y-61236023D01*
X139627978Y-60012812D01*
X139634356Y-60001132D01*
X140364408Y-60001132D01*
X140364539Y-60002965D01*
X140368790Y-60009580D01*
X141595232Y-61236022D01*
X142049739Y-61690530D01*
X142121319Y-61762110D01*
X143006617Y-62647407D01*
X143350688Y-62991478D01*
X143364134Y-62998820D01*
X143373970Y-62991900D01*
X143573611Y-62755657D01*
X143577097Y-62751130D01*
X143808659Y-62420424D01*
X143811716Y-62415608D01*
X144012350Y-62065281D01*
X144014962Y-62060199D01*
X144183020Y-61693127D01*
X144185159Y-61687834D01*
X144319255Y-61307047D01*
X144320908Y-61301573D01*
X144419939Y-60910206D01*
X144421090Y-60904600D01*
X144484245Y-60505854D01*
X144484880Y-60500192D01*
X144511709Y-60096260D01*
X144511843Y-60092753D01*
X144512796Y-60001773D01*
X144512734Y-59998225D01*
X144494371Y-59593843D01*
X144493855Y-59588165D01*
X144439063Y-59188177D01*
X144438036Y-59182577D01*
X144347216Y-58789198D01*
X144345682Y-58783702D01*
X144219588Y-58400183D01*
X144217558Y-58394841D01*
X144057226Y-58024336D01*
X144054722Y-58019202D01*
X143861471Y-57664752D01*
X143858508Y-57659861D01*
X143633930Y-57324389D01*
X143630537Y-57319787D01*
X143376832Y-57006489D01*
X143363963Y-56999226D01*
X143362596Y-56999305D01*
X143355268Y-57003942D01*
X143006618Y-57352592D01*
X142121320Y-58237889D01*
X141595233Y-58763977D01*
X140372022Y-59987188D01*
X140364408Y-60001132D01*
X139634356Y-60001132D01*
X139635592Y-59998868D01*
X139635461Y-59997035D01*
X139631210Y-59990420D01*
X138404768Y-58763978D01*
X137519471Y-57878680D01*
X136993383Y-57352593D01*
X136650424Y-57009634D01*
X136636480Y-57002020D01*
X136636287Y-57002033D01*
X136627465Y-57008012D01*
X136524743Y-57121298D01*
X136521091Y-57125712D01*
X136278139Y-57448120D01*
X136274906Y-57452843D01*
X136062173Y-57795946D01*
X136059379Y-57800946D01*
X135878624Y-58161905D01*
X135876290Y-58167147D01*
X135728992Y-58543009D01*
X135727149Y-58548422D01*
X135614517Y-58936103D01*
X135613175Y-58941653D01*
X135536142Y-59337952D01*
X135535309Y-59343593D01*
X135494512Y-59745234D01*
X135494192Y-59750958D01*
X135489964Y-60154638D01*
X121614612Y-60154638D01*
X121622533Y-60092378D01*
X121622533Y-60092372D01*
X121622931Y-60089247D01*
X121625268Y-60000000D01*
X121606537Y-59747945D01*
X121601998Y-59727885D01*
X122992000Y-59727885D01*
X122996475Y-59743124D01*
X122997865Y-59744329D01*
X123005548Y-59746000D01*
X124727885Y-59746000D01*
X124743124Y-59741525D01*
X124744329Y-59740135D01*
X124746000Y-59732452D01*
X124746000Y-59727885D01*
X125254000Y-59727885D01*
X125258475Y-59743124D01*
X125259865Y-59744329D01*
X125267548Y-59746000D01*
X126989884Y-59746000D01*
X127005123Y-59741525D01*
X127006328Y-59740135D01*
X127007999Y-59732452D01*
X127007999Y-58455331D01*
X127007629Y-58448510D01*
X127002105Y-58397648D01*
X126998479Y-58382396D01*
X126953324Y-58261946D01*
X126944786Y-58246351D01*
X126868285Y-58144276D01*
X126855724Y-58131715D01*
X126753649Y-58055214D01*
X126738054Y-58046676D01*
X126617606Y-58001522D01*
X126602351Y-57997895D01*
X126551486Y-57992369D01*
X126544672Y-57992000D01*
X125272115Y-57992000D01*
X125256876Y-57996475D01*
X125255671Y-57997865D01*
X125254000Y-58005548D01*
X125254000Y-59727885D01*
X124746000Y-59727885D01*
X124746000Y-58010116D01*
X124741525Y-57994877D01*
X124740135Y-57993672D01*
X124732452Y-57992001D01*
X123455331Y-57992001D01*
X123448510Y-57992371D01*
X123397648Y-57997895D01*
X123382396Y-58001521D01*
X123261946Y-58046676D01*
X123246351Y-58055214D01*
X123144276Y-58131715D01*
X123131715Y-58144276D01*
X123055214Y-58246351D01*
X123046676Y-58261946D01*
X123001522Y-58382394D01*
X122997895Y-58397649D01*
X122992369Y-58448514D01*
X122992000Y-58455328D01*
X122992000Y-59727885D01*
X121601998Y-59727885D01*
X121550756Y-59501428D01*
X121532544Y-59454596D01*
X121460843Y-59270216D01*
X121460842Y-59270214D01*
X121459150Y-59265863D01*
X121333731Y-59046426D01*
X121177255Y-58847938D01*
X120993160Y-58674758D01*
X120811048Y-58548422D01*
X120789331Y-58533356D01*
X120789328Y-58533354D01*
X120785489Y-58530691D01*
X120781296Y-58528623D01*
X120562993Y-58420968D01*
X120562990Y-58420967D01*
X120558805Y-58418903D01*
X120514379Y-58404682D01*
X120462403Y-58388045D01*
X120318087Y-58341849D01*
X120313480Y-58341099D01*
X120313477Y-58341098D01*
X120073235Y-58301972D01*
X120073236Y-58301972D01*
X120068624Y-58301221D01*
X119946026Y-58299616D01*
X119820573Y-58297974D01*
X119820570Y-58297974D01*
X119815896Y-58297913D01*
X119565455Y-58331996D01*
X119560965Y-58333305D01*
X119560959Y-58333306D01*
X119457851Y-58363360D01*
X119322803Y-58402723D01*
X119318556Y-58404681D01*
X119318553Y-58404682D01*
X119283226Y-58420968D01*
X119093270Y-58508539D01*
X119089361Y-58511102D01*
X118885812Y-58644554D01*
X118885807Y-58644558D01*
X118881899Y-58647120D01*
X118693333Y-58815421D01*
X118531715Y-59009746D01*
X118400595Y-59225825D01*
X118398786Y-59230139D01*
X118398785Y-59230141D01*
X118383806Y-59265863D01*
X118302854Y-59458911D01*
X118240639Y-59703883D01*
X118215316Y-59955361D01*
X64510788Y-59955361D01*
X64494371Y-59593843D01*
X64493855Y-59588165D01*
X64439063Y-59188177D01*
X64438036Y-59182577D01*
X64347216Y-58789198D01*
X64345682Y-58783702D01*
X64219588Y-58400183D01*
X64217558Y-58394841D01*
X64057226Y-58024336D01*
X64054722Y-58019202D01*
X63861471Y-57664752D01*
X63858508Y-57659861D01*
X63633930Y-57324389D01*
X63630537Y-57319787D01*
X63376832Y-57006489D01*
X63363963Y-56999226D01*
X63362596Y-56999305D01*
X63355268Y-57003942D01*
X63006618Y-57352592D01*
X62121320Y-58237889D01*
X61595233Y-58763977D01*
X60372022Y-59987188D01*
X60364408Y-60001132D01*
X59634356Y-60001132D01*
X59635592Y-59998868D01*
X59635461Y-59997035D01*
X59631210Y-59990420D01*
X58404768Y-58763978D01*
X57519471Y-57878680D01*
X56993383Y-57352593D01*
X56650424Y-57009634D01*
X56636480Y-57002020D01*
X56636287Y-57002033D01*
X56627465Y-57008012D01*
X56524743Y-57121298D01*
X56521091Y-57125712D01*
X56278139Y-57448120D01*
X56274906Y-57452843D01*
X56062173Y-57795946D01*
X56059379Y-57800946D01*
X55878624Y-58161905D01*
X55876290Y-58167147D01*
X55728992Y-58543009D01*
X55727149Y-58548422D01*
X55614517Y-58936103D01*
X55613175Y-58941653D01*
X55536142Y-59337952D01*
X55535309Y-59343593D01*
X55494512Y-59745234D01*
X55494192Y-59750958D01*
X55489964Y-60154638D01*
X50010500Y-60154638D01*
X50010500Y-56638713D01*
X57001723Y-56638713D01*
X57001735Y-56639144D01*
X57007102Y-56647892D01*
X57352592Y-56993382D01*
X57809617Y-57450408D01*
X57878679Y-57519470D01*
X58763977Y-58404767D01*
X59987188Y-59627978D01*
X60001132Y-59635592D01*
X60002965Y-59635461D01*
X60009580Y-59631210D01*
X61236022Y-58404768D01*
X62121320Y-57519471D01*
X62190382Y-57450409D01*
X62647407Y-56993383D01*
X62990943Y-56649847D01*
X62997023Y-56638713D01*
X137001723Y-56638713D01*
X137001735Y-56639144D01*
X137007102Y-56647892D01*
X137352592Y-56993382D01*
X137809617Y-57450408D01*
X137878679Y-57519470D01*
X138763977Y-58404767D01*
X139987188Y-59627978D01*
X140001132Y-59635592D01*
X140002965Y-59635461D01*
X140009580Y-59631210D01*
X141236022Y-58404768D01*
X142121320Y-57519471D01*
X142190382Y-57450409D01*
X142647407Y-56993383D01*
X142990943Y-56649847D01*
X142998351Y-56636280D01*
X142991609Y-56626624D01*
X142780533Y-56445711D01*
X142776040Y-56442200D01*
X142446969Y-56208341D01*
X142442146Y-56205233D01*
X142093242Y-56002166D01*
X142088177Y-55999519D01*
X141722296Y-55828905D01*
X141717003Y-55826724D01*
X141337166Y-55689973D01*
X141331706Y-55688284D01*
X140941036Y-55586522D01*
X140935446Y-55585334D01*
X140537154Y-55519397D01*
X140531490Y-55518721D01*
X140128851Y-55489153D01*
X140123150Y-55488994D01*
X139719489Y-55496040D01*
X139713801Y-55496398D01*
X139312457Y-55539998D01*
X139306787Y-55540876D01*
X138911058Y-55620669D01*
X138905512Y-55622051D01*
X138518627Y-55737387D01*
X138513223Y-55739269D01*
X138138396Y-55889189D01*
X138133189Y-55891551D01*
X137773475Y-56074834D01*
X137768510Y-56077655D01*
X137426897Y-56292781D01*
X137422202Y-56296044D01*
X137101494Y-56541243D01*
X137097114Y-56544917D01*
X137009910Y-56625106D01*
X137001723Y-56638713D01*
X62997023Y-56638713D01*
X62998351Y-56636280D01*
X62991609Y-56626624D01*
X62780533Y-56445711D01*
X62776040Y-56442200D01*
X62446969Y-56208341D01*
X62442146Y-56205233D01*
X62093242Y-56002166D01*
X62088177Y-55999519D01*
X61722296Y-55828905D01*
X61717003Y-55826724D01*
X61337166Y-55689973D01*
X61331706Y-55688284D01*
X60941036Y-55586522D01*
X60935446Y-55585334D01*
X60537154Y-55519397D01*
X60531490Y-55518721D01*
X60128851Y-55489153D01*
X60123150Y-55488994D01*
X59719489Y-55496040D01*
X59713801Y-55496398D01*
X59312457Y-55539998D01*
X59306787Y-55540876D01*
X58911058Y-55620669D01*
X58905512Y-55622051D01*
X58518627Y-55737387D01*
X58513223Y-55739269D01*
X58138396Y-55889189D01*
X58133189Y-55891551D01*
X57773475Y-56074834D01*
X57768510Y-56077655D01*
X57426897Y-56292781D01*
X57422202Y-56296044D01*
X57101494Y-56541243D01*
X57097114Y-56544917D01*
X57009910Y-56625106D01*
X57001723Y-56638713D01*
X50010500Y-56638713D01*
X50010500Y-50136500D01*
X50030502Y-50068379D01*
X50084158Y-50021886D01*
X50136500Y-50010500D01*
X149863500Y-50010500D01*
X149931621Y-50030502D01*
G37*
%TD.AperFunction*%
%TD*%
M02*
