%TF.GenerationSoftware,KiCad,Pcbnew,6.0.11-2627ca5db0~126~ubuntu22.04.1*%
%TF.CreationDate,2023-04-10T19:38:19+02:00*%
%TF.ProjectId,Slicor_carte_v_rin,536c6963-6f72-45f6-9361-7274655f76e9,rev?*%
%TF.SameCoordinates,Original*%
%TF.FileFunction,Copper,L2,Inr*%
%TF.FilePolarity,Positive*%
%FSLAX46Y46*%
G04 Gerber Fmt 4.6, Leading zero omitted, Abs format (unit mm)*
G04 Created by KiCad (PCBNEW 6.0.11-2627ca5db0~126~ubuntu22.04.1) date 2023-04-10 19:38:19*
%MOMM*%
%LPD*%
G01*
G04 APERTURE LIST*
G04 Aperture macros list*
%AMRoundRect*
0 Rectangle with rounded corners*
0 $1 Rounding radius*
0 $2 $3 $4 $5 $6 $7 $8 $9 X,Y pos of 4 corners*
0 Add a 4 corners polygon primitive as box body*
4,1,4,$2,$3,$4,$5,$6,$7,$8,$9,$2,$3,0*
0 Add four circle primitives for the rounded corners*
1,1,$1+$1,$2,$3*
1,1,$1+$1,$4,$5*
1,1,$1+$1,$6,$7*
1,1,$1+$1,$8,$9*
0 Add four rect primitives between the rounded corners*
20,1,$1+$1,$2,$3,$4,$5,0*
20,1,$1+$1,$4,$5,$6,$7,0*
20,1,$1+$1,$6,$7,$8,$9,0*
20,1,$1+$1,$8,$9,$2,$3,0*%
G04 Aperture macros list end*
%TA.AperFunction,ComponentPad*%
%ADD10RoundRect,0.250000X0.750000X-0.600000X0.750000X0.600000X-0.750000X0.600000X-0.750000X-0.600000X0*%
%TD*%
%TA.AperFunction,ComponentPad*%
%ADD11O,2.000000X1.700000*%
%TD*%
%TA.AperFunction,ComponentPad*%
%ADD12RoundRect,0.250000X0.725000X-0.600000X0.725000X0.600000X-0.725000X0.600000X-0.725000X-0.600000X0*%
%TD*%
%TA.AperFunction,ComponentPad*%
%ADD13O,1.950000X1.700000*%
%TD*%
%TA.AperFunction,ComponentPad*%
%ADD14C,0.900000*%
%TD*%
%TA.AperFunction,ComponentPad*%
%ADD15C,8.000000*%
%TD*%
%TA.AperFunction,ComponentPad*%
%ADD16R,3.000000X3.000000*%
%TD*%
%TA.AperFunction,ComponentPad*%
%ADD17C,3.000000*%
%TD*%
%TA.AperFunction,ComponentPad*%
%ADD18RoundRect,0.250000X-0.600000X-0.750000X0.600000X-0.750000X0.600000X0.750000X-0.600000X0.750000X0*%
%TD*%
%TA.AperFunction,ComponentPad*%
%ADD19O,1.700000X2.000000*%
%TD*%
%TA.AperFunction,ComponentPad*%
%ADD20RoundRect,0.250000X-0.600000X-0.725000X0.600000X-0.725000X0.600000X0.725000X-0.600000X0.725000X0*%
%TD*%
%TA.AperFunction,ComponentPad*%
%ADD21O,1.700000X1.950000*%
%TD*%
%TA.AperFunction,ComponentPad*%
%ADD22R,1.700000X1.700000*%
%TD*%
%TA.AperFunction,ComponentPad*%
%ADD23O,1.700000X1.700000*%
%TD*%
%TA.AperFunction,ViaPad*%
%ADD24C,0.600000*%
%TD*%
%TA.AperFunction,ViaPad*%
%ADD25C,0.800000*%
%TD*%
G04 APERTURE END LIST*
D10*
%TO.N,GND*%
%TO.C,J9*%
X140000000Y-115750000D03*
D11*
%TO.N,Contacteur_B*%
X140000000Y-113250000D03*
%TD*%
D10*
%TO.N,GND*%
%TO.C,J8*%
X140000000Y-128250000D03*
D11*
%TO.N,Contacteur_A*%
X140000000Y-125750000D03*
%TD*%
D12*
%TO.N,+5V*%
%TO.C,J5*%
X139750000Y-102750000D03*
D13*
%TO.N,A*%
X139750000Y-100250000D03*
%TO.N,B*%
X139750000Y-97750000D03*
%TO.N,GND*%
X139750000Y-95250000D03*
%TD*%
D14*
%TO.N,GND*%
%TO.C,H2*%
X57878680Y-142121320D03*
X62121320Y-137878680D03*
X63000000Y-140000000D03*
X60000000Y-137000000D03*
X57000000Y-140000000D03*
X62121320Y-142121320D03*
X60000000Y-143000000D03*
X57878680Y-137878680D03*
D15*
X60000000Y-140000000D03*
%TD*%
D16*
%TO.N,GND*%
%TO.C,J1*%
X125000000Y-60000000D03*
D17*
%TO.N,+24V*%
X119920000Y-60000000D03*
%TD*%
D14*
%TO.N,GND*%
%TO.C,H4*%
X142121320Y-62121320D03*
X143000000Y-60000000D03*
X137878680Y-62121320D03*
D15*
X140000000Y-60000000D03*
D14*
X140000000Y-63000000D03*
X140000000Y-57000000D03*
X142121320Y-57878680D03*
X137000000Y-60000000D03*
X137878680Y-57878680D03*
%TD*%
D18*
%TO.N,UART TX*%
%TO.C,J3*%
X112250000Y-76475000D03*
D19*
%TO.N,UART RX*%
X114750000Y-76475000D03*
%TD*%
D20*
%TO.N,Pwm_Bridge_A*%
%TO.C,J7*%
X82750000Y-139475000D03*
D21*
%TO.N,IN1_A*%
X85250000Y-139475000D03*
%TO.N,IN2_A*%
X87750000Y-139475000D03*
%TO.N,GND*%
X90250000Y-139475000D03*
%TD*%
D16*
%TO.N,GND*%
%TO.C,J2*%
X140750000Y-73920000D03*
D17*
%TO.N,+24V*%
X140750000Y-79000000D03*
%TD*%
D20*
%TO.N,Pwm_Bridge_B*%
%TO.C,J6*%
X102750000Y-139475000D03*
D21*
%TO.N,IN1_B*%
X105250000Y-139475000D03*
%TO.N,IN2_B*%
X107750000Y-139475000D03*
%TO.N,GND*%
X110250000Y-139475000D03*
%TD*%
D14*
%TO.N,GND*%
%TO.C,H1*%
X57878680Y-57878680D03*
X62121320Y-57878680D03*
X62121320Y-62121320D03*
X60000000Y-63000000D03*
X63000000Y-60000000D03*
X57000000Y-60000000D03*
X60000000Y-57000000D03*
D15*
X60000000Y-60000000D03*
D14*
X57878680Y-62121320D03*
%TD*%
D22*
%TO.N,+5V*%
%TO.C,J4*%
X99050000Y-119000000D03*
D23*
%TO.N,MISO*%
X101590000Y-119000000D03*
%TO.N,MOSI*%
X104130000Y-119000000D03*
%TO.N,SCK*%
X106670000Y-119000000D03*
%TO.N,RST*%
X109210000Y-119000000D03*
%TO.N,UART TX*%
X111750000Y-119000000D03*
%TO.N,UART RX*%
X114290000Y-119000000D03*
%TO.N,GND*%
X116830000Y-119000000D03*
%TD*%
D14*
%TO.N,GND*%
%TO.C,H3*%
X137000000Y-140000000D03*
X142121320Y-142121320D03*
X137878680Y-137878680D03*
X140000000Y-137000000D03*
D15*
X140000000Y-140000000D03*
D14*
X142121320Y-137878680D03*
X137878680Y-142121320D03*
X143000000Y-140000000D03*
X140000000Y-143000000D03*
%TD*%
D24*
%TO.N,Contacteur_A*%
X112000000Y-105000000D03*
%TO.N,Contacteur_B*%
X112000000Y-103000000D03*
D25*
%TO.N,GND*%
X93716000Y-106300000D03*
D24*
%TO.N,MISO*%
X103114000Y-113158000D03*
%TO.N,MOSI*%
X103368000Y-114682000D03*
%TO.N,RST*%
X101082000Y-100966000D03*
%TO.N,UART TX*%
X96764000Y-99696000D03*
%TO.N,UART RX*%
X110734000Y-111126000D03*
X97985266Y-99998734D03*
X104084000Y-100666000D03*
X107250000Y-99750000D03*
%TO.N,Pwm_Bridge_B*%
X97850000Y-113150000D03*
%TO.N,IN1_B*%
X99500000Y-115000000D03*
%TO.N,IN2_B*%
X100637500Y-115012500D03*
%TO.N,Pwm_Bridge_A*%
X96000000Y-112500000D03*
%TO.N,A*%
X94750000Y-100750000D03*
X98750000Y-93000000D03*
%TO.N,B*%
X97000000Y-92750000D03*
X93500000Y-100750000D03*
%TO.N,IN1_A*%
X96000000Y-114000000D03*
%TO.N,IN2_A*%
X96000000Y-115000000D03*
%TD*%
M02*
