M48
; DRILL file {KiCad 6.0.11-2627ca5db0~126~ubuntu22.04.1} date lun. 10 avril 2023 22:11:35
; FORMAT={-:-/ absolute / inch / decimal}
; #@! TF.CreationDate,2023-04-10T22:11:35+02:00
; #@! TF.GenerationSoftware,Kicad,Pcbnew,6.0.11-2627ca5db0~126~ubuntu22.04.1
; #@! TF.FileFunction,Plated,1,4,PTH
FMAT,2
INCH
; #@! TA.AperFunction,Plated,PTH,ViaDrill
T1C0.0118
; #@! TA.AperFunction,Plated,PTH,ComponentDrill
T2C0.0374
; #@! TA.AperFunction,Plated,PTH,ComponentDrill
T3C0.0394
; #@! TA.AperFunction,Plated,PTH,ComponentDrill
T4C0.0598
; #@! TA.AperFunction,Plated,PTH,ComponentDrill
T5C0.1693
%
G90
G05
T1
X1.7126Y-3.3195
X1.7141Y-3.6826
X2.5787Y-2.9331
X2.6378Y-2.9331
X2.6969Y-2.9331
X2.7559Y-2.9331
X2.7559Y-3.2677
X2.7953Y-2.7756
X2.8346Y-2.7362
X2.8543Y-2.6378
X2.9331Y-3.7992
X3.0354Y-2.7953
X3.0354Y-2.8307
X3.0512Y-2.6378
X3.0669Y-3.2717
X3.0906Y-3.3071
X3.0906Y-3.3661
X3.0984Y-2.7953
X3.0984Y-2.8268
X3.2087Y-3.3661
X3.2283Y-3.7992
X3.3858Y-3.1299
X3.4055Y-3.2087
X3.4449Y-2.7756
X3.4449Y-2.8346
X3.4449Y-2.8937
X3.7402Y-3.4449
X3.7402Y-3.7992
X3.7449Y-2.7118
X3.7992Y-3.0709
X3.8386Y-3.1102
X3.8701Y-3.0039
X3.937Y-2.9724
T2
X1.378Y-1.8917
X1.378Y-1.9902
X1.378Y-2.0886
X1.378Y-2.187
X1.378Y-2.4606
X1.378Y-2.5591
X1.378Y-2.6575
X1.378Y-2.7559
X4.5276Y-2.502
X4.5276Y-2.6004
X4.5276Y-2.6988
X4.5276Y-2.7972
T3
X1.378Y-3.1988
X1.378Y-3.2972
X1.378Y-3.937
X1.378Y-4.0354
X2.3209Y-4.6161
X2.4193Y-4.6161
X2.9882Y-4.6161
X3.0866Y-4.6161
X3.6417Y-4.6161
X3.7402Y-4.6161
X4.5276Y-1.8701
X4.5276Y-1.9685
X4.5276Y-3.2764
X4.5276Y-3.3764
X4.5276Y-3.4764
X4.5276Y-3.5764
X4.5276Y-3.6764
X4.5276Y-3.7764
X4.5276Y-3.8764
X4.5276Y-3.9764
T4
X3.9323Y-1.378
X4.1323Y-1.378
T5
X1.378Y-1.378
X1.378Y-4.5276
X4.5276Y-1.378
X4.5276Y-4.5276
T0
M30
