%TF.GenerationSoftware,KiCad,Pcbnew,6.0.11-2627ca5db0~126~ubuntu22.04.1*%
%TF.CreationDate,2023-04-10T22:11:35+02:00*%
%TF.ProjectId,Slicor_carte_commande,536c6963-6f72-45f6-9361-7274655f636f,rev?*%
%TF.SameCoordinates,Original*%
%TF.FileFunction,Copper,L2,Inr*%
%TF.FilePolarity,Positive*%
%FSLAX46Y46*%
G04 Gerber Fmt 4.6, Leading zero omitted, Abs format (unit mm)*
G04 Created by KiCad (PCBNEW 6.0.11-2627ca5db0~126~ubuntu22.04.1) date 2023-04-10 22:11:35*
%MOMM*%
%LPD*%
G01*
G04 APERTURE LIST*
G04 Aperture macros list*
%AMRoundRect*
0 Rectangle with rounded corners*
0 $1 Rounding radius*
0 $2 $3 $4 $5 $6 $7 $8 $9 X,Y pos of 4 corners*
0 Add a 4 corners polygon primitive as box body*
4,1,4,$2,$3,$4,$5,$6,$7,$8,$9,$2,$3,0*
0 Add four circle primitives for the rounded corners*
1,1,$1+$1,$2,$3*
1,1,$1+$1,$4,$5*
1,1,$1+$1,$6,$7*
1,1,$1+$1,$8,$9*
0 Add four rect primitives between the rounded corners*
20,1,$1+$1,$2,$3,$4,$5,0*
20,1,$1+$1,$4,$5,$6,$7,0*
20,1,$1+$1,$6,$7,$8,$9,0*
20,1,$1+$1,$8,$9,$2,$3,0*%
G04 Aperture macros list end*
%TA.AperFunction,ComponentPad*%
%ADD10R,1.700000X1.700000*%
%TD*%
%TA.AperFunction,ComponentPad*%
%ADD11O,1.700000X1.700000*%
%TD*%
%TA.AperFunction,ComponentPad*%
%ADD12RoundRect,0.250000X0.750000X-0.600000X0.750000X0.600000X-0.750000X0.600000X-0.750000X-0.600000X0*%
%TD*%
%TA.AperFunction,ComponentPad*%
%ADD13O,2.000000X1.700000*%
%TD*%
%TA.AperFunction,ComponentPad*%
%ADD14RoundRect,0.250000X-0.600000X-0.750000X0.600000X-0.750000X0.600000X0.750000X-0.600000X0.750000X0*%
%TD*%
%TA.AperFunction,ComponentPad*%
%ADD15O,1.700000X2.000000*%
%TD*%
%TA.AperFunction,ComponentPad*%
%ADD16RoundRect,0.250000X0.725000X-0.600000X0.725000X0.600000X-0.725000X0.600000X-0.725000X-0.600000X0*%
%TD*%
%TA.AperFunction,ComponentPad*%
%ADD17O,1.950000X1.700000*%
%TD*%
%TA.AperFunction,ComponentPad*%
%ADD18RoundRect,0.250000X-0.725000X0.600000X-0.725000X-0.600000X0.725000X-0.600000X0.725000X0.600000X0*%
%TD*%
%TA.AperFunction,ComponentPad*%
%ADD19R,3.000000X3.000000*%
%TD*%
%TA.AperFunction,ComponentPad*%
%ADD20C,3.000000*%
%TD*%
%TA.AperFunction,ComponentPad*%
%ADD21C,7.500000*%
%TD*%
%TA.AperFunction,ViaPad*%
%ADD22C,0.600000*%
%TD*%
G04 APERTURE END LIST*
D10*
%TO.N,+5V*%
%TO.C,J4*%
X115000000Y-101000000D03*
D11*
%TO.N,MISO*%
X115000000Y-98460000D03*
%TO.N,MOSI*%
X115000000Y-95920000D03*
%TO.N,SCK*%
X115000000Y-93380000D03*
%TO.N,RST*%
X115000000Y-90840000D03*
%TO.N,UART TX*%
X115000000Y-88300000D03*
%TO.N,UART RX*%
X115000000Y-85760000D03*
%TO.N,GND*%
X115000000Y-83220000D03*
%TD*%
D12*
%TO.N,GND*%
%TO.C,J5*%
X35000000Y-83750000D03*
D13*
%TO.N,Bouton1*%
X35000000Y-81250000D03*
%TD*%
D14*
%TO.N,+24V*%
%TO.C,J9*%
X92500000Y-117250000D03*
D15*
%TO.N,Net-(J9-Pad2)*%
X95000000Y-117250000D03*
%TD*%
D16*
%TO.N,GND*%
%TO.C,J2*%
X115000000Y-71050000D03*
D17*
%TO.N,+5V*%
X115000000Y-68550000D03*
%TO.N,SDA*%
X115000000Y-66050000D03*
%TO.N,SCL*%
X115000000Y-63550000D03*
%TD*%
D18*
%TO.N,CL3*%
%TO.C,J3*%
X35000000Y-48050000D03*
D17*
%TO.N,CL2*%
X35000000Y-50550000D03*
%TO.N,CL1*%
X35000000Y-53050000D03*
%TO.N,CL0*%
X35000000Y-55550000D03*
%TD*%
D18*
%TO.N,CL7*%
%TO.C,J11*%
X35000000Y-62500000D03*
D17*
%TO.N,CL6*%
X35000000Y-65000000D03*
%TO.N,CL5*%
X35000000Y-67500000D03*
%TO.N,CL4*%
X35000000Y-70000000D03*
%TD*%
D19*
%TO.N,GND*%
%TO.C,J1*%
X104960000Y-35000000D03*
D20*
%TO.N,+24V*%
X99880000Y-35000000D03*
%TD*%
D14*
%TO.N,+24V*%
%TO.C,J8*%
X75900000Y-117250000D03*
D15*
%TO.N,Net-(J8-Pad2)*%
X78400000Y-117250000D03*
%TD*%
D21*
%TO.N,GND*%
%TO.C,H1*%
X35000000Y-35000000D03*
%TD*%
D12*
%TO.N,UART TX*%
%TO.C,J10*%
X115000000Y-50000000D03*
D13*
%TO.N,UART RX*%
X115000000Y-47500000D03*
%TD*%
D14*
%TO.N,+24V*%
%TO.C,J7*%
X58950000Y-117250000D03*
D15*
%TO.N,Net-(J7-Pad2)*%
X61450000Y-117250000D03*
%TD*%
D21*
%TO.N,GND*%
%TO.C,H4*%
X115000000Y-115000000D03*
%TD*%
D12*
%TO.N,GND*%
%TO.C,J6*%
X35000000Y-102500000D03*
D13*
%TO.N,Bouton2*%
X35000000Y-100000000D03*
%TD*%
D21*
%TO.N,GND*%
%TO.C,H3*%
X35000000Y-115000000D03*
%TD*%
%TO.N,GND*%
%TO.C,H2*%
X115000000Y-35000000D03*
%TD*%
D22*
%TO.N,GND*%
X77900000Y-83100000D03*
X78500000Y-84000000D03*
X77100000Y-71900000D03*
X77100000Y-71000000D03*
X78700000Y-71000000D03*
X78700000Y-71800000D03*
X72500000Y-67000000D03*
X77500000Y-67000000D03*
%TO.N,+5V*%
X95120000Y-68880000D03*
X95000000Y-87500000D03*
%TO.N,SDA*%
X97500000Y-79000000D03*
%TO.N,SCL*%
X96500000Y-78000000D03*
%TO.N,MISO*%
X70000000Y-83000000D03*
%TO.N,UART TX*%
X100000000Y-75500000D03*
%TO.N,UART RX*%
X98300000Y-76300000D03*
%TO.N,Bouton1*%
X43500000Y-84316250D03*
X72000000Y-69500000D03*
%TO.N,Bouton2*%
X71000000Y-70500000D03*
X43537500Y-93537500D03*
%TO.N,led1*%
X87500000Y-73500000D03*
X74500000Y-96500000D03*
%TO.N,led2*%
X82000000Y-96500000D03*
X87500000Y-72000000D03*
%TO.N,led3*%
X87500000Y-70500000D03*
X95000000Y-96500000D03*
%TO.N,CL0*%
X86000000Y-79500000D03*
X65500000Y-74500000D03*
%TO.N,CL1*%
X67000000Y-74500000D03*
X86500000Y-81500000D03*
%TO.N,CL2*%
X68500000Y-74500000D03*
X81500000Y-85500000D03*
%TO.N,CL3*%
X70000000Y-74500000D03*
X78500000Y-85500000D03*
%TD*%
M02*
