%TF.GenerationSoftware,KiCad,Pcbnew,6.0.11-2627ca5db0~126~ubuntu22.04.1*%
%TF.CreationDate,2023-04-10T22:11:35+02:00*%
%TF.ProjectId,Slicor_carte_commande,536c6963-6f72-45f6-9361-7274655f636f,rev?*%
%TF.SameCoordinates,Original*%
%TF.FileFunction,Copper,L4,Bot*%
%TF.FilePolarity,Positive*%
%FSLAX46Y46*%
G04 Gerber Fmt 4.6, Leading zero omitted, Abs format (unit mm)*
G04 Created by KiCad (PCBNEW 6.0.11-2627ca5db0~126~ubuntu22.04.1) date 2023-04-10 22:11:35*
%MOMM*%
%LPD*%
G01*
G04 APERTURE LIST*
G04 Aperture macros list*
%AMRoundRect*
0 Rectangle with rounded corners*
0 $1 Rounding radius*
0 $2 $3 $4 $5 $6 $7 $8 $9 X,Y pos of 4 corners*
0 Add a 4 corners polygon primitive as box body*
4,1,4,$2,$3,$4,$5,$6,$7,$8,$9,$2,$3,0*
0 Add four circle primitives for the rounded corners*
1,1,$1+$1,$2,$3*
1,1,$1+$1,$4,$5*
1,1,$1+$1,$6,$7*
1,1,$1+$1,$8,$9*
0 Add four rect primitives between the rounded corners*
20,1,$1+$1,$2,$3,$4,$5,0*
20,1,$1+$1,$4,$5,$6,$7,0*
20,1,$1+$1,$6,$7,$8,$9,0*
20,1,$1+$1,$8,$9,$2,$3,0*%
G04 Aperture macros list end*
%TA.AperFunction,ComponentPad*%
%ADD10R,1.700000X1.700000*%
%TD*%
%TA.AperFunction,ComponentPad*%
%ADD11O,1.700000X1.700000*%
%TD*%
%TA.AperFunction,ComponentPad*%
%ADD12RoundRect,0.250000X0.750000X-0.600000X0.750000X0.600000X-0.750000X0.600000X-0.750000X-0.600000X0*%
%TD*%
%TA.AperFunction,ComponentPad*%
%ADD13O,2.000000X1.700000*%
%TD*%
%TA.AperFunction,ComponentPad*%
%ADD14RoundRect,0.250000X-0.600000X-0.750000X0.600000X-0.750000X0.600000X0.750000X-0.600000X0.750000X0*%
%TD*%
%TA.AperFunction,ComponentPad*%
%ADD15O,1.700000X2.000000*%
%TD*%
%TA.AperFunction,ComponentPad*%
%ADD16RoundRect,0.250000X0.725000X-0.600000X0.725000X0.600000X-0.725000X0.600000X-0.725000X-0.600000X0*%
%TD*%
%TA.AperFunction,ComponentPad*%
%ADD17O,1.950000X1.700000*%
%TD*%
%TA.AperFunction,ComponentPad*%
%ADD18RoundRect,0.250000X-0.725000X0.600000X-0.725000X-0.600000X0.725000X-0.600000X0.725000X0.600000X0*%
%TD*%
%TA.AperFunction,ComponentPad*%
%ADD19R,3.000000X3.000000*%
%TD*%
%TA.AperFunction,ComponentPad*%
%ADD20C,3.000000*%
%TD*%
%TA.AperFunction,ComponentPad*%
%ADD21C,7.500000*%
%TD*%
%TA.AperFunction,ViaPad*%
%ADD22C,0.600000*%
%TD*%
%TA.AperFunction,Conductor*%
%ADD23C,0.800000*%
%TD*%
%TA.AperFunction,Conductor*%
%ADD24C,0.300000*%
%TD*%
G04 APERTURE END LIST*
D10*
%TO.P,J4,1,Pin_1*%
%TO.N,+5V*%
X115000000Y-101000000D03*
D11*
%TO.P,J4,2,Pin_2*%
%TO.N,MISO*%
X115000000Y-98460000D03*
%TO.P,J4,3,Pin_3*%
%TO.N,MOSI*%
X115000000Y-95920000D03*
%TO.P,J4,4,Pin_4*%
%TO.N,SCK*%
X115000000Y-93380000D03*
%TO.P,J4,5,Pin_5*%
%TO.N,RST*%
X115000000Y-90840000D03*
%TO.P,J4,6,Pin_6*%
%TO.N,UART TX*%
X115000000Y-88300000D03*
%TO.P,J4,7,Pin_7*%
%TO.N,UART RX*%
X115000000Y-85760000D03*
%TO.P,J4,8,Pin_8*%
%TO.N,GND*%
X115000000Y-83220000D03*
%TD*%
D12*
%TO.P,J5,1,Pin_1*%
%TO.N,GND*%
X35000000Y-83750000D03*
D13*
%TO.P,J5,2,Pin_2*%
%TO.N,Bouton1*%
X35000000Y-81250000D03*
%TD*%
D14*
%TO.P,J9,1,Pin_1*%
%TO.N,+24V*%
X92500000Y-117250000D03*
D15*
%TO.P,J9,2,Pin_2*%
%TO.N,Net-(J9-Pad2)*%
X95000000Y-117250000D03*
%TD*%
D16*
%TO.P,J2,1,Pin_1*%
%TO.N,GND*%
X115000000Y-71050000D03*
D17*
%TO.P,J2,2,Pin_2*%
%TO.N,+5V*%
X115000000Y-68550000D03*
%TO.P,J2,3,Pin_3*%
%TO.N,SDA*%
X115000000Y-66050000D03*
%TO.P,J2,4,Pin_4*%
%TO.N,SCL*%
X115000000Y-63550000D03*
%TD*%
D18*
%TO.P,J3,1,Pin_1*%
%TO.N,CL3*%
X35000000Y-48050000D03*
D17*
%TO.P,J3,2,Pin_2*%
%TO.N,CL2*%
X35000000Y-50550000D03*
%TO.P,J3,3,Pin_3*%
%TO.N,CL1*%
X35000000Y-53050000D03*
%TO.P,J3,4,Pin_4*%
%TO.N,CL0*%
X35000000Y-55550000D03*
%TD*%
D18*
%TO.P,J11,1,Pin_1*%
%TO.N,CL7*%
X35000000Y-62500000D03*
D17*
%TO.P,J11,2,Pin_2*%
%TO.N,CL6*%
X35000000Y-65000000D03*
%TO.P,J11,3,Pin_3*%
%TO.N,CL5*%
X35000000Y-67500000D03*
%TO.P,J11,4,Pin_4*%
%TO.N,CL4*%
X35000000Y-70000000D03*
%TD*%
D19*
%TO.P,J1,1,Pin_1*%
%TO.N,GND*%
X104960000Y-35000000D03*
D20*
%TO.P,J1,2,Pin_2*%
%TO.N,+24V*%
X99880000Y-35000000D03*
%TD*%
D14*
%TO.P,J8,1,Pin_1*%
%TO.N,+24V*%
X75900000Y-117250000D03*
D15*
%TO.P,J8,2,Pin_2*%
%TO.N,Net-(J8-Pad2)*%
X78400000Y-117250000D03*
%TD*%
D21*
%TO.P,H1,1,1*%
%TO.N,GND*%
X35000000Y-35000000D03*
%TD*%
D12*
%TO.P,J10,1,Pin_1*%
%TO.N,UART TX*%
X115000000Y-50000000D03*
D13*
%TO.P,J10,2,Pin_2*%
%TO.N,UART RX*%
X115000000Y-47500000D03*
%TD*%
D14*
%TO.P,J7,1,Pin_1*%
%TO.N,+24V*%
X58950000Y-117250000D03*
D15*
%TO.P,J7,2,Pin_2*%
%TO.N,Net-(J7-Pad2)*%
X61450000Y-117250000D03*
%TD*%
D21*
%TO.P,H4,1,1*%
%TO.N,GND*%
X115000000Y-115000000D03*
%TD*%
D12*
%TO.P,J6,1,Pin_1*%
%TO.N,GND*%
X35000000Y-102500000D03*
D13*
%TO.P,J6,2,Pin_2*%
%TO.N,Bouton2*%
X35000000Y-100000000D03*
%TD*%
D21*
%TO.P,H3,1,1*%
%TO.N,GND*%
X35000000Y-115000000D03*
%TD*%
%TO.P,H2,1,1*%
%TO.N,GND*%
X115000000Y-35000000D03*
%TD*%
D22*
%TO.N,GND*%
X77900000Y-83100000D03*
X78500000Y-84000000D03*
X77100000Y-71900000D03*
X77100000Y-71000000D03*
X78700000Y-71000000D03*
X78700000Y-71800000D03*
X72500000Y-67000000D03*
X77500000Y-67000000D03*
%TO.N,+5V*%
X95120000Y-68880000D03*
X95000000Y-87500000D03*
%TO.N,SDA*%
X97500000Y-79000000D03*
%TO.N,SCL*%
X96500000Y-78000000D03*
%TO.N,MISO*%
X70000000Y-83000000D03*
%TO.N,UART TX*%
X100000000Y-75500000D03*
%TO.N,UART RX*%
X98300000Y-76300000D03*
%TO.N,Bouton1*%
X43500000Y-84316250D03*
X72000000Y-69500000D03*
%TO.N,Bouton2*%
X71000000Y-70500000D03*
X43537500Y-93537500D03*
%TO.N,led1*%
X87500000Y-73500000D03*
X74500000Y-96500000D03*
%TO.N,led2*%
X82000000Y-96500000D03*
X87500000Y-72000000D03*
%TO.N,led3*%
X87500000Y-70500000D03*
X95000000Y-96500000D03*
%TO.N,CL0*%
X86000000Y-79500000D03*
X65500000Y-74500000D03*
%TO.N,CL1*%
X67000000Y-74500000D03*
X86500000Y-81500000D03*
%TO.N,CL2*%
X68500000Y-74500000D03*
X81500000Y-85500000D03*
%TO.N,CL3*%
X70000000Y-74500000D03*
X78500000Y-85500000D03*
%TD*%
D23*
%TO.N,+5V*%
X95000000Y-71500000D02*
X95000000Y-87500000D01*
X95120000Y-68880000D02*
X95120000Y-71380000D01*
X95120000Y-71380000D02*
X95000000Y-71500000D01*
D24*
%TO.N,SDA*%
X108450000Y-66050000D02*
X115000000Y-66050000D01*
X107500000Y-74000000D02*
X107500000Y-67000000D01*
X97500000Y-79000000D02*
X102500000Y-79000000D01*
X102500000Y-79000000D02*
X107500000Y-74000000D01*
X107500000Y-67000000D02*
X108450000Y-66050000D01*
%TO.N,SCL*%
X96500000Y-78000000D02*
X101500000Y-78000000D01*
X106000000Y-66500000D02*
X108950000Y-63550000D01*
X101500000Y-78000000D02*
X106000000Y-73500000D01*
X106000000Y-73500000D02*
X106000000Y-66500000D01*
X108950000Y-63550000D02*
X115000000Y-63550000D01*
%TO.N,MISO*%
X70000000Y-96000000D02*
X72600000Y-98600000D01*
X72600000Y-98600000D02*
X114800000Y-98600000D01*
X70000000Y-83000000D02*
X70000000Y-96000000D01*
%TO.N,UART TX*%
X100000000Y-58500000D02*
X100000000Y-75500000D01*
X115000000Y-50000000D02*
X108500000Y-50000000D01*
X108500000Y-50000000D02*
X100000000Y-58500000D01*
%TO.N,UART RX*%
X108500000Y-47500000D02*
X98300000Y-57700000D01*
X98300000Y-57700000D02*
X98300000Y-76300000D01*
X115000000Y-47500000D02*
X108500000Y-47500000D01*
%TO.N,Bouton1*%
X46183750Y-84316250D02*
X61000000Y-69500000D01*
X61000000Y-69500000D02*
X72000000Y-69500000D01*
X43500000Y-84316250D02*
X46183750Y-84316250D01*
%TO.N,Bouton2*%
X43537500Y-88462500D02*
X61500000Y-70500000D01*
X43537500Y-93537500D02*
X43537500Y-88462500D01*
X61500000Y-70500000D02*
X71000000Y-70500000D01*
%TO.N,led1*%
X90500000Y-86500000D02*
X90500000Y-74500000D01*
X74500000Y-96500000D02*
X75000000Y-96000000D01*
X75000000Y-96000000D02*
X81000000Y-96000000D01*
X90500000Y-74500000D02*
X89500000Y-73500000D01*
X81000000Y-96000000D02*
X90500000Y-86500000D01*
X89500000Y-73500000D02*
X87500000Y-73500000D01*
%TO.N,led2*%
X90000000Y-72000000D02*
X87500000Y-72000000D01*
X91500000Y-73500000D02*
X90000000Y-72000000D01*
X91500000Y-87000000D02*
X91500000Y-73500000D01*
X82000000Y-96500000D02*
X91500000Y-87000000D01*
%TO.N,led3*%
X90000000Y-70500000D02*
X87500000Y-70500000D01*
X92500000Y-73000000D02*
X90000000Y-70500000D01*
X92500000Y-94000000D02*
X92500000Y-73000000D01*
X95000000Y-96500000D02*
X92500000Y-94000000D01*
%TO.N,CL0*%
X86000000Y-79500000D02*
X85000000Y-78500000D01*
X69500000Y-78500000D02*
X65500000Y-74500000D01*
X85000000Y-78500000D02*
X69500000Y-78500000D01*
%TO.N,CL1*%
X87150000Y-78230761D02*
X86419239Y-77500000D01*
X86419239Y-77500000D02*
X70000000Y-77500000D01*
X86500000Y-81500000D02*
X87150000Y-80850000D01*
X70000000Y-77500000D02*
X67000000Y-74500000D01*
X87150000Y-80850000D02*
X87150000Y-78230761D01*
%TO.N,CL2*%
X88000000Y-81000000D02*
X88000000Y-78000000D01*
X81500000Y-85500000D02*
X83500000Y-85500000D01*
X83500000Y-85500000D02*
X88000000Y-81000000D01*
X88000000Y-78000000D02*
X86500000Y-76500000D01*
X86500000Y-76500000D02*
X70500000Y-76500000D01*
X70500000Y-76500000D02*
X68500000Y-74500000D01*
%TO.N,CL3*%
X71000000Y-75500000D02*
X70000000Y-74500000D01*
X79500000Y-86500000D02*
X84000000Y-86500000D01*
X87000000Y-75500000D02*
X71000000Y-75500000D01*
X78500000Y-85500000D02*
X79500000Y-86500000D01*
X89000000Y-81500000D02*
X89000000Y-77500000D01*
X89000000Y-77500000D02*
X87000000Y-75500000D01*
X84000000Y-86500000D02*
X89000000Y-81500000D01*
%TD*%
%TA.AperFunction,Conductor*%
%TO.N,GND*%
G36*
X124433621Y-25528502D02*
G01*
X124480114Y-25582158D01*
X124491500Y-25634500D01*
X124491500Y-124365500D01*
X124471498Y-124433621D01*
X124417842Y-124480114D01*
X124365500Y-124491500D01*
X25634500Y-124491500D01*
X25566379Y-124471498D01*
X25519886Y-124417842D01*
X25508500Y-124365500D01*
X25508500Y-118186434D01*
X32178921Y-118186434D01*
X32185708Y-118196135D01*
X32385023Y-118366365D01*
X32389709Y-118370000D01*
X32713442Y-118597523D01*
X32718432Y-118600690D01*
X33062141Y-118796739D01*
X33067422Y-118799429D01*
X33428053Y-118962260D01*
X33433544Y-118964434D01*
X33807906Y-119092607D01*
X33813590Y-119094259D01*
X34198347Y-119186631D01*
X34204162Y-119187740D01*
X34595889Y-119243490D01*
X34601802Y-119244049D01*
X34997031Y-119262688D01*
X35002969Y-119262688D01*
X35398198Y-119244049D01*
X35404111Y-119243490D01*
X35795838Y-119187740D01*
X35801653Y-119186631D01*
X36186410Y-119094259D01*
X36192094Y-119092607D01*
X36566456Y-118964434D01*
X36571947Y-118962260D01*
X36932578Y-118799429D01*
X36937859Y-118796739D01*
X37281568Y-118600690D01*
X37286558Y-118597523D01*
X37610291Y-118370000D01*
X37614977Y-118366365D01*
X37812722Y-118197476D01*
X37821152Y-118184562D01*
X37815145Y-118174355D01*
X37691190Y-118050400D01*
X57591500Y-118050400D01*
X57602474Y-118156166D01*
X57604655Y-118162702D01*
X57604655Y-118162704D01*
X57640033Y-118268744D01*
X57658450Y-118323946D01*
X57751522Y-118474348D01*
X57876697Y-118599305D01*
X57882927Y-118603145D01*
X57882928Y-118603146D01*
X58020090Y-118687694D01*
X58027262Y-118692115D01*
X58062938Y-118703948D01*
X58188611Y-118745632D01*
X58188613Y-118745632D01*
X58195139Y-118747797D01*
X58201975Y-118748497D01*
X58201978Y-118748498D01*
X58237663Y-118752154D01*
X58299600Y-118758500D01*
X59600400Y-118758500D01*
X59603646Y-118758163D01*
X59603650Y-118758163D01*
X59699308Y-118748238D01*
X59699312Y-118748237D01*
X59706166Y-118747526D01*
X59712702Y-118745345D01*
X59712704Y-118745345D01*
X59844806Y-118701272D01*
X59873946Y-118691550D01*
X60024348Y-118598478D01*
X60149305Y-118473303D01*
X60239081Y-118327660D01*
X60291852Y-118280168D01*
X60361924Y-118268744D01*
X60427048Y-118297018D01*
X60437510Y-118306805D01*
X60479215Y-118350523D01*
X60546576Y-118421135D01*
X60731542Y-118558754D01*
X60736293Y-118561170D01*
X60736297Y-118561172D01*
X60799481Y-118593296D01*
X60937051Y-118663240D01*
X60942145Y-118664822D01*
X60942148Y-118664823D01*
X61142020Y-118726885D01*
X61157227Y-118731607D01*
X61162516Y-118732308D01*
X61380489Y-118761198D01*
X61380494Y-118761198D01*
X61385774Y-118761898D01*
X61391103Y-118761698D01*
X61391105Y-118761698D01*
X61500966Y-118757574D01*
X61616158Y-118753249D01*
X61638802Y-118748498D01*
X61836572Y-118707002D01*
X61841791Y-118705907D01*
X61846750Y-118703949D01*
X61846752Y-118703948D01*
X62051256Y-118623185D01*
X62051258Y-118623184D01*
X62056221Y-118621224D01*
X62092343Y-118599305D01*
X62248757Y-118504390D01*
X62248756Y-118504390D01*
X62253317Y-118501623D01*
X62293134Y-118467072D01*
X62423412Y-118354023D01*
X62423414Y-118354021D01*
X62427445Y-118350523D01*
X62494500Y-118268744D01*
X62570240Y-118176373D01*
X62570244Y-118176367D01*
X62573624Y-118172245D01*
X62642982Y-118050400D01*
X74541500Y-118050400D01*
X74552474Y-118156166D01*
X74554655Y-118162702D01*
X74554655Y-118162704D01*
X74590033Y-118268744D01*
X74608450Y-118323946D01*
X74701522Y-118474348D01*
X74826697Y-118599305D01*
X74832927Y-118603145D01*
X74832928Y-118603146D01*
X74970090Y-118687694D01*
X74977262Y-118692115D01*
X75012938Y-118703948D01*
X75138611Y-118745632D01*
X75138613Y-118745632D01*
X75145139Y-118747797D01*
X75151975Y-118748497D01*
X75151978Y-118748498D01*
X75187663Y-118752154D01*
X75249600Y-118758500D01*
X76550400Y-118758500D01*
X76553646Y-118758163D01*
X76553650Y-118758163D01*
X76649308Y-118748238D01*
X76649312Y-118748237D01*
X76656166Y-118747526D01*
X76662702Y-118745345D01*
X76662704Y-118745345D01*
X76794806Y-118701272D01*
X76823946Y-118691550D01*
X76974348Y-118598478D01*
X77099305Y-118473303D01*
X77189081Y-118327660D01*
X77241852Y-118280168D01*
X77311924Y-118268744D01*
X77377048Y-118297018D01*
X77387510Y-118306805D01*
X77429215Y-118350523D01*
X77496576Y-118421135D01*
X77681542Y-118558754D01*
X77686293Y-118561170D01*
X77686297Y-118561172D01*
X77749481Y-118593296D01*
X77887051Y-118663240D01*
X77892145Y-118664822D01*
X77892148Y-118664823D01*
X78092020Y-118726885D01*
X78107227Y-118731607D01*
X78112516Y-118732308D01*
X78330489Y-118761198D01*
X78330494Y-118761198D01*
X78335774Y-118761898D01*
X78341103Y-118761698D01*
X78341105Y-118761698D01*
X78450966Y-118757574D01*
X78566158Y-118753249D01*
X78588802Y-118748498D01*
X78786572Y-118707002D01*
X78791791Y-118705907D01*
X78796750Y-118703949D01*
X78796752Y-118703948D01*
X79001256Y-118623185D01*
X79001258Y-118623184D01*
X79006221Y-118621224D01*
X79042343Y-118599305D01*
X79198757Y-118504390D01*
X79198756Y-118504390D01*
X79203317Y-118501623D01*
X79243134Y-118467072D01*
X79373412Y-118354023D01*
X79373414Y-118354021D01*
X79377445Y-118350523D01*
X79444500Y-118268744D01*
X79520240Y-118176373D01*
X79520244Y-118176367D01*
X79523624Y-118172245D01*
X79592982Y-118050400D01*
X91141500Y-118050400D01*
X91152474Y-118156166D01*
X91154655Y-118162702D01*
X91154655Y-118162704D01*
X91190033Y-118268744D01*
X91208450Y-118323946D01*
X91301522Y-118474348D01*
X91426697Y-118599305D01*
X91432927Y-118603145D01*
X91432928Y-118603146D01*
X91570090Y-118687694D01*
X91577262Y-118692115D01*
X91612938Y-118703948D01*
X91738611Y-118745632D01*
X91738613Y-118745632D01*
X91745139Y-118747797D01*
X91751975Y-118748497D01*
X91751978Y-118748498D01*
X91787663Y-118752154D01*
X91849600Y-118758500D01*
X93150400Y-118758500D01*
X93153646Y-118758163D01*
X93153650Y-118758163D01*
X93249308Y-118748238D01*
X93249312Y-118748237D01*
X93256166Y-118747526D01*
X93262702Y-118745345D01*
X93262704Y-118745345D01*
X93394806Y-118701272D01*
X93423946Y-118691550D01*
X93574348Y-118598478D01*
X93699305Y-118473303D01*
X93789081Y-118327660D01*
X93841852Y-118280168D01*
X93911924Y-118268744D01*
X93977048Y-118297018D01*
X93987510Y-118306805D01*
X94029215Y-118350523D01*
X94096576Y-118421135D01*
X94281542Y-118558754D01*
X94286293Y-118561170D01*
X94286297Y-118561172D01*
X94349481Y-118593296D01*
X94487051Y-118663240D01*
X94492145Y-118664822D01*
X94492148Y-118664823D01*
X94692020Y-118726885D01*
X94707227Y-118731607D01*
X94712516Y-118732308D01*
X94930489Y-118761198D01*
X94930494Y-118761198D01*
X94935774Y-118761898D01*
X94941103Y-118761698D01*
X94941105Y-118761698D01*
X95050966Y-118757574D01*
X95166158Y-118753249D01*
X95188802Y-118748498D01*
X95386572Y-118707002D01*
X95391791Y-118705907D01*
X95396750Y-118703949D01*
X95396752Y-118703948D01*
X95601256Y-118623185D01*
X95601258Y-118623184D01*
X95606221Y-118621224D01*
X95642343Y-118599305D01*
X95798757Y-118504390D01*
X95798756Y-118504390D01*
X95803317Y-118501623D01*
X95843134Y-118467072D01*
X95973412Y-118354023D01*
X95973414Y-118354021D01*
X95977445Y-118350523D01*
X96044500Y-118268744D01*
X96111990Y-118186434D01*
X112178921Y-118186434D01*
X112185708Y-118196135D01*
X112385023Y-118366365D01*
X112389709Y-118370000D01*
X112713442Y-118597523D01*
X112718432Y-118600690D01*
X113062141Y-118796739D01*
X113067422Y-118799429D01*
X113428053Y-118962260D01*
X113433544Y-118964434D01*
X113807906Y-119092607D01*
X113813590Y-119094259D01*
X114198347Y-119186631D01*
X114204162Y-119187740D01*
X114595889Y-119243490D01*
X114601802Y-119244049D01*
X114997031Y-119262688D01*
X115002969Y-119262688D01*
X115398198Y-119244049D01*
X115404111Y-119243490D01*
X115795838Y-119187740D01*
X115801653Y-119186631D01*
X116186410Y-119094259D01*
X116192094Y-119092607D01*
X116566456Y-118964434D01*
X116571947Y-118962260D01*
X116932578Y-118799429D01*
X116937859Y-118796739D01*
X117281568Y-118600690D01*
X117286558Y-118597523D01*
X117610291Y-118370000D01*
X117614977Y-118366365D01*
X117812722Y-118197476D01*
X117821152Y-118184562D01*
X117815145Y-118174355D01*
X115012812Y-115372022D01*
X114998868Y-115364408D01*
X114997035Y-115364539D01*
X114990420Y-115368790D01*
X112186313Y-118172897D01*
X112178921Y-118186434D01*
X96111990Y-118186434D01*
X96120240Y-118176373D01*
X96120244Y-118176367D01*
X96123624Y-118172245D01*
X96237675Y-117971886D01*
X96316337Y-117755175D01*
X96317287Y-117749923D01*
X96356623Y-117532392D01*
X96356624Y-117532385D01*
X96357361Y-117528308D01*
X96358500Y-117504156D01*
X96358500Y-117042110D01*
X96343920Y-116870280D01*
X96342582Y-116865125D01*
X96342581Y-116865119D01*
X96287343Y-116652297D01*
X96287342Y-116652293D01*
X96286001Y-116647128D01*
X96191312Y-116436925D01*
X96062559Y-116245681D01*
X96003918Y-116184209D01*
X95991347Y-116171032D01*
X95903424Y-116078865D01*
X95718458Y-115941246D01*
X95713707Y-115938830D01*
X95713703Y-115938828D01*
X95591731Y-115876815D01*
X95512949Y-115836760D01*
X95507855Y-115835178D01*
X95507852Y-115835177D01*
X95297871Y-115769976D01*
X95292773Y-115768393D01*
X95287484Y-115767692D01*
X95069511Y-115738802D01*
X95069506Y-115738802D01*
X95064226Y-115738102D01*
X95058897Y-115738302D01*
X95058895Y-115738302D01*
X94949034Y-115742427D01*
X94833842Y-115746751D01*
X94828623Y-115747846D01*
X94806566Y-115752474D01*
X94608209Y-115794093D01*
X94603250Y-115796051D01*
X94603248Y-115796052D01*
X94398744Y-115876815D01*
X94398742Y-115876816D01*
X94393779Y-115878776D01*
X94389220Y-115881543D01*
X94389217Y-115881544D01*
X94290832Y-115941246D01*
X94196683Y-115998377D01*
X94192653Y-116001874D01*
X94099484Y-116082722D01*
X94022555Y-116149477D01*
X93993330Y-116185120D01*
X93934671Y-116225114D01*
X93863701Y-116227046D01*
X93802952Y-116190302D01*
X93788752Y-116171532D01*
X93702332Y-116031880D01*
X93698478Y-116025652D01*
X93573303Y-115900695D01*
X93567072Y-115896854D01*
X93428968Y-115811725D01*
X93428966Y-115811724D01*
X93422738Y-115807885D01*
X93342995Y-115781436D01*
X93261389Y-115754368D01*
X93261387Y-115754368D01*
X93254861Y-115752203D01*
X93248025Y-115751503D01*
X93248022Y-115751502D01*
X93204969Y-115747091D01*
X93150400Y-115741500D01*
X91849600Y-115741500D01*
X91846354Y-115741837D01*
X91846350Y-115741837D01*
X91750692Y-115751762D01*
X91750688Y-115751763D01*
X91743834Y-115752474D01*
X91737298Y-115754655D01*
X91737296Y-115754655D01*
X91698220Y-115767692D01*
X91576054Y-115808450D01*
X91425652Y-115901522D01*
X91300695Y-116026697D01*
X91296855Y-116032927D01*
X91296854Y-116032928D01*
X91266161Y-116082722D01*
X91207885Y-116177262D01*
X91152203Y-116345139D01*
X91141500Y-116449600D01*
X91141500Y-118050400D01*
X79592982Y-118050400D01*
X79637675Y-117971886D01*
X79716337Y-117755175D01*
X79717287Y-117749923D01*
X79756623Y-117532392D01*
X79756624Y-117532385D01*
X79757361Y-117528308D01*
X79758500Y-117504156D01*
X79758500Y-117042110D01*
X79743920Y-116870280D01*
X79742582Y-116865125D01*
X79742581Y-116865119D01*
X79687343Y-116652297D01*
X79687342Y-116652293D01*
X79686001Y-116647128D01*
X79591312Y-116436925D01*
X79462559Y-116245681D01*
X79403918Y-116184209D01*
X79391347Y-116171032D01*
X79303424Y-116078865D01*
X79118458Y-115941246D01*
X79113707Y-115938830D01*
X79113703Y-115938828D01*
X78991731Y-115876815D01*
X78912949Y-115836760D01*
X78907855Y-115835178D01*
X78907852Y-115835177D01*
X78697871Y-115769976D01*
X78692773Y-115768393D01*
X78687484Y-115767692D01*
X78469511Y-115738802D01*
X78469506Y-115738802D01*
X78464226Y-115738102D01*
X78458897Y-115738302D01*
X78458895Y-115738302D01*
X78349034Y-115742427D01*
X78233842Y-115746751D01*
X78228623Y-115747846D01*
X78206566Y-115752474D01*
X78008209Y-115794093D01*
X78003250Y-115796051D01*
X78003248Y-115796052D01*
X77798744Y-115876815D01*
X77798742Y-115876816D01*
X77793779Y-115878776D01*
X77789220Y-115881543D01*
X77789217Y-115881544D01*
X77690832Y-115941246D01*
X77596683Y-115998377D01*
X77592653Y-116001874D01*
X77499484Y-116082722D01*
X77422555Y-116149477D01*
X77393330Y-116185120D01*
X77334671Y-116225114D01*
X77263701Y-116227046D01*
X77202952Y-116190302D01*
X77188752Y-116171532D01*
X77102332Y-116031880D01*
X77098478Y-116025652D01*
X76973303Y-115900695D01*
X76967072Y-115896854D01*
X76828968Y-115811725D01*
X76828966Y-115811724D01*
X76822738Y-115807885D01*
X76742995Y-115781436D01*
X76661389Y-115754368D01*
X76661387Y-115754368D01*
X76654861Y-115752203D01*
X76648025Y-115751503D01*
X76648022Y-115751502D01*
X76604969Y-115747091D01*
X76550400Y-115741500D01*
X75249600Y-115741500D01*
X75246354Y-115741837D01*
X75246350Y-115741837D01*
X75150692Y-115751762D01*
X75150688Y-115751763D01*
X75143834Y-115752474D01*
X75137298Y-115754655D01*
X75137296Y-115754655D01*
X75098220Y-115767692D01*
X74976054Y-115808450D01*
X74825652Y-115901522D01*
X74700695Y-116026697D01*
X74696855Y-116032927D01*
X74696854Y-116032928D01*
X74666161Y-116082722D01*
X74607885Y-116177262D01*
X74552203Y-116345139D01*
X74541500Y-116449600D01*
X74541500Y-118050400D01*
X62642982Y-118050400D01*
X62687675Y-117971886D01*
X62766337Y-117755175D01*
X62767287Y-117749923D01*
X62806623Y-117532392D01*
X62806624Y-117532385D01*
X62807361Y-117528308D01*
X62808500Y-117504156D01*
X62808500Y-117042110D01*
X62793920Y-116870280D01*
X62792582Y-116865125D01*
X62792581Y-116865119D01*
X62737343Y-116652297D01*
X62737342Y-116652293D01*
X62736001Y-116647128D01*
X62641312Y-116436925D01*
X62512559Y-116245681D01*
X62453918Y-116184209D01*
X62441347Y-116171032D01*
X62353424Y-116078865D01*
X62168458Y-115941246D01*
X62163707Y-115938830D01*
X62163703Y-115938828D01*
X62041731Y-115876815D01*
X61962949Y-115836760D01*
X61957855Y-115835178D01*
X61957852Y-115835177D01*
X61747871Y-115769976D01*
X61742773Y-115768393D01*
X61737484Y-115767692D01*
X61519511Y-115738802D01*
X61519506Y-115738802D01*
X61514226Y-115738102D01*
X61508897Y-115738302D01*
X61508895Y-115738302D01*
X61399034Y-115742427D01*
X61283842Y-115746751D01*
X61278623Y-115747846D01*
X61256566Y-115752474D01*
X61058209Y-115794093D01*
X61053250Y-115796051D01*
X61053248Y-115796052D01*
X60848744Y-115876815D01*
X60848742Y-115876816D01*
X60843779Y-115878776D01*
X60839220Y-115881543D01*
X60839217Y-115881544D01*
X60740832Y-115941246D01*
X60646683Y-115998377D01*
X60642653Y-116001874D01*
X60549484Y-116082722D01*
X60472555Y-116149477D01*
X60443330Y-116185120D01*
X60384671Y-116225114D01*
X60313701Y-116227046D01*
X60252952Y-116190302D01*
X60238752Y-116171532D01*
X60152332Y-116031880D01*
X60148478Y-116025652D01*
X60023303Y-115900695D01*
X60017072Y-115896854D01*
X59878968Y-115811725D01*
X59878966Y-115811724D01*
X59872738Y-115807885D01*
X59792995Y-115781436D01*
X59711389Y-115754368D01*
X59711387Y-115754368D01*
X59704861Y-115752203D01*
X59698025Y-115751503D01*
X59698022Y-115751502D01*
X59654969Y-115747091D01*
X59600400Y-115741500D01*
X58299600Y-115741500D01*
X58296354Y-115741837D01*
X58296350Y-115741837D01*
X58200692Y-115751762D01*
X58200688Y-115751763D01*
X58193834Y-115752474D01*
X58187298Y-115754655D01*
X58187296Y-115754655D01*
X58148220Y-115767692D01*
X58026054Y-115808450D01*
X57875652Y-115901522D01*
X57750695Y-116026697D01*
X57746855Y-116032927D01*
X57746854Y-116032928D01*
X57716161Y-116082722D01*
X57657885Y-116177262D01*
X57602203Y-116345139D01*
X57591500Y-116449600D01*
X57591500Y-118050400D01*
X37691190Y-118050400D01*
X35012812Y-115372022D01*
X34998868Y-115364408D01*
X34997035Y-115364539D01*
X34990420Y-115368790D01*
X32186313Y-118172897D01*
X32178921Y-118186434D01*
X25508500Y-118186434D01*
X25508500Y-114869073D01*
X30739322Y-114869073D01*
X30745537Y-115264679D01*
X30745911Y-115270629D01*
X30789327Y-115663895D01*
X30790257Y-115669766D01*
X30870494Y-116057212D01*
X30871970Y-116062960D01*
X30988316Y-116441151D01*
X30990320Y-116446716D01*
X31141745Y-116812288D01*
X31144267Y-116817647D01*
X31329411Y-117167323D01*
X31332436Y-117172440D01*
X31549669Y-117503144D01*
X31553159Y-117507947D01*
X31800292Y-117816420D01*
X31813130Y-117823694D01*
X31814439Y-117823621D01*
X31821852Y-117818938D01*
X34627978Y-115012812D01*
X34634356Y-115001132D01*
X35364408Y-115001132D01*
X35364539Y-115002965D01*
X35368790Y-115009580D01*
X38175271Y-117816061D01*
X38189215Y-117823675D01*
X38190524Y-117823582D01*
X38197360Y-117819112D01*
X38199454Y-117816737D01*
X38446841Y-117507947D01*
X38450331Y-117503144D01*
X38667564Y-117172440D01*
X38670589Y-117167323D01*
X38855733Y-116817647D01*
X38858255Y-116812288D01*
X39009680Y-116446716D01*
X39011684Y-116441151D01*
X39128030Y-116062960D01*
X39129506Y-116057212D01*
X39209743Y-115669766D01*
X39210673Y-115663895D01*
X39254145Y-115270124D01*
X39254494Y-115265196D01*
X39262750Y-115002468D01*
X39262711Y-114997530D01*
X39256653Y-114869073D01*
X110739322Y-114869073D01*
X110745537Y-115264679D01*
X110745911Y-115270629D01*
X110789327Y-115663895D01*
X110790257Y-115669766D01*
X110870494Y-116057212D01*
X110871970Y-116062960D01*
X110988316Y-116441151D01*
X110990320Y-116446716D01*
X111141745Y-116812288D01*
X111144267Y-116817647D01*
X111329411Y-117167323D01*
X111332436Y-117172440D01*
X111549669Y-117503144D01*
X111553159Y-117507947D01*
X111800292Y-117816420D01*
X111813130Y-117823694D01*
X111814439Y-117823621D01*
X111821852Y-117818938D01*
X114627978Y-115012812D01*
X114634356Y-115001132D01*
X115364408Y-115001132D01*
X115364539Y-115002965D01*
X115368790Y-115009580D01*
X118175271Y-117816061D01*
X118189215Y-117823675D01*
X118190524Y-117823582D01*
X118197360Y-117819112D01*
X118199454Y-117816737D01*
X118446841Y-117507947D01*
X118450331Y-117503144D01*
X118667564Y-117172440D01*
X118670589Y-117167323D01*
X118855733Y-116817647D01*
X118858255Y-116812288D01*
X119009680Y-116446716D01*
X119011684Y-116441151D01*
X119128030Y-116062960D01*
X119129506Y-116057212D01*
X119209743Y-115669766D01*
X119210673Y-115663895D01*
X119254145Y-115270124D01*
X119254494Y-115265196D01*
X119262750Y-115002468D01*
X119262711Y-114997530D01*
X119244049Y-114601802D01*
X119243490Y-114595889D01*
X119187740Y-114204162D01*
X119186631Y-114198347D01*
X119094259Y-113813590D01*
X119092607Y-113807906D01*
X118964434Y-113433544D01*
X118962260Y-113428053D01*
X118799429Y-113067422D01*
X118796739Y-113062141D01*
X118600690Y-112718432D01*
X118597523Y-112713442D01*
X118370000Y-112389709D01*
X118366365Y-112385023D01*
X118197476Y-112187278D01*
X118184562Y-112178848D01*
X118174355Y-112184855D01*
X115372022Y-114987188D01*
X115364408Y-115001132D01*
X114634356Y-115001132D01*
X114635592Y-114998868D01*
X114635461Y-114997035D01*
X114631210Y-114990420D01*
X111827402Y-112186612D01*
X111813458Y-112178998D01*
X111813205Y-112179016D01*
X111804463Y-112184930D01*
X111717436Y-112280572D01*
X111713649Y-112285150D01*
X111476088Y-112601551D01*
X111472744Y-112606471D01*
X111266001Y-112943845D01*
X111263153Y-112949025D01*
X111089072Y-113304370D01*
X111086723Y-113309797D01*
X110946858Y-113679939D01*
X110945026Y-113685578D01*
X110840622Y-114067215D01*
X110839323Y-114073028D01*
X110771295Y-114462811D01*
X110770554Y-114468674D01*
X110739507Y-114863147D01*
X110739322Y-114869073D01*
X39256653Y-114869073D01*
X39244049Y-114601802D01*
X39243490Y-114595889D01*
X39187740Y-114204162D01*
X39186631Y-114198347D01*
X39094259Y-113813590D01*
X39092607Y-113807906D01*
X38964434Y-113433544D01*
X38962260Y-113428053D01*
X38799429Y-113067422D01*
X38796739Y-113062141D01*
X38600690Y-112718432D01*
X38597523Y-112713442D01*
X38370000Y-112389709D01*
X38366365Y-112385023D01*
X38197476Y-112187278D01*
X38184562Y-112178848D01*
X38174355Y-112184855D01*
X35372022Y-114987188D01*
X35364408Y-115001132D01*
X34634356Y-115001132D01*
X34635592Y-114998868D01*
X34635461Y-114997035D01*
X34631210Y-114990420D01*
X31827402Y-112186612D01*
X31813458Y-112178998D01*
X31813205Y-112179016D01*
X31804463Y-112184930D01*
X31717436Y-112280572D01*
X31713649Y-112285150D01*
X31476088Y-112601551D01*
X31472744Y-112606471D01*
X31266001Y-112943845D01*
X31263153Y-112949025D01*
X31089072Y-113304370D01*
X31086723Y-113309797D01*
X30946858Y-113679939D01*
X30945026Y-113685578D01*
X30840622Y-114067215D01*
X30839323Y-114073028D01*
X30771295Y-114462811D01*
X30770554Y-114468674D01*
X30739507Y-114863147D01*
X30739322Y-114869073D01*
X25508500Y-114869073D01*
X25508500Y-111815964D01*
X32178939Y-111815964D01*
X32178945Y-111816217D01*
X32184445Y-111825235D01*
X34987188Y-114627978D01*
X35001132Y-114635592D01*
X35002965Y-114635461D01*
X35009580Y-114631210D01*
X37816061Y-111824729D01*
X37820847Y-111815964D01*
X112178939Y-111815964D01*
X112178945Y-111816217D01*
X112184445Y-111825235D01*
X114987188Y-114627978D01*
X115001132Y-114635592D01*
X115002965Y-114635461D01*
X115009580Y-114631210D01*
X117816061Y-111824729D01*
X117823675Y-111810785D01*
X117823582Y-111809476D01*
X117819112Y-111802640D01*
X117816737Y-111800546D01*
X117507947Y-111553159D01*
X117503144Y-111549669D01*
X117172440Y-111332436D01*
X117167323Y-111329411D01*
X116817647Y-111144267D01*
X116812288Y-111141745D01*
X116446716Y-110990320D01*
X116441151Y-110988316D01*
X116062960Y-110871970D01*
X116057212Y-110870494D01*
X115669766Y-110790257D01*
X115663895Y-110789327D01*
X115270629Y-110745911D01*
X115264679Y-110745537D01*
X114869073Y-110739322D01*
X114863147Y-110739507D01*
X114468674Y-110770554D01*
X114462811Y-110771295D01*
X114073028Y-110839323D01*
X114067215Y-110840622D01*
X113685578Y-110945026D01*
X113679939Y-110946858D01*
X113309797Y-111086723D01*
X113304370Y-111089072D01*
X112949025Y-111263153D01*
X112943845Y-111266001D01*
X112606471Y-111472744D01*
X112601551Y-111476088D01*
X112285150Y-111713649D01*
X112280572Y-111717436D01*
X112187199Y-111802398D01*
X112178939Y-111815964D01*
X37820847Y-111815964D01*
X37823675Y-111810785D01*
X37823582Y-111809476D01*
X37819112Y-111802640D01*
X37816737Y-111800546D01*
X37507947Y-111553159D01*
X37503144Y-111549669D01*
X37172440Y-111332436D01*
X37167323Y-111329411D01*
X36817647Y-111144267D01*
X36812288Y-111141745D01*
X36446716Y-110990320D01*
X36441151Y-110988316D01*
X36062960Y-110871970D01*
X36057212Y-110870494D01*
X35669766Y-110790257D01*
X35663895Y-110789327D01*
X35270629Y-110745911D01*
X35264679Y-110745537D01*
X34869073Y-110739322D01*
X34863147Y-110739507D01*
X34468674Y-110770554D01*
X34462811Y-110771295D01*
X34073028Y-110839323D01*
X34067215Y-110840622D01*
X33685578Y-110945026D01*
X33679939Y-110946858D01*
X33309797Y-111086723D01*
X33304370Y-111089072D01*
X32949025Y-111263153D01*
X32943845Y-111266001D01*
X32606471Y-111472744D01*
X32601551Y-111476088D01*
X32285150Y-111713649D01*
X32280572Y-111717436D01*
X32187199Y-111802398D01*
X32178939Y-111815964D01*
X25508500Y-111815964D01*
X25508500Y-103147095D01*
X33492001Y-103147095D01*
X33492338Y-103153614D01*
X33502257Y-103249206D01*
X33505149Y-103262600D01*
X33556588Y-103416784D01*
X33562761Y-103429962D01*
X33648063Y-103567807D01*
X33657099Y-103579208D01*
X33771829Y-103693739D01*
X33783240Y-103702751D01*
X33921243Y-103787816D01*
X33934424Y-103793963D01*
X34088710Y-103845138D01*
X34102086Y-103848005D01*
X34196438Y-103857672D01*
X34202854Y-103858000D01*
X34727885Y-103858000D01*
X34743124Y-103853525D01*
X34744329Y-103852135D01*
X34746000Y-103844452D01*
X34746000Y-103839884D01*
X35254000Y-103839884D01*
X35258475Y-103855123D01*
X35259865Y-103856328D01*
X35267548Y-103857999D01*
X35797095Y-103857999D01*
X35803614Y-103857662D01*
X35899206Y-103847743D01*
X35912600Y-103844851D01*
X36066784Y-103793412D01*
X36079962Y-103787239D01*
X36217807Y-103701937D01*
X36229208Y-103692901D01*
X36343739Y-103578171D01*
X36352751Y-103566760D01*
X36437816Y-103428757D01*
X36443963Y-103415576D01*
X36495138Y-103261290D01*
X36498005Y-103247914D01*
X36507672Y-103153562D01*
X36508000Y-103147146D01*
X36508000Y-102772115D01*
X36503525Y-102756876D01*
X36502135Y-102755671D01*
X36494452Y-102754000D01*
X35272115Y-102754000D01*
X35256876Y-102758475D01*
X35255671Y-102759865D01*
X35254000Y-102767548D01*
X35254000Y-103839884D01*
X34746000Y-103839884D01*
X34746000Y-102772115D01*
X34741525Y-102756876D01*
X34740135Y-102755671D01*
X34732452Y-102754000D01*
X33510116Y-102754000D01*
X33494877Y-102758475D01*
X33493672Y-102759865D01*
X33492001Y-102767548D01*
X33492001Y-103147095D01*
X25508500Y-103147095D01*
X25508500Y-99935774D01*
X33488102Y-99935774D01*
X33496751Y-100166158D01*
X33544093Y-100391791D01*
X33628776Y-100606221D01*
X33748377Y-100803317D01*
X33751874Y-100807347D01*
X33838438Y-100907103D01*
X33899477Y-100977445D01*
X33903608Y-100980832D01*
X33935529Y-101007006D01*
X33975524Y-101065666D01*
X33977455Y-101136636D01*
X33940710Y-101197384D01*
X33921941Y-101211584D01*
X33782193Y-101298063D01*
X33770792Y-101307099D01*
X33656261Y-101421829D01*
X33647249Y-101433240D01*
X33562184Y-101571243D01*
X33556037Y-101584424D01*
X33504862Y-101738710D01*
X33501995Y-101752086D01*
X33492328Y-101846438D01*
X33492000Y-101852855D01*
X33492000Y-102227885D01*
X33496475Y-102243124D01*
X33497865Y-102244329D01*
X33505548Y-102246000D01*
X36489884Y-102246000D01*
X36505123Y-102241525D01*
X36506328Y-102240135D01*
X36507999Y-102232452D01*
X36507999Y-101852905D01*
X36507662Y-101846386D01*
X36497743Y-101750794D01*
X36494851Y-101737400D01*
X36443412Y-101583216D01*
X36437239Y-101570038D01*
X36351937Y-101432193D01*
X36342901Y-101420792D01*
X36228171Y-101306261D01*
X36216757Y-101297247D01*
X36077287Y-101211277D01*
X36029793Y-101158505D01*
X36018369Y-101088434D01*
X36046643Y-101023310D01*
X36056430Y-101012847D01*
X36089991Y-100980832D01*
X36171135Y-100903424D01*
X36308754Y-100718458D01*
X36413240Y-100512949D01*
X36449321Y-100396752D01*
X36480024Y-100297871D01*
X36481607Y-100292773D01*
X36482308Y-100287484D01*
X36511198Y-100069511D01*
X36511198Y-100069506D01*
X36511898Y-100064226D01*
X36503249Y-99833842D01*
X36455907Y-99608209D01*
X36443437Y-99576632D01*
X36373185Y-99398744D01*
X36373184Y-99398742D01*
X36371224Y-99393779D01*
X36338161Y-99339292D01*
X36254390Y-99201243D01*
X36251623Y-99196683D01*
X36199809Y-99136972D01*
X36104023Y-99026588D01*
X36104021Y-99026586D01*
X36100523Y-99022555D01*
X36032102Y-98966453D01*
X35926373Y-98879760D01*
X35926367Y-98879756D01*
X35922245Y-98876376D01*
X35917609Y-98873737D01*
X35917606Y-98873735D01*
X35726529Y-98764968D01*
X35721886Y-98762325D01*
X35505175Y-98683663D01*
X35499926Y-98682714D01*
X35499923Y-98682713D01*
X35282392Y-98643377D01*
X35282385Y-98643376D01*
X35278308Y-98642639D01*
X35260586Y-98641803D01*
X35255644Y-98641570D01*
X35255637Y-98641570D01*
X35254156Y-98641500D01*
X34792110Y-98641500D01*
X34725191Y-98647178D01*
X34625591Y-98655629D01*
X34625587Y-98655630D01*
X34620280Y-98656080D01*
X34615125Y-98657418D01*
X34615119Y-98657419D01*
X34402297Y-98712657D01*
X34402293Y-98712658D01*
X34397128Y-98713999D01*
X34392262Y-98716191D01*
X34392259Y-98716192D01*
X34283980Y-98764968D01*
X34186925Y-98808688D01*
X33995681Y-98937441D01*
X33991824Y-98941120D01*
X33991822Y-98941122D01*
X33922464Y-99007287D01*
X33828865Y-99096576D01*
X33691246Y-99281542D01*
X33688830Y-99286293D01*
X33688828Y-99286297D01*
X33657896Y-99347137D01*
X33586760Y-99487051D01*
X33585178Y-99492145D01*
X33585177Y-99492148D01*
X33541878Y-99631593D01*
X33518393Y-99707227D01*
X33517692Y-99712516D01*
X33492407Y-99903295D01*
X33488102Y-99935774D01*
X25508500Y-99935774D01*
X25508500Y-84397095D01*
X33492001Y-84397095D01*
X33492338Y-84403614D01*
X33502257Y-84499206D01*
X33505149Y-84512600D01*
X33556588Y-84666784D01*
X33562761Y-84679962D01*
X33648063Y-84817807D01*
X33657099Y-84829208D01*
X33771829Y-84943739D01*
X33783240Y-84952751D01*
X33921243Y-85037816D01*
X33934424Y-85043963D01*
X34088710Y-85095138D01*
X34102086Y-85098005D01*
X34196438Y-85107672D01*
X34202854Y-85108000D01*
X34727885Y-85108000D01*
X34743124Y-85103525D01*
X34744329Y-85102135D01*
X34746000Y-85094452D01*
X34746000Y-85089884D01*
X35254000Y-85089884D01*
X35258475Y-85105123D01*
X35259865Y-85106328D01*
X35267548Y-85107999D01*
X35797095Y-85107999D01*
X35803614Y-85107662D01*
X35899206Y-85097743D01*
X35912600Y-85094851D01*
X36066784Y-85043412D01*
X36079962Y-85037239D01*
X36217807Y-84951937D01*
X36229208Y-84942901D01*
X36343739Y-84828171D01*
X36352751Y-84816760D01*
X36437816Y-84678757D01*
X36443963Y-84665576D01*
X36495138Y-84511290D01*
X36498005Y-84497914D01*
X36507672Y-84403562D01*
X36508000Y-84397146D01*
X36508000Y-84304890D01*
X42686463Y-84304890D01*
X42704163Y-84485410D01*
X42761418Y-84657523D01*
X42765065Y-84663545D01*
X42765066Y-84663547D01*
X42831054Y-84772506D01*
X42855380Y-84812674D01*
X42860269Y-84817737D01*
X42860270Y-84817738D01*
X42903152Y-84862143D01*
X42981382Y-84943152D01*
X43133159Y-85042472D01*
X43139763Y-85044928D01*
X43139765Y-85044929D01*
X43296558Y-85103240D01*
X43296560Y-85103240D01*
X43303168Y-85105698D01*
X43386995Y-85116883D01*
X43475980Y-85128757D01*
X43475984Y-85128757D01*
X43482961Y-85129688D01*
X43489972Y-85129050D01*
X43489976Y-85129050D01*
X43635120Y-85115840D01*
X43663600Y-85113248D01*
X43670302Y-85111070D01*
X43670304Y-85111070D01*
X43829409Y-85059374D01*
X43829412Y-85059373D01*
X43836108Y-85057197D01*
X43944603Y-84992521D01*
X44009120Y-84974750D01*
X45789800Y-84974750D01*
X45857921Y-84994752D01*
X45904414Y-85048408D01*
X45914518Y-85118682D01*
X45885024Y-85183262D01*
X45878895Y-85189845D01*
X43129895Y-87938845D01*
X43121115Y-87946835D01*
X43121113Y-87946837D01*
X43114420Y-87951084D01*
X43108994Y-87956862D01*
X43108993Y-87956863D01*
X43065896Y-88002757D01*
X43063141Y-88005599D01*
X43042573Y-88026167D01*
X43039856Y-88029670D01*
X43032148Y-88038695D01*
X43000528Y-88072367D01*
X42996707Y-88079318D01*
X42996706Y-88079319D01*
X42990197Y-88091158D01*
X42979343Y-88107682D01*
X42971518Y-88117771D01*
X42966196Y-88124632D01*
X42963049Y-88131904D01*
X42963048Y-88131906D01*
X42947846Y-88167035D01*
X42942624Y-88177695D01*
X42939846Y-88182749D01*
X42920376Y-88218163D01*
X42915041Y-88238941D01*
X42908642Y-88257631D01*
X42900120Y-88277324D01*
X42897510Y-88293803D01*
X42892894Y-88322948D01*
X42890487Y-88334571D01*
X42879000Y-88379312D01*
X42879000Y-88400759D01*
X42877449Y-88420469D01*
X42874094Y-88441652D01*
X42874840Y-88449543D01*
X42878441Y-88487638D01*
X42879000Y-88499496D01*
X42879000Y-93029625D01*
X42858911Y-93097880D01*
X42841711Y-93124570D01*
X42808735Y-93175738D01*
X42806326Y-93182358D01*
X42806324Y-93182361D01*
X42749106Y-93339566D01*
X42746697Y-93346185D01*
X42723963Y-93526140D01*
X42741663Y-93706660D01*
X42798918Y-93878773D01*
X42802565Y-93884795D01*
X42802566Y-93884797D01*
X42879801Y-94012327D01*
X42892880Y-94033924D01*
X43018882Y-94164402D01*
X43170659Y-94263722D01*
X43177263Y-94266178D01*
X43177265Y-94266179D01*
X43334058Y-94324490D01*
X43334060Y-94324490D01*
X43340668Y-94326948D01*
X43424495Y-94338133D01*
X43513480Y-94350007D01*
X43513484Y-94350007D01*
X43520461Y-94350938D01*
X43527472Y-94350300D01*
X43527476Y-94350300D01*
X43669959Y-94337332D01*
X43701100Y-94334498D01*
X43707802Y-94332320D01*
X43707804Y-94332320D01*
X43866909Y-94280624D01*
X43866912Y-94280623D01*
X43873608Y-94278447D01*
X43982487Y-94213542D01*
X44023360Y-94189177D01*
X44023362Y-94189176D01*
X44029412Y-94185569D01*
X44160766Y-94060482D01*
X44261143Y-93909402D01*
X44325555Y-93739838D01*
X44327326Y-93727240D01*
X44350248Y-93564139D01*
X44350248Y-93564136D01*
X44350799Y-93560217D01*
X44351116Y-93537500D01*
X44330897Y-93357245D01*
X44327223Y-93346695D01*
X44273564Y-93192606D01*
X44273562Y-93192603D01*
X44271245Y-93185948D01*
X44229779Y-93119588D01*
X44215146Y-93096170D01*
X44196000Y-93029401D01*
X44196000Y-88787450D01*
X44216002Y-88719329D01*
X44232905Y-88698355D01*
X49942620Y-82988640D01*
X69186463Y-82988640D01*
X69204163Y-83169160D01*
X69261418Y-83341273D01*
X69265065Y-83347295D01*
X69265066Y-83347297D01*
X69323276Y-83443413D01*
X69341500Y-83508684D01*
X69341500Y-95917944D01*
X69340941Y-95929800D01*
X69339212Y-95937537D01*
X69339461Y-95945459D01*
X69341438Y-96008369D01*
X69341500Y-96012327D01*
X69341500Y-96041432D01*
X69342056Y-96045832D01*
X69342988Y-96057664D01*
X69344438Y-96103831D01*
X69346650Y-96111444D01*
X69346650Y-96111445D01*
X69350419Y-96124416D01*
X69354430Y-96143782D01*
X69357118Y-96165064D01*
X69360034Y-96172429D01*
X69360035Y-96172433D01*
X69374126Y-96208021D01*
X69377965Y-96219231D01*
X69390855Y-96263600D01*
X69401775Y-96282065D01*
X69410466Y-96299805D01*
X69418365Y-96319756D01*
X69427570Y-96332425D01*
X69445516Y-96357126D01*
X69452033Y-96367048D01*
X69471507Y-96399977D01*
X69471510Y-96399981D01*
X69475547Y-96406807D01*
X69490711Y-96421971D01*
X69503551Y-96437004D01*
X69516159Y-96454357D01*
X69549146Y-96481646D01*
X69551752Y-96483802D01*
X69560532Y-96491792D01*
X72076341Y-99007600D01*
X72084331Y-99016381D01*
X72084339Y-99016390D01*
X72088584Y-99023080D01*
X72094359Y-99028503D01*
X72140274Y-99071620D01*
X72143116Y-99074375D01*
X72163667Y-99094926D01*
X72166801Y-99097357D01*
X72167163Y-99097638D01*
X72176191Y-99105348D01*
X72209867Y-99136972D01*
X72216818Y-99140793D01*
X72216819Y-99140794D01*
X72228655Y-99147301D01*
X72245183Y-99158157D01*
X72262131Y-99171304D01*
X72304545Y-99189659D01*
X72315183Y-99194871D01*
X72355663Y-99217124D01*
X72363340Y-99219095D01*
X72363345Y-99219097D01*
X72376426Y-99222455D01*
X72395134Y-99228860D01*
X72414823Y-99237380D01*
X72422649Y-99238619D01*
X72422651Y-99238620D01*
X72447159Y-99242501D01*
X72460459Y-99244608D01*
X72472070Y-99247012D01*
X72503107Y-99254981D01*
X72509135Y-99256529D01*
X72509136Y-99256529D01*
X72516812Y-99258500D01*
X72538258Y-99258500D01*
X72557968Y-99260051D01*
X72579151Y-99263406D01*
X72625140Y-99259059D01*
X72636995Y-99258500D01*
X113836726Y-99258500D01*
X113904847Y-99278502D01*
X113931963Y-99302002D01*
X114046250Y-99433938D01*
X114050230Y-99437242D01*
X114054981Y-99441187D01*
X114094616Y-99500090D01*
X114096113Y-99571071D01*
X114058997Y-99631593D01*
X114018724Y-99656112D01*
X113903295Y-99699385D01*
X113786739Y-99786739D01*
X113699385Y-99903295D01*
X113648255Y-100039684D01*
X113641500Y-100101866D01*
X113641500Y-101898134D01*
X113648255Y-101960316D01*
X113699385Y-102096705D01*
X113786739Y-102213261D01*
X113903295Y-102300615D01*
X114039684Y-102351745D01*
X114101866Y-102358500D01*
X115898134Y-102358500D01*
X115960316Y-102351745D01*
X116096705Y-102300615D01*
X116213261Y-102213261D01*
X116300615Y-102096705D01*
X116351745Y-101960316D01*
X116358500Y-101898134D01*
X116358500Y-100101866D01*
X116351745Y-100039684D01*
X116300615Y-99903295D01*
X116213261Y-99786739D01*
X116096705Y-99699385D01*
X116084132Y-99694672D01*
X115978203Y-99654960D01*
X115921439Y-99612318D01*
X115896739Y-99545756D01*
X115911947Y-99476408D01*
X115933493Y-99447727D01*
X115951251Y-99430031D01*
X116038096Y-99343489D01*
X116099167Y-99258500D01*
X116165435Y-99166277D01*
X116168453Y-99162077D01*
X116173395Y-99152079D01*
X116265136Y-98966453D01*
X116265137Y-98966451D01*
X116267430Y-98961811D01*
X116313046Y-98811673D01*
X116330865Y-98753023D01*
X116330865Y-98753021D01*
X116332370Y-98748069D01*
X116361529Y-98526590D01*
X116363156Y-98460000D01*
X116344852Y-98237361D01*
X116290431Y-98020702D01*
X116201354Y-97815840D01*
X116080014Y-97628277D01*
X115929670Y-97463051D01*
X115925619Y-97459852D01*
X115925615Y-97459848D01*
X115758414Y-97327800D01*
X115758410Y-97327798D01*
X115754359Y-97324598D01*
X115713053Y-97301796D01*
X115663084Y-97251364D01*
X115648312Y-97181921D01*
X115673428Y-97115516D01*
X115700780Y-97088909D01*
X115744603Y-97057650D01*
X115879860Y-96961173D01*
X116038096Y-96803489D01*
X116097594Y-96720689D01*
X116165435Y-96626277D01*
X116168453Y-96622077D01*
X116174123Y-96610606D01*
X116265136Y-96426453D01*
X116265137Y-96426451D01*
X116267430Y-96421811D01*
X116317809Y-96255994D01*
X116330865Y-96213023D01*
X116330865Y-96213021D01*
X116332370Y-96208069D01*
X116361529Y-95986590D01*
X116361611Y-95983240D01*
X116363074Y-95923365D01*
X116363074Y-95923361D01*
X116363156Y-95920000D01*
X116344852Y-95697361D01*
X116290431Y-95480702D01*
X116201354Y-95275840D01*
X116080014Y-95088277D01*
X115929670Y-94923051D01*
X115925619Y-94919852D01*
X115925615Y-94919848D01*
X115758414Y-94787800D01*
X115758410Y-94787798D01*
X115754359Y-94784598D01*
X115713053Y-94761796D01*
X115663084Y-94711364D01*
X115648312Y-94641921D01*
X115673428Y-94575516D01*
X115700780Y-94548909D01*
X115744603Y-94517650D01*
X115879860Y-94421173D01*
X115894277Y-94406807D01*
X116020901Y-94280624D01*
X116038096Y-94263489D01*
X116097594Y-94180689D01*
X116165435Y-94086277D01*
X116168453Y-94082077D01*
X116176725Y-94065341D01*
X116265136Y-93886453D01*
X116265137Y-93886451D01*
X116267430Y-93881811D01*
X116332370Y-93668069D01*
X116361529Y-93446590D01*
X116363156Y-93380000D01*
X116344852Y-93157361D01*
X116290431Y-92940702D01*
X116201354Y-92735840D01*
X116080014Y-92548277D01*
X115929670Y-92383051D01*
X115925619Y-92379852D01*
X115925615Y-92379848D01*
X115758414Y-92247800D01*
X115758410Y-92247798D01*
X115754359Y-92244598D01*
X115713053Y-92221796D01*
X115663084Y-92171364D01*
X115648312Y-92101921D01*
X115673428Y-92035516D01*
X115700780Y-92008909D01*
X115744603Y-91977650D01*
X115879860Y-91881173D01*
X116038096Y-91723489D01*
X116097594Y-91640689D01*
X116165435Y-91546277D01*
X116168453Y-91542077D01*
X116267430Y-91341811D01*
X116332370Y-91128069D01*
X116361529Y-90906590D01*
X116363156Y-90840000D01*
X116344852Y-90617361D01*
X116290431Y-90400702D01*
X116201354Y-90195840D01*
X116080014Y-90008277D01*
X115929670Y-89843051D01*
X115925619Y-89839852D01*
X115925615Y-89839848D01*
X115758414Y-89707800D01*
X115758410Y-89707798D01*
X115754359Y-89704598D01*
X115713053Y-89681796D01*
X115663084Y-89631364D01*
X115648312Y-89561921D01*
X115673428Y-89495516D01*
X115700780Y-89468909D01*
X115744603Y-89437650D01*
X115879860Y-89341173D01*
X116038096Y-89183489D01*
X116097594Y-89100689D01*
X116165435Y-89006277D01*
X116168453Y-89002077D01*
X116267430Y-88801811D01*
X116332370Y-88588069D01*
X116361529Y-88366590D01*
X116361611Y-88363240D01*
X116363074Y-88303365D01*
X116363074Y-88303361D01*
X116363156Y-88300000D01*
X116344852Y-88077361D01*
X116290431Y-87860702D01*
X116201354Y-87655840D01*
X116131337Y-87547610D01*
X116082822Y-87472617D01*
X116082820Y-87472614D01*
X116080014Y-87468277D01*
X115929670Y-87303051D01*
X115925619Y-87299852D01*
X115925615Y-87299848D01*
X115758414Y-87167800D01*
X115758410Y-87167798D01*
X115754359Y-87164598D01*
X115713053Y-87141796D01*
X115663084Y-87091364D01*
X115648312Y-87021921D01*
X115673428Y-86955516D01*
X115700780Y-86928909D01*
X115744603Y-86897650D01*
X115879860Y-86801173D01*
X116038096Y-86643489D01*
X116097594Y-86560689D01*
X116165435Y-86466277D01*
X116168453Y-86462077D01*
X116267430Y-86261811D01*
X116299900Y-86154940D01*
X116330865Y-86053023D01*
X116330865Y-86053021D01*
X116332370Y-86048069D01*
X116361529Y-85826590D01*
X116361611Y-85823240D01*
X116363074Y-85763365D01*
X116363074Y-85763361D01*
X116363156Y-85760000D01*
X116344852Y-85537361D01*
X116290431Y-85320702D01*
X116201354Y-85115840D01*
X116117209Y-84985771D01*
X116082822Y-84932617D01*
X116082820Y-84932614D01*
X116080014Y-84928277D01*
X115929670Y-84763051D01*
X115925619Y-84759852D01*
X115925615Y-84759848D01*
X115758414Y-84627800D01*
X115758410Y-84627798D01*
X115754359Y-84624598D01*
X115712569Y-84601529D01*
X115662598Y-84551097D01*
X115647826Y-84481654D01*
X115672942Y-84415248D01*
X115700294Y-84388641D01*
X115875328Y-84263792D01*
X115883200Y-84257139D01*
X116034052Y-84106812D01*
X116040730Y-84098965D01*
X116165003Y-83926020D01*
X116170313Y-83917183D01*
X116264670Y-83726267D01*
X116268469Y-83716672D01*
X116330377Y-83512910D01*
X116332555Y-83502837D01*
X116333986Y-83491962D01*
X116331775Y-83477778D01*
X116318617Y-83474000D01*
X113683225Y-83474000D01*
X113669694Y-83477973D01*
X113668257Y-83487966D01*
X113698565Y-83622446D01*
X113701645Y-83632275D01*
X113781770Y-83829603D01*
X113786413Y-83838794D01*
X113897694Y-84020388D01*
X113903777Y-84028699D01*
X114043213Y-84189667D01*
X114050580Y-84196883D01*
X114214434Y-84332916D01*
X114222881Y-84338831D01*
X114291969Y-84379203D01*
X114340693Y-84430842D01*
X114353764Y-84500625D01*
X114327033Y-84566396D01*
X114286584Y-84599752D01*
X114273607Y-84606507D01*
X114269474Y-84609610D01*
X114269471Y-84609612D01*
X114138589Y-84707881D01*
X114094965Y-84740635D01*
X114091393Y-84744373D01*
X113981985Y-84858862D01*
X113940629Y-84902138D01*
X113814743Y-85086680D01*
X113720688Y-85289305D01*
X113660989Y-85504570D01*
X113637251Y-85726695D01*
X113637548Y-85731848D01*
X113637548Y-85731851D01*
X113643011Y-85826590D01*
X113650110Y-85949715D01*
X113651247Y-85954761D01*
X113651248Y-85954767D01*
X113671119Y-86042939D01*
X113699222Y-86167639D01*
X113783266Y-86374616D01*
X113899987Y-86565088D01*
X114046250Y-86733938D01*
X114218126Y-86876632D01*
X114271130Y-86907605D01*
X114291445Y-86919476D01*
X114340169Y-86971114D01*
X114353240Y-87040897D01*
X114326509Y-87106669D01*
X114286055Y-87140027D01*
X114280571Y-87142882D01*
X114273607Y-87146507D01*
X114269474Y-87149610D01*
X114269471Y-87149612D01*
X114245247Y-87167800D01*
X114094965Y-87280635D01*
X113940629Y-87442138D01*
X113814743Y-87626680D01*
X113782470Y-87696206D01*
X113747832Y-87770829D01*
X113720688Y-87829305D01*
X113660989Y-88044570D01*
X113637251Y-88266695D01*
X113637548Y-88271848D01*
X113637548Y-88271851D01*
X113644981Y-88400759D01*
X113650110Y-88489715D01*
X113651247Y-88494761D01*
X113651248Y-88494767D01*
X113652314Y-88499496D01*
X113699222Y-88707639D01*
X113783266Y-88914616D01*
X113899987Y-89105088D01*
X114046250Y-89273938D01*
X114218126Y-89416632D01*
X114288595Y-89457811D01*
X114291445Y-89459476D01*
X114340169Y-89511114D01*
X114353240Y-89580897D01*
X114326509Y-89646669D01*
X114286055Y-89680027D01*
X114273607Y-89686507D01*
X114269474Y-89689610D01*
X114269471Y-89689612D01*
X114245247Y-89707800D01*
X114094965Y-89820635D01*
X113940629Y-89982138D01*
X113814743Y-90166680D01*
X113720688Y-90369305D01*
X113660989Y-90584570D01*
X113637251Y-90806695D01*
X113637548Y-90811848D01*
X113637548Y-90811851D01*
X113643011Y-90906590D01*
X113650110Y-91029715D01*
X113651247Y-91034761D01*
X113651248Y-91034767D01*
X113671119Y-91122939D01*
X113699222Y-91247639D01*
X113783266Y-91454616D01*
X113899987Y-91645088D01*
X114046250Y-91813938D01*
X114218126Y-91956632D01*
X114288595Y-91997811D01*
X114291445Y-91999476D01*
X114340169Y-92051114D01*
X114353240Y-92120897D01*
X114326509Y-92186669D01*
X114286055Y-92220027D01*
X114273607Y-92226507D01*
X114269474Y-92229610D01*
X114269471Y-92229612D01*
X114245247Y-92247800D01*
X114094965Y-92360635D01*
X113940629Y-92522138D01*
X113814743Y-92706680D01*
X113720688Y-92909305D01*
X113660989Y-93124570D01*
X113637251Y-93346695D01*
X113637548Y-93351848D01*
X113637548Y-93351851D01*
X113648481Y-93541462D01*
X113650110Y-93569715D01*
X113651247Y-93574761D01*
X113651248Y-93574767D01*
X113671119Y-93662939D01*
X113699222Y-93787639D01*
X113783266Y-93994616D01*
X113785965Y-93999020D01*
X113887311Y-94164402D01*
X113899987Y-94185088D01*
X114046250Y-94353938D01*
X114218126Y-94496632D01*
X114288595Y-94537811D01*
X114291445Y-94539476D01*
X114340169Y-94591114D01*
X114353240Y-94660897D01*
X114326509Y-94726669D01*
X114286055Y-94760027D01*
X114273607Y-94766507D01*
X114269474Y-94769610D01*
X114269471Y-94769612D01*
X114245247Y-94787800D01*
X114094965Y-94900635D01*
X113940629Y-95062138D01*
X113814743Y-95246680D01*
X113799003Y-95280590D01*
X113738714Y-95410472D01*
X113720688Y-95449305D01*
X113660989Y-95664570D01*
X113637251Y-95886695D01*
X113637548Y-95891848D01*
X113637548Y-95891851D01*
X113646426Y-96045819D01*
X113650110Y-96109715D01*
X113651247Y-96114761D01*
X113651248Y-96114767D01*
X113672275Y-96208069D01*
X113699222Y-96327639D01*
X113783266Y-96534616D01*
X113785965Y-96539020D01*
X113874305Y-96683178D01*
X113899987Y-96725088D01*
X114046250Y-96893938D01*
X114218126Y-97036632D01*
X114288595Y-97077811D01*
X114291445Y-97079476D01*
X114340169Y-97131114D01*
X114353240Y-97200897D01*
X114326509Y-97266669D01*
X114286055Y-97300027D01*
X114273607Y-97306507D01*
X114269474Y-97309610D01*
X114269471Y-97309612D01*
X114245247Y-97327800D01*
X114094965Y-97440635D01*
X113940629Y-97602138D01*
X113814743Y-97786680D01*
X113812565Y-97791373D01*
X113812560Y-97791381D01*
X113776739Y-97868551D01*
X113729915Y-97921918D01*
X113662452Y-97941500D01*
X72924949Y-97941500D01*
X72856828Y-97921498D01*
X72835854Y-97904595D01*
X70695405Y-95764145D01*
X70661379Y-95701833D01*
X70658500Y-95675050D01*
X70658500Y-83507991D01*
X70679551Y-83438265D01*
X70723643Y-83371902D01*
X70788055Y-83202338D01*
X70789035Y-83195366D01*
X70812748Y-83026639D01*
X70812748Y-83026636D01*
X70813299Y-83022717D01*
X70813616Y-83000000D01*
X70793397Y-82819745D01*
X70791080Y-82813091D01*
X70736064Y-82655106D01*
X70736062Y-82655103D01*
X70733745Y-82648448D01*
X70708071Y-82607361D01*
X70641359Y-82500598D01*
X70637626Y-82494624D01*
X70632664Y-82489627D01*
X70514778Y-82370915D01*
X70514774Y-82370912D01*
X70509815Y-82365918D01*
X70498697Y-82358862D01*
X70425734Y-82312559D01*
X70356666Y-82268727D01*
X70327463Y-82258328D01*
X70192425Y-82210243D01*
X70192420Y-82210242D01*
X70185790Y-82207881D01*
X70178802Y-82207048D01*
X70178799Y-82207047D01*
X70055698Y-82192368D01*
X70005680Y-82186404D01*
X69998677Y-82187140D01*
X69998676Y-82187140D01*
X69832288Y-82204628D01*
X69832286Y-82204629D01*
X69825288Y-82205364D01*
X69653579Y-82263818D01*
X69647575Y-82267512D01*
X69505095Y-82355166D01*
X69505092Y-82355168D01*
X69499088Y-82358862D01*
X69494053Y-82363793D01*
X69494050Y-82363795D01*
X69470726Y-82386636D01*
X69369493Y-82485771D01*
X69271235Y-82638238D01*
X69268826Y-82644858D01*
X69268824Y-82644861D01*
X69228930Y-82754470D01*
X69209197Y-82808685D01*
X69186463Y-82988640D01*
X49942620Y-82988640D01*
X58442620Y-74488640D01*
X64686463Y-74488640D01*
X64704163Y-74669160D01*
X64761418Y-74841273D01*
X64765065Y-74847295D01*
X64765066Y-74847297D01*
X64835155Y-74963028D01*
X64855380Y-74996424D01*
X64860269Y-75001487D01*
X64860270Y-75001488D01*
X64863732Y-75005073D01*
X64981382Y-75126902D01*
X65133159Y-75226222D01*
X65139763Y-75228678D01*
X65139765Y-75228679D01*
X65296558Y-75286990D01*
X65296560Y-75286990D01*
X65303168Y-75289448D01*
X65310153Y-75290380D01*
X65310157Y-75290381D01*
X65322339Y-75292006D01*
X65324385Y-75292279D01*
X65389262Y-75321114D01*
X65396817Y-75328077D01*
X68976341Y-78907600D01*
X68984331Y-78916381D01*
X68984339Y-78916390D01*
X68988584Y-78923080D01*
X68994359Y-78928503D01*
X69040274Y-78971620D01*
X69043116Y-78974375D01*
X69063667Y-78994926D01*
X69066801Y-78997357D01*
X69067163Y-78997638D01*
X69076191Y-79005348D01*
X69109867Y-79036972D01*
X69116818Y-79040793D01*
X69116819Y-79040794D01*
X69128655Y-79047301D01*
X69145183Y-79058157D01*
X69162131Y-79071304D01*
X69204545Y-79089659D01*
X69215183Y-79094871D01*
X69255663Y-79117124D01*
X69263340Y-79119095D01*
X69263345Y-79119097D01*
X69276426Y-79122455D01*
X69295134Y-79128860D01*
X69314823Y-79137380D01*
X69322649Y-79138619D01*
X69322651Y-79138620D01*
X69347159Y-79142501D01*
X69360459Y-79144608D01*
X69372070Y-79147012D01*
X69403107Y-79154981D01*
X69409135Y-79156529D01*
X69409136Y-79156529D01*
X69416812Y-79158500D01*
X69438258Y-79158500D01*
X69457968Y-79160051D01*
X69479151Y-79163406D01*
X69525140Y-79159059D01*
X69536995Y-79158500D01*
X84675050Y-79158500D01*
X84743171Y-79178502D01*
X84764145Y-79195405D01*
X85169683Y-79600943D01*
X85203598Y-79663403D01*
X85204163Y-79669160D01*
X85261418Y-79841273D01*
X85265065Y-79847295D01*
X85265066Y-79847297D01*
X85318474Y-79935484D01*
X85355380Y-79996424D01*
X85360269Y-80001487D01*
X85360270Y-80001488D01*
X85373288Y-80014968D01*
X85481382Y-80126902D01*
X85487278Y-80130760D01*
X85579521Y-80191122D01*
X85633159Y-80226222D01*
X85639763Y-80228678D01*
X85639765Y-80228679D01*
X85796558Y-80286990D01*
X85796560Y-80286990D01*
X85803168Y-80289448D01*
X85886995Y-80300633D01*
X85975980Y-80312507D01*
X85975984Y-80312507D01*
X85982961Y-80313438D01*
X85989972Y-80312800D01*
X85989976Y-80312800D01*
X86132459Y-80299832D01*
X86163600Y-80296998D01*
X86170302Y-80294820D01*
X86170304Y-80294820D01*
X86326564Y-80244048D01*
X86397532Y-80242021D01*
X86458329Y-80278683D01*
X86489655Y-80342395D01*
X86491500Y-80363881D01*
X86491500Y-80525050D01*
X86471498Y-80593171D01*
X86454595Y-80614145D01*
X86399134Y-80669606D01*
X86337096Y-80703572D01*
X86332295Y-80704628D01*
X86325288Y-80705364D01*
X86153579Y-80763818D01*
X86147575Y-80767512D01*
X86005095Y-80855166D01*
X86005092Y-80855168D01*
X85999088Y-80858862D01*
X85994053Y-80863793D01*
X85994050Y-80863795D01*
X85903847Y-80952129D01*
X85869493Y-80985771D01*
X85771235Y-81138238D01*
X85768826Y-81144858D01*
X85768824Y-81144861D01*
X85753933Y-81185774D01*
X85709197Y-81308685D01*
X85686463Y-81488640D01*
X85704163Y-81669160D01*
X85761418Y-81841273D01*
X85765065Y-81847295D01*
X85765066Y-81847297D01*
X85845191Y-81979599D01*
X85855380Y-81996424D01*
X85860269Y-82001487D01*
X85860270Y-82001488D01*
X85875942Y-82017716D01*
X85908875Y-82080612D01*
X85902576Y-82151328D01*
X85874401Y-82194339D01*
X83264145Y-84804595D01*
X83201833Y-84838621D01*
X83175050Y-84841500D01*
X82007944Y-84841500D01*
X81940430Y-84821885D01*
X81913185Y-84804595D01*
X81856666Y-84768727D01*
X81788272Y-84744373D01*
X81692425Y-84710243D01*
X81692420Y-84710242D01*
X81685790Y-84707881D01*
X81678802Y-84707048D01*
X81678799Y-84707047D01*
X81555698Y-84692368D01*
X81505680Y-84686404D01*
X81498677Y-84687140D01*
X81498676Y-84687140D01*
X81332288Y-84704628D01*
X81332286Y-84704629D01*
X81325288Y-84705364D01*
X81153579Y-84763818D01*
X81147575Y-84767512D01*
X81005095Y-84855166D01*
X81005092Y-84855168D01*
X80999088Y-84858862D01*
X80994053Y-84863793D01*
X80994050Y-84863795D01*
X80880747Y-84974750D01*
X80869493Y-84985771D01*
X80771235Y-85138238D01*
X80768826Y-85144858D01*
X80768824Y-85144861D01*
X80716251Y-85289305D01*
X80709197Y-85308685D01*
X80686463Y-85488640D01*
X80704163Y-85669160D01*
X80706387Y-85675845D01*
X80707851Y-85682733D01*
X80706607Y-85682998D01*
X80708872Y-85746678D01*
X80672636Y-85807731D01*
X80609144Y-85839501D01*
X80586790Y-85841500D01*
X79824950Y-85841500D01*
X79756829Y-85821498D01*
X79735855Y-85804595D01*
X79329955Y-85398695D01*
X79295929Y-85336383D01*
X79294769Y-85329326D01*
X79294182Y-85326743D01*
X79293397Y-85319745D01*
X79233745Y-85148448D01*
X79215145Y-85118682D01*
X79141359Y-85000598D01*
X79137626Y-84994624D01*
X79123941Y-84980843D01*
X79014778Y-84870915D01*
X79014774Y-84870912D01*
X79009815Y-84865918D01*
X78998697Y-84858862D01*
X78932354Y-84816760D01*
X78856666Y-84768727D01*
X78788272Y-84744373D01*
X78692425Y-84710243D01*
X78692420Y-84710242D01*
X78685790Y-84707881D01*
X78678802Y-84707048D01*
X78678799Y-84707047D01*
X78555698Y-84692368D01*
X78505680Y-84686404D01*
X78498677Y-84687140D01*
X78498676Y-84687140D01*
X78332288Y-84704628D01*
X78332286Y-84704629D01*
X78325288Y-84705364D01*
X78153579Y-84763818D01*
X78147575Y-84767512D01*
X78005095Y-84855166D01*
X78005092Y-84855168D01*
X77999088Y-84858862D01*
X77994053Y-84863793D01*
X77994050Y-84863795D01*
X77880747Y-84974750D01*
X77869493Y-84985771D01*
X77771235Y-85138238D01*
X77768826Y-85144858D01*
X77768824Y-85144861D01*
X77716251Y-85289305D01*
X77709197Y-85308685D01*
X77686463Y-85488640D01*
X77704163Y-85669160D01*
X77761418Y-85841273D01*
X77765065Y-85847295D01*
X77765066Y-85847297D01*
X77830152Y-85954767D01*
X77855380Y-85996424D01*
X77981382Y-86126902D01*
X78133159Y-86226222D01*
X78139763Y-86228678D01*
X78139765Y-86228679D01*
X78296558Y-86286990D01*
X78296560Y-86286990D01*
X78303168Y-86289448D01*
X78310153Y-86290380D01*
X78310157Y-86290381D01*
X78322339Y-86292006D01*
X78324385Y-86292279D01*
X78389262Y-86321114D01*
X78396817Y-86328077D01*
X78976345Y-86907605D01*
X78984335Y-86916385D01*
X78988584Y-86923080D01*
X78994362Y-86928506D01*
X78994363Y-86928507D01*
X79040257Y-86971604D01*
X79043099Y-86974359D01*
X79063667Y-86994927D01*
X79067170Y-86997644D01*
X79076195Y-87005352D01*
X79109867Y-87036972D01*
X79116818Y-87040793D01*
X79116819Y-87040794D01*
X79128658Y-87047303D01*
X79145182Y-87058157D01*
X79155271Y-87065982D01*
X79162132Y-87071304D01*
X79169404Y-87074451D01*
X79169406Y-87074452D01*
X79204535Y-87089654D01*
X79215195Y-87094876D01*
X79245168Y-87111354D01*
X79255663Y-87117124D01*
X79276441Y-87122459D01*
X79295131Y-87128858D01*
X79314824Y-87137380D01*
X79349563Y-87142882D01*
X79360448Y-87144606D01*
X79372071Y-87147013D01*
X79396754Y-87153350D01*
X79416812Y-87158500D01*
X79438259Y-87158500D01*
X79457969Y-87160051D01*
X79479152Y-87163406D01*
X79525141Y-87159059D01*
X79536996Y-87158500D01*
X83917944Y-87158500D01*
X83929800Y-87159059D01*
X83929803Y-87159059D01*
X83937537Y-87160788D01*
X84008369Y-87158562D01*
X84012327Y-87158500D01*
X84041432Y-87158500D01*
X84045832Y-87157944D01*
X84057664Y-87157012D01*
X84103831Y-87155562D01*
X84124421Y-87149580D01*
X84143782Y-87145570D01*
X84151416Y-87144606D01*
X84157204Y-87143875D01*
X84157205Y-87143875D01*
X84165064Y-87142882D01*
X84172429Y-87139966D01*
X84172433Y-87139965D01*
X84208021Y-87125874D01*
X84219231Y-87122035D01*
X84263600Y-87109145D01*
X84282065Y-87098225D01*
X84299805Y-87089534D01*
X84319756Y-87081635D01*
X84357129Y-87054482D01*
X84367048Y-87047967D01*
X84399977Y-87028493D01*
X84399981Y-87028490D01*
X84406807Y-87024453D01*
X84421971Y-87009289D01*
X84437005Y-86996448D01*
X84454357Y-86983841D01*
X84483803Y-86948247D01*
X84491792Y-86939468D01*
X89407605Y-82023655D01*
X89416385Y-82015665D01*
X89416387Y-82015663D01*
X89423080Y-82011416D01*
X89437159Y-81996424D01*
X89471604Y-81959743D01*
X89474359Y-81956901D01*
X89494927Y-81936333D01*
X89497647Y-81932826D01*
X89505353Y-81923804D01*
X89524793Y-81903102D01*
X89536972Y-81890133D01*
X89540794Y-81883181D01*
X89547303Y-81871342D01*
X89558157Y-81854818D01*
X89566445Y-81844132D01*
X89571304Y-81837868D01*
X89576035Y-81826935D01*
X89589654Y-81795465D01*
X89594875Y-81784807D01*
X89596934Y-81781062D01*
X89605085Y-81766235D01*
X89655428Y-81716177D01*
X89724845Y-81701282D01*
X89791295Y-81726281D01*
X89833680Y-81783237D01*
X89841500Y-81826935D01*
X89841500Y-86175050D01*
X89821498Y-86243171D01*
X89804595Y-86264145D01*
X80764145Y-95304595D01*
X80701833Y-95338621D01*
X80675050Y-95341500D01*
X75082059Y-95341500D01*
X75070203Y-95340941D01*
X75062463Y-95339211D01*
X75054537Y-95339460D01*
X75054536Y-95339460D01*
X74991611Y-95341438D01*
X74987653Y-95341500D01*
X74958568Y-95341500D01*
X74954637Y-95341997D01*
X74954630Y-95341997D01*
X74954179Y-95342054D01*
X74942343Y-95342986D01*
X74896169Y-95344438D01*
X74875579Y-95350420D01*
X74856218Y-95354430D01*
X74849230Y-95355312D01*
X74842796Y-95356125D01*
X74842795Y-95356125D01*
X74834936Y-95357118D01*
X74827571Y-95360034D01*
X74827567Y-95360035D01*
X74791979Y-95374126D01*
X74780769Y-95377965D01*
X74736400Y-95390855D01*
X74717935Y-95401775D01*
X74700195Y-95410466D01*
X74680244Y-95418365D01*
X74644121Y-95444610D01*
X74642874Y-95445516D01*
X74632952Y-95452033D01*
X74600023Y-95471507D01*
X74600019Y-95471510D01*
X74593193Y-95475547D01*
X74578029Y-95490711D01*
X74562996Y-95503551D01*
X74545643Y-95516159D01*
X74516198Y-95551752D01*
X74508208Y-95560532D01*
X74399134Y-95669606D01*
X74337096Y-95703572D01*
X74332295Y-95704628D01*
X74325288Y-95705364D01*
X74153579Y-95763818D01*
X74147575Y-95767512D01*
X74005095Y-95855166D01*
X74005092Y-95855168D01*
X73999088Y-95858862D01*
X73994053Y-95863793D01*
X73994050Y-95863795D01*
X73910658Y-95945459D01*
X73869493Y-95985771D01*
X73771235Y-96138238D01*
X73768826Y-96144858D01*
X73768824Y-96144861D01*
X73723125Y-96270418D01*
X73709197Y-96308685D01*
X73686463Y-96488640D01*
X73704163Y-96669160D01*
X73761418Y-96841273D01*
X73765065Y-96847295D01*
X73765066Y-96847297D01*
X73831825Y-96957529D01*
X73855380Y-96996424D01*
X73981382Y-97126902D01*
X73987278Y-97130760D01*
X74098218Y-97203357D01*
X74133159Y-97226222D01*
X74139763Y-97228678D01*
X74139765Y-97228679D01*
X74296558Y-97286990D01*
X74296560Y-97286990D01*
X74303168Y-97289448D01*
X74382452Y-97300027D01*
X74475980Y-97312507D01*
X74475984Y-97312507D01*
X74482961Y-97313438D01*
X74489972Y-97312800D01*
X74489976Y-97312800D01*
X74632459Y-97299832D01*
X74663600Y-97296998D01*
X74670302Y-97294820D01*
X74670304Y-97294820D01*
X74829409Y-97243124D01*
X74829412Y-97243123D01*
X74836108Y-97240947D01*
X74991912Y-97148069D01*
X75123266Y-97022982D01*
X75223643Y-96871902D01*
X75273841Y-96739756D01*
X75316730Y-96683178D01*
X75383399Y-96658769D01*
X75391629Y-96658500D01*
X80917944Y-96658500D01*
X80929800Y-96659059D01*
X80929803Y-96659059D01*
X80937537Y-96660788D01*
X81008369Y-96658562D01*
X81012327Y-96658500D01*
X81041432Y-96658500D01*
X81045832Y-96657944D01*
X81057664Y-96657012D01*
X81099223Y-96655707D01*
X81103832Y-96655562D01*
X81103935Y-96658837D01*
X81159414Y-96666014D01*
X81213722Y-96711743D01*
X81228254Y-96741581D01*
X81261418Y-96841273D01*
X81265065Y-96847295D01*
X81265066Y-96847297D01*
X81331825Y-96957529D01*
X81355380Y-96996424D01*
X81481382Y-97126902D01*
X81487278Y-97130760D01*
X81598218Y-97203357D01*
X81633159Y-97226222D01*
X81639763Y-97228678D01*
X81639765Y-97228679D01*
X81796558Y-97286990D01*
X81796560Y-97286990D01*
X81803168Y-97289448D01*
X81882452Y-97300027D01*
X81975980Y-97312507D01*
X81975984Y-97312507D01*
X81982961Y-97313438D01*
X81989972Y-97312800D01*
X81989976Y-97312800D01*
X82132459Y-97299832D01*
X82163600Y-97296998D01*
X82170302Y-97294820D01*
X82170304Y-97294820D01*
X82329409Y-97243124D01*
X82329412Y-97243123D01*
X82336108Y-97240947D01*
X82491912Y-97148069D01*
X82623266Y-97022982D01*
X82723643Y-96871902D01*
X82781084Y-96720689D01*
X82785555Y-96708920D01*
X82785556Y-96708918D01*
X82788055Y-96702338D01*
X82789035Y-96695366D01*
X82789037Y-96695358D01*
X82791859Y-96675280D01*
X82821148Y-96610606D01*
X82827537Y-96603723D01*
X91626405Y-87804855D01*
X91688717Y-87770829D01*
X91759532Y-87775894D01*
X91816368Y-87818441D01*
X91841179Y-87884961D01*
X91841500Y-87893950D01*
X91841500Y-93917944D01*
X91840941Y-93929800D01*
X91839212Y-93937537D01*
X91839461Y-93945459D01*
X91841438Y-94008369D01*
X91841500Y-94012327D01*
X91841500Y-94041432D01*
X91842056Y-94045832D01*
X91842988Y-94057664D01*
X91844438Y-94103831D01*
X91846650Y-94111444D01*
X91846650Y-94111445D01*
X91850419Y-94124416D01*
X91854430Y-94143782D01*
X91857118Y-94165064D01*
X91860034Y-94172429D01*
X91860035Y-94172433D01*
X91874126Y-94208021D01*
X91877965Y-94219231D01*
X91890855Y-94263600D01*
X91901775Y-94282065D01*
X91910466Y-94299805D01*
X91918365Y-94319756D01*
X91941020Y-94350938D01*
X91945516Y-94357126D01*
X91952033Y-94367048D01*
X91971507Y-94399977D01*
X91971510Y-94399981D01*
X91975547Y-94406807D01*
X91990711Y-94421971D01*
X92003551Y-94437004D01*
X92016159Y-94454357D01*
X92051752Y-94483802D01*
X92060532Y-94491792D01*
X94169683Y-96600943D01*
X94203598Y-96663403D01*
X94204163Y-96669160D01*
X94261418Y-96841273D01*
X94265065Y-96847295D01*
X94265066Y-96847297D01*
X94331825Y-96957529D01*
X94355380Y-96996424D01*
X94481382Y-97126902D01*
X94487278Y-97130760D01*
X94598218Y-97203357D01*
X94633159Y-97226222D01*
X94639763Y-97228678D01*
X94639765Y-97228679D01*
X94796558Y-97286990D01*
X94796560Y-97286990D01*
X94803168Y-97289448D01*
X94882452Y-97300027D01*
X94975980Y-97312507D01*
X94975984Y-97312507D01*
X94982961Y-97313438D01*
X94989972Y-97312800D01*
X94989976Y-97312800D01*
X95132459Y-97299832D01*
X95163600Y-97296998D01*
X95170302Y-97294820D01*
X95170304Y-97294820D01*
X95329409Y-97243124D01*
X95329412Y-97243123D01*
X95336108Y-97240947D01*
X95491912Y-97148069D01*
X95623266Y-97022982D01*
X95723643Y-96871902D01*
X95781084Y-96720689D01*
X95785555Y-96708920D01*
X95785556Y-96708918D01*
X95788055Y-96702338D01*
X95790748Y-96683178D01*
X95812748Y-96526639D01*
X95812748Y-96526636D01*
X95813299Y-96522717D01*
X95813616Y-96500000D01*
X95793397Y-96319745D01*
X95790835Y-96312387D01*
X95736064Y-96155106D01*
X95736062Y-96155103D01*
X95733745Y-96148448D01*
X95706313Y-96104547D01*
X95641359Y-96000598D01*
X95637626Y-95994624D01*
X95573253Y-95929800D01*
X95514778Y-95870915D01*
X95514774Y-95870912D01*
X95509815Y-95865918D01*
X95498697Y-95858862D01*
X95450538Y-95828300D01*
X95356666Y-95768727D01*
X95185790Y-95707881D01*
X95178801Y-95707048D01*
X95178790Y-95707045D01*
X95176146Y-95706730D01*
X95174568Y-95706055D01*
X95171934Y-95705437D01*
X95172043Y-95704974D01*
X95110873Y-95678802D01*
X95101972Y-95670712D01*
X93195405Y-93764145D01*
X93161379Y-93701833D01*
X93158500Y-93675050D01*
X93158500Y-73082059D01*
X93159059Y-73070203D01*
X93160789Y-73062463D01*
X93158562Y-72991611D01*
X93158500Y-72987653D01*
X93158500Y-72958568D01*
X93157946Y-72954179D01*
X93157013Y-72942337D01*
X93155934Y-72907990D01*
X93155562Y-72896169D01*
X93149580Y-72875579D01*
X93145570Y-72856216D01*
X93144891Y-72850836D01*
X93142882Y-72834936D01*
X93139966Y-72827571D01*
X93139965Y-72827567D01*
X93125874Y-72791979D01*
X93122035Y-72780769D01*
X93109145Y-72736400D01*
X93098225Y-72717935D01*
X93089534Y-72700195D01*
X93081635Y-72680244D01*
X93054482Y-72642871D01*
X93047967Y-72632952D01*
X93028493Y-72600023D01*
X93028490Y-72600019D01*
X93024453Y-72593193D01*
X93009289Y-72578029D01*
X92996448Y-72562995D01*
X92988501Y-72552057D01*
X92983841Y-72545643D01*
X92948247Y-72516197D01*
X92939468Y-72508208D01*
X91979070Y-71547810D01*
X94087748Y-71547810D01*
X94088780Y-71554325D01*
X94089949Y-71561705D01*
X94091500Y-71581417D01*
X94091500Y-87547610D01*
X94106458Y-87689928D01*
X94165473Y-87871556D01*
X94260960Y-88036944D01*
X94265378Y-88041851D01*
X94265379Y-88041852D01*
X94346464Y-88131906D01*
X94388747Y-88178866D01*
X94484641Y-88248537D01*
X94535041Y-88285155D01*
X94543248Y-88291118D01*
X94549276Y-88293802D01*
X94549278Y-88293803D01*
X94705237Y-88363240D01*
X94717712Y-88368794D01*
X94804498Y-88387241D01*
X94898056Y-88407128D01*
X94898061Y-88407128D01*
X94904513Y-88408500D01*
X95095487Y-88408500D01*
X95101939Y-88407128D01*
X95101944Y-88407128D01*
X95195502Y-88387241D01*
X95282288Y-88368794D01*
X95294763Y-88363240D01*
X95450722Y-88293803D01*
X95450724Y-88293802D01*
X95456752Y-88291118D01*
X95464960Y-88285155D01*
X95515359Y-88248537D01*
X95611253Y-88178866D01*
X95653536Y-88131906D01*
X95734621Y-88041852D01*
X95734622Y-88041851D01*
X95739040Y-88036944D01*
X95834527Y-87871556D01*
X95893542Y-87689928D01*
X95908500Y-87547610D01*
X95908500Y-82954183D01*
X113664389Y-82954183D01*
X113665912Y-82962607D01*
X113678292Y-82966000D01*
X114727885Y-82966000D01*
X114743124Y-82961525D01*
X114744329Y-82960135D01*
X114746000Y-82952452D01*
X114746000Y-82947885D01*
X115254000Y-82947885D01*
X115258475Y-82963124D01*
X115259865Y-82964329D01*
X115267548Y-82966000D01*
X116318344Y-82966000D01*
X116331875Y-82962027D01*
X116333180Y-82952947D01*
X116291214Y-82785875D01*
X116287894Y-82776124D01*
X116202972Y-82580814D01*
X116198105Y-82571739D01*
X116082426Y-82392926D01*
X116076136Y-82384757D01*
X115932806Y-82227240D01*
X115925273Y-82220215D01*
X115758139Y-82088222D01*
X115749552Y-82082517D01*
X115563117Y-81979599D01*
X115553705Y-81975369D01*
X115352959Y-81904280D01*
X115342988Y-81901646D01*
X115271837Y-81888972D01*
X115258540Y-81890432D01*
X115254000Y-81904989D01*
X115254000Y-82947885D01*
X114746000Y-82947885D01*
X114746000Y-81903102D01*
X114742082Y-81889758D01*
X114727806Y-81887771D01*
X114689324Y-81893660D01*
X114679288Y-81896051D01*
X114476868Y-81962212D01*
X114467359Y-81966209D01*
X114278463Y-82064542D01*
X114269738Y-82070036D01*
X114099433Y-82197905D01*
X114091726Y-82204748D01*
X113944590Y-82358717D01*
X113938104Y-82366727D01*
X113818098Y-82542649D01*
X113813000Y-82551623D01*
X113723338Y-82744783D01*
X113719775Y-82754470D01*
X113664389Y-82954183D01*
X95908500Y-82954183D01*
X95908500Y-78812241D01*
X95928502Y-78744120D01*
X95982158Y-78697627D01*
X96052432Y-78687523D01*
X96103493Y-78706809D01*
X96133159Y-78726222D01*
X96139763Y-78728678D01*
X96139765Y-78728679D01*
X96296558Y-78786990D01*
X96296560Y-78786990D01*
X96303168Y-78789448D01*
X96386995Y-78800633D01*
X96475980Y-78812507D01*
X96475984Y-78812507D01*
X96482961Y-78813438D01*
X96489972Y-78812800D01*
X96489976Y-78812800D01*
X96555153Y-78806868D01*
X96624806Y-78820613D01*
X96675971Y-78869834D01*
X96692402Y-78938903D01*
X96691581Y-78948125D01*
X96686463Y-78988640D01*
X96704163Y-79169160D01*
X96761418Y-79341273D01*
X96765065Y-79347295D01*
X96765066Y-79347297D01*
X96850582Y-79488501D01*
X96855380Y-79496424D01*
X96860269Y-79501487D01*
X96860270Y-79501488D01*
X96877029Y-79518842D01*
X96981382Y-79626902D01*
X97133159Y-79726222D01*
X97139763Y-79728678D01*
X97139765Y-79728679D01*
X97296558Y-79786990D01*
X97296560Y-79786990D01*
X97303168Y-79789448D01*
X97386995Y-79800633D01*
X97475980Y-79812507D01*
X97475984Y-79812507D01*
X97482961Y-79813438D01*
X97489972Y-79812800D01*
X97489976Y-79812800D01*
X97632459Y-79799832D01*
X97663600Y-79796998D01*
X97670302Y-79794820D01*
X97670304Y-79794820D01*
X97829409Y-79743124D01*
X97829412Y-79743123D01*
X97836108Y-79740947D01*
X97944603Y-79676271D01*
X98009120Y-79658500D01*
X102417944Y-79658500D01*
X102429800Y-79659059D01*
X102429803Y-79659059D01*
X102437537Y-79660788D01*
X102508369Y-79658562D01*
X102512327Y-79658500D01*
X102541432Y-79658500D01*
X102545832Y-79657944D01*
X102557664Y-79657012D01*
X102603831Y-79655562D01*
X102624421Y-79649580D01*
X102643782Y-79645570D01*
X102650770Y-79644688D01*
X102657204Y-79643875D01*
X102657205Y-79643875D01*
X102665064Y-79642882D01*
X102672429Y-79639966D01*
X102672433Y-79639965D01*
X102708021Y-79625874D01*
X102719231Y-79622035D01*
X102763600Y-79609145D01*
X102782065Y-79598225D01*
X102799805Y-79589534D01*
X102819756Y-79581635D01*
X102857129Y-79554482D01*
X102867048Y-79547967D01*
X102899977Y-79528493D01*
X102899981Y-79528490D01*
X102906807Y-79524453D01*
X102921971Y-79509289D01*
X102937005Y-79496448D01*
X102947943Y-79488501D01*
X102954357Y-79483841D01*
X102983803Y-79448247D01*
X102991792Y-79439468D01*
X107907605Y-74523655D01*
X107916385Y-74515665D01*
X107916387Y-74515663D01*
X107923080Y-74511416D01*
X107937883Y-74495653D01*
X107971604Y-74459743D01*
X107974359Y-74456901D01*
X107994927Y-74436333D01*
X107997647Y-74432826D01*
X108005353Y-74423804D01*
X108031544Y-74395913D01*
X108036972Y-74390133D01*
X108040794Y-74383181D01*
X108047303Y-74371342D01*
X108058157Y-74354818D01*
X108066445Y-74344132D01*
X108071304Y-74337868D01*
X108074452Y-74330594D01*
X108089654Y-74295465D01*
X108094876Y-74284805D01*
X108113305Y-74251284D01*
X108113306Y-74251282D01*
X108117124Y-74244337D01*
X108122459Y-74223559D01*
X108128858Y-74204869D01*
X108137380Y-74185176D01*
X108144606Y-74139552D01*
X108147013Y-74127929D01*
X108156528Y-74090868D01*
X108158500Y-74083188D01*
X108158500Y-74061741D01*
X108160051Y-74042031D01*
X108162166Y-74028677D01*
X108163406Y-74020848D01*
X108159059Y-73974859D01*
X108158500Y-73963004D01*
X108158500Y-71697095D01*
X113517001Y-71697095D01*
X113517338Y-71703614D01*
X113527257Y-71799206D01*
X113530149Y-71812600D01*
X113581588Y-71966784D01*
X113587761Y-71979962D01*
X113673063Y-72117807D01*
X113682099Y-72129208D01*
X113796829Y-72243739D01*
X113808240Y-72252751D01*
X113946243Y-72337816D01*
X113959424Y-72343963D01*
X114113710Y-72395138D01*
X114127086Y-72398005D01*
X114221438Y-72407672D01*
X114227854Y-72408000D01*
X114727885Y-72408000D01*
X114743124Y-72403525D01*
X114744329Y-72402135D01*
X114746000Y-72394452D01*
X114746000Y-72389884D01*
X115254000Y-72389884D01*
X115258475Y-72405123D01*
X115259865Y-72406328D01*
X115267548Y-72407999D01*
X115772095Y-72407999D01*
X115778614Y-72407662D01*
X115874206Y-72397743D01*
X115887600Y-72394851D01*
X116041784Y-72343412D01*
X116054962Y-72337239D01*
X116192807Y-72251937D01*
X116204208Y-72242901D01*
X116318739Y-72128171D01*
X116327751Y-72116760D01*
X116412816Y-71978757D01*
X116418963Y-71965576D01*
X116470138Y-71811290D01*
X116473005Y-71797914D01*
X116482672Y-71703562D01*
X116483000Y-71697146D01*
X116483000Y-71322115D01*
X116478525Y-71306876D01*
X116477135Y-71305671D01*
X116469452Y-71304000D01*
X115272115Y-71304000D01*
X115256876Y-71308475D01*
X115255671Y-71309865D01*
X115254000Y-71317548D01*
X115254000Y-72389884D01*
X114746000Y-72389884D01*
X114746000Y-71322115D01*
X114741525Y-71306876D01*
X114740135Y-71305671D01*
X114732452Y-71304000D01*
X113535116Y-71304000D01*
X113519877Y-71308475D01*
X113518672Y-71309865D01*
X113517001Y-71317548D01*
X113517001Y-71697095D01*
X108158500Y-71697095D01*
X108158500Y-67324950D01*
X108178502Y-67256829D01*
X108195405Y-67235855D01*
X108685855Y-66745405D01*
X108748167Y-66711379D01*
X108774950Y-66708500D01*
X113614575Y-66708500D01*
X113682696Y-66728502D01*
X113722293Y-66769133D01*
X113773377Y-66853317D01*
X113776874Y-66857347D01*
X113882571Y-66979152D01*
X113924477Y-67027445D01*
X113966030Y-67061516D01*
X114098627Y-67170240D01*
X114098633Y-67170244D01*
X114102755Y-67173624D01*
X114134250Y-67191552D01*
X114183555Y-67242632D01*
X114197417Y-67312262D01*
X114171434Y-67378333D01*
X114142284Y-67405573D01*
X114020681Y-67487441D01*
X113853865Y-67646576D01*
X113850682Y-67650854D01*
X113835412Y-67671377D01*
X113716246Y-67831542D01*
X113713830Y-67836293D01*
X113713828Y-67836297D01*
X113664003Y-67934296D01*
X113611760Y-68037051D01*
X113610178Y-68042145D01*
X113610177Y-68042148D01*
X113556908Y-68213703D01*
X113543393Y-68257227D01*
X113542692Y-68262516D01*
X113514206Y-68477445D01*
X113513102Y-68485774D01*
X113513302Y-68491103D01*
X113513302Y-68491105D01*
X113517427Y-68600966D01*
X113521751Y-68716158D01*
X113569093Y-68941791D01*
X113571051Y-68946750D01*
X113571052Y-68946752D01*
X113598463Y-69016159D01*
X113653776Y-69156221D01*
X113656543Y-69160780D01*
X113656544Y-69160783D01*
X113678329Y-69196683D01*
X113773377Y-69353317D01*
X113776874Y-69357347D01*
X113904100Y-69503962D01*
X113924477Y-69527445D01*
X113928608Y-69530832D01*
X113960529Y-69557006D01*
X114000524Y-69615666D01*
X114002455Y-69686636D01*
X113965710Y-69747384D01*
X113946941Y-69761584D01*
X113807193Y-69848063D01*
X113795792Y-69857099D01*
X113681261Y-69971829D01*
X113672249Y-69983240D01*
X113587184Y-70121243D01*
X113581037Y-70134424D01*
X113529862Y-70288710D01*
X113526995Y-70302086D01*
X113517328Y-70396438D01*
X113517000Y-70402855D01*
X113517000Y-70777885D01*
X113521475Y-70793124D01*
X113522865Y-70794329D01*
X113530548Y-70796000D01*
X116464884Y-70796000D01*
X116480123Y-70791525D01*
X116481328Y-70790135D01*
X116482999Y-70782452D01*
X116482999Y-70402905D01*
X116482662Y-70396386D01*
X116472743Y-70300794D01*
X116469851Y-70287400D01*
X116418412Y-70133216D01*
X116412239Y-70120038D01*
X116326937Y-69982193D01*
X116317901Y-69970792D01*
X116203171Y-69856261D01*
X116191757Y-69847247D01*
X116052287Y-69761277D01*
X116004793Y-69708505D01*
X115993369Y-69638434D01*
X116021643Y-69573310D01*
X116031430Y-69562847D01*
X116064991Y-69530832D01*
X116146135Y-69453424D01*
X116193907Y-69389217D01*
X116280568Y-69272740D01*
X116283754Y-69268458D01*
X116388240Y-69062949D01*
X116399531Y-69026588D01*
X116455024Y-68847871D01*
X116456607Y-68842773D01*
X116461125Y-68808688D01*
X116486198Y-68619511D01*
X116486198Y-68619506D01*
X116486898Y-68614226D01*
X116478249Y-68383842D01*
X116430907Y-68158209D01*
X116428948Y-68153248D01*
X116348185Y-67948744D01*
X116348184Y-67948742D01*
X116346224Y-67943779D01*
X116226623Y-67746683D01*
X116139755Y-67646576D01*
X116079023Y-67576588D01*
X116079021Y-67576586D01*
X116075523Y-67572555D01*
X116033970Y-67538484D01*
X115901373Y-67429760D01*
X115901367Y-67429756D01*
X115897245Y-67426376D01*
X115865750Y-67408448D01*
X115816445Y-67357368D01*
X115802583Y-67287738D01*
X115828566Y-67221667D01*
X115857716Y-67194427D01*
X115893642Y-67170240D01*
X115979319Y-67112559D01*
X115989080Y-67103248D01*
X116142278Y-66957103D01*
X116146135Y-66953424D01*
X116193907Y-66889217D01*
X116280568Y-66772740D01*
X116283754Y-66768458D01*
X116290260Y-66755663D01*
X116350413Y-66637349D01*
X116388240Y-66562949D01*
X116399531Y-66526588D01*
X116455024Y-66347871D01*
X116456607Y-66342773D01*
X116461276Y-66307548D01*
X116486198Y-66119511D01*
X116486198Y-66119506D01*
X116486898Y-66114226D01*
X116485132Y-66067170D01*
X116478984Y-65903424D01*
X116478249Y-65883842D01*
X116430907Y-65658209D01*
X116428948Y-65653248D01*
X116348185Y-65448744D01*
X116348184Y-65448742D01*
X116346224Y-65443779D01*
X116314837Y-65392054D01*
X116251382Y-65287484D01*
X116226623Y-65246683D01*
X116139755Y-65146576D01*
X116079023Y-65076588D01*
X116079021Y-65076586D01*
X116075523Y-65072555D01*
X116033970Y-65038484D01*
X115901373Y-64929760D01*
X115901367Y-64929756D01*
X115897245Y-64926376D01*
X115865750Y-64908448D01*
X115816445Y-64857368D01*
X115802583Y-64787738D01*
X115828566Y-64721667D01*
X115857716Y-64694427D01*
X115893642Y-64670240D01*
X115979319Y-64612559D01*
X115989080Y-64603248D01*
X116142278Y-64457103D01*
X116146135Y-64453424D01*
X116193907Y-64389217D01*
X116280568Y-64272740D01*
X116283754Y-64268458D01*
X116312775Y-64211379D01*
X116371143Y-64096576D01*
X116388240Y-64062949D01*
X116399531Y-64026588D01*
X116455024Y-63847871D01*
X116456607Y-63842773D01*
X116475622Y-63699305D01*
X116486198Y-63619511D01*
X116486198Y-63619506D01*
X116486898Y-63614226D01*
X116478249Y-63383842D01*
X116430907Y-63158209D01*
X116426533Y-63147134D01*
X116348185Y-62948744D01*
X116348184Y-62948742D01*
X116346224Y-62943779D01*
X116343110Y-62938646D01*
X116229390Y-62751243D01*
X116226623Y-62746683D01*
X116139755Y-62646576D01*
X116079023Y-62576588D01*
X116079021Y-62576586D01*
X116075523Y-62572555D01*
X116033970Y-62538484D01*
X115901373Y-62429760D01*
X115901367Y-62429756D01*
X115897245Y-62426376D01*
X115892609Y-62423737D01*
X115892606Y-62423735D01*
X115701529Y-62314968D01*
X115696886Y-62312325D01*
X115480175Y-62233663D01*
X115474926Y-62232714D01*
X115474923Y-62232713D01*
X115257392Y-62193377D01*
X115257385Y-62193376D01*
X115253308Y-62192639D01*
X115235586Y-62191803D01*
X115230644Y-62191570D01*
X115230637Y-62191570D01*
X115229156Y-62191500D01*
X114817110Y-62191500D01*
X114750191Y-62197178D01*
X114650591Y-62205629D01*
X114650587Y-62205630D01*
X114645280Y-62206080D01*
X114640125Y-62207418D01*
X114640119Y-62207419D01*
X114427297Y-62262657D01*
X114427293Y-62262658D01*
X114422128Y-62263999D01*
X114417262Y-62266191D01*
X114417259Y-62266192D01*
X114308980Y-62314968D01*
X114211925Y-62358688D01*
X114020681Y-62487441D01*
X113853865Y-62646576D01*
X113716246Y-62831542D01*
X113715656Y-62832702D01*
X113663664Y-62879250D01*
X113609471Y-62891500D01*
X109032056Y-62891500D01*
X109020200Y-62890941D01*
X109020197Y-62890941D01*
X109012463Y-62889212D01*
X108957446Y-62890941D01*
X108941631Y-62891438D01*
X108937673Y-62891500D01*
X108908568Y-62891500D01*
X108904168Y-62892056D01*
X108892336Y-62892988D01*
X108846169Y-62894438D01*
X108825579Y-62900420D01*
X108806218Y-62904430D01*
X108799230Y-62905312D01*
X108792796Y-62906125D01*
X108792795Y-62906125D01*
X108784936Y-62907118D01*
X108777571Y-62910034D01*
X108777567Y-62910035D01*
X108741979Y-62924126D01*
X108730769Y-62927965D01*
X108686400Y-62940855D01*
X108667935Y-62951775D01*
X108650195Y-62960466D01*
X108630244Y-62968365D01*
X108592874Y-62995516D01*
X108582952Y-63002033D01*
X108550023Y-63021507D01*
X108550019Y-63021510D01*
X108543193Y-63025547D01*
X108528029Y-63040711D01*
X108512996Y-63053551D01*
X108495643Y-63066159D01*
X108466198Y-63101752D01*
X108458208Y-63110532D01*
X105592395Y-65976345D01*
X105583615Y-65984335D01*
X105583613Y-65984337D01*
X105576920Y-65988584D01*
X105571494Y-65994362D01*
X105571493Y-65994363D01*
X105528396Y-66040257D01*
X105525641Y-66043099D01*
X105505073Y-66063667D01*
X105502356Y-66067170D01*
X105494648Y-66076195D01*
X105463028Y-66109867D01*
X105459207Y-66116818D01*
X105459206Y-66116819D01*
X105452697Y-66128658D01*
X105441843Y-66145182D01*
X105434018Y-66155271D01*
X105428696Y-66162132D01*
X105425549Y-66169404D01*
X105425548Y-66169406D01*
X105410346Y-66204535D01*
X105405124Y-66215195D01*
X105392731Y-66237738D01*
X105382876Y-66255663D01*
X105377541Y-66276441D01*
X105371142Y-66295131D01*
X105362620Y-66314824D01*
X105357386Y-66347871D01*
X105355394Y-66360448D01*
X105352987Y-66372071D01*
X105341500Y-66416812D01*
X105341500Y-66438259D01*
X105339949Y-66457969D01*
X105336594Y-66479152D01*
X105337340Y-66487043D01*
X105340941Y-66525138D01*
X105341500Y-66536996D01*
X105341500Y-73175050D01*
X105321498Y-73243171D01*
X105304595Y-73264145D01*
X101264145Y-77304595D01*
X101201833Y-77338621D01*
X101175050Y-77341500D01*
X98506632Y-77341500D01*
X98438511Y-77321498D01*
X98392018Y-77267842D01*
X98381914Y-77197568D01*
X98411408Y-77132988D01*
X98467696Y-77095667D01*
X98475311Y-77093193D01*
X98568251Y-77062995D01*
X98629409Y-77043124D01*
X98629412Y-77043123D01*
X98636108Y-77040947D01*
X98791912Y-76948069D01*
X98923266Y-76822982D01*
X99023643Y-76671902D01*
X99088055Y-76502338D01*
X99089035Y-76495366D01*
X99112748Y-76326639D01*
X99112748Y-76326636D01*
X99113299Y-76322717D01*
X99113616Y-76300000D01*
X99093397Y-76119745D01*
X99091080Y-76113091D01*
X99036064Y-75955106D01*
X99036062Y-75955103D01*
X99033745Y-75948448D01*
X98985914Y-75871902D01*
X98977646Y-75858670D01*
X98958500Y-75791901D01*
X98958500Y-75708438D01*
X98978502Y-75640317D01*
X99032158Y-75593824D01*
X99102432Y-75583720D01*
X99167012Y-75613214D01*
X99203177Y-75669488D01*
X99204163Y-75669160D01*
X99261418Y-75841273D01*
X99265065Y-75847295D01*
X99265066Y-75847297D01*
X99324153Y-75944861D01*
X99355380Y-75996424D01*
X99481382Y-76126902D01*
X99633159Y-76226222D01*
X99639763Y-76228678D01*
X99639765Y-76228679D01*
X99796558Y-76286990D01*
X99796560Y-76286990D01*
X99803168Y-76289448D01*
X99882250Y-76300000D01*
X99975980Y-76312507D01*
X99975984Y-76312507D01*
X99982961Y-76313438D01*
X99989972Y-76312800D01*
X99989976Y-76312800D01*
X100132459Y-76299832D01*
X100163600Y-76296998D01*
X100170302Y-76294820D01*
X100170304Y-76294820D01*
X100329409Y-76243124D01*
X100329412Y-76243123D01*
X100336108Y-76240947D01*
X100491912Y-76148069D01*
X100623266Y-76022982D01*
X100723643Y-75871902D01*
X100788055Y-75702338D01*
X100792718Y-75669160D01*
X100812748Y-75526639D01*
X100812748Y-75526636D01*
X100813299Y-75522717D01*
X100813616Y-75500000D01*
X100793397Y-75319745D01*
X100791080Y-75313091D01*
X100736064Y-75155106D01*
X100736062Y-75155103D01*
X100733745Y-75148448D01*
X100717115Y-75121834D01*
X100677646Y-75058670D01*
X100658500Y-74991901D01*
X100658500Y-58824950D01*
X100678502Y-58756829D01*
X100695405Y-58735855D01*
X108735854Y-50695405D01*
X108798166Y-50661379D01*
X108824949Y-50658500D01*
X113380458Y-50658500D01*
X113448579Y-50678502D01*
X113495072Y-50732158D01*
X113502216Y-50753678D01*
X113502474Y-50756166D01*
X113558450Y-50923946D01*
X113651522Y-51074348D01*
X113776697Y-51199305D01*
X113782927Y-51203145D01*
X113782928Y-51203146D01*
X113920090Y-51287694D01*
X113927262Y-51292115D01*
X114007005Y-51318564D01*
X114088611Y-51345632D01*
X114088613Y-51345632D01*
X114095139Y-51347797D01*
X114101975Y-51348497D01*
X114101978Y-51348498D01*
X114145031Y-51352909D01*
X114199600Y-51358500D01*
X115800400Y-51358500D01*
X115803646Y-51358163D01*
X115803650Y-51358163D01*
X115899308Y-51348238D01*
X115899312Y-51348237D01*
X115906166Y-51347526D01*
X115912702Y-51345345D01*
X115912704Y-51345345D01*
X116044806Y-51301272D01*
X116073946Y-51291550D01*
X116224348Y-51198478D01*
X116349305Y-51073303D01*
X116358829Y-51057852D01*
X116438275Y-50928968D01*
X116438276Y-50928966D01*
X116442115Y-50922738D01*
X116497797Y-50754861D01*
X116501763Y-50716158D01*
X116508172Y-50653598D01*
X116508500Y-50650400D01*
X116508500Y-49349600D01*
X116508163Y-49346350D01*
X116498238Y-49250692D01*
X116498237Y-49250688D01*
X116497526Y-49243834D01*
X116441550Y-49076054D01*
X116348478Y-48925652D01*
X116223303Y-48800695D01*
X116077660Y-48710919D01*
X116030168Y-48658148D01*
X116018744Y-48588076D01*
X116047018Y-48522952D01*
X116056805Y-48512490D01*
X116167278Y-48407103D01*
X116171135Y-48403424D01*
X116308754Y-48218458D01*
X116337775Y-48161379D01*
X116410822Y-48017704D01*
X116413240Y-48012949D01*
X116481607Y-47792773D01*
X116511898Y-47564226D01*
X116503249Y-47333842D01*
X116455907Y-47108209D01*
X116421966Y-47022266D01*
X116373185Y-46898744D01*
X116373184Y-46898742D01*
X116371224Y-46893779D01*
X116368110Y-46888646D01*
X116278955Y-46741724D01*
X116251623Y-46696683D01*
X116164755Y-46596576D01*
X116104023Y-46526588D01*
X116104021Y-46526586D01*
X116100523Y-46522555D01*
X116058970Y-46488484D01*
X115926373Y-46379760D01*
X115926367Y-46379756D01*
X115922245Y-46376376D01*
X115917609Y-46373737D01*
X115917606Y-46373735D01*
X115726529Y-46264968D01*
X115721886Y-46262325D01*
X115505175Y-46183663D01*
X115499926Y-46182714D01*
X115499923Y-46182713D01*
X115282392Y-46143377D01*
X115282385Y-46143376D01*
X115278308Y-46142639D01*
X115260586Y-46141803D01*
X115255644Y-46141570D01*
X115255637Y-46141570D01*
X115254156Y-46141500D01*
X114792110Y-46141500D01*
X114725191Y-46147178D01*
X114625591Y-46155629D01*
X114625587Y-46155630D01*
X114620280Y-46156080D01*
X114615125Y-46157418D01*
X114615119Y-46157419D01*
X114402297Y-46212657D01*
X114402293Y-46212658D01*
X114397128Y-46213999D01*
X114392262Y-46216191D01*
X114392259Y-46216192D01*
X114283980Y-46264968D01*
X114186925Y-46308688D01*
X113995681Y-46437441D01*
X113828865Y-46596576D01*
X113691246Y-46781542D01*
X113690656Y-46782702D01*
X113638664Y-46829250D01*
X113584471Y-46841500D01*
X108582056Y-46841500D01*
X108570200Y-46840941D01*
X108570197Y-46840941D01*
X108562463Y-46839212D01*
X108507446Y-46840941D01*
X108491631Y-46841438D01*
X108487673Y-46841500D01*
X108458568Y-46841500D01*
X108454168Y-46842056D01*
X108442336Y-46842988D01*
X108396169Y-46844438D01*
X108375579Y-46850420D01*
X108356218Y-46854430D01*
X108349230Y-46855312D01*
X108342796Y-46856125D01*
X108342795Y-46856125D01*
X108334936Y-46857118D01*
X108327571Y-46860034D01*
X108327567Y-46860035D01*
X108291979Y-46874126D01*
X108280769Y-46877965D01*
X108236400Y-46890855D01*
X108217943Y-46901771D01*
X108200193Y-46910466D01*
X108180244Y-46918365D01*
X108173833Y-46923023D01*
X108173831Y-46923024D01*
X108142864Y-46945523D01*
X108132946Y-46952038D01*
X108093193Y-46975548D01*
X108078036Y-46990705D01*
X108063003Y-47003546D01*
X108045643Y-47016159D01*
X108040591Y-47022266D01*
X108016193Y-47051758D01*
X108008203Y-47060538D01*
X97892395Y-57176345D01*
X97883615Y-57184335D01*
X97883613Y-57184337D01*
X97876920Y-57188584D01*
X97871494Y-57194362D01*
X97871493Y-57194363D01*
X97828396Y-57240257D01*
X97825641Y-57243099D01*
X97805073Y-57263667D01*
X97802356Y-57267170D01*
X97794648Y-57276195D01*
X97763028Y-57309867D01*
X97759207Y-57316818D01*
X97759206Y-57316819D01*
X97752697Y-57328658D01*
X97741843Y-57345182D01*
X97734018Y-57355271D01*
X97728696Y-57362132D01*
X97725549Y-57369404D01*
X97725548Y-57369406D01*
X97710346Y-57404535D01*
X97705124Y-57415195D01*
X97682876Y-57455663D01*
X97677541Y-57476441D01*
X97671142Y-57495131D01*
X97662620Y-57514824D01*
X97661380Y-57522655D01*
X97655394Y-57560448D01*
X97652987Y-57572071D01*
X97641500Y-57616812D01*
X97641500Y-57638259D01*
X97639949Y-57657969D01*
X97636594Y-57679152D01*
X97637340Y-57687043D01*
X97640941Y-57725138D01*
X97641500Y-57736996D01*
X97641500Y-75792125D01*
X97621411Y-75860380D01*
X97571235Y-75938238D01*
X97568826Y-75944858D01*
X97568824Y-75944861D01*
X97538622Y-76027841D01*
X97509197Y-76108685D01*
X97486463Y-76288640D01*
X97504163Y-76469160D01*
X97561418Y-76641273D01*
X97565065Y-76647295D01*
X97565066Y-76647297D01*
X97575978Y-76665314D01*
X97655380Y-76796424D01*
X97781382Y-76926902D01*
X97787278Y-76930760D01*
X97917841Y-77016198D01*
X97933159Y-77026222D01*
X97939763Y-77028678D01*
X97939765Y-77028679D01*
X98096558Y-77086990D01*
X98096560Y-77086990D01*
X98103168Y-77089448D01*
X98111790Y-77090598D01*
X98111854Y-77090607D01*
X98112863Y-77091055D01*
X98116988Y-77092084D01*
X98116807Y-77092809D01*
X98176731Y-77119443D01*
X98215719Y-77178776D01*
X98216439Y-77249769D01*
X98178664Y-77309882D01*
X98114386Y-77340029D01*
X98095189Y-77341500D01*
X97007944Y-77341500D01*
X96940430Y-77321885D01*
X96913185Y-77304595D01*
X96856666Y-77268727D01*
X96803426Y-77249769D01*
X96692425Y-77210243D01*
X96692420Y-77210242D01*
X96685790Y-77207881D01*
X96678802Y-77207048D01*
X96678799Y-77207047D01*
X96528641Y-77189142D01*
X96505680Y-77186404D01*
X96498677Y-77187140D01*
X96498676Y-77187140D01*
X96332288Y-77204628D01*
X96332286Y-77204629D01*
X96325288Y-77205364D01*
X96153579Y-77263818D01*
X96108120Y-77291785D01*
X96100522Y-77296459D01*
X96032021Y-77315118D01*
X95964307Y-77293779D01*
X95918879Y-77239220D01*
X95908500Y-77189142D01*
X95908500Y-71865038D01*
X95925381Y-71802038D01*
X95951224Y-71757277D01*
X95954527Y-71751556D01*
X95958875Y-71738174D01*
X95966438Y-71719915D01*
X95972830Y-71707370D01*
X95975584Y-71697095D01*
X95990535Y-71641294D01*
X95992409Y-71634969D01*
X96011501Y-71576210D01*
X96011501Y-71576209D01*
X96013542Y-71569928D01*
X96015014Y-71555925D01*
X96018615Y-71536496D01*
X96022257Y-71522903D01*
X96025836Y-71454616D01*
X96026353Y-71448042D01*
X96028156Y-71430884D01*
X96028156Y-71430882D01*
X96028500Y-71427610D01*
X96028500Y-71407074D01*
X96028673Y-71400480D01*
X96031907Y-71338782D01*
X96031907Y-71338777D01*
X96032252Y-71332190D01*
X96030051Y-71318293D01*
X96028500Y-71298583D01*
X96028500Y-68832390D01*
X96016284Y-68716158D01*
X96014232Y-68696635D01*
X96014232Y-68696633D01*
X96013542Y-68690072D01*
X95954527Y-68508444D01*
X95941439Y-68485774D01*
X95896018Y-68407103D01*
X95859040Y-68343056D01*
X95731253Y-68201134D01*
X95576752Y-68088882D01*
X95570724Y-68086198D01*
X95570722Y-68086197D01*
X95408319Y-68013891D01*
X95408318Y-68013891D01*
X95402288Y-68011206D01*
X95308887Y-67991353D01*
X95221944Y-67972872D01*
X95221939Y-67972872D01*
X95215487Y-67971500D01*
X95024513Y-67971500D01*
X95018061Y-67972872D01*
X95018056Y-67972872D01*
X94931113Y-67991353D01*
X94837712Y-68011206D01*
X94831682Y-68013891D01*
X94831681Y-68013891D01*
X94669278Y-68086197D01*
X94669276Y-68086198D01*
X94663248Y-68088882D01*
X94508747Y-68201134D01*
X94380960Y-68343056D01*
X94343982Y-68407103D01*
X94298562Y-68485774D01*
X94285473Y-68508444D01*
X94226458Y-68690072D01*
X94225768Y-68696633D01*
X94225768Y-68696635D01*
X94223716Y-68716158D01*
X94211500Y-68832390D01*
X94211500Y-71014961D01*
X94194620Y-71077959D01*
X94165473Y-71128444D01*
X94163432Y-71134726D01*
X94163431Y-71134728D01*
X94161125Y-71141826D01*
X94153560Y-71160092D01*
X94147171Y-71172630D01*
X94145463Y-71179003D01*
X94145463Y-71179004D01*
X94129469Y-71238695D01*
X94127600Y-71245003D01*
X94106458Y-71310072D01*
X94105768Y-71316637D01*
X94105766Y-71316646D01*
X94104985Y-71324075D01*
X94101383Y-71343509D01*
X94099531Y-71350422D01*
X94097743Y-71357097D01*
X94097398Y-71363688D01*
X94097397Y-71363692D01*
X94094164Y-71425384D01*
X94093647Y-71431958D01*
X94091957Y-71448042D01*
X94091500Y-71452390D01*
X94091500Y-71472926D01*
X94091327Y-71479520D01*
X94087748Y-71547810D01*
X91979070Y-71547810D01*
X90523655Y-70092395D01*
X90515665Y-70083615D01*
X90515663Y-70083613D01*
X90511416Y-70076920D01*
X90459742Y-70028395D01*
X90456901Y-70025641D01*
X90436333Y-70005073D01*
X90432826Y-70002353D01*
X90423804Y-69994647D01*
X90395913Y-69968456D01*
X90390133Y-69963028D01*
X90383181Y-69959206D01*
X90371342Y-69952697D01*
X90354818Y-69941843D01*
X90344132Y-69933555D01*
X90337868Y-69928696D01*
X90330596Y-69925549D01*
X90330594Y-69925548D01*
X90295465Y-69910346D01*
X90284805Y-69905124D01*
X90251284Y-69886695D01*
X90251282Y-69886694D01*
X90244337Y-69882876D01*
X90223559Y-69877541D01*
X90204869Y-69871142D01*
X90185176Y-69862620D01*
X90139552Y-69855394D01*
X90127929Y-69852987D01*
X90099928Y-69845798D01*
X90083188Y-69841500D01*
X90061741Y-69841500D01*
X90042031Y-69839949D01*
X90020848Y-69836594D01*
X89974859Y-69840941D01*
X89963004Y-69841500D01*
X88007944Y-69841500D01*
X87940430Y-69821885D01*
X87886523Y-69787675D01*
X87856666Y-69768727D01*
X87796728Y-69747384D01*
X87692425Y-69710243D01*
X87692420Y-69710242D01*
X87685790Y-69707881D01*
X87678802Y-69707048D01*
X87678799Y-69707047D01*
X87555698Y-69692368D01*
X87505680Y-69686404D01*
X87498677Y-69687140D01*
X87498676Y-69687140D01*
X87332288Y-69704628D01*
X87332286Y-69704629D01*
X87325288Y-69705364D01*
X87153579Y-69763818D01*
X87147575Y-69767512D01*
X87005095Y-69855166D01*
X87005092Y-69855168D01*
X86999088Y-69858862D01*
X86994053Y-69863793D01*
X86994050Y-69863795D01*
X86908145Y-69947920D01*
X86869493Y-69985771D01*
X86771235Y-70138238D01*
X86768826Y-70144858D01*
X86768824Y-70144861D01*
X86714243Y-70294820D01*
X86709197Y-70308685D01*
X86686463Y-70488640D01*
X86704163Y-70669160D01*
X86761418Y-70841273D01*
X86765065Y-70847295D01*
X86765066Y-70847297D01*
X86841444Y-70973412D01*
X86855380Y-70996424D01*
X86860269Y-71001487D01*
X86860270Y-71001488D01*
X86919246Y-71062559D01*
X86981382Y-71126902D01*
X87006533Y-71143361D01*
X87052581Y-71197396D01*
X87062105Y-71267751D01*
X87032081Y-71332086D01*
X87010315Y-71350422D01*
X87010638Y-71350836D01*
X87005094Y-71355167D01*
X86999088Y-71358862D01*
X86994053Y-71363793D01*
X86994050Y-71363795D01*
X86901307Y-71454616D01*
X86869493Y-71485771D01*
X86771235Y-71638238D01*
X86768826Y-71644858D01*
X86768824Y-71644861D01*
X86749794Y-71697146D01*
X86709197Y-71808685D01*
X86686463Y-71988640D01*
X86704163Y-72169160D01*
X86761418Y-72341273D01*
X86765065Y-72347295D01*
X86765066Y-72347297D01*
X86800087Y-72405123D01*
X86855380Y-72496424D01*
X86860269Y-72501487D01*
X86860270Y-72501488D01*
X86919667Y-72562995D01*
X86981382Y-72626902D01*
X87006533Y-72643361D01*
X87052581Y-72697396D01*
X87062105Y-72767751D01*
X87032081Y-72832086D01*
X87010315Y-72850422D01*
X87010638Y-72850836D01*
X87005094Y-72855167D01*
X86999088Y-72858862D01*
X86994053Y-72863793D01*
X86994050Y-72863795D01*
X86893224Y-72962532D01*
X86869493Y-72985771D01*
X86771235Y-73138238D01*
X86768826Y-73144858D01*
X86768824Y-73144861D01*
X86733042Y-73243171D01*
X86709197Y-73308685D01*
X86686463Y-73488640D01*
X86704163Y-73669160D01*
X86761418Y-73841273D01*
X86765065Y-73847295D01*
X86765066Y-73847297D01*
X86851264Y-73989627D01*
X86855380Y-73996424D01*
X86860269Y-74001487D01*
X86860270Y-74001488D01*
X86909372Y-74052334D01*
X86981382Y-74126902D01*
X87133159Y-74226222D01*
X87139763Y-74228678D01*
X87139765Y-74228679D01*
X87296558Y-74286990D01*
X87296560Y-74286990D01*
X87303168Y-74289448D01*
X87386995Y-74300633D01*
X87475980Y-74312507D01*
X87475984Y-74312507D01*
X87482961Y-74313438D01*
X87489972Y-74312800D01*
X87489976Y-74312800D01*
X87632459Y-74299832D01*
X87663600Y-74296998D01*
X87670302Y-74294820D01*
X87670304Y-74294820D01*
X87829409Y-74243124D01*
X87829412Y-74243123D01*
X87836108Y-74240947D01*
X87944603Y-74176271D01*
X88009120Y-74158500D01*
X89175050Y-74158500D01*
X89243171Y-74178502D01*
X89264145Y-74195405D01*
X89804595Y-74735855D01*
X89838621Y-74798167D01*
X89841500Y-74824950D01*
X89841500Y-77168713D01*
X89821498Y-77236834D01*
X89767842Y-77283327D01*
X89697568Y-77293431D01*
X89632988Y-77263937D01*
X89607047Y-77232853D01*
X89598228Y-77217941D01*
X89589534Y-77200195D01*
X89581635Y-77180244D01*
X89554482Y-77142871D01*
X89547967Y-77132952D01*
X89528493Y-77100023D01*
X89528490Y-77100019D01*
X89524453Y-77093193D01*
X89509289Y-77078029D01*
X89496448Y-77062995D01*
X89488501Y-77052057D01*
X89483841Y-77045643D01*
X89448247Y-77016197D01*
X89439468Y-77008208D01*
X87523655Y-75092395D01*
X87515665Y-75083615D01*
X87515663Y-75083613D01*
X87511416Y-75076920D01*
X87459742Y-75028395D01*
X87456901Y-75025641D01*
X87436333Y-75005073D01*
X87432826Y-75002353D01*
X87423804Y-74994647D01*
X87420880Y-74991901D01*
X87390133Y-74963028D01*
X87383181Y-74959206D01*
X87371342Y-74952697D01*
X87354818Y-74941843D01*
X87344132Y-74933555D01*
X87337868Y-74928696D01*
X87330596Y-74925549D01*
X87330594Y-74925548D01*
X87295465Y-74910346D01*
X87284805Y-74905124D01*
X87251284Y-74886695D01*
X87251282Y-74886694D01*
X87244337Y-74882876D01*
X87223559Y-74877541D01*
X87204869Y-74871142D01*
X87185176Y-74862620D01*
X87139552Y-74855394D01*
X87127929Y-74852987D01*
X87099928Y-74845798D01*
X87083188Y-74841500D01*
X87061741Y-74841500D01*
X87042031Y-74839949D01*
X87028677Y-74837834D01*
X87020848Y-74836594D01*
X86974859Y-74840941D01*
X86963004Y-74841500D01*
X71324950Y-74841500D01*
X71256829Y-74821498D01*
X71235855Y-74804595D01*
X70829955Y-74398695D01*
X70795929Y-74336383D01*
X70794769Y-74329326D01*
X70794182Y-74326743D01*
X70793397Y-74319745D01*
X70743434Y-74176271D01*
X70736064Y-74155106D01*
X70736062Y-74155103D01*
X70733745Y-74148448D01*
X70661466Y-74032777D01*
X70641359Y-74000598D01*
X70641356Y-74000594D01*
X70637626Y-73994624D01*
X70623941Y-73980843D01*
X70514778Y-73870915D01*
X70514774Y-73870912D01*
X70509815Y-73865918D01*
X70498697Y-73858862D01*
X70363019Y-73772759D01*
X70356666Y-73768727D01*
X70288171Y-73744337D01*
X70192425Y-73710243D01*
X70192420Y-73710242D01*
X70185790Y-73707881D01*
X70178802Y-73707048D01*
X70178799Y-73707047D01*
X70055698Y-73692368D01*
X70005680Y-73686404D01*
X69998677Y-73687140D01*
X69998676Y-73687140D01*
X69832288Y-73704628D01*
X69832286Y-73704629D01*
X69825288Y-73705364D01*
X69653579Y-73763818D01*
X69647575Y-73767512D01*
X69505095Y-73855166D01*
X69505092Y-73855168D01*
X69499088Y-73858862D01*
X69494053Y-73863793D01*
X69494050Y-73863795D01*
X69419977Y-73936333D01*
X69369493Y-73985771D01*
X69356514Y-74005911D01*
X69302804Y-74052334D01*
X69232517Y-74062350D01*
X69167973Y-74032777D01*
X69143753Y-74004429D01*
X69137626Y-73994624D01*
X69123941Y-73980843D01*
X69014778Y-73870915D01*
X69014774Y-73870912D01*
X69009815Y-73865918D01*
X68998697Y-73858862D01*
X68863019Y-73772759D01*
X68856666Y-73768727D01*
X68788171Y-73744337D01*
X68692425Y-73710243D01*
X68692420Y-73710242D01*
X68685790Y-73707881D01*
X68678802Y-73707048D01*
X68678799Y-73707047D01*
X68555698Y-73692368D01*
X68505680Y-73686404D01*
X68498677Y-73687140D01*
X68498676Y-73687140D01*
X68332288Y-73704628D01*
X68332286Y-73704629D01*
X68325288Y-73705364D01*
X68153579Y-73763818D01*
X68147575Y-73767512D01*
X68005095Y-73855166D01*
X68005092Y-73855168D01*
X67999088Y-73858862D01*
X67994053Y-73863793D01*
X67994050Y-73863795D01*
X67919977Y-73936333D01*
X67869493Y-73985771D01*
X67856514Y-74005911D01*
X67802804Y-74052334D01*
X67732517Y-74062350D01*
X67667973Y-74032777D01*
X67643753Y-74004429D01*
X67637626Y-73994624D01*
X67623941Y-73980843D01*
X67514778Y-73870915D01*
X67514774Y-73870912D01*
X67509815Y-73865918D01*
X67498697Y-73858862D01*
X67363019Y-73772759D01*
X67356666Y-73768727D01*
X67288171Y-73744337D01*
X67192425Y-73710243D01*
X67192420Y-73710242D01*
X67185790Y-73707881D01*
X67178802Y-73707048D01*
X67178799Y-73707047D01*
X67055698Y-73692368D01*
X67005680Y-73686404D01*
X66998677Y-73687140D01*
X66998676Y-73687140D01*
X66832288Y-73704628D01*
X66832286Y-73704629D01*
X66825288Y-73705364D01*
X66653579Y-73763818D01*
X66647575Y-73767512D01*
X66505095Y-73855166D01*
X66505092Y-73855168D01*
X66499088Y-73858862D01*
X66494053Y-73863793D01*
X66494050Y-73863795D01*
X66419977Y-73936333D01*
X66369493Y-73985771D01*
X66356514Y-74005911D01*
X66302804Y-74052334D01*
X66232517Y-74062350D01*
X66167973Y-74032777D01*
X66143753Y-74004429D01*
X66137626Y-73994624D01*
X66123941Y-73980843D01*
X66014778Y-73870915D01*
X66014774Y-73870912D01*
X66009815Y-73865918D01*
X65998697Y-73858862D01*
X65863019Y-73772759D01*
X65856666Y-73768727D01*
X65788171Y-73744337D01*
X65692425Y-73710243D01*
X65692420Y-73710242D01*
X65685790Y-73707881D01*
X65678802Y-73707048D01*
X65678799Y-73707047D01*
X65555698Y-73692368D01*
X65505680Y-73686404D01*
X65498677Y-73687140D01*
X65498676Y-73687140D01*
X65332288Y-73704628D01*
X65332286Y-73704629D01*
X65325288Y-73705364D01*
X65153579Y-73763818D01*
X65147575Y-73767512D01*
X65005095Y-73855166D01*
X65005092Y-73855168D01*
X64999088Y-73858862D01*
X64994053Y-73863793D01*
X64994050Y-73863795D01*
X64919977Y-73936333D01*
X64869493Y-73985771D01*
X64771235Y-74138238D01*
X64768826Y-74144858D01*
X64768824Y-74144861D01*
X64714243Y-74294820D01*
X64709197Y-74308685D01*
X64686463Y-74488640D01*
X58442620Y-74488640D01*
X61735855Y-71195405D01*
X61798167Y-71161379D01*
X61824950Y-71158500D01*
X70492107Y-71158500D01*
X70561100Y-71179068D01*
X70586066Y-71195405D01*
X70633159Y-71226222D01*
X70639763Y-71228678D01*
X70639765Y-71228679D01*
X70796558Y-71286990D01*
X70796560Y-71286990D01*
X70803168Y-71289448D01*
X70886995Y-71300633D01*
X70975980Y-71312507D01*
X70975984Y-71312507D01*
X70982961Y-71313438D01*
X70989972Y-71312800D01*
X70989976Y-71312800D01*
X71146184Y-71298583D01*
X71163600Y-71296998D01*
X71170302Y-71294820D01*
X71170304Y-71294820D01*
X71329409Y-71243124D01*
X71329412Y-71243123D01*
X71336108Y-71240947D01*
X71460573Y-71166751D01*
X71485860Y-71151677D01*
X71485862Y-71151676D01*
X71491912Y-71148069D01*
X71623266Y-71022982D01*
X71723643Y-70871902D01*
X71788055Y-70702338D01*
X71789035Y-70695366D01*
X71812748Y-70526639D01*
X71812748Y-70526636D01*
X71813299Y-70522717D01*
X71813452Y-70511738D01*
X71813561Y-70503962D01*
X71813561Y-70503957D01*
X71813616Y-70500000D01*
X71811557Y-70481646D01*
X71807776Y-70447931D01*
X71820061Y-70378005D01*
X71868200Y-70325822D01*
X71936910Y-70307948D01*
X71949655Y-70308994D01*
X71953114Y-70309455D01*
X71975980Y-70312507D01*
X71975984Y-70312507D01*
X71982961Y-70313438D01*
X71989972Y-70312800D01*
X71989976Y-70312800D01*
X72132459Y-70299832D01*
X72163600Y-70296998D01*
X72170302Y-70294820D01*
X72170304Y-70294820D01*
X72329409Y-70243124D01*
X72329412Y-70243123D01*
X72336108Y-70240947D01*
X72452813Y-70171377D01*
X72485860Y-70151677D01*
X72485862Y-70151676D01*
X72491912Y-70148069D01*
X72623266Y-70022982D01*
X72723643Y-69871902D01*
X72765666Y-69761277D01*
X72785555Y-69708920D01*
X72785556Y-69708918D01*
X72788055Y-69702338D01*
X72790262Y-69686636D01*
X72812748Y-69526639D01*
X72812748Y-69526636D01*
X72813299Y-69522717D01*
X72813616Y-69500000D01*
X72793397Y-69319745D01*
X72781749Y-69286297D01*
X72736064Y-69155106D01*
X72736062Y-69155103D01*
X72733745Y-69148448D01*
X72637626Y-68994624D01*
X72614670Y-68971507D01*
X72514778Y-68870915D01*
X72514774Y-68870912D01*
X72509815Y-68865918D01*
X72498048Y-68858450D01*
X72441900Y-68822818D01*
X72356666Y-68768727D01*
X72327463Y-68758328D01*
X72192425Y-68710243D01*
X72192420Y-68710242D01*
X72185790Y-68707881D01*
X72178802Y-68707048D01*
X72178799Y-68707047D01*
X72046839Y-68691312D01*
X72005680Y-68686404D01*
X71998677Y-68687140D01*
X71998676Y-68687140D01*
X71832288Y-68704628D01*
X71832286Y-68704629D01*
X71825288Y-68705364D01*
X71793581Y-68716158D01*
X71660249Y-68761547D01*
X71660246Y-68761548D01*
X71653579Y-68763818D01*
X71647581Y-68767508D01*
X71647579Y-68767509D01*
X71557676Y-68822818D01*
X71491654Y-68841500D01*
X61082059Y-68841500D01*
X61070203Y-68840941D01*
X61062463Y-68839211D01*
X61054537Y-68839460D01*
X61054536Y-68839460D01*
X60991611Y-68841438D01*
X60987653Y-68841500D01*
X60958568Y-68841500D01*
X60954637Y-68841997D01*
X60954630Y-68841997D01*
X60954179Y-68842054D01*
X60942343Y-68842986D01*
X60896169Y-68844438D01*
X60875579Y-68850420D01*
X60856218Y-68854430D01*
X60849230Y-68855312D01*
X60842796Y-68856125D01*
X60842795Y-68856125D01*
X60834936Y-68857118D01*
X60827571Y-68860034D01*
X60827567Y-68860035D01*
X60791979Y-68874126D01*
X60780769Y-68877965D01*
X60736400Y-68890855D01*
X60717935Y-68901775D01*
X60700195Y-68910466D01*
X60680244Y-68918365D01*
X60653988Y-68937441D01*
X60642874Y-68945516D01*
X60632952Y-68952033D01*
X60600023Y-68971507D01*
X60600019Y-68971510D01*
X60593193Y-68975547D01*
X60578029Y-68990711D01*
X60562996Y-69003551D01*
X60545643Y-69016159D01*
X60516198Y-69051752D01*
X60508208Y-69060532D01*
X45947895Y-83620845D01*
X45885583Y-83654871D01*
X45858800Y-83657750D01*
X44007944Y-83657750D01*
X43940430Y-83638135D01*
X43913185Y-83620845D01*
X43856666Y-83584977D01*
X43827463Y-83574578D01*
X43692425Y-83526493D01*
X43692420Y-83526492D01*
X43685790Y-83524131D01*
X43678802Y-83523298D01*
X43678799Y-83523297D01*
X43550437Y-83507991D01*
X43505680Y-83502654D01*
X43498677Y-83503390D01*
X43498676Y-83503390D01*
X43332288Y-83520878D01*
X43332286Y-83520879D01*
X43325288Y-83521614D01*
X43153579Y-83580068D01*
X43147575Y-83583762D01*
X43005095Y-83671416D01*
X43005092Y-83671418D01*
X42999088Y-83675112D01*
X42994053Y-83680043D01*
X42994050Y-83680045D01*
X42956648Y-83716672D01*
X42869493Y-83802021D01*
X42771235Y-83954488D01*
X42768826Y-83961108D01*
X42768824Y-83961111D01*
X42744224Y-84028699D01*
X42709197Y-84124935D01*
X42686463Y-84304890D01*
X36508000Y-84304890D01*
X36508000Y-84022115D01*
X36503525Y-84006876D01*
X36502135Y-84005671D01*
X36494452Y-84004000D01*
X35272115Y-84004000D01*
X35256876Y-84008475D01*
X35255671Y-84009865D01*
X35254000Y-84017548D01*
X35254000Y-85089884D01*
X34746000Y-85089884D01*
X34746000Y-84022115D01*
X34741525Y-84006876D01*
X34740135Y-84005671D01*
X34732452Y-84004000D01*
X33510116Y-84004000D01*
X33494877Y-84008475D01*
X33493672Y-84009865D01*
X33492001Y-84017548D01*
X33492001Y-84397095D01*
X25508500Y-84397095D01*
X25508500Y-81185774D01*
X33488102Y-81185774D01*
X33496751Y-81416158D01*
X33544093Y-81641791D01*
X33546051Y-81646750D01*
X33546052Y-81646752D01*
X33622873Y-81841273D01*
X33628776Y-81856221D01*
X33631543Y-81860780D01*
X33631544Y-81860783D01*
X33675489Y-81933201D01*
X33748377Y-82053317D01*
X33751874Y-82057347D01*
X33881777Y-82207047D01*
X33899477Y-82227445D01*
X33903608Y-82230832D01*
X33935529Y-82257006D01*
X33975524Y-82315666D01*
X33977455Y-82386636D01*
X33940710Y-82447384D01*
X33921941Y-82461584D01*
X33782193Y-82548063D01*
X33770792Y-82557099D01*
X33656261Y-82671829D01*
X33647249Y-82683240D01*
X33562184Y-82821243D01*
X33556037Y-82834424D01*
X33504862Y-82988710D01*
X33501995Y-83002086D01*
X33492328Y-83096438D01*
X33492000Y-83102855D01*
X33492000Y-83477885D01*
X33496475Y-83493124D01*
X33497865Y-83494329D01*
X33505548Y-83496000D01*
X36489884Y-83496000D01*
X36505123Y-83491525D01*
X36506328Y-83490135D01*
X36507999Y-83482452D01*
X36507999Y-83102905D01*
X36507662Y-83096386D01*
X36497743Y-83000794D01*
X36494851Y-82987400D01*
X36443412Y-82833216D01*
X36437239Y-82820038D01*
X36351937Y-82682193D01*
X36342901Y-82670792D01*
X36228171Y-82556261D01*
X36216757Y-82547247D01*
X36077287Y-82461277D01*
X36029793Y-82408505D01*
X36018369Y-82338434D01*
X36046643Y-82273310D01*
X36056430Y-82262847D01*
X36089991Y-82230832D01*
X36171135Y-82153424D01*
X36205836Y-82106785D01*
X36305568Y-81972740D01*
X36308754Y-81968458D01*
X36348425Y-81890432D01*
X36376816Y-81834590D01*
X36413240Y-81762949D01*
X36419020Y-81744337D01*
X36480024Y-81547871D01*
X36481607Y-81542773D01*
X36491392Y-81468947D01*
X36511198Y-81319511D01*
X36511198Y-81319506D01*
X36511898Y-81314226D01*
X36511442Y-81302066D01*
X36503449Y-81089173D01*
X36503249Y-81083842D01*
X36455907Y-80858209D01*
X36371224Y-80643779D01*
X36251623Y-80446683D01*
X36248126Y-80442653D01*
X36104023Y-80276588D01*
X36104021Y-80276586D01*
X36100523Y-80272555D01*
X36039311Y-80222364D01*
X35926373Y-80129760D01*
X35926367Y-80129756D01*
X35922245Y-80126376D01*
X35917609Y-80123737D01*
X35917606Y-80123735D01*
X35726529Y-80014968D01*
X35721886Y-80012325D01*
X35505175Y-79933663D01*
X35499926Y-79932714D01*
X35499923Y-79932713D01*
X35282392Y-79893377D01*
X35282385Y-79893376D01*
X35278308Y-79892639D01*
X35260586Y-79891803D01*
X35255644Y-79891570D01*
X35255637Y-79891570D01*
X35254156Y-79891500D01*
X34792110Y-79891500D01*
X34725191Y-79897178D01*
X34625591Y-79905629D01*
X34625587Y-79905630D01*
X34620280Y-79906080D01*
X34615125Y-79907418D01*
X34615119Y-79907419D01*
X34402297Y-79962657D01*
X34402293Y-79962658D01*
X34397128Y-79963999D01*
X34392262Y-79966191D01*
X34392259Y-79966192D01*
X34283980Y-80014968D01*
X34186925Y-80058688D01*
X33995681Y-80187441D01*
X33991824Y-80191120D01*
X33991822Y-80191122D01*
X33939592Y-80240947D01*
X33828865Y-80346576D01*
X33691246Y-80531542D01*
X33688830Y-80536293D01*
X33688828Y-80536297D01*
X33639003Y-80634297D01*
X33586760Y-80737051D01*
X33585178Y-80742145D01*
X33585177Y-80742148D01*
X33547405Y-80863795D01*
X33518393Y-80957227D01*
X33517692Y-80962516D01*
X33495188Y-81132312D01*
X33488102Y-81185774D01*
X25508500Y-81185774D01*
X25508500Y-69935774D01*
X33513102Y-69935774D01*
X33513302Y-69941103D01*
X33513302Y-69941105D01*
X33516376Y-70022982D01*
X33521751Y-70166158D01*
X33569093Y-70391791D01*
X33571051Y-70396750D01*
X33571052Y-70396752D01*
X33619235Y-70518757D01*
X33653776Y-70606221D01*
X33656543Y-70610780D01*
X33656544Y-70610783D01*
X33712101Y-70702338D01*
X33773377Y-70803317D01*
X33776874Y-70807347D01*
X33863438Y-70907103D01*
X33924477Y-70977445D01*
X33928608Y-70980832D01*
X34098627Y-71120240D01*
X34098633Y-71120244D01*
X34102755Y-71123624D01*
X34107391Y-71126263D01*
X34107394Y-71126265D01*
X34152037Y-71151677D01*
X34303114Y-71237675D01*
X34519825Y-71316337D01*
X34525074Y-71317286D01*
X34525077Y-71317287D01*
X34742608Y-71356623D01*
X34742615Y-71356624D01*
X34746692Y-71357361D01*
X34764414Y-71358197D01*
X34769356Y-71358430D01*
X34769363Y-71358430D01*
X34770844Y-71358500D01*
X35182890Y-71358500D01*
X35249809Y-71352822D01*
X35349409Y-71344371D01*
X35349413Y-71344370D01*
X35354720Y-71343920D01*
X35359875Y-71342582D01*
X35359881Y-71342581D01*
X35572703Y-71287343D01*
X35572707Y-71287342D01*
X35577872Y-71286001D01*
X35582738Y-71283809D01*
X35582741Y-71283808D01*
X35783202Y-71193507D01*
X35788075Y-71191312D01*
X35979319Y-71062559D01*
X36029215Y-71014961D01*
X36142278Y-70907103D01*
X36146135Y-70903424D01*
X36283754Y-70718458D01*
X36288604Y-70708920D01*
X36343342Y-70601256D01*
X36388240Y-70512949D01*
X36422426Y-70402855D01*
X36455024Y-70297871D01*
X36456607Y-70292773D01*
X36463954Y-70237340D01*
X36486198Y-70069511D01*
X36486198Y-70069506D01*
X36486898Y-70064226D01*
X36485450Y-70025641D01*
X36479469Y-69866337D01*
X36478249Y-69833842D01*
X36430907Y-69608209D01*
X36397419Y-69523412D01*
X36348185Y-69398744D01*
X36348184Y-69398742D01*
X36346224Y-69393779D01*
X36324117Y-69357347D01*
X36229390Y-69201243D01*
X36226623Y-69196683D01*
X36191512Y-69156221D01*
X36079023Y-69026588D01*
X36079021Y-69026586D01*
X36075523Y-69022555D01*
X36013266Y-68971507D01*
X35901373Y-68879760D01*
X35901367Y-68879756D01*
X35897245Y-68876376D01*
X35865750Y-68858448D01*
X35816445Y-68807368D01*
X35802583Y-68737738D01*
X35828566Y-68671667D01*
X35857716Y-68644427D01*
X35902575Y-68614226D01*
X35979319Y-68562559D01*
X36146135Y-68403424D01*
X36160705Y-68383842D01*
X36280568Y-68222740D01*
X36283754Y-68218458D01*
X36294537Y-68197251D01*
X36343342Y-68101256D01*
X36388240Y-68012949D01*
X36400685Y-67972872D01*
X36455024Y-67797871D01*
X36456607Y-67792773D01*
X36463250Y-67742653D01*
X36486198Y-67569511D01*
X36486198Y-67569506D01*
X36486898Y-67564226D01*
X36483904Y-67484461D01*
X36478449Y-67339173D01*
X36478249Y-67333842D01*
X36430907Y-67108209D01*
X36428948Y-67103248D01*
X36348185Y-66898744D01*
X36348184Y-66898742D01*
X36346224Y-66893779D01*
X36329562Y-66866320D01*
X36229390Y-66701243D01*
X36226623Y-66696683D01*
X36139755Y-66596576D01*
X36079023Y-66526588D01*
X36079021Y-66526586D01*
X36075523Y-66522555D01*
X35996755Y-66457969D01*
X35901373Y-66379760D01*
X35901367Y-66379756D01*
X35897245Y-66376376D01*
X35865750Y-66358448D01*
X35816445Y-66307368D01*
X35802583Y-66237738D01*
X35828566Y-66171667D01*
X35857716Y-66144427D01*
X35894725Y-66119511D01*
X35979319Y-66062559D01*
X35999719Y-66043099D01*
X36142278Y-65907103D01*
X36146135Y-65903424D01*
X36160705Y-65883842D01*
X36280568Y-65722740D01*
X36283754Y-65718458D01*
X36316909Y-65653248D01*
X36343342Y-65601256D01*
X36388240Y-65512949D01*
X36408177Y-65448744D01*
X36455024Y-65297871D01*
X36456607Y-65292773D01*
X36471601Y-65179642D01*
X36486198Y-65069511D01*
X36486198Y-65069506D01*
X36486898Y-65064226D01*
X36483904Y-64984461D01*
X36478449Y-64839173D01*
X36478249Y-64833842D01*
X36430907Y-64608209D01*
X36346224Y-64393779D01*
X36324117Y-64357347D01*
X36229390Y-64201243D01*
X36226623Y-64196683D01*
X36139755Y-64096576D01*
X36079023Y-64026588D01*
X36079021Y-64026586D01*
X36075523Y-64022555D01*
X36039880Y-63993330D01*
X35999886Y-63934671D01*
X35997954Y-63863701D01*
X36034698Y-63802952D01*
X36053468Y-63788752D01*
X36193120Y-63702332D01*
X36199348Y-63698478D01*
X36324305Y-63573303D01*
X36417115Y-63422738D01*
X36472797Y-63254861D01*
X36483500Y-63150400D01*
X36483500Y-61849600D01*
X36472526Y-61743834D01*
X36416550Y-61576054D01*
X36323478Y-61425652D01*
X36198303Y-61300695D01*
X36192072Y-61296854D01*
X36053968Y-61211725D01*
X36053966Y-61211724D01*
X36047738Y-61207885D01*
X35887254Y-61154655D01*
X35886389Y-61154368D01*
X35886387Y-61154368D01*
X35879861Y-61152203D01*
X35873025Y-61151503D01*
X35873022Y-61151502D01*
X35829969Y-61147091D01*
X35775400Y-61141500D01*
X34224600Y-61141500D01*
X34221354Y-61141837D01*
X34221350Y-61141837D01*
X34125692Y-61151762D01*
X34125688Y-61151763D01*
X34118834Y-61152474D01*
X34112298Y-61154655D01*
X34112296Y-61154655D01*
X33980194Y-61198728D01*
X33951054Y-61208450D01*
X33800652Y-61301522D01*
X33675695Y-61426697D01*
X33582885Y-61577262D01*
X33527203Y-61745139D01*
X33516500Y-61849600D01*
X33516500Y-63150400D01*
X33527474Y-63256166D01*
X33583450Y-63423946D01*
X33676522Y-63574348D01*
X33801697Y-63699305D01*
X33947340Y-63789081D01*
X33994832Y-63841852D01*
X34006256Y-63911924D01*
X33977982Y-63977048D01*
X33968195Y-63987510D01*
X33853865Y-64096576D01*
X33716246Y-64281542D01*
X33611760Y-64487051D01*
X33610178Y-64492145D01*
X33610177Y-64492148D01*
X33571863Y-64615539D01*
X33543393Y-64707227D01*
X33542692Y-64712516D01*
X33514348Y-64926376D01*
X33513102Y-64935774D01*
X33521751Y-65166158D01*
X33569093Y-65391791D01*
X33571051Y-65396750D01*
X33571052Y-65396752D01*
X33637955Y-65566159D01*
X33653776Y-65606221D01*
X33773377Y-65803317D01*
X33776874Y-65807347D01*
X33863438Y-65907103D01*
X33924477Y-65977445D01*
X33928608Y-65980832D01*
X34098627Y-66120240D01*
X34098633Y-66120244D01*
X34102755Y-66123624D01*
X34134250Y-66141552D01*
X34183555Y-66192632D01*
X34197417Y-66262262D01*
X34171434Y-66328333D01*
X34142284Y-66355573D01*
X34020681Y-66437441D01*
X34016824Y-66441120D01*
X34016822Y-66441122D01*
X33976957Y-66479152D01*
X33853865Y-66596576D01*
X33716246Y-66781542D01*
X33713830Y-66786293D01*
X33713828Y-66786297D01*
X33682071Y-66848759D01*
X33611760Y-66987051D01*
X33610178Y-66992145D01*
X33610177Y-66992148D01*
X33571863Y-67115539D01*
X33543393Y-67207227D01*
X33542692Y-67212516D01*
X33514348Y-67426376D01*
X33513102Y-67435774D01*
X33521751Y-67666158D01*
X33569093Y-67891791D01*
X33571051Y-67896750D01*
X33571052Y-67896752D01*
X33616253Y-68011206D01*
X33653776Y-68106221D01*
X33773377Y-68303317D01*
X33776874Y-68307347D01*
X33863438Y-68407103D01*
X33924477Y-68477445D01*
X33928608Y-68480832D01*
X34098627Y-68620240D01*
X34098633Y-68620244D01*
X34102755Y-68623624D01*
X34134250Y-68641552D01*
X34183555Y-68692632D01*
X34197417Y-68762262D01*
X34171434Y-68828333D01*
X34142284Y-68855573D01*
X34020681Y-68937441D01*
X34016824Y-68941120D01*
X34016822Y-68941122D01*
X33984971Y-68971507D01*
X33853865Y-69096576D01*
X33850682Y-69100854D01*
X33794790Y-69175975D01*
X33716246Y-69281542D01*
X33713830Y-69286293D01*
X33713828Y-69286297D01*
X33693264Y-69326744D01*
X33611760Y-69487051D01*
X33610178Y-69492145D01*
X33610177Y-69492148D01*
X33571824Y-69615666D01*
X33543393Y-69707227D01*
X33542692Y-69712516D01*
X33516717Y-69908500D01*
X33513102Y-69935774D01*
X25508500Y-69935774D01*
X25508500Y-55485774D01*
X33513102Y-55485774D01*
X33521751Y-55716158D01*
X33569093Y-55941791D01*
X33653776Y-56156221D01*
X33773377Y-56353317D01*
X33776874Y-56357347D01*
X33863438Y-56457103D01*
X33924477Y-56527445D01*
X33928608Y-56530832D01*
X34098627Y-56670240D01*
X34098633Y-56670244D01*
X34102755Y-56673624D01*
X34107391Y-56676263D01*
X34107394Y-56676265D01*
X34216422Y-56738327D01*
X34303114Y-56787675D01*
X34519825Y-56866337D01*
X34525074Y-56867286D01*
X34525077Y-56867287D01*
X34742608Y-56906623D01*
X34742615Y-56906624D01*
X34746692Y-56907361D01*
X34764414Y-56908197D01*
X34769356Y-56908430D01*
X34769363Y-56908430D01*
X34770844Y-56908500D01*
X35182890Y-56908500D01*
X35249809Y-56902822D01*
X35349409Y-56894371D01*
X35349413Y-56894370D01*
X35354720Y-56893920D01*
X35359875Y-56892582D01*
X35359881Y-56892581D01*
X35572703Y-56837343D01*
X35572707Y-56837342D01*
X35577872Y-56836001D01*
X35582738Y-56833809D01*
X35582741Y-56833808D01*
X35783202Y-56743507D01*
X35788075Y-56741312D01*
X35979319Y-56612559D01*
X36146135Y-56453424D01*
X36283754Y-56268458D01*
X36388240Y-56062949D01*
X36424321Y-55946752D01*
X36455024Y-55847871D01*
X36456607Y-55842773D01*
X36457308Y-55837484D01*
X36486198Y-55619511D01*
X36486198Y-55619506D01*
X36486898Y-55614226D01*
X36478249Y-55383842D01*
X36430907Y-55158209D01*
X36346224Y-54943779D01*
X36226623Y-54746683D01*
X36139755Y-54646576D01*
X36079023Y-54576588D01*
X36079021Y-54576586D01*
X36075523Y-54572555D01*
X36033970Y-54538484D01*
X35901373Y-54429760D01*
X35901367Y-54429756D01*
X35897245Y-54426376D01*
X35865750Y-54408448D01*
X35816445Y-54357368D01*
X35802583Y-54287738D01*
X35828566Y-54221667D01*
X35857716Y-54194427D01*
X35893642Y-54170240D01*
X35979319Y-54112559D01*
X36146135Y-53953424D01*
X36283754Y-53768458D01*
X36388240Y-53562949D01*
X36424321Y-53446752D01*
X36455024Y-53347871D01*
X36456607Y-53342773D01*
X36457308Y-53337484D01*
X36486198Y-53119511D01*
X36486198Y-53119506D01*
X36486898Y-53114226D01*
X36478249Y-52883842D01*
X36430907Y-52658209D01*
X36346224Y-52443779D01*
X36226623Y-52246683D01*
X36139755Y-52146576D01*
X36079023Y-52076588D01*
X36079021Y-52076586D01*
X36075523Y-52072555D01*
X36033970Y-52038484D01*
X35901373Y-51929760D01*
X35901367Y-51929756D01*
X35897245Y-51926376D01*
X35865750Y-51908448D01*
X35816445Y-51857368D01*
X35802583Y-51787738D01*
X35828566Y-51721667D01*
X35857716Y-51694427D01*
X35893642Y-51670240D01*
X35979319Y-51612559D01*
X36146135Y-51453424D01*
X36283754Y-51268458D01*
X36388240Y-51062949D01*
X36424321Y-50946752D01*
X36455024Y-50847871D01*
X36456607Y-50842773D01*
X36467219Y-50762706D01*
X36486198Y-50619511D01*
X36486198Y-50619506D01*
X36486898Y-50614226D01*
X36478249Y-50383842D01*
X36430907Y-50158209D01*
X36346224Y-49943779D01*
X36226623Y-49746683D01*
X36139755Y-49646576D01*
X36079023Y-49576588D01*
X36079021Y-49576586D01*
X36075523Y-49572555D01*
X36039880Y-49543330D01*
X35999886Y-49484671D01*
X35997954Y-49413701D01*
X36034698Y-49352952D01*
X36053468Y-49338752D01*
X36193120Y-49252332D01*
X36199348Y-49248478D01*
X36324305Y-49123303D01*
X36353430Y-49076054D01*
X36413275Y-48978968D01*
X36413276Y-48978966D01*
X36417115Y-48972738D01*
X36472797Y-48804861D01*
X36473618Y-48796854D01*
X36477909Y-48754969D01*
X36483500Y-48700400D01*
X36483500Y-47399600D01*
X36483163Y-47396350D01*
X36473238Y-47300692D01*
X36473237Y-47300688D01*
X36472526Y-47293834D01*
X36416550Y-47126054D01*
X36323478Y-46975652D01*
X36198303Y-46850695D01*
X36191741Y-46846650D01*
X36053968Y-46761725D01*
X36053966Y-46761724D01*
X36047738Y-46757885D01*
X35887254Y-46704655D01*
X35886389Y-46704368D01*
X35886387Y-46704368D01*
X35879861Y-46702203D01*
X35873025Y-46701503D01*
X35873022Y-46701502D01*
X35825986Y-46696683D01*
X35775400Y-46691500D01*
X34224600Y-46691500D01*
X34221354Y-46691837D01*
X34221350Y-46691837D01*
X34125692Y-46701762D01*
X34125688Y-46701763D01*
X34118834Y-46702474D01*
X34112298Y-46704655D01*
X34112296Y-46704655D01*
X33980194Y-46748728D01*
X33951054Y-46758450D01*
X33800652Y-46851522D01*
X33795479Y-46856704D01*
X33758469Y-46893779D01*
X33675695Y-46976697D01*
X33671855Y-46982927D01*
X33671854Y-46982928D01*
X33597688Y-47103248D01*
X33582885Y-47127262D01*
X33527203Y-47295139D01*
X33526503Y-47301975D01*
X33526502Y-47301978D01*
X33522691Y-47339173D01*
X33516500Y-47399600D01*
X33516500Y-48700400D01*
X33516837Y-48703646D01*
X33516837Y-48703650D01*
X33526508Y-48796854D01*
X33527474Y-48806166D01*
X33583450Y-48973946D01*
X33676522Y-49124348D01*
X33801697Y-49249305D01*
X33947340Y-49339081D01*
X33994832Y-49391852D01*
X34006256Y-49461924D01*
X33977982Y-49527048D01*
X33968195Y-49537510D01*
X33948465Y-49556332D01*
X33853865Y-49646576D01*
X33716246Y-49831542D01*
X33611760Y-50037051D01*
X33610178Y-50042145D01*
X33610177Y-50042148D01*
X33548115Y-50242020D01*
X33543393Y-50257227D01*
X33542692Y-50262516D01*
X33527304Y-50378623D01*
X33513102Y-50485774D01*
X33521751Y-50716158D01*
X33569093Y-50941791D01*
X33571051Y-50946750D01*
X33571052Y-50946752D01*
X33623486Y-51079521D01*
X33653776Y-51156221D01*
X33656543Y-51160780D01*
X33656544Y-51160783D01*
X33676782Y-51194134D01*
X33773377Y-51353317D01*
X33776874Y-51357347D01*
X33863438Y-51457103D01*
X33924477Y-51527445D01*
X33928608Y-51530832D01*
X34098627Y-51670240D01*
X34098633Y-51670244D01*
X34102755Y-51673624D01*
X34134250Y-51691552D01*
X34183555Y-51742632D01*
X34197417Y-51812262D01*
X34171434Y-51878333D01*
X34142284Y-51905573D01*
X34020681Y-51987441D01*
X33853865Y-52146576D01*
X33716246Y-52331542D01*
X33611760Y-52537051D01*
X33610178Y-52542145D01*
X33610177Y-52542148D01*
X33548115Y-52742020D01*
X33543393Y-52757227D01*
X33542692Y-52762516D01*
X33527304Y-52878623D01*
X33513102Y-52985774D01*
X33521751Y-53216158D01*
X33569093Y-53441791D01*
X33653776Y-53656221D01*
X33773377Y-53853317D01*
X33776874Y-53857347D01*
X33863438Y-53957103D01*
X33924477Y-54027445D01*
X33928608Y-54030832D01*
X34098627Y-54170240D01*
X34098633Y-54170244D01*
X34102755Y-54173624D01*
X34134250Y-54191552D01*
X34183555Y-54242632D01*
X34197417Y-54312262D01*
X34171434Y-54378333D01*
X34142284Y-54405573D01*
X34020681Y-54487441D01*
X33853865Y-54646576D01*
X33716246Y-54831542D01*
X33611760Y-55037051D01*
X33610178Y-55042145D01*
X33610177Y-55042148D01*
X33548115Y-55242020D01*
X33543393Y-55257227D01*
X33542692Y-55262516D01*
X33527304Y-55378623D01*
X33513102Y-55485774D01*
X25508500Y-55485774D01*
X25508500Y-38186434D01*
X32178921Y-38186434D01*
X32185708Y-38196135D01*
X32385023Y-38366365D01*
X32389709Y-38370000D01*
X32713442Y-38597523D01*
X32718432Y-38600690D01*
X33062141Y-38796739D01*
X33067422Y-38799429D01*
X33428053Y-38962260D01*
X33433544Y-38964434D01*
X33807906Y-39092607D01*
X33813590Y-39094259D01*
X34198347Y-39186631D01*
X34204162Y-39187740D01*
X34595889Y-39243490D01*
X34601802Y-39244049D01*
X34997031Y-39262688D01*
X35002969Y-39262688D01*
X35398198Y-39244049D01*
X35404111Y-39243490D01*
X35795838Y-39187740D01*
X35801653Y-39186631D01*
X36186410Y-39094259D01*
X36192094Y-39092607D01*
X36566456Y-38964434D01*
X36571947Y-38962260D01*
X36932578Y-38799429D01*
X36937859Y-38796739D01*
X37281568Y-38600690D01*
X37286558Y-38597523D01*
X37610291Y-38370000D01*
X37614977Y-38366365D01*
X37812722Y-38197476D01*
X37819930Y-38186434D01*
X112178921Y-38186434D01*
X112185708Y-38196135D01*
X112385023Y-38366365D01*
X112389709Y-38370000D01*
X112713442Y-38597523D01*
X112718432Y-38600690D01*
X113062141Y-38796739D01*
X113067422Y-38799429D01*
X113428053Y-38962260D01*
X113433544Y-38964434D01*
X113807906Y-39092607D01*
X113813590Y-39094259D01*
X114198347Y-39186631D01*
X114204162Y-39187740D01*
X114595889Y-39243490D01*
X114601802Y-39244049D01*
X114997031Y-39262688D01*
X115002969Y-39262688D01*
X115398198Y-39244049D01*
X115404111Y-39243490D01*
X115795838Y-39187740D01*
X115801653Y-39186631D01*
X116186410Y-39094259D01*
X116192094Y-39092607D01*
X116566456Y-38964434D01*
X116571947Y-38962260D01*
X116932578Y-38799429D01*
X116937859Y-38796739D01*
X117281568Y-38600690D01*
X117286558Y-38597523D01*
X117610291Y-38370000D01*
X117614977Y-38366365D01*
X117812722Y-38197476D01*
X117821152Y-38184562D01*
X117815145Y-38174355D01*
X115012812Y-35372022D01*
X114998868Y-35364408D01*
X114997035Y-35364539D01*
X114990420Y-35368790D01*
X112186313Y-38172897D01*
X112178921Y-38186434D01*
X37819930Y-38186434D01*
X37821152Y-38184562D01*
X37815145Y-38174355D01*
X35012812Y-35372022D01*
X34998868Y-35364408D01*
X34997035Y-35364539D01*
X34990420Y-35368790D01*
X32186313Y-38172897D01*
X32178921Y-38186434D01*
X25508500Y-38186434D01*
X25508500Y-34869073D01*
X30739322Y-34869073D01*
X30745537Y-35264679D01*
X30745911Y-35270629D01*
X30789327Y-35663895D01*
X30790257Y-35669766D01*
X30870494Y-36057212D01*
X30871970Y-36062960D01*
X30988316Y-36441151D01*
X30990320Y-36446716D01*
X31141745Y-36812288D01*
X31144267Y-36817647D01*
X31329411Y-37167323D01*
X31332436Y-37172440D01*
X31549669Y-37503144D01*
X31553159Y-37507947D01*
X31800292Y-37816420D01*
X31813130Y-37823694D01*
X31814439Y-37823621D01*
X31821852Y-37818938D01*
X34627978Y-35012812D01*
X34634356Y-35001132D01*
X35364408Y-35001132D01*
X35364539Y-35002965D01*
X35368790Y-35009580D01*
X38175271Y-37816061D01*
X38189215Y-37823675D01*
X38190524Y-37823582D01*
X38197360Y-37819112D01*
X38199454Y-37816737D01*
X38446841Y-37507947D01*
X38450331Y-37503144D01*
X38667564Y-37172440D01*
X38670589Y-37167323D01*
X38855733Y-36817647D01*
X38858255Y-36812288D01*
X39009680Y-36446716D01*
X39011684Y-36441151D01*
X39128030Y-36062960D01*
X39129506Y-36057212D01*
X39209743Y-35669766D01*
X39210673Y-35663895D01*
X39254145Y-35270124D01*
X39254494Y-35265196D01*
X39262750Y-35002468D01*
X39262711Y-34997530D01*
X39261833Y-34978918D01*
X97866917Y-34978918D01*
X97882682Y-35252320D01*
X97883507Y-35256525D01*
X97883508Y-35256533D01*
X97904698Y-35364539D01*
X97935405Y-35521053D01*
X97936792Y-35525103D01*
X97936793Y-35525108D01*
X97957605Y-35585895D01*
X98024112Y-35780144D01*
X98147160Y-36024799D01*
X98149586Y-36028328D01*
X98149589Y-36028334D01*
X98299843Y-36246953D01*
X98302274Y-36250490D01*
X98486582Y-36453043D01*
X98696675Y-36628707D01*
X98700316Y-36630991D01*
X98925024Y-36771951D01*
X98925028Y-36771953D01*
X98928664Y-36774234D01*
X98996544Y-36804883D01*
X99174345Y-36885164D01*
X99174349Y-36885166D01*
X99178257Y-36886930D01*
X99182377Y-36888150D01*
X99182376Y-36888150D01*
X99436723Y-36963491D01*
X99436727Y-36963492D01*
X99440836Y-36964709D01*
X99445070Y-36965357D01*
X99445075Y-36965358D01*
X99707298Y-37005483D01*
X99707300Y-37005483D01*
X99711540Y-37006132D01*
X99850912Y-37008322D01*
X99981071Y-37010367D01*
X99981077Y-37010367D01*
X99985362Y-37010434D01*
X100257235Y-36977534D01*
X100522127Y-36908041D01*
X100526087Y-36906401D01*
X100526092Y-36906399D01*
X100648632Y-36855641D01*
X100775136Y-36803241D01*
X101011582Y-36665073D01*
X101165139Y-36544669D01*
X102952001Y-36544669D01*
X102952371Y-36551490D01*
X102957895Y-36602352D01*
X102961521Y-36617604D01*
X103006676Y-36738054D01*
X103015214Y-36753649D01*
X103091715Y-36855724D01*
X103104276Y-36868285D01*
X103206351Y-36944786D01*
X103221946Y-36953324D01*
X103342394Y-36998478D01*
X103357649Y-37002105D01*
X103408514Y-37007631D01*
X103415328Y-37008000D01*
X104687885Y-37008000D01*
X104703124Y-37003525D01*
X104704329Y-37002135D01*
X104706000Y-36994452D01*
X104706000Y-36989884D01*
X105214000Y-36989884D01*
X105218475Y-37005123D01*
X105219865Y-37006328D01*
X105227548Y-37007999D01*
X106504669Y-37007999D01*
X106511490Y-37007629D01*
X106562352Y-37002105D01*
X106577604Y-36998479D01*
X106698054Y-36953324D01*
X106713649Y-36944786D01*
X106815724Y-36868285D01*
X106828285Y-36855724D01*
X106904786Y-36753649D01*
X106913324Y-36738054D01*
X106958478Y-36617606D01*
X106962105Y-36602351D01*
X106967631Y-36551486D01*
X106968000Y-36544672D01*
X106968000Y-35272115D01*
X106963525Y-35256876D01*
X106962135Y-35255671D01*
X106954452Y-35254000D01*
X105232115Y-35254000D01*
X105216876Y-35258475D01*
X105215671Y-35259865D01*
X105214000Y-35267548D01*
X105214000Y-36989884D01*
X104706000Y-36989884D01*
X104706000Y-35272115D01*
X104701525Y-35256876D01*
X104700135Y-35255671D01*
X104692452Y-35254000D01*
X102970116Y-35254000D01*
X102954877Y-35258475D01*
X102953672Y-35259865D01*
X102952001Y-35267548D01*
X102952001Y-36544669D01*
X101165139Y-36544669D01*
X101227089Y-36496094D01*
X101268809Y-36453043D01*
X101414686Y-36302509D01*
X101417669Y-36299431D01*
X101420202Y-36295983D01*
X101420206Y-36295978D01*
X101577257Y-36082178D01*
X101579795Y-36078723D01*
X101607154Y-36028334D01*
X101708418Y-35841830D01*
X101708419Y-35841828D01*
X101710468Y-35838054D01*
X101807269Y-35581877D01*
X101868407Y-35314933D01*
X101872229Y-35272115D01*
X101892531Y-35044627D01*
X101892531Y-35044625D01*
X101892751Y-35042161D01*
X101893193Y-35000000D01*
X101891465Y-34974648D01*
X101884268Y-34869073D01*
X110739322Y-34869073D01*
X110745537Y-35264679D01*
X110745911Y-35270629D01*
X110789327Y-35663895D01*
X110790257Y-35669766D01*
X110870494Y-36057212D01*
X110871970Y-36062960D01*
X110988316Y-36441151D01*
X110990320Y-36446716D01*
X111141745Y-36812288D01*
X111144267Y-36817647D01*
X111329411Y-37167323D01*
X111332436Y-37172440D01*
X111549669Y-37503144D01*
X111553159Y-37507947D01*
X111800292Y-37816420D01*
X111813130Y-37823694D01*
X111814439Y-37823621D01*
X111821852Y-37818938D01*
X114627978Y-35012812D01*
X114634356Y-35001132D01*
X115364408Y-35001132D01*
X115364539Y-35002965D01*
X115368790Y-35009580D01*
X118175271Y-37816061D01*
X118189215Y-37823675D01*
X118190524Y-37823582D01*
X118197360Y-37819112D01*
X118199454Y-37816737D01*
X118446841Y-37507947D01*
X118450331Y-37503144D01*
X118667564Y-37172440D01*
X118670589Y-37167323D01*
X118855733Y-36817647D01*
X118858255Y-36812288D01*
X119009680Y-36446716D01*
X119011684Y-36441151D01*
X119128030Y-36062960D01*
X119129506Y-36057212D01*
X119209743Y-35669766D01*
X119210673Y-35663895D01*
X119254145Y-35270124D01*
X119254494Y-35265196D01*
X119262750Y-35002468D01*
X119262711Y-34997530D01*
X119244049Y-34601802D01*
X119243490Y-34595889D01*
X119187740Y-34204162D01*
X119186631Y-34198347D01*
X119094259Y-33813590D01*
X119092607Y-33807906D01*
X118964434Y-33433544D01*
X118962260Y-33428053D01*
X118799429Y-33067422D01*
X118796739Y-33062141D01*
X118600690Y-32718432D01*
X118597523Y-32713442D01*
X118370000Y-32389709D01*
X118366365Y-32385023D01*
X118197476Y-32187278D01*
X118184562Y-32178848D01*
X118174355Y-32184855D01*
X115372022Y-34987188D01*
X115364408Y-35001132D01*
X114634356Y-35001132D01*
X114635592Y-34998868D01*
X114635461Y-34997035D01*
X114631210Y-34990420D01*
X111827402Y-32186612D01*
X111813458Y-32178998D01*
X111813205Y-32179016D01*
X111804463Y-32184930D01*
X111717436Y-32280572D01*
X111713649Y-32285150D01*
X111476088Y-32601551D01*
X111472744Y-32606471D01*
X111266001Y-32943845D01*
X111263153Y-32949025D01*
X111089072Y-33304370D01*
X111086723Y-33309797D01*
X110946858Y-33679939D01*
X110945026Y-33685578D01*
X110840622Y-34067215D01*
X110839323Y-34073028D01*
X110771295Y-34462811D01*
X110770554Y-34468674D01*
X110739507Y-34863147D01*
X110739322Y-34869073D01*
X101884268Y-34869073D01*
X101874859Y-34731055D01*
X101874858Y-34731049D01*
X101874642Y-34727885D01*
X102952000Y-34727885D01*
X102956475Y-34743124D01*
X102957865Y-34744329D01*
X102965548Y-34746000D01*
X104687885Y-34746000D01*
X104703124Y-34741525D01*
X104704329Y-34740135D01*
X104706000Y-34732452D01*
X104706000Y-34727885D01*
X105214000Y-34727885D01*
X105218475Y-34743124D01*
X105219865Y-34744329D01*
X105227548Y-34746000D01*
X106949884Y-34746000D01*
X106965123Y-34741525D01*
X106966328Y-34740135D01*
X106967999Y-34732452D01*
X106967999Y-33455331D01*
X106967629Y-33448510D01*
X106962105Y-33397648D01*
X106958479Y-33382396D01*
X106913324Y-33261946D01*
X106904786Y-33246351D01*
X106828285Y-33144276D01*
X106815724Y-33131715D01*
X106713649Y-33055214D01*
X106698054Y-33046676D01*
X106577606Y-33001522D01*
X106562351Y-32997895D01*
X106511486Y-32992369D01*
X106504672Y-32992000D01*
X105232115Y-32992000D01*
X105216876Y-32996475D01*
X105215671Y-32997865D01*
X105214000Y-33005548D01*
X105214000Y-34727885D01*
X104706000Y-34727885D01*
X104706000Y-33010116D01*
X104701525Y-32994877D01*
X104700135Y-32993672D01*
X104692452Y-32992001D01*
X103415331Y-32992001D01*
X103408510Y-32992371D01*
X103357648Y-32997895D01*
X103342396Y-33001521D01*
X103221946Y-33046676D01*
X103206351Y-33055214D01*
X103104276Y-33131715D01*
X103091715Y-33144276D01*
X103015214Y-33246351D01*
X103006676Y-33261946D01*
X102961522Y-33382394D01*
X102957895Y-33397649D01*
X102952369Y-33448514D01*
X102952000Y-33455328D01*
X102952000Y-34727885D01*
X101874642Y-34727885D01*
X101874567Y-34726778D01*
X101819032Y-34458612D01*
X101727617Y-34200465D01*
X101602013Y-33957112D01*
X101592040Y-33942921D01*
X101501144Y-33813590D01*
X101444545Y-33733057D01*
X101258125Y-33532445D01*
X101254810Y-33529731D01*
X101254806Y-33529728D01*
X101049523Y-33361706D01*
X101046205Y-33358990D01*
X100812704Y-33215901D01*
X100808768Y-33214173D01*
X100565873Y-33107549D01*
X100565869Y-33107548D01*
X100561945Y-33105825D01*
X100298566Y-33030800D01*
X100294324Y-33030196D01*
X100294318Y-33030195D01*
X100067366Y-32997895D01*
X100027443Y-32992213D01*
X99883589Y-32991460D01*
X99757877Y-32990802D01*
X99757871Y-32990802D01*
X99753591Y-32990780D01*
X99749347Y-32991339D01*
X99749343Y-32991339D01*
X99641416Y-33005548D01*
X99482078Y-33026525D01*
X99477938Y-33027658D01*
X99477936Y-33027658D01*
X99408418Y-33046676D01*
X99217928Y-33098788D01*
X99213980Y-33100472D01*
X98969982Y-33204546D01*
X98969978Y-33204548D01*
X98966030Y-33206232D01*
X98946125Y-33218145D01*
X98734725Y-33344664D01*
X98734721Y-33344667D01*
X98731043Y-33346868D01*
X98517318Y-33518094D01*
X98500717Y-33535588D01*
X98358382Y-33685578D01*
X98328808Y-33716742D01*
X98169002Y-33939136D01*
X98040857Y-34181161D01*
X98039385Y-34185184D01*
X98039383Y-34185188D01*
X98032314Y-34204506D01*
X97946743Y-34438337D01*
X97888404Y-34705907D01*
X97866917Y-34978918D01*
X39261833Y-34978918D01*
X39244049Y-34601802D01*
X39243490Y-34595889D01*
X39187740Y-34204162D01*
X39186631Y-34198347D01*
X39094259Y-33813590D01*
X39092607Y-33807906D01*
X38964434Y-33433544D01*
X38962260Y-33428053D01*
X38799429Y-33067422D01*
X38796739Y-33062141D01*
X38600690Y-32718432D01*
X38597523Y-32713442D01*
X38370000Y-32389709D01*
X38366365Y-32385023D01*
X38197476Y-32187278D01*
X38184562Y-32178848D01*
X38174355Y-32184855D01*
X35372022Y-34987188D01*
X35364408Y-35001132D01*
X34634356Y-35001132D01*
X34635592Y-34998868D01*
X34635461Y-34997035D01*
X34631210Y-34990420D01*
X31827402Y-32186612D01*
X31813458Y-32178998D01*
X31813205Y-32179016D01*
X31804463Y-32184930D01*
X31717436Y-32280572D01*
X31713649Y-32285150D01*
X31476088Y-32601551D01*
X31472744Y-32606471D01*
X31266001Y-32943845D01*
X31263153Y-32949025D01*
X31089072Y-33304370D01*
X31086723Y-33309797D01*
X30946858Y-33679939D01*
X30945026Y-33685578D01*
X30840622Y-34067215D01*
X30839323Y-34073028D01*
X30771295Y-34462811D01*
X30770554Y-34468674D01*
X30739507Y-34863147D01*
X30739322Y-34869073D01*
X25508500Y-34869073D01*
X25508500Y-31815964D01*
X32178939Y-31815964D01*
X32178945Y-31816217D01*
X32184445Y-31825235D01*
X34987188Y-34627978D01*
X35001132Y-34635592D01*
X35002965Y-34635461D01*
X35009580Y-34631210D01*
X37816061Y-31824729D01*
X37820847Y-31815964D01*
X112178939Y-31815964D01*
X112178945Y-31816217D01*
X112184445Y-31825235D01*
X114987188Y-34627978D01*
X115001132Y-34635592D01*
X115002965Y-34635461D01*
X115009580Y-34631210D01*
X117816061Y-31824729D01*
X117823675Y-31810785D01*
X117823582Y-31809476D01*
X117819112Y-31802640D01*
X117816737Y-31800546D01*
X117507947Y-31553159D01*
X117503144Y-31549669D01*
X117172440Y-31332436D01*
X117167323Y-31329411D01*
X116817647Y-31144267D01*
X116812288Y-31141745D01*
X116446716Y-30990320D01*
X116441151Y-30988316D01*
X116062960Y-30871970D01*
X116057212Y-30870494D01*
X115669766Y-30790257D01*
X115663895Y-30789327D01*
X115270629Y-30745911D01*
X115264679Y-30745537D01*
X114869073Y-30739322D01*
X114863147Y-30739507D01*
X114468674Y-30770554D01*
X114462811Y-30771295D01*
X114073028Y-30839323D01*
X114067215Y-30840622D01*
X113685578Y-30945026D01*
X113679939Y-30946858D01*
X113309797Y-31086723D01*
X113304370Y-31089072D01*
X112949025Y-31263153D01*
X112943845Y-31266001D01*
X112606471Y-31472744D01*
X112601551Y-31476088D01*
X112285150Y-31713649D01*
X112280572Y-31717436D01*
X112187199Y-31802398D01*
X112178939Y-31815964D01*
X37820847Y-31815964D01*
X37823675Y-31810785D01*
X37823582Y-31809476D01*
X37819112Y-31802640D01*
X37816737Y-31800546D01*
X37507947Y-31553159D01*
X37503144Y-31549669D01*
X37172440Y-31332436D01*
X37167323Y-31329411D01*
X36817647Y-31144267D01*
X36812288Y-31141745D01*
X36446716Y-30990320D01*
X36441151Y-30988316D01*
X36062960Y-30871970D01*
X36057212Y-30870494D01*
X35669766Y-30790257D01*
X35663895Y-30789327D01*
X35270629Y-30745911D01*
X35264679Y-30745537D01*
X34869073Y-30739322D01*
X34863147Y-30739507D01*
X34468674Y-30770554D01*
X34462811Y-30771295D01*
X34073028Y-30839323D01*
X34067215Y-30840622D01*
X33685578Y-30945026D01*
X33679939Y-30946858D01*
X33309797Y-31086723D01*
X33304370Y-31089072D01*
X32949025Y-31263153D01*
X32943845Y-31266001D01*
X32606471Y-31472744D01*
X32601551Y-31476088D01*
X32285150Y-31713649D01*
X32280572Y-31717436D01*
X32187199Y-31802398D01*
X32178939Y-31815964D01*
X25508500Y-31815964D01*
X25508500Y-25634500D01*
X25528502Y-25566379D01*
X25582158Y-25519886D01*
X25634500Y-25508500D01*
X124365500Y-25508500D01*
X124433621Y-25528502D01*
G37*
%TD.AperFunction*%
%TD*%
M02*
