%TF.GenerationSoftware,KiCad,Pcbnew,6.0.11-2627ca5db0~126~ubuntu22.04.1*%
%TF.CreationDate,2023-04-10T22:11:35+02:00*%
%TF.ProjectId,Slicor_carte_commande,536c6963-6f72-45f6-9361-7274655f636f,rev?*%
%TF.SameCoordinates,Original*%
%TF.FileFunction,Soldermask,Top*%
%TF.FilePolarity,Negative*%
%FSLAX46Y46*%
G04 Gerber Fmt 4.6, Leading zero omitted, Abs format (unit mm)*
G04 Created by KiCad (PCBNEW 6.0.11-2627ca5db0~126~ubuntu22.04.1) date 2023-04-10 22:11:35*
%MOMM*%
%LPD*%
G01*
G04 APERTURE LIST*
G04 Aperture macros list*
%AMRoundRect*
0 Rectangle with rounded corners*
0 $1 Rounding radius*
0 $2 $3 $4 $5 $6 $7 $8 $9 X,Y pos of 4 corners*
0 Add a 4 corners polygon primitive as box body*
4,1,4,$2,$3,$4,$5,$6,$7,$8,$9,$2,$3,0*
0 Add four circle primitives for the rounded corners*
1,1,$1+$1,$2,$3*
1,1,$1+$1,$4,$5*
1,1,$1+$1,$6,$7*
1,1,$1+$1,$8,$9*
0 Add four rect primitives between the rounded corners*
20,1,$1+$1,$2,$3,$4,$5,0*
20,1,$1+$1,$4,$5,$6,$7,0*
20,1,$1+$1,$6,$7,$8,$9,0*
20,1,$1+$1,$8,$9,$2,$3,0*%
G04 Aperture macros list end*
%ADD10R,1.700000X1.700000*%
%ADD11O,1.700000X1.700000*%
%ADD12R,1.100000X4.600000*%
%ADD13R,10.800000X9.400000*%
%ADD14RoundRect,0.250000X0.750000X-0.600000X0.750000X0.600000X-0.750000X0.600000X-0.750000X-0.600000X0*%
%ADD15O,2.000000X1.700000*%
%ADD16RoundRect,0.250001X-0.799999X2.049999X-0.799999X-2.049999X0.799999X-2.049999X0.799999X2.049999X0*%
%ADD17RoundRect,0.150000X-0.150000X0.512500X-0.150000X-0.512500X0.150000X-0.512500X0.150000X0.512500X0*%
%ADD18RoundRect,0.250000X-0.600000X-0.750000X0.600000X-0.750000X0.600000X0.750000X-0.600000X0.750000X0*%
%ADD19O,1.700000X2.000000*%
%ADD20RoundRect,0.140000X-0.170000X0.140000X-0.170000X-0.140000X0.170000X-0.140000X0.170000X0.140000X0*%
%ADD21RoundRect,0.250000X0.725000X-0.600000X0.725000X0.600000X-0.725000X0.600000X-0.725000X-0.600000X0*%
%ADD22O,1.950000X1.700000*%
%ADD23RoundRect,0.250000X-0.725000X0.600000X-0.725000X-0.600000X0.725000X-0.600000X0.725000X0.600000X0*%
%ADD24RoundRect,0.250000X-0.312500X-0.625000X0.312500X-0.625000X0.312500X0.625000X-0.312500X0.625000X0*%
%ADD25R,2.100000X1.400000*%
%ADD26R,0.550000X1.600000*%
%ADD27R,1.600000X0.550000*%
%ADD28RoundRect,0.250000X-0.625000X0.312500X-0.625000X-0.312500X0.625000X-0.312500X0.625000X0.312500X0*%
%ADD29R,1.500000X2.200000*%
%ADD30R,3.000000X3.000000*%
%ADD31C,3.000000*%
%ADD32R,1.500000X1.500000*%
%ADD33C,7.500000*%
%ADD34RoundRect,0.243750X0.243750X0.456250X-0.243750X0.456250X-0.243750X-0.456250X0.243750X-0.456250X0*%
%ADD35RoundRect,0.250000X0.312500X0.625000X-0.312500X0.625000X-0.312500X-0.625000X0.312500X-0.625000X0*%
%ADD36R,1.400000X1.200000*%
G04 APERTURE END LIST*
D10*
%TO.C,J4*%
X115000000Y-101000000D03*
D11*
X115000000Y-98460000D03*
X115000000Y-95920000D03*
X115000000Y-93380000D03*
X115000000Y-90840000D03*
X115000000Y-88300000D03*
X115000000Y-85760000D03*
X115000000Y-83220000D03*
%TD*%
D12*
%TO.C,U1*%
X69375000Y-31725000D03*
X71075000Y-31725000D03*
X72775000Y-31725000D03*
D13*
X72775000Y-40875000D03*
D12*
X74475000Y-31725000D03*
X76175000Y-31725000D03*
%TD*%
D14*
%TO.C,J5*%
X35000000Y-83750000D03*
D15*
X35000000Y-81250000D03*
%TD*%
D16*
%TO.C,C2*%
X52500000Y-38100000D03*
X52500000Y-46900000D03*
%TD*%
D17*
%TO.C,Q2*%
X80600000Y-108862500D03*
X78700000Y-108862500D03*
X79650000Y-111137500D03*
%TD*%
D18*
%TO.C,J9*%
X92500000Y-117250000D03*
D19*
X95000000Y-117250000D03*
%TD*%
D20*
%TO.C,C4*%
X72175000Y-64725000D03*
X72175000Y-65685000D03*
%TD*%
D21*
%TO.C,J2*%
X115000000Y-71050000D03*
D22*
X115000000Y-68550000D03*
X115000000Y-66050000D03*
X115000000Y-63550000D03*
%TD*%
D23*
%TO.C,J3*%
X35000000Y-48050000D03*
D22*
X35000000Y-50550000D03*
X35000000Y-53050000D03*
X35000000Y-55550000D03*
%TD*%
D24*
%TO.C,R2*%
X43537500Y-98170000D03*
X46462500Y-98170000D03*
%TD*%
D25*
%TO.C,D5*%
X62500000Y-40600000D03*
X62500000Y-45000000D03*
%TD*%
D24*
%TO.C,R6*%
X68000000Y-51510000D03*
X70925000Y-51510000D03*
%TD*%
D26*
%TO.C,uC1*%
X80300000Y-73250000D03*
X79500000Y-73250000D03*
X78700000Y-73250000D03*
X77900000Y-73250000D03*
X77100000Y-73250000D03*
X76300000Y-73250000D03*
X75500000Y-73250000D03*
X74700000Y-73250000D03*
D27*
X73250000Y-74700000D03*
X73250000Y-75500000D03*
X73250000Y-76300000D03*
X73250000Y-77100000D03*
X73250000Y-77900000D03*
X73250000Y-78700000D03*
X73250000Y-79500000D03*
X73250000Y-80300000D03*
D26*
X74700000Y-81750000D03*
X75500000Y-81750000D03*
X76300000Y-81750000D03*
X77100000Y-81750000D03*
X77900000Y-81750000D03*
X78700000Y-81750000D03*
X79500000Y-81750000D03*
X80300000Y-81750000D03*
D27*
X81750000Y-80300000D03*
X81750000Y-79500000D03*
X81750000Y-78700000D03*
X81750000Y-77900000D03*
X81750000Y-77100000D03*
X81750000Y-76300000D03*
X81750000Y-75500000D03*
X81750000Y-74700000D03*
%TD*%
D28*
%TO.C,R3*%
X63500000Y-103075000D03*
X63500000Y-106000000D03*
%TD*%
D29*
%TO.C,L1*%
X59390000Y-30260000D03*
X52990000Y-30260000D03*
%TD*%
D28*
%TO.C,R5*%
X96830000Y-103075000D03*
X96830000Y-106000000D03*
%TD*%
D23*
%TO.C,J11*%
X35000000Y-62500000D03*
D22*
X35000000Y-65000000D03*
X35000000Y-67500000D03*
X35000000Y-70000000D03*
%TD*%
D30*
%TO.C,J1*%
X104960000Y-35000000D03*
D31*
X99880000Y-35000000D03*
%TD*%
D20*
%TO.C,C3*%
X77675000Y-64745000D03*
X77675000Y-65705000D03*
%TD*%
D18*
%TO.C,J8*%
X75900000Y-117250000D03*
D19*
X78400000Y-117250000D03*
%TD*%
D32*
%TO.C,TP4*%
X103450000Y-106000000D03*
%TD*%
D33*
%TO.C,H1*%
X35000000Y-35000000D03*
%TD*%
D28*
%TO.C,R4*%
X80230000Y-103075000D03*
X80230000Y-106000000D03*
%TD*%
D16*
%TO.C,C1*%
X87500000Y-30600000D03*
X87500000Y-39400000D03*
%TD*%
D14*
%TO.C,J10*%
X115000000Y-50000000D03*
D15*
X115000000Y-47500000D03*
%TD*%
D18*
%TO.C,J7*%
X58950000Y-117250000D03*
D19*
X61450000Y-117250000D03*
%TD*%
D32*
%TO.C,TP2*%
X70500000Y-106000000D03*
%TD*%
D34*
%TO.C,D1*%
X75812500Y-51000000D03*
X73937500Y-51000000D03*
%TD*%
D33*
%TO.C,H4*%
X115000000Y-115000000D03*
%TD*%
D14*
%TO.C,J6*%
X35000000Y-102500000D03*
D15*
X35000000Y-100000000D03*
%TD*%
D35*
%TO.C,R13*%
X100500000Y-87500000D03*
X97575000Y-87500000D03*
%TD*%
D33*
%TO.C,H3*%
X35000000Y-115000000D03*
%TD*%
D36*
%TO.C,Y1*%
X76025000Y-66575000D03*
X73825000Y-66575000D03*
X73825000Y-64875000D03*
X76025000Y-64875000D03*
%TD*%
D17*
%TO.C,Q1*%
X63950000Y-108862500D03*
X62050000Y-108862500D03*
X63000000Y-111137500D03*
%TD*%
D33*
%TO.C,H2*%
X115000000Y-35000000D03*
%TD*%
D24*
%TO.C,R1*%
X43537500Y-79420000D03*
X46462500Y-79420000D03*
%TD*%
D17*
%TO.C,Q3*%
X97200000Y-108862500D03*
X95300000Y-108862500D03*
X96250000Y-111137500D03*
%TD*%
D32*
%TO.C,TP1*%
X76000000Y-62000000D03*
%TD*%
%TO.C,TP3*%
X87000000Y-106000000D03*
%TD*%
M02*
